<?xml version="1.0" encoding="utf-8"?>
<svg xmlns="http://www.w3.org/2000/svg" viewBox="0 0 800 400" width="800" height="400" style="background-color:#ffffff">
<defs><marker id="arrow" markerWidth="6" markerHeight="6" refX="5" refY="3" orient="auto"><path d="M 0 0 L 6 3 L 0 6 z" fill="#2563eb"/></marker></defs>
<rect width="800" height="400" fill="#ffffff"/>
<g transform="translate(0,-32)"><rect x="80" y="110" width="200" height="80" rx="8" fill="#ffffff" stroke="#e5e7eb" stroke-width="2"/><text x="180" y="145" font-family="'Inter',sans-serif" font-weight="700" font-size="16" fill="#37352f" text-anchor="middle">Traditional EOA</text><text x="180" y="170" font-family="'Inter',sans-serif" font-weight="500" font-size="13" fill="#787774" text-anchor="middle">1 Key → 1 Account</text><text x="400" y="160" font-family="'Inter',sans-serif" font-weight="800" font-size="30" fill="#2563eb" text-anchor="middle">→</text><rect x="520" y="110" width="200" height="80" rx="8" fill="#ffffff" stroke="#2563eb" stroke-width="3"/><text x="620" y="145" font-family="'Inter',sans-serif" font-weight="700" font-size="16" fill="#2563eb" text-anchor="middle">Smart Account</text><text x="620" y="170" font-family="'Inter',sans-serif" font-weight="500" font-size="13" fill="#787774" text-anchor="middle">Programmable Rules</text><rect x="100" y="240" width="120" height="40" rx="8" fill="#ffffff" stroke="#2563eb" stroke-width="2"/><text x="160" y="267" font-family="'Inter',sans-serif" font-weight="600" font-size="14" fill="#2563eb" text-anchor="middle">Multisig</text><rect x="250" y="240" width="130" height="40" rx="8" fill="#ffffff" stroke="#2563eb" stroke-width="2"/><text x="315" y="267" font-family="'Inter',sans-serif" font-weight="600" font-size="14" fill="#2563eb" text-anchor="middle">Gas Sponsor</text><rect x="410" y="240" width="120" height="40" rx="8" fill="#ffffff" stroke="#2563eb" stroke-width="2"/><text x="470" y="267" font-family="'Inter',sans-serif" font-weight="600" font-size="14" fill="#2563eb" text-anchor="middle">Recovery</text><rect x="560" y="240" width="140" height="40" rx="8" fill="#ffffff" stroke="#2563eb" stroke-width="2"/><text x="630" y="267" font-family="'Inter',sans-serif" font-weight="600" font-size="14" fill="#2563eb" text-anchor="middle">Session Keys</text><text x="400" y="330" font-family="'Inter',sans-serif" font-weight="600" font-size="20" fill="#37352f" text-anchor="middle">Programmable wallet logic</text></g>
<rect x="0" y="360" width="800" height="40" fill="#ffffff" opacity="0.9"/>
<text x="770" y="385" font-family="'Inter',sans-serif" font-weight="500" font-size="12" fill="#787774" text-anchor="end">@vedangvatsa</text>
</svg>