<?xml version="1.0" encoding="utf-8"?>
<svg xmlns="http://www.w3.org/2000/svg" viewBox="0 0 800 400" width="800" height="400" style="background-color:#ffffff">
  <defs>
    <marker id="arrow" markerWidth="6" markerHeight="6" refX="5" refY="3" orient="auto"><path d="M 0 0 L 6 3 L 0 6 z" fill="#9333ea"/></marker>
    <marker id="arrowGray" markerWidth="6" markerHeight="6" refX="5" refY="3" orient="auto"><path d="M 0 0 L 6 3 L 0 6 z" fill="#787774"/></marker>
  </defs>
  <rect width="800" height="400" fill="#ffffff"/>
  <g transform="translate(0,-37)"><line x1="100" y1="280" x2="300" y2="280" stroke="#e5e7eb" stroke-width="2"/><line x1="200" y1="340" x2="200" y2="120" stroke="#e5e7eb" stroke-width="2"/><path d="M 100 280 L 200 280 L 300 160" fill="none" stroke="#9333ea" stroke-width="3"/><text x="200" y="110" font-family="'Inter',sans-serif" font-weight="700" font-size="18" fill="#9333ea" text-anchor="middle">ReLU</text><line x1="400" y1="280" x2="600" y2="280" stroke="#e5e7eb" stroke-width="2"/><line x1="500" y1="340" x2="500" y2="120" stroke="#e5e7eb" stroke-width="2"/><path d="M 400 270 Q 450 270 500 200 Q 550 130 600 130" fill="none" stroke="#2563eb" stroke-width="3"/><text x="500" y="110" font-family="'Inter',sans-serif" font-weight="700" font-size="18" fill="#2563eb" text-anchor="middle">Sigmoid</text><text x="400" y="340" font-family="'Inter',sans-serif" font-weight="600" font-size="20" fill="#37352f" text-anchor="middle">Non-linearity enables complex patterns</text></g>
  <rect x="0" y="360" width="800" height="40" fill="#ffffff" opacity="0.9"/>
  <text x="770" y="385" font-family="'Inter',sans-serif" font-weight="500" font-size="12" fill="#787774" text-anchor="end">@vedangvatsa</text>
</svg>