<?xml version="1.0" encoding="utf-8"?>
<svg xmlns="http://www.w3.org/2000/svg" viewBox="0 0 800 400" width="800" height="400" style="background-color:#ffffff">
  <defs>
    <marker id="arrow" markerWidth="6" markerHeight="6" refX="5" refY="3" orient="auto">
      <path d="M 0 0 L 6 3 L 0 6 z" fill="#9333ea"/>
    </marker>
  </defs>
  <rect width="800" height="400" fill="#ffffff"/>
  <g transform="translate(0,-17)"><circle cx="400" cy="170" r="60" fill="#ffffff" stroke="#9333ea" stroke-width="4"/><circle cx="400" cy="170" r="50" fill="none" stroke="#9333ea" stroke-width="2" stroke-dasharray="6 6"/><text x="400" y="182" font-family="'Inter',sans-serif" font-weight="800" font-size="34" fill="#9333ea" text-anchor="middle">AGI</text><rect x="120" y="80" width="120" height="50" rx="8" fill="#ffffff" stroke="#e5e7eb" stroke-width="2"/><text x="180" y="112" font-family="'Inter',sans-serif" font-weight="600" font-size="20" fill="#37352f" text-anchor="middle">Reasoning</text><path d="M 240 105 L 340 150" fill="none" stroke="#e5e7eb" stroke-width="2" marker-end="url(#arrow)"/><rect x="120" y="210" width="120" height="50" rx="8" fill="#ffffff" stroke="#e5e7eb" stroke-width="2"/><text x="180" y="242" font-family="'Inter',sans-serif" font-weight="600" font-size="20" fill="#37352f" text-anchor="middle">Learning</text><path d="M 240 235 L 340 190" fill="none" stroke="#e5e7eb" stroke-width="2" marker-end="url(#arrow)"/><rect x="560" y="80" width="120" height="50" rx="8" fill="#ffffff" stroke="#e5e7eb" stroke-width="2"/><text x="620" y="112" font-family="'Inter',sans-serif" font-weight="600" font-size="20" fill="#37352f" text-anchor="middle">Vision</text><path d="M 460 150 L 560 105" fill="none" stroke="#e5e7eb" stroke-width="2" marker-end="url(#arrow)"/><rect x="560" y="210" width="120" height="50" rx="8" fill="#ffffff" stroke="#e5e7eb" stroke-width="2"/><text x="620" y="242" font-family="'Inter',sans-serif" font-weight="600" font-size="20" fill="#37352f" text-anchor="middle">Speech</text><path d="M 460 190 L 560 235" fill="none" stroke="#e5e7eb" stroke-width="2" marker-end="url(#arrow)"/><text x="400" y="330" font-family="'Inter',sans-serif" font-weight="600" font-size="18" fill="#37352f" text-anchor="middle">Human-level intelligence across all domains</text></g>
  <rect x="0" y="360" width="800" height="40" fill="#ffffff" opacity="0.9"/>
  <text x="770" y="385" font-family="'Inter',sans-serif" font-weight="500" font-size="12" fill="#787774" text-anchor="end">@vedangvatsa</text>
</svg>