<?xml version="1.0" encoding="utf-8"?>
<svg xmlns="http://www.w3.org/2000/svg" viewBox="0 0 800 400" width="800" height="400" style="background-color:#ffffff">
  <defs>
    <marker id="arrow" markerWidth="6" markerHeight="6" refX="5" refY="3" orient="auto">
      <path d="M 0 0 L 6 3 L 0 6 z" fill="#9333ea"/>
    </marker>
  </defs>
  <rect width="800" height="400" fill="#ffffff"/>
  <g><text x="400" y="70" font-family="'Inter',sans-serif" font-weight="700" font-size="32" fill="#37352f" text-anchor="middle">Artificial General Intelligence</text><circle cx="400" cy="200" r="60" fill="#ffffff" stroke="#9333ea" stroke-width="4"/><circle cx="400" cy="200" r="50" fill="none" stroke="#9333ea" stroke-width="2" stroke-dasharray="6 6"/><text x="400" y="210" font-family="'Inter',sans-serif" font-weight="800" font-size="34" fill="#9333ea" text-anchor="middle">AGI</text><rect x="120" y="110" width="120" height="50" rx="8" fill="#ffffff" stroke="#e5e7eb" stroke-width="2"/><text x="180" y="142" font-family="'Inter',sans-serif" font-weight="600" font-size="20" fill="#37352f" text-anchor="middle">Reasoning</text><path d="M 240 135 L 340 180" fill="none" stroke="#e5e7eb" stroke-width="2" marker-end="url(#arrow)"/><rect x="120" y="240" width="120" height="50" rx="8" fill="#ffffff" stroke="#e5e7eb" stroke-width="2"/><text x="180" y="272" font-family="'Inter',sans-serif" font-weight="600" font-size="20" fill="#37352f" text-anchor="middle">Learning</text><path d="M 240 265 L 340 220" fill="none" stroke="#e5e7eb" stroke-width="2" marker-end="url(#arrow)"/><rect x="560" y="110" width="120" height="50" rx="8" fill="#ffffff" stroke="#e5e7eb" stroke-width="2"/><text x="620" y="142" font-family="'Inter',sans-serif" font-weight="600" font-size="20" fill="#37352f" text-anchor="middle">Vision</text><path d="M 460 180 L 560 135" fill="none" stroke="#e5e7eb" stroke-width="2" marker-end="url(#arrow)"/><rect x="560" y="240" width="120" height="50" rx="8" fill="#ffffff" stroke="#e5e7eb" stroke-width="2"/><text x="620" y="272" font-family="'Inter',sans-serif" font-weight="600" font-size="20" fill="#37352f" text-anchor="middle">Speech</text><path d="M 460 220 L 560 265" fill="none" stroke="#e5e7eb" stroke-width="2" marker-end="url(#arrow)"/></g>
  <rect x="0" y="360" width="800" height="40" fill="#ffffff" opacity="0.9"/>
  <text x="770" y="385" font-family="'Inter',sans-serif" font-weight="500" font-size="12" fill="#787774" text-anchor="end">@vedangvatsa</text>
</svg>