<?xml version="1.0" encoding="utf-8"?>
<svg xmlns="http://www.w3.org/2000/svg" viewBox="0 0 800 400" width="800" height="400" style="background-color:#ffffff">
  <defs>
    <pattern id="grid" width="30" height="30" patternUnits="userSpaceOnUse">
      <circle cx="2" cy="2" r="1.5" fill="#52525b" opacity="0.15"/>
    </pattern>
    <marker id="arrow" markerWidth="12" markerHeight="12" refX="10" refY="6" orient="auto">
      <path d="M 0 0 L 12 6 L 0 12 z" fill="#9333ea"/>
    </marker>
  </defs>
  <rect width="800" height="400" fill="#ffffff"/>
  <rect width="800" height="400" fill="url(#grid)"/>
  
  <g>
    <circle cx="65" cy="130" r="20" fill="#9333ea"/>
<text x="65" y="136" font-family="'Inter',sans-serif" font-weight="800" font-size="18" fill="#ffffff" text-anchor="middle">1</text>
<rect x="40" y="70" width="340" height="120" rx="8" fill="#ffffff" stroke="#e5e7eb" stroke-width="2"/>
<rect x="40" y="70" width="340" height="120" rx="8" fill="rgba(147,51,234,0.06)"/>
<text x="100" y="115" font-family="'Inter',sans-serif" font-weight="500" font-size="15" fill="#52525b" text-anchor="start">AI safety studies how to design,</text>
<text x="100" y="135.25" font-family="'Inter',sans-serif" font-weight="500" font-size="15" fill="#52525b" text-anchor="start">build, test, and operate AI</text>
<text x="100" y="155.5" font-family="'Inter',sans-serif" font-weight="500" font-size="15" fill="#52525b" text-anchor="start">systems</text>
<circle cx="445" cy="130" r="20" fill="#9333ea"/>
<text x="445" y="136" font-family="'Inter',sans-serif" font-weight="800" font-size="18" fill="#ffffff" text-anchor="middle">2</text>
<rect x="420" y="70" width="340" height="120" rx="8" fill="#ffffff" stroke="#e5e7eb" stroke-width="2"/>
<rect x="420" y="70" width="340" height="120" rx="8" fill="rgba(147,51,234,0.06)"/>
<text x="480" y="125.125" font-family="'Inter',sans-serif" font-weight="500" font-size="15" fill="#52525b" text-anchor="start">So they behave as intended and</text>
<text x="480" y="145.375" font-family="'Inter',sans-serif" font-weight="500" font-size="15" fill="#52525b" text-anchor="start">do not cause unintended harm</text>
<circle cx="65" cy="280" r="20" fill="#9333ea"/>
<text x="65" y="286" font-family="'Inter',sans-serif" font-weight="800" font-size="18" fill="#ffffff" text-anchor="middle">3</text>
<rect x="40" y="220" width="340" height="120" rx="8" fill="#ffffff" stroke="#e5e7eb" stroke-width="2"/>
<rect x="40" y="220" width="340" height="120" rx="8" fill="rgba(147,51,234,0.06)"/>
<text x="100" y="265" font-family="'Inter',sans-serif" font-weight="500" font-size="15" fill="#52525b" text-anchor="start">It covers everything from bugs</text>
<text x="100" y="285.25" font-family="'Inter',sans-serif" font-weight="500" font-size="15" fill="#52525b" text-anchor="start">in a self-driving car's</text>
<text x="100" y="305.5" font-family="'Inter',sans-serif" font-weight="500" font-size="15" fill="#52525b" text-anchor="start">perception pipeline</text>
<circle cx="445" cy="280" r="20" fill="#9333ea"/>
<text x="445" y="286" font-family="'Inter',sans-serif" font-weight="800" font-size="18" fill="#ffffff" text-anchor="middle">4</text>
<rect x="420" y="220" width="340" height="120" rx="8" fill="#ffffff" stroke="#e5e7eb" stroke-width="2"/>
<rect x="420" y="220" width="340" height="120" rx="8" fill="rgba(147,51,234,0.06)"/>
<text x="480" y="265" font-family="'Inter',sans-serif" font-weight="500" font-size="15" fill="#52525b" text-anchor="start">To questions about how a</text>
<text x="480" y="285.25" font-family="'Inter',sans-serif" font-weight="500" font-size="15" fill="#52525b" text-anchor="start">language model might influence</text>
<text x="480" y="305.5" font-family="'Inter',sans-serif" font-weight="500" font-size="15" fill="#52525b" text-anchor="start">public opinion</text>

  </g>
  
  <rect x="0" y="360" width="800" height="40" fill="#ffffff" opacity="0.9"/>
  <text x="770" y="385" font-family="'Inter',sans-serif" font-weight="600" font-size="12" fill="#52525b" text-anchor="end">@vedangvatsa</text>
</svg>