<?xml version="1.0" encoding="utf-8"?>
<svg xmlns="http://www.w3.org/2000/svg" viewBox="0 0 800 420" width="800" height="420" style="background-color:#ffffff">
  <defs>
    <pattern id="grid" width="30" height="30" patternUnits="userSpaceOnUse">
      <circle cx="2" cy="2" r="1.5" fill="#52525b" opacity="0.15"/>
    </pattern>
    <marker id="arrow" markerWidth="10" markerHeight="10" refX="8" refY="5" orient="auto">
      <path d="M 0 0 L 10 5 L 0 10 z" fill="#2563eb"/>
    </marker>
  </defs>
  <rect width="800" height="420" fill="#ffffff"/>
  <rect width="800" height="420" fill="url(#grid)"/>
  
  <g transform="translate(0, 80)">
    <circle cx="80" cy="80" r="15" fill="#2563eb"/>
<text x="80" y="85" font-family="'Inter',sans-serif" font-weight="800" font-size="14" fill="#ffffff" text-anchor="middle">1</text>
<rect x="60" y="35" width="320" height="90" rx="6" fill="#ffffff" stroke="#e5e7eb" stroke-width="1.5"/>
<rect x="60" y="35" width="320" height="90" rx="6" fill="rgba(37,99,235,0.06)"/>
<text x="105" y="75.77499999999999" font-family="'Inter',sans-serif" font-weight="500" font-size="13" fill="#52525b" text-anchor="start">An airdrop is a token</text>
<text x="105" y="93.32499999999999" font-family="'Inter',sans-serif" font-weight="500" font-size="13" fill="#52525b" text-anchor="start">distribution method</text>
<circle cx="440" cy="80" r="15" fill="#2563eb"/>
<text x="440" y="85" font-family="'Inter',sans-serif" font-weight="800" font-size="14" fill="#ffffff" text-anchor="middle">2</text>
<rect x="420" y="35" width="320" height="90" rx="6" fill="#ffffff" stroke="#e5e7eb" stroke-width="1.5"/>
<rect x="420" y="35" width="320" height="90" rx="6" fill="rgba(37,99,235,0.06)"/>
<text x="465" y="75.77499999999999" font-family="'Inter',sans-serif" font-weight="500" font-size="13" fill="#52525b" text-anchor="start">Where a project sends free</text>
<text x="465" y="93.32499999999999" font-family="'Inter',sans-serif" font-weight="500" font-size="13" fill="#52525b" text-anchor="start">tokens directly</text>
<circle cx="80" cy="200" r="15" fill="#2563eb"/>
<text x="80" y="205" font-family="'Inter',sans-serif" font-weight="800" font-size="14" fill="#ffffff" text-anchor="middle">3</text>
<rect x="60" y="155" width="320" height="90" rx="6" fill="#ffffff" stroke="#e5e7eb" stroke-width="1.5"/>
<rect x="60" y="155" width="320" height="90" rx="6" fill="rgba(37,99,235,0.06)"/>
<text x="105" y="178.22500000000002" font-family="'Inter',sans-serif" font-weight="500" font-size="13" fill="#52525b" text-anchor="start">To wallet addresses, typically</text>
<text x="105" y="195.77500000000003" font-family="'Inter',sans-serif" font-weight="500" font-size="13" fill="#52525b" text-anchor="start">as a reward for early users,</text>
<text x="105" y="213.32500000000002" font-family="'Inter',sans-serif" font-weight="500" font-size="13" fill="#52525b" text-anchor="start">community members, or holders of</text>
<text x="105" y="230.87500000000003" font-family="'Inter',sans-serif" font-weight="500" font-size="13" fill="#52525b" text-anchor="start">a related token</text>
<circle cx="440" cy="200" r="15" fill="#2563eb"/>
<text x="440" y="205" font-family="'Inter',sans-serif" font-weight="800" font-size="14" fill="#ffffff" text-anchor="middle">4</text>
<rect x="420" y="155" width="320" height="90" rx="6" fill="#ffffff" stroke="#e5e7eb" stroke-width="1.5"/>
<rect x="420" y="155" width="320" height="90" rx="6" fill="rgba(37,99,235,0.06)"/>
<text x="465" y="204.55" font-family="'Inter',sans-serif" font-weight="500" font-size="13" fill="#52525b" text-anchor="start">Airdrops serve multiple purposes</text>

  </g>
  
  <rect x="0" y="380" width="800" height="40" fill="#ffffff" opacity="0.9"/>
  <text x="770" y="405" font-family="'Inter',sans-serif" font-weight="600" font-size="11" fill="#52525b" text-anchor="end">veda.ng</text>
</svg>