<?xml version="1.0" encoding="utf-8"?>
<svg xmlns="http://www.w3.org/2000/svg" viewBox="0 0 800 400" width="800" height="400" style="background-color:#ffffff">
  <defs>
    <marker id="arrow" markerWidth="6" markerHeight="6" refX="5" refY="3" orient="auto">
      <path d="M 0 0 L 6 3 L 0 6 z" fill="#2563eb"/>
    </marker>
    <marker id="arrowGray" markerWidth="6" markerHeight="6" refX="5" refY="3" orient="auto">
      <path d="M 0 0 L 6 3 L 0 6 z" fill="#787774"/>
    </marker>
  </defs>
  <rect width="800" height="400" fill="#ffffff"/>
  <g transform="translate(0,-27)"><circle cx="200" cy="130" r="16" fill="#2563eb" fill-opacity="0.15" stroke="#2563eb" stroke-width="2"/><line x1="200" y1="150" x2="200.11692372785552" y2="180" stroke="#2563eb" stroke-width="1" stroke-dasharray="3 3"/><circle cx="340" cy="100" r="16" fill="#2563eb" fill-opacity="0.15" stroke="#2563eb" stroke-width="2"/><line x1="340" y1="120" x2="347.63287434528485" y2="150" stroke="#2563eb" stroke-width="1" stroke-dasharray="3 3"/><circle cx="460" cy="120" r="16" fill="#2563eb" fill-opacity="0.15" stroke="#2563eb" stroke-width="2"/><line x1="460" y1="140" x2="464.087369037917" y2="170" stroke="#2563eb" stroke-width="1" stroke-dasharray="3 3"/><circle cx="600" cy="110" r="16" fill="#2563eb" fill-opacity="0.15" stroke="#2563eb" stroke-width="2"/><line x1="600" y1="130" x2="609.5520298150278" y2="160" stroke="#2563eb" stroke-width="1" stroke-dasharray="3 3"/><circle cx="270" cy="160" r="16" fill="#2563eb" fill-opacity="0.15" stroke="#2563eb" stroke-width="2"/><line x1="270" y1="180" x2="262.6426897922234" y2="210" stroke="#2563eb" stroke-width="1" stroke-dasharray="3 3"/><circle cx="530" cy="150" r="16" fill="#2563eb" fill-opacity="0.15" stroke="#2563eb" stroke-width="2"/><line x1="530" y1="170" x2="531.1126550069492" y2="200" stroke="#2563eb" stroke-width="1" stroke-dasharray="3 3"/><rect x="150" y="220" width="100" height="60" rx="8" fill="#ffffff" stroke="#e5e7eb" stroke-width="2"/><text x="200" y="256" font-family="'Inter',sans-serif" font-weight="600" font-size="16" fill="#37352f" text-anchor="middle">User A</text><rect x="350" y="220" width="100" height="60" rx="8" fill="#ffffff" stroke="#e5e7eb" stroke-width="2"/><text x="400" y="256" font-family="'Inter',sans-serif" font-weight="600" font-size="16" fill="#37352f" text-anchor="middle">User B</text><rect x="550" y="220" width="100" height="60" rx="8" fill="#ffffff" stroke="#e5e7eb" stroke-width="2"/><text x="600" y="256" font-family="'Inter',sans-serif" font-weight="600" font-size="16" fill="#37352f" text-anchor="middle">User C</text><text x="400" y="330" font-family="'Inter',sans-serif" font-weight="600" font-size="20" fill="#37352f" text-anchor="middle">Free token distribution to wallets</text></g>
  <rect x="0" y="360" width="800" height="40" fill="#ffffff" opacity="0.9"/>
  <text x="770" y="385" font-family="'Inter',sans-serif" font-weight="500" font-size="12" fill="#787774" text-anchor="end">@vedangvatsa</text>
</svg>