<?xml version="1.0" encoding="utf-8"?>
<svg xmlns="http://www.w3.org/2000/svg" viewBox="0 0 800 400" width="800" height="400" style="background-color:#ffffff">
  <defs>
    <marker id="arrow" markerWidth="6" markerHeight="6" refX="5" refY="3" orient="auto">
      <path d="M 0 0 L 6 3 L 0 6 z" fill="#9333ea"/>
    </marker>
  </defs>
  <rect width="800" height="400" fill="#ffffff"/>
  <g><text x="400" y="70" font-family="'Inter',sans-serif" font-weight="700" font-size="32" fill="#37352f" text-anchor="middle">Algorithmic Bias</text><path d="M 120 180 C 120 170, 200 170, 200 180 C 200 190, 120 190, 120 180 Z" fill="none" stroke="#e5e7eb" stroke-width="2"/><path d="M 120 180 L 120 220 C 120 230, 200 230, 200 220 L 200 180" fill="none" stroke="#e5e7eb" stroke-width="2"/><path d="M 120 200 C 120 210, 200 210, 200 200" fill="none" stroke="#e5e7eb" stroke-width="2"/><circle cx="185" cy="210" r="6" fill="#ef4444"/><text x="160" y="270" font-family="'Inter',sans-serif" font-weight="600" font-size="20" fill="#37352f" text-anchor="middle">Biased Data</text><line x1="220" y1="200" x2="320" y2="200" stroke="#9333ea" stroke-width="2" marker-end="url(#arrow)"/><rect x="340" y="140" width="120" height="120" rx="16" fill="#ffffff" stroke="#9333ea" stroke-width="3" stroke-dasharray="6 6"/><text x="400" y="210" font-family="'Inter',sans-serif" font-weight="700" font-size="32" fill="#9333ea" text-anchor="middle">ƒ ( x )</text><text x="400" y="300" font-family="'Inter',sans-serif" font-weight="600" font-size="20" fill="#37352f" text-anchor="middle">AI Model</text><path d="M 480 200 L 530 200 L 560 140 L 590 140" fill="none" stroke="#9333ea" stroke-width="2" marker-end="url(#arrow)"/><path d="M 480 200 L 530 200 L 560 260 L 590 260" fill="none" stroke="#9333ea" stroke-width="2" marker-end="url(#arrow)"/><rect x="610" y="110" width="140" height="60" rx="8" fill="#ffffff" stroke="#e5e7eb" stroke-width="2"/><circle cx="630" cy="140" r="12" fill="#10b981" fill-opacity="0.1" stroke="#10b981" stroke-width="2"/><path d="M 625 142 L 629 146 L 636 136" fill="none" stroke="#10b981" stroke-width="2"/><text x="690" y="146" font-family="'Inter',sans-serif" font-weight="600" font-size="18" fill="#37352f" text-anchor="middle">Favored</text><rect x="610" y="230" width="140" height="60" rx="8" fill="#ffffff" stroke="#e5e7eb" stroke-width="2"/><circle cx="630" cy="260" r="12" fill="#ef4444" fill-opacity="0.1" stroke="#ef4444" stroke-width="2"/><path d="M 625 255 L 635 265 M 635 255 L 625 265" fill="none" stroke="#ef4444" stroke-width="2"/><text x="690" y="266" font-family="'Inter',sans-serif" font-weight="600" font-size="18" fill="#37352f" text-anchor="middle">Penalized</text></g>
  <rect x="0" y="360" width="800" height="40" fill="#ffffff" opacity="0.9"/>
  <text x="770" y="385" font-family="'Inter',sans-serif" font-weight="500" font-size="12" fill="#787774" text-anchor="end">@vedangvatsa</text>
</svg>