<?xml version="1.0" encoding="utf-8"?>
<svg xmlns="http://www.w3.org/2000/svg" viewBox="0 0 800 400" width="800" height="400" style="background-color:#ffffff">
  <defs>
    <marker id="arrow" markerWidth="6" markerHeight="6" refX="5" refY="3" orient="auto">
      <path d="M 0 0 L 6 3 L 0 6 z" fill="#9333ea"/>
    </marker>
  </defs>
  <rect width="800" height="400" fill="#ffffff"/>
  <g><rect x="100" y="160" width="120" height="80" rx="6" fill="#ffffff" stroke="#e5e7eb" stroke-width="1.5"/><path d="M 120 180 L 140 180 M 120 190 L 170 190 M 120 200 L 150 200 M 120 210 L 160 210" stroke="#787774" stroke-width="2"/><circle cx="200" cy="180" r="4" fill="#ef4444"/><text x="160" y="265" font-family="'Inter',sans-serif" font-weight="500" font-size="16" fill="#37352f" text-anchor="middle">Skewed Training Data</text><line x1="220" y1="200" x2="330" y2="200" stroke="#9333ea" stroke-width="1.5" marker-end="url(#arrow)"/><rect x="340" y="140" width="120" height="120" rx="12" fill="#ffffff" stroke="#9333ea" stroke-width="2" stroke-dasharray="4 4"/><text x="400" y="205" font-family="'Inter',sans-serif" font-weight="700" font-size="20" fill="#9333ea" text-anchor="middle">ƒ ( x )</text><text x="400" y="285" font-family="'Inter',sans-serif" font-weight="500" font-size="16" fill="#37352f" text-anchor="middle">Machine Learning</text><path d="M 460 200 L 520 200 L 550 140 L 570 140" fill="none" stroke="#9333ea" stroke-width="1.5" marker-end="url(#arrow)"/><path d="M 460 200 L 520 200 L 550 260 L 570 260" fill="none" stroke="#9333ea" stroke-width="1.5" marker-end="url(#arrow)"/><rect x="580" y="110" width="140" height="60" rx="6" fill="#ffffff" stroke="#e5e7eb" stroke-width="1.5"/><circle cx="600" cy="140" r="10" fill="#10b981" fill-opacity="0.2" stroke="#10b981" stroke-width="1.5"/><path d="M 596 142 L 599 145 L 605 137" fill="none" stroke="#10b981" stroke-width="2"/><text x="650" y="138" font-family="'Inter',sans-serif" font-weight="500" font-size="14" fill="#37352f" text-anchor="middle">Privileged</text><text x="650" y="155" font-family="'Inter',sans-serif" font-weight="400" font-size="12" fill="#787774" text-anchor="middle">Systematically Favored</text><rect x="580" y="230" width="140" height="60" rx="6" fill="#ffffff" stroke="#e5e7eb" stroke-width="1.5"/><circle cx="600" cy="260" r="10" fill="#ef4444" fill-opacity="0.2" stroke="#ef4444" stroke-width="1.5"/><path d="M 596 256 L 604 264 M 604 256 L 596 264" fill="none" stroke="#ef4444" stroke-width="1.5"/><text x="650" y="258" font-family="'Inter',sans-serif" font-weight="500" font-size="14" fill="#37352f" text-anchor="middle">Marginalized</text><text x="650" y="275" font-family="'Inter',sans-serif" font-weight="400" font-size="12" fill="#787774" text-anchor="middle">Unfairly Penalized</text><text x="400" y="60" font-family="'Inter',sans-serif" font-weight="700" font-size="28" fill="#37352f" text-anchor="middle">Algorithmic Bias</text></g>
  <rect x="0" y="360" width="800" height="40" fill="#ffffff" opacity="0.9"/>
  <text x="770" y="385" font-family="'Inter',sans-serif" font-weight="500" font-size="12" fill="#787774" text-anchor="end">@vedangvatsa</text>
</svg>