<?xml version="1.0" encoding="utf-8"?>
<svg xmlns="http://www.w3.org/2000/svg" viewBox="0 0 800 420" width="800" height="420" style="background-color:#09090b">
  <defs>
    <pattern id="grid" width="30" height="30" patternUnits="userSpaceOnUse">
      <circle cx="2" cy="2" r="1.5" fill="#a1a1aa" opacity="0.15"/>
    </pattern>
    <marker id="arrow" markerWidth="10" markerHeight="10" refX="8" refY="5" orient="auto">
      <path d="M 0 0 L 10 5 L 0 10 z" fill="#10b981"/>
    </marker>
  </defs>
  <rect width="800" height="420" fill="#09090b"/>
  <rect width="800" height="420" fill="url(#grid)"/>
  
  <text x="400" y="45" font-family="'Inter',sans-serif" font-weight="800" font-size="28" fill="#fafafa" text-anchor="middle" letter-spacing="-0.5">API (Application Programming Interface)</text>
  <text x="400" y="70" font-family="'Inter',sans-serif" font-weight="600" font-size="11" fill="#10b981" text-anchor="middle" letter-spacing="2" text-transform="uppercase">Deconstructed: Tech Concept</text>
  <line x1="200" y1="85" x2="600" y2="85" stroke="#27272a" stroke-width="1.5" opacity="0.5"/>
  
  <g transform="translate(0, 100)">
    <rect x="310" y="105" width="180" height="50" rx="25" fill="#09090b" stroke="#27272a" stroke-width="2"/>
<rect x="310" y="105" width="180" height="50" rx="25" fill="rgba(16,185,129,0.1)"/>
<text x="400" y="114" font-family="'Inter',sans-serif" font-weight="700" font-size="16" fill="#10b981" text-anchor="middle">API (Application</text>
<text x="400" y="135.6" font-family="'Inter',sans-serif" font-weight="700" font-size="16" fill="#10b981" text-anchor="middle">Programming</text>
<text x="400" y="157.20000000000002" font-family="'Inter',sans-serif" font-weight="700" font-size="16" fill="#10b981" text-anchor="middle">Interface)</text>
<path d="M 400 130 L 170 130" fill="none" stroke="#27272a" stroke-width="2" stroke-dasharray="4 4"/>
<rect x="75" y="90" width="190" height="80" rx="8" fill="#09090b" stroke="#27272a" stroke-width="2"/>
<rect x="75" y="90" width="190" height="80" rx="8" fill="rgba(16,185,129,0.1)"/>
<text x="170" y="126.10000000000001" font-family="'Inter',sans-serif" font-weight="500" font-size="12" fill="#a1a1aa" text-anchor="middle">An API is an interface for</text>
<text x="170" y="142.3" font-family="'Inter',sans-serif" font-weight="500" font-size="12" fill="#a1a1aa" text-anchor="middle">software</text>
<path d="M 400 130 L 630 130" fill="none" stroke="#27272a" stroke-width="2" stroke-dasharray="4 4"/>
<rect x="535" y="90" width="190" height="80" rx="8" fill="#09090b" stroke="#27272a" stroke-width="2"/>
<rect x="535" y="90" width="190" height="80" rx="8" fill="rgba(16,185,129,0.1)"/>
<text x="630" y="126.10000000000001" font-family="'Inter',sans-serif" font-weight="500" font-size="12" fill="#a1a1aa" text-anchor="middle">To communicate with other</text>
<text x="630" y="142.3" font-family="'Inter',sans-serif" font-weight="500" font-size="12" fill="#a1a1aa" text-anchor="middle">software</text>
<path d="M 400 130 L 400 240" fill="none" stroke="#27272a" stroke-width="2" stroke-dasharray="4 4"/>
<rect x="305" y="200" width="190" height="80" rx="8" fill="#09090b" stroke="#27272a" stroke-width="2"/>
<rect x="305" y="200" width="190" height="80" rx="8" fill="rgba(16,185,129,0.1)"/>
<text x="400" y="219.89999999999998" font-family="'Inter',sans-serif" font-weight="500" font-size="12" fill="#a1a1aa" text-anchor="middle">Instead of directly</text>
<text x="400" y="236.09999999999997" font-family="'Inter',sans-serif" font-weight="500" font-size="12" fill="#a1a1aa" text-anchor="middle">accessing databases or</text>
<text x="400" y="252.29999999999998" font-family="'Inter',sans-serif" font-weight="500" font-size="12" fill="#a1a1aa" text-anchor="middle">files, applications go</text>
<text x="400" y="268.5" font-family="'Inter',sans-serif" font-weight="500" font-size="12" fill="#a1a1aa" text-anchor="middle">through APIs</text>
<path d="M 400 130 L 400 30" fill="none" stroke="#27272a" stroke-width="2" stroke-dasharray="4 4"/>
<rect x="305" y="-10" width="190" height="80" rx="8" fill="#09090b" stroke="#27272a" stroke-width="2"/>
<rect x="305" y="-10" width="190" height="80" rx="8" fill="rgba(16,185,129,0.1)"/>
<text x="400" y="17.999999999999996" font-family="'Inter',sans-serif" font-weight="500" font-size="12" fill="#a1a1aa" text-anchor="middle">APIs define what requests</text>
<text x="400" y="34.2" font-family="'Inter',sans-serif" font-weight="500" font-size="12" fill="#a1a1aa" text-anchor="middle">are allowed and what</text>
<text x="400" y="50.400000000000006" font-family="'Inter',sans-serif" font-weight="500" font-size="12" fill="#a1a1aa" text-anchor="middle">responses you'll get</text>

  </g>
  
  <rect x="0" y="380" width="800" height="40" fill="#09090b" opacity="0.9"/>
  <text x="770" y="405" font-family="'Inter',sans-serif" font-weight="600" font-size="11" fill="#a1a1aa" text-anchor="end">veda.ng</text>
</svg>