<?xml version="1.0" encoding="utf-8"?>
<svg xmlns="http://www.w3.org/2000/svg" viewBox="0 0 800 400" width="800" height="400" style="background-color:#ffffff">
  <defs>
    <pattern id="grid" width="30" height="30" patternUnits="userSpaceOnUse">
      <circle cx="2" cy="2" r="1.5" fill="#52525b" opacity="0.15"/>
    </pattern>
    <marker id="arrow" markerWidth="12" markerHeight="12" refX="10" refY="6" orient="auto">
      <path d="M 0 0 L 12 6 L 0 12 z" fill="#2563eb"/>
    </marker>
  </defs>
  <rect width="800" height="400" fill="#ffffff"/>
  <rect width="800" height="400" fill="url(#grid)"/>
  
  <g>
    <rect x="27.5" y="90" width="175" height="180" rx="6" fill="#ffffff" stroke="#e5e7eb" stroke-width="2"/>
<rect x="27.5" y="90" width="175" height="180" rx="6" fill="rgba(37,99,235,0.06)"/>
<text x="115" y="156.55" font-family="'Inter',sans-serif" font-weight="500" font-size="14" fill="#52525b" text-anchor="middle">APR (Annual</text>
<text x="115" y="175.45000000000002" font-family="'Inter',sans-serif" font-weight="500" font-size="14" fill="#52525b" text-anchor="middle">Percentage Rate) and</text>
<text x="115" y="194.35000000000002" font-family="'Inter',sans-serif" font-weight="500" font-size="14" fill="#52525b" text-anchor="middle">APY (Annual</text>
<text x="115" y="213.25000000000003" font-family="'Inter',sans-serif" font-weight="500" font-size="14" fill="#52525b" text-anchor="middle">Percentage Yield)...</text>
<rect x="217.5" y="90" width="175" height="180" rx="6" fill="#ffffff" stroke="#e5e7eb" stroke-width="2"/>
<rect x="217.5" y="90" width="175" height="180" rx="6" fill="rgba(37,99,235,0.06)"/>
<text x="305" y="166" font-family="'Inter',sans-serif" font-weight="500" font-size="14" fill="#52525b" text-anchor="middle">To or higher than APR</text>
<text x="305" y="184.9" font-family="'Inter',sans-serif" font-weight="500" font-size="14" fill="#52525b" text-anchor="middle">for the same</text>
<text x="305" y="203.8" font-family="'Inter',sans-serif" font-weight="500" font-size="14" fill="#52525b" text-anchor="middle">underlying rate</text>
<rect x="407.5" y="90" width="175" height="180" rx="6" fill="#ffffff" stroke="#e5e7eb" stroke-width="2"/>
<rect x="407.5" y="90" width="175" height="180" rx="6" fill="rgba(37,99,235,0.06)"/>
<text x="495" y="166" font-family="'Inter',sans-serif" font-weight="500" font-size="14" fill="#52525b" text-anchor="middle">With 12% APR</text>
<text x="495" y="184.9" font-family="'Inter',sans-serif" font-weight="500" font-size="14" fill="#52525b" text-anchor="middle">compounded monthly,</text>
<text x="495" y="203.8" font-family="'Inter',sans-serif" font-weight="500" font-size="14" fill="#52525b" text-anchor="middle">you earn 1% per month</text>
<rect x="597.5" y="90" width="175" height="180" rx="6" fill="#ffffff" stroke="#e5e7eb" stroke-width="2"/>
<rect x="597.5" y="90" width="175" height="180" rx="6" fill="rgba(37,99,235,0.06)"/>
<text x="685" y="175.45000000000002" font-family="'Inter',sans-serif" font-weight="500" font-size="14" fill="#52525b" text-anchor="middle">After one year: (1 .</text>
<text x="685" y="194.35000000000002" font-family="'Inter',sans-serif" font-weight="500" font-size="14" fill="#52525b" text-anchor="middle">01)^12 = 1</text>

  </g>
  
  <rect x="0" y="360" width="800" height="40" fill="#ffffff" opacity="0.9"/>
  <text x="770" y="385" font-family="'Inter',sans-serif" font-weight="600" font-size="12" fill="#52525b" text-anchor="end">@vedangvatsa</text>
</svg>