<?xml version="1.0" encoding="utf-8"?>
<svg xmlns="http://www.w3.org/2000/svg" viewBox="0 0 800 400" width="800" height="400" style="background-color:#ffffff">
  <defs>
    <marker id="arrow" markerWidth="6" markerHeight="6" refX="5" refY="3" orient="auto">
      <path d="M 0 0 L 6 3 L 0 6 z" fill="#2563eb"/>
    </marker>
  </defs>
  <rect width="800" height="400" fill="#ffffff"/>
  <g transform="translate(0,-17)"><rect x="100" y="100" width="160" height="120" rx="10" fill="#ffffff" stroke="#e5e7eb" stroke-width="2"/><circle cx="180" cy="140" r="28" fill="#ffffff" stroke="#2563eb" stroke-width="3"/><path d="M 165 150 Q 180 160 195 150 M 180 120 L 180 135" stroke="#787774" stroke-width="2" fill="none"/><text x="180" y="200" font-family="'Inter',sans-serif" font-weight="600" font-size="22" fill="#37352f" text-anchor="middle">BTC</text><rect x="540" y="100" width="160" height="120" rx="10" fill="#ffffff" stroke="#e5e7eb" stroke-width="2"/><circle cx="620" cy="140" r="28" fill="#ffffff" stroke="#2563eb" stroke-width="3"/><path d="M 605 150 Q 620 160 635 150 M 620 120 L 620 135" stroke="#787774" stroke-width="2" fill="none"/><text x="620" y="200" font-family="'Inter',sans-serif" font-weight="600" font-size="22" fill="#37352f" text-anchor="middle">ETH</text><rect x="340" y="120" width="120" height="90" rx="12" fill="#ffffff" stroke="#2563eb" stroke-width="2"/><path d="M 370 120 L 370 95 C 370 75, 430 75, 430 95 L 430 120" fill="none" stroke="#2563eb" stroke-width="3"/><circle cx="400" cy="155" r="8" fill="#2563eb"/><path d="M 400 160 L 400 180" stroke="#2563eb" stroke-width="4"/><text x="400" y="245" font-family="'Inter',sans-serif" font-weight="600" font-size="20" fill="#37352f" text-anchor="middle">Trustless Escrow</text><path d="M 270 135 L 320 135" fill="none" stroke="#f59e0b" stroke-width="4" marker-end="url(#arrow)" stroke-dasharray="6 6"/><path d="M 530 185 L 480 185" fill="none" stroke="#6366f1" stroke-width="4" marker-end="url(#arrow)" stroke-dasharray="6 6"/><path d="M 320 185 L 270 185" fill="none" stroke="#6366f1" stroke-width="4" marker-end="url(#arrow)"/><path d="M 480 135 L 530 135" fill="none" stroke="#f59e0b" stroke-width="4" marker-end="url(#arrow)"/><text x="400" y="310" font-family="'Inter',sans-serif" font-weight="600" font-size="18" fill="#37352f" text-anchor="middle">Cross-chain peer-to-peer exchange</text></g>
  <rect x="0" y="360" width="800" height="40" fill="#ffffff" opacity="0.9"/>
  <text x="770" y="385" font-family="'Inter',sans-serif" font-weight="500" font-size="12" fill="#787774" text-anchor="end">@vedangvatsa</text>
</svg>