<?xml version="1.0" encoding="utf-8"?>
<svg xmlns="http://www.w3.org/2000/svg" viewBox="0 0 800 400" width="800" height="400" style="background-color:#ffffff">
  <defs>
    <marker id="arrow" markerWidth="6" markerHeight="6" refX="5" refY="3" orient="auto">
      <path d="M 0 0 L 6 3 L 0 6 z" fill="#2563eb"/>
    </marker>
  </defs>
  <rect width="800" height="400" fill="#ffffff"/>
  <g><text x="400" y="70" font-family="'Inter',sans-serif" font-weight="700" font-size="32" fill="#37352f" text-anchor="middle">Atomic Swap</text><rect x="100" y="140" width="160" height="120" rx="10" fill="#ffffff" stroke="#e5e7eb" stroke-width="2"/><circle cx="180" cy="180" r="28" fill="#ffffff" stroke="#2563eb" stroke-width="3"/><path d="M 165 190 Q 180 200 195 190 M 180 160 L 180 175" stroke="#787774" stroke-width="2" fill="none"/><text x="180" y="240" font-family="'Inter',sans-serif" font-weight="600" font-size="22" fill="#37352f" text-anchor="middle">BTC</text><rect x="540" y="140" width="160" height="120" rx="10" fill="#ffffff" stroke="#e5e7eb" stroke-width="2"/><circle cx="620" cy="180" r="28" fill="#ffffff" stroke="#2563eb" stroke-width="3"/><path d="M 605 190 Q 620 200 635 190 M 620 160 L 620 175" stroke="#787774" stroke-width="2" fill="none"/><text x="620" y="240" font-family="'Inter',sans-serif" font-weight="600" font-size="22" fill="#37352f" text-anchor="middle">ETH</text><rect x="340" y="160" width="120" height="90" rx="12" fill="#ffffff" stroke="#2563eb" stroke-width="2"/><path d="M 370 160 L 370 135 C 370 115, 430 115, 430 135 L 430 160" fill="none" stroke="#2563eb" stroke-width="3"/><circle cx="400" cy="195" r="8" fill="#2563eb"/><path d="M 400 200 L 400 220" stroke="#2563eb" stroke-width="4"/><text x="400" y="285" font-family="'Inter',sans-serif" font-weight="600" font-size="20" fill="#37352f" text-anchor="middle">Trustless Escrow</text><path d="M 270 175 L 320 175" fill="none" stroke="#f59e0b" stroke-width="4" marker-end="url(#arrow)" stroke-dasharray="6 6"/><path d="M 530 225 L 480 225" fill="none" stroke="#6366f1" stroke-width="4" marker-end="url(#arrow)" stroke-dasharray="6 6"/><path d="M 320 225 L 270 225" fill="none" stroke="#6366f1" stroke-width="4" marker-end="url(#arrow)"/><path d="M 480 175 L 530 175" fill="none" stroke="#f59e0b" stroke-width="4" marker-end="url(#arrow)"/></g>
  <rect x="0" y="360" width="800" height="40" fill="#ffffff" opacity="0.9"/>
  <text x="770" y="385" font-family="'Inter',sans-serif" font-weight="500" font-size="12" fill="#787774" text-anchor="end">@vedangvatsa</text>
</svg>