<?xml version="1.0" encoding="utf-8"?>
<svg xmlns="http://www.w3.org/2000/svg" viewBox="0 0 800 400" width="800" height="400" style="background-color:#ffffff">
  <defs>
    <pattern id="grid" width="30" height="30" patternUnits="userSpaceOnUse">
      <circle cx="2" cy="2" r="1.5" fill="#52525b" opacity="0.15"/>
    </pattern>
    <marker id="arrow" markerWidth="12" markerHeight="12" refX="10" refY="6" orient="auto">
      <path d="M 0 0 L 12 6 L 0 12 z" fill="#9333ea"/>
    </marker>
  </defs>
  <rect width="800" height="400" fill="#ffffff"/>
  <rect width="800" height="400" fill="url(#grid)"/>
  
  <g>
    <path d="M 400 135 L 180 155" fill="none" stroke="#e5e7eb" stroke-width="3" stroke-dasharray="6 6"/>
<rect x="65" y="155" width="230" height="90" rx="10" fill="#ffffff" stroke="#e5e7eb" stroke-width="2"/>
<rect x="65" y="155" width="230" height="90" rx="10" fill="rgba(147,51,234,0.06)"/>
<text x="180" y="176.55" font-family="'Inter',sans-serif" font-weight="500" font-size="14" fill="#52525b" text-anchor="middle">An attention score</text>
<text x="180" y="195.45000000000002" font-family="'Inter',sans-serif" font-weight="500" font-size="14" fill="#52525b" text-anchor="middle">quantifies how much one</text>
<text x="180" y="214.35000000000002" font-family="'Inter',sans-serif" font-weight="500" font-size="14" fill="#52525b" text-anchor="middle">position in a sequence</text>
<text x="180" y="233.25000000000003" font-family="'Inter',sans-serif" font-weight="500" font-size="14" fill="#52525b" text-anchor="middle">should attend</text>
<path d="M 400 135 L 620 155" fill="none" stroke="#e5e7eb" stroke-width="3" stroke-dasharray="6 6"/>
<rect x="505" y="155" width="230" height="90" rx="10" fill="#ffffff" stroke="#e5e7eb" stroke-width="2"/>
<rect x="505" y="155" width="230" height="90" rx="10" fill="rgba(147,51,234,0.06)"/>
<text x="620" y="186" font-family="'Inter',sans-serif" font-weight="500" font-size="14" fill="#52525b" text-anchor="middle">To another position when</text>
<text x="620" y="204.9" font-family="'Inter',sans-serif" font-weight="500" font-size="14" fill="#52525b" text-anchor="middle">computing its output</text>
<text x="620" y="223.8" font-family="'Inter',sans-serif" font-weight="500" font-size="14" fill="#52525b" text-anchor="middle">representation</text>
<path d="M 400 135 L 280 265" fill="none" stroke="#e5e7eb" stroke-width="3" stroke-dasharray="6 6"/>
<rect x="165" y="265" width="230" height="90" rx="10" fill="#ffffff" stroke="#e5e7eb" stroke-width="2"/>
<rect x="165" y="265" width="230" height="90" rx="10" fill="rgba(147,51,234,0.06)"/>
<text x="280" y="286.54999999999995" font-family="'Inter',sans-serif" font-weight="500" font-size="14" fill="#52525b" text-anchor="middle">In the transformer attention</text>
<text x="280" y="305.44999999999993" font-family="'Inter',sans-serif" font-weight="500" font-size="14" fill="#52525b" text-anchor="middle">mechanism, each position</text>
<text x="280" y="324.34999999999997" font-family="'Inter',sans-serif" font-weight="500" font-size="14" fill="#52525b" text-anchor="middle">computes a Query vector</text>
<text x="280" y="343.24999999999994" font-family="'Inter',sans-serif" font-weight="500" font-size="14" fill="#52525b" text-anchor="middle">asking 'what am I looking...</text>
<path d="M 400 135 L 520 265" fill="none" stroke="#e5e7eb" stroke-width="3" stroke-dasharray="6 6"/>
<rect x="405" y="265" width="230" height="90" rx="10" fill="#ffffff" stroke="#e5e7eb" stroke-width="2"/>
<rect x="405" y="265" width="230" height="90" rx="10" fill="rgba(147,51,234,0.06)"/>
<text x="520" y="305.45" font-family="'Inter',sans-serif" font-weight="500" font-size="14" fill="#52525b" text-anchor="middle">Higher scores mean stronger</text>
<text x="520" y="324.34999999999997" font-family="'Inter',sans-serif" font-weight="500" font-size="14" fill="#52525b" text-anchor="middle">relevance</text>
<rect x="300" y="65" width="200" height="70" rx="35" fill="#ffffff" stroke="#e5e7eb" stroke-width="2"/>
<rect x="300" y="65" width="200" height="70" rx="35" fill="rgba(147,51,234,0.06)"/>
<text x="400" y="107" font-family="'Inter',sans-serif" font-weight="700" font-size="20" fill="#9333ea" text-anchor="middle">Attention Score</text>

  </g>
  
  <rect x="0" y="360" width="800" height="40" fill="#ffffff" opacity="0.9"/>
  <text x="770" y="385" font-family="'Inter',sans-serif" font-weight="600" font-size="12" fill="#52525b" text-anchor="end">@vedangvatsa</text>
</svg>