<?xml version="1.0" encoding="utf-8"?>
<svg xmlns="http://www.w3.org/2000/svg" viewBox="0 0 800 400" width="800" height="400" style="background-color:#ffffff">
  <defs>
    <marker id="arrow" markerWidth="6" markerHeight="6" refX="5" refY="3" orient="auto">
      <path d="M 0 0 L 6 3 L 0 6 z" fill="#9333ea"/>
    </marker>
    <marker id="arrowGray" markerWidth="6" markerHeight="6" refX="5" refY="3" orient="auto">
      <path d="M 0 0 L 6 3 L 0 6 z" fill="#787774"/>
    </marker>
  </defs>
  <rect width="800" height="400" fill="#ffffff"/>
  <g transform="translate(0,-37)"><rect x="100" y="110" width="80" height="45" rx="8" fill="#ffffff" stroke="#e5e7eb" stroke-width="2"/>
<text x="140" y="139.5" font-family="'Inter',sans-serif" font-weight="700" font-size="20" fill="#37352f" text-anchor="middle">The</text><rect x="100" y="180" width="80" height="45" rx="8" fill="#ffffff" stroke="#e5e7eb" stroke-width="2"/>
<text x="140" y="209.5" font-family="'Inter',sans-serif" font-weight="700" font-size="20" fill="#37352f" text-anchor="middle">Cat</text><rect x="100" y="250" width="80" height="45" rx="8" fill="#ffffff" stroke="#e5e7eb" stroke-width="2"/>
<text x="140" y="279.5" font-family="'Inter',sans-serif" font-weight="700" font-size="20" fill="#37352f" text-anchor="middle">Sat</text><line x1="185" y1="132" x2="400" y2="132" stroke="#9333ea" stroke-width="1.4" stroke-opacity="0.28"/><line x1="185" y1="132" x2="400" y2="202" stroke="#9333ea" stroke-width="4.2" stroke-opacity="0.8400000000000001"/><line x1="185" y1="132" x2="400" y2="272" stroke="#9333ea" stroke-width="1.4" stroke-opacity="0.28"/><line x1="185" y1="202" x2="400" y2="132" stroke="#9333ea" stroke-width="1.8" stroke-opacity="0.36000000000000004"/><line x1="185" y1="202" x2="400" y2="202" stroke="#9333ea" stroke-width="2.2" stroke-opacity="0.44"/><line x1="185" y1="202" x2="400" y2="272" stroke="#9333ea" stroke-width="3" stroke-opacity="0.6000000000000001"/><line x1="185" y1="272" x2="400" y2="132" stroke="#9333ea" stroke-width="2.6" stroke-opacity="0.52"/><line x1="185" y1="272" x2="400" y2="202" stroke="#9333ea" stroke-width="1.4" stroke-opacity="0.28"/><line x1="185" y1="272" x2="400" y2="272" stroke="#9333ea" stroke-width="3" stroke-opacity="0.6000000000000001"/><circle cx="400" cy="132" r="14" fill="#9333ea" fill-opacity="0.15" stroke="#9333ea" stroke-width="2"/><circle cx="400" cy="202" r="14" fill="#9333ea" fill-opacity="0.15" stroke="#9333ea" stroke-width="2"/><circle cx="400" cy="272" r="14" fill="#9333ea" fill-opacity="0.15" stroke="#9333ea" stroke-width="2"/><line x1="414" y1="132" x2="530" y2="132" stroke="#e5e7eb" stroke-width="1.5"/><rect x="540" y="110" width="140" height="45" rx="8" fill="#ffffff" stroke="#10b981" stroke-width="2"/>
<text x="610" y="139.5" font-family="'Inter',sans-serif" font-weight="600" font-size="20" fill="#37352f" text-anchor="middle">Context The</text><line x1="414" y1="202" x2="530" y2="202" stroke="#e5e7eb" stroke-width="1.5"/><rect x="540" y="180" width="140" height="45" rx="8" fill="#ffffff" stroke="#10b981" stroke-width="2"/>
<text x="610" y="209.5" font-family="'Inter',sans-serif" font-weight="600" font-size="20" fill="#37352f" text-anchor="middle">Context Cat</text><line x1="414" y1="272" x2="530" y2="272" stroke="#e5e7eb" stroke-width="1.5"/><rect x="540" y="250" width="140" height="45" rx="8" fill="#ffffff" stroke="#10b981" stroke-width="2"/>
<text x="610" y="279.5" font-family="'Inter',sans-serif" font-weight="600" font-size="20" fill="#37352f" text-anchor="middle">Context Sat</text><text x="400" y="340" font-family="'Inter',sans-serif" font-weight="600" font-size="16" fill="#37352f" text-anchor="middle">Which tokens matter for each output?</text></g>
  <rect x="0" y="360" width="800" height="40" fill="#ffffff" opacity="0.9"/>
  <text x="770" y="385" font-family="'Inter',sans-serif" font-weight="500" font-size="12" fill="#787774" text-anchor="end">@vedangvatsa</text>
</svg>