<?xml version="1.0" encoding="utf-8"?>
<svg xmlns="http://www.w3.org/2000/svg" viewBox="0 0 800 400" width="800" height="400" style="background-color:#ffffff">
  <defs>
    <marker id="arrow" markerWidth="6" markerHeight="6" refX="5" refY="3" orient="auto"><path d="M 0 0 L 6 3 L 0 6 z" fill="#9333ea"/></marker>
    <marker id="arrowGray" markerWidth="6" markerHeight="6" refX="5" refY="3" orient="auto"><path d="M 0 0 L 6 3 L 0 6 z" fill="#787774"/></marker>
  </defs>
  <rect width="800" height="400" fill="#ffffff"/>
  <g transform="translate(0,-45)"><text x="200" y="120" font-family="'Inter',sans-serif" font-weight="600" font-size="16" fill="#37352f" text-anchor="middle">The</text><text x="110" y="185" font-family="'Inter',sans-serif" font-weight="600" font-size="16" fill="#37352f" text-anchor="middle">The</text><text x="320" y="120" font-family="'Inter',sans-serif" font-weight="600" font-size="16" fill="#37352f" text-anchor="middle">cat</text><text x="110" y="230" font-family="'Inter',sans-serif" font-weight="600" font-size="16" fill="#37352f" text-anchor="middle">cat</text><text x="440" y="120" font-family="'Inter',sans-serif" font-weight="600" font-size="16" fill="#37352f" text-anchor="middle">sat</text><text x="110" y="275" font-family="'Inter',sans-serif" font-weight="600" font-size="16" fill="#37352f" text-anchor="middle">sat</text><text x="560" y="120" font-family="'Inter',sans-serif" font-weight="600" font-size="16" fill="#37352f" text-anchor="middle">on</text><text x="110" y="320" font-family="'Inter',sans-serif" font-weight="600" font-size="16" fill="#37352f" text-anchor="middle">on</text><rect x="160" y="140" width="80" height="35" rx="4" fill="#9333ea" fill-opacity="0.7200000000000001"/><text x="200" y="163" font-family="'Inter',sans-serif" font-weight="600" font-size="13" fill="#ffffff" text-anchor="middle">0.90</text><rect x="280" y="140" width="80" height="35" rx="4" fill="#9333ea" fill-opacity="0.04000000000000001"/><text x="320" y="163" font-family="'Inter',sans-serif" font-weight="600" font-size="13" fill="#37352f" text-anchor="middle">0.05</text><rect x="400" y="140" width="80" height="35" rx="4" fill="#9333ea" fill-opacity="0.024"/><text x="440" y="163" font-family="'Inter',sans-serif" font-weight="600" font-size="13" fill="#37352f" text-anchor="middle">0.03</text><rect x="520" y="140" width="80" height="35" rx="4" fill="#9333ea" fill-opacity="0.016"/><text x="560" y="163" font-family="'Inter',sans-serif" font-weight="600" font-size="13" fill="#37352f" text-anchor="middle">0.02</text><rect x="160" y="185" width="80" height="35" rx="4" fill="#9333ea" fill-opacity="0.08000000000000002"/><text x="200" y="208" font-family="'Inter',sans-serif" font-weight="600" font-size="13" fill="#37352f" text-anchor="middle">0.10</text><rect x="280" y="185" width="80" height="35" rx="4" fill="#9333ea" fill-opacity="0.5599999999999999"/><text x="320" y="208" font-family="'Inter',sans-serif" font-weight="600" font-size="13" fill="#ffffff" text-anchor="middle">0.70</text><rect x="400" y="185" width="80" height="35" rx="4" fill="#9333ea" fill-opacity="0.08000000000000002"/><text x="440" y="208" font-family="'Inter',sans-serif" font-weight="600" font-size="13" fill="#37352f" text-anchor="middle">0.10</text><rect x="520" y="185" width="80" height="35" rx="4" fill="#9333ea" fill-opacity="0.08000000000000002"/><text x="560" y="208" font-family="'Inter',sans-serif" font-weight="600" font-size="13" fill="#37352f" text-anchor="middle">0.10</text><rect x="160" y="230" width="80" height="35" rx="4" fill="#9333ea" fill-opacity="0.04000000000000001"/><text x="200" y="253" font-family="'Inter',sans-serif" font-weight="600" font-size="13" fill="#37352f" text-anchor="middle">0.05</text><rect x="280" y="230" width="80" height="35" rx="4" fill="#9333ea" fill-opacity="0.12"/><text x="320" y="253" font-family="'Inter',sans-serif" font-weight="600" font-size="13" fill="#37352f" text-anchor="middle">0.15</text><rect x="400" y="230" width="80" height="35" rx="4" fill="#9333ea" fill-opacity="0.48"/><text x="440" y="253" font-family="'Inter',sans-serif" font-weight="600" font-size="13" fill="#ffffff" text-anchor="middle">0.60</text><rect x="520" y="230" width="80" height="35" rx="4" fill="#9333ea" fill-opacity="0.16000000000000003"/><text x="560" y="253" font-family="'Inter',sans-serif" font-weight="600" font-size="13" fill="#37352f" text-anchor="middle">0.20</text><rect x="160" y="275" width="80" height="35" rx="4" fill="#9333ea" fill-opacity="0.16000000000000003"/><text x="200" y="298" font-family="'Inter',sans-serif" font-weight="600" font-size="13" fill="#37352f" text-anchor="middle">0.20</text><rect x="280" y="275" width="80" height="35" rx="4" fill="#9333ea" fill-opacity="0.08000000000000002"/><text x="320" y="298" font-family="'Inter',sans-serif" font-weight="600" font-size="13" fill="#37352f" text-anchor="middle">0.10</text><rect x="400" y="275" width="80" height="35" rx="4" fill="#9333ea" fill-opacity="0.16000000000000003"/><text x="440" y="298" font-family="'Inter',sans-serif" font-weight="600" font-size="13" fill="#37352f" text-anchor="middle">0.20</text><rect x="520" y="275" width="80" height="35" rx="4" fill="#9333ea" fill-opacity="0.4"/><text x="560" y="298" font-family="'Inter',sans-serif" font-weight="600" font-size="13" fill="#ffffff" text-anchor="middle">0.50</text><text x="400" y="345" font-family="'Inter',sans-serif" font-weight="600" font-size="20" fill="#37352f" text-anchor="middle">How much each token attends to others</text></g>
  <rect x="0" y="360" width="800" height="40" fill="#ffffff" opacity="0.9"/>
  <text x="770" y="385" font-family="'Inter',sans-serif" font-weight="500" font-size="12" fill="#787774" text-anchor="end">@vedangvatsa</text>
</svg>