<?xml version="1.0" encoding="utf-8"?>
<svg xmlns="http://www.w3.org/2000/svg" viewBox="0 0 800 400" width="800" height="400" style="background-color:#ffffff">
  <defs>
    <marker id="arrow" markerWidth="6" markerHeight="6" refX="5" refY="3" orient="auto"><path d="M 0 0 L 6 3 L 0 6 z" fill="#9333ea"/></marker>
    <marker id="arrowGray" markerWidth="6" markerHeight="6" refX="5" refY="3" orient="auto"><path d="M 0 0 L 6 3 L 0 6 z" fill="#787774"/></marker>
  </defs>
  <rect width="800" height="400" fill="#ffffff"/>
  <g transform="translate(0,-67)"><path d="M 80 100 L 80 300 L 260 250 L 260 150 Z" fill="#ffffff" stroke="#e5e7eb" stroke-width="2"/><text x="150" y="210" font-family="'Inter',sans-serif" font-weight="700" font-size="18" fill="#37352f" text-anchor="middle">Encoder</text><rect x="280" y="170" width="60" height="60" rx="6" fill="#9333ea" fill-opacity="0.15" stroke="#9333ea" stroke-width="3"/><text x="310" y="207" font-family="'Inter',sans-serif" font-weight="800" font-size="24" fill="#9333ea" text-anchor="middle">z</text><text x="310" y="255" font-family="'Inter',sans-serif" font-weight="600" font-size="14" fill="#9333ea" text-anchor="middle">Latent</text><path d="M 360 150 L 360 250 L 540 300 L 540 100 Z" fill="#ffffff" stroke="#e5e7eb" stroke-width="2"/><text x="450" y="210" font-family="'Inter',sans-serif" font-weight="700" font-size="18" fill="#37352f" text-anchor="middle">Decoder</text><text x="65" y="200" font-family="'Inter',sans-serif" font-weight="600" font-size="14" fill="#787774" text-anchor="end">Input</text><text x="555" y="200" font-family="'Inter',sans-serif" font-weight="600" font-size="14" fill="#787774" text-anchor="start">Output</text><text x="620" y="200" font-family="'Inter',sans-serif" font-weight="700" font-size="20" fill="#10b981" text-anchor="start">≈ Input</text><text x="400" y="340" font-family="'Inter',sans-serif" font-weight="600" font-size="20" fill="#37352f" text-anchor="middle">Compress → Encode → Reconstruct</text></g>
  <rect x="0" y="360" width="800" height="40" fill="#ffffff" opacity="0.9"/>
  <text x="770" y="385" font-family="'Inter',sans-serif" font-weight="500" font-size="12" fill="#787774" text-anchor="end">@vedangvatsa</text>
</svg>