<?xml version="1.0" encoding="utf-8"?>
<svg xmlns="http://www.w3.org/2000/svg" viewBox="0 0 800 400" width="800" height="400" style="background-color:#ffffff">
  <defs>
    <marker id="arrow" markerWidth="6" markerHeight="6" refX="5" refY="3" orient="auto"><path d="M 0 0 L 6 3 L 0 6 z" fill="#9333ea"/></marker>
    <marker id="arrowGray" markerWidth="6" markerHeight="6" refX="5" refY="3" orient="auto"><path d="M 0 0 L 6 3 L 0 6 z" fill="#787774"/></marker>
  </defs>
  <rect width="800" height="400" fill="#ffffff"/>
  <g transform="translate(0,-12)"><rect x="80" y="120" width="100" height="50" rx="8" fill="#ffffff" stroke="#e5e7eb" stroke-width="2"/><text x="130" y="152" font-family="'Inter',sans-serif" font-weight="600" font-size="16" fill="#37352f" text-anchor="middle">Input</text><line x1="185" y1="145" x2="230" y2="145" stroke="#9333ea" stroke-width="2" marker-end="url(#arrow)"/><rect x="240" y="120" width="120" height="50" rx="8" fill="#ffffff" stroke="#9333ea" stroke-width="2"/><text x="300" y="152" font-family="'Inter',sans-serif" font-weight="600" font-size="16" fill="#9333ea" text-anchor="middle">Hidden</text><line x1="365" y1="145" x2="410" y2="145" stroke="#9333ea" stroke-width="2" marker-end="url(#arrow)"/><rect x="420" y="120" width="100" height="50" rx="8" fill="#ffffff" stroke="#10b981" stroke-width="2"/><text x="470" y="152" font-family="'Inter',sans-serif" font-weight="600" font-size="16" fill="#10b981" text-anchor="middle">Output</text><line x1="525" y1="145" x2="570" y2="145" stroke="#10b981" stroke-width="2" marker-end="url(#arrow)"/><rect x="580" y="120" width="100" height="50" rx="8" fill="#ffffff" stroke="#ef4444" stroke-width="2"/><text x="630" y="152" font-family="'Inter',sans-serif" font-weight="600" font-size="16" fill="#ef4444" text-anchor="middle">Loss</text><text x="400" y="100" font-family="'Inter',sans-serif" font-weight="600" font-size="14" fill="#787774" text-anchor="middle">Forward Pass →</text><line x1="630" y1="175" x2="630" y2="220" stroke="#ef4444" stroke-width="2"/><path d="M 630 220 L 130 220 L 130 175" fill="none" stroke="#ef4444" stroke-width="2" stroke-dasharray="6 6" marker-end="url(#arrow)"/><text x="400" y="245" font-family="'Inter',sans-serif" font-weight="600" font-size="14" fill="#ef4444" text-anchor="middle">← Backward Pass (Gradients)</text><text x="400" y="300" font-family="'Inter',sans-serif" font-weight="600" font-size="20" fill="#37352f" text-anchor="middle">Adjust weights to minimize error</text></g>
  <rect x="0" y="360" width="800" height="40" fill="#ffffff" opacity="0.9"/>
  <text x="770" y="385" font-family="'Inter',sans-serif" font-weight="500" font-size="12" fill="#787774" text-anchor="end">@vedangvatsa</text>
</svg>