<?xml version="1.0" encoding="utf-8"?>
<svg xmlns="http://www.w3.org/2000/svg" viewBox="0 0 800 400" width="800" height="400">
  <defs>
    <radialGradient id="glow" cx="50%" cy="50%" r="50%">
      <stop offset="0%" stop-color="rgba(37,99,235,0.06)"/>
      <stop offset="100%" stop-color="#ffffff" stop-opacity="0"/>
    </radialGradient>
    <pattern id="grid" width="40" height="40" patternUnits="userSpaceOnUse">
      <circle cx="2" cy="2" r="1.5" fill="#e5e7eb" opacity="0.8"/>
    </pattern>
  </defs>
  <rect width="800" height="400" fill="#ffffff"/>
  <rect width="800" height="400" fill="url(#grid)"/>
  <rect x="0" y="0" width="800" height="400" fill="url(#glow)"/>
  
  <!-- Visual Architecture -->
  <g transform="translate(0, -20)">
    <circle cx="548" cy="180" r="6" fill="#2563eb"/>
<circle cx="505.3589103967956" cy="285.3589103967956" r="6" fill="#2563eb"/>
<circle cx="400" cy="280" r="6" fill="#2563eb"/>
<circle cx="328.5822151001587" cy="251.4177848998413" r="6" fill="#2563eb"/>
<circle cx="298" cy="180" r="6" fill="#2563eb"/>
<circle cx="327.1680015377856" cy="107.16800153778561" r="6" fill="#2563eb"/>
<circle cx="400" cy="76" r="6" fill="#2563eb"/>
<circle cx="474.24621202458746" cy="105.7537879754125" r="6" fill="#2563eb"/>
<line x1="548" y1="180" x2="505.3589103967956" y2="285.3589103967956" stroke="#2563eb" stroke-width="1.5" opacity="0.4"/>
<line x1="548" y1="180" x2="298" y2="180" stroke="#2563eb" stroke-width="1.5" opacity="0.4"/>
<line x1="548" y1="180" x2="474.24621202458746" y2="105.7537879754125" stroke="#2563eb" stroke-width="1.5" opacity="0.4"/>
<line x1="505.3589103967956" y1="285.3589103967956" x2="400" y2="280" stroke="#2563eb" stroke-width="1.5" opacity="0.4"/>
<line x1="505.3589103967956" y1="285.3589103967956" x2="328.5822151001587" y2="251.4177848998413" stroke="#2563eb" stroke-width="1.5" opacity="0.4"/>
<line x1="505.3589103967956" y1="285.3589103967956" x2="400" y2="76" stroke="#2563eb" stroke-width="1.5" opacity="0.4"/>
<line x1="400" y1="280" x2="328.5822151001587" y2="251.4177848998413" stroke="#2563eb" stroke-width="1.5" opacity="0.4"/>
<line x1="400" y1="280" x2="327.1680015377856" y2="107.16800153778561" stroke="#2563eb" stroke-width="1.5" opacity="0.4"/>
<line x1="328.5822151001587" y1="251.4177848998413" x2="298" y2="180" stroke="#2563eb" stroke-width="1.5" opacity="0.4"/>
<line x1="328.5822151001587" y1="251.4177848998413" x2="474.24621202458746" y2="105.7537879754125" stroke="#2563eb" stroke-width="1.5" opacity="0.4"/>
<line x1="298" y1="180" x2="327.1680015377856" y2="107.16800153778561" stroke="#2563eb" stroke-width="1.5" opacity="0.4"/>
<line x1="298" y1="180" x2="400" y2="76" stroke="#2563eb" stroke-width="1.5" opacity="0.4"/>
<line x1="327.1680015377856" y1="107.16800153778561" x2="400" y2="76" stroke="#2563eb" stroke-width="1.5" opacity="0.4"/>
<line x1="400" y1="76" x2="474.24621202458746" y2="105.7537879754125" stroke="#2563eb" stroke-width="1.5" opacity="0.4"/>

  </g>

  <!-- Typography Card Section at Bottom -->
  <rect x="0" y="300" width="800" height="100" fill="#ffffff" opacity="0.95"/>
  <line x1="0" y1="300" x2="800" y2="300" stroke="#e5e7eb" stroke-opacity="1" stroke-width="1.5"/>
  
  <text x="400" y="335" font-family="'Inter',sans-serif" font-weight="600" font-size="12" fill="#2563eb" text-anchor="middle" letter-spacing="2" text-transform="uppercase">Web3 GLOSSARY</text>
  <text x="400" y="370" font-family="'Inter',sans-serif" font-weight="700" font-size="28" fill="#09090b" text-anchor="middle" letter-spacing="-0.5">Basis Trade</text>
</svg>