<?xml version="1.0" encoding="utf-8"?>
<svg xmlns="http://www.w3.org/2000/svg" viewBox="0 0 800 400" width="800" height="400" style="background-color:#ffffff">
  <defs>
    <marker id="arrow" markerWidth="6" markerHeight="6" refX="5" refY="3" orient="auto"><path d="M 0 0 L 6 3 L 0 6 z" fill="#9333ea"/></marker>
    <marker id="arrowGray" markerWidth="6" markerHeight="6" refX="5" refY="3" orient="auto"><path d="M 0 0 L 6 3 L 0 6 z" fill="#787774"/></marker>
  </defs>
  <rect width="800" height="400" fill="#ffffff"/>
  <g transform="translate(0,-35)"><circle cx="400" cy="100" r="12" fill="#9333ea" stroke="#9333ea" stroke-width="2"/><line x1="400" y1="112" x2="250" y2="168" stroke="#9333ea" stroke-width="2"/><line x1="400" y1="112" x2="400" y2="168" stroke="#9333ea" stroke-width="2"/><line x1="400" y1="112" x2="550" y2="168" stroke="#787774" stroke-width="1" stroke-dasharray="4 4"/><circle cx="250" cy="180" r="12" fill="#9333ea" stroke="#9333ea" stroke-width="2"/><circle cx="400" cy="180" r="12" fill="#9333ea" stroke="#9333ea" stroke-width="2"/><circle cx="550" cy="180" r="12" fill="#e5e7eb" stroke="#787774" stroke-width="1"/><line x1="250" y1="192" x2="180" y2="248" stroke="#9333ea" stroke-width="2"/><line x1="250" y1="192" x2="320" y2="248" stroke="#787774" stroke-width="1" stroke-dasharray="4 4"/><line x1="400" y1="192" x2="460" y2="248" stroke="#9333ea" stroke-width="2"/><circle cx="180" cy="260" r="12" fill="#9333ea" stroke="#9333ea" stroke-width="2"/><circle cx="320" cy="260" r="12" fill="#e5e7eb" stroke="#787774" stroke-width="1"/><circle cx="460" cy="260" r="12" fill="#9333ea" stroke="#9333ea" stroke-width="2"/><text x="180" y="295" font-family="'Inter',sans-serif" font-weight="700" font-size="16" fill="#10b981" text-anchor="middle">Best</text><text x="460" y="295" font-family="'Inter',sans-serif" font-weight="700" font-size="16" fill="#9333ea" text-anchor="middle">2nd</text><rect x="620" y="150" width="120" height="45" rx="8" fill="#9333ea" fill-opacity="0.08"/><text x="680" y="180" font-family="'Inter',sans-serif" font-weight="700" font-size="16" fill="#9333ea" text-anchor="middle">Beam = 2</text><text x="400" y="345" font-family="'Inter',sans-serif" font-weight="600" font-size="20" fill="#37352f" text-anchor="middle">Keep top-K candidates at each step</text></g>
  <rect x="0" y="360" width="800" height="40" fill="#ffffff" opacity="0.9"/>
  <text x="770" y="385" font-family="'Inter',sans-serif" font-weight="500" font-size="12" fill="#787774" text-anchor="end">@vedangvatsa</text>
</svg>