<?xml version="1.0" encoding="utf-8"?>
<svg xmlns="http://www.w3.org/2000/svg" viewBox="0 0 800 400" width="800" height="400" style="background-color:#ffffff">
  <defs>
    <marker id="arrow" markerWidth="6" markerHeight="6" refX="5" refY="3" orient="auto"><path d="M 0 0 L 6 3 L 0 6 z" fill="#9333ea"/></marker>
    <marker id="arrowGray" markerWidth="6" markerHeight="6" refX="5" refY="3" orient="auto"><path d="M 0 0 L 6 3 L 0 6 z" fill="#787774"/></marker>
  </defs>
  <rect width="800" height="400" fill="#ffffff"/>
  <g transform="translate(0,-35)"><rect x="100" y="100" width="600" height="50" rx="8" fill="#ffffff" stroke="#e5e7eb" stroke-width="2"/><text x="200" y="132" font-family="'Inter',sans-serif" font-weight="600" font-size="18" fill="#37352f" text-anchor="middle">The</text><rect x="290" y="105" width="80" height="40" rx="6" fill="#9333ea" fill-opacity="0.15" stroke="#9333ea" stroke-width="2"/><text x="330" y="132" font-family="'Inter',sans-serif" font-weight="700" font-size="16" fill="#9333ea" text-anchor="middle">[MASK]</text><text x="460" y="132" font-family="'Inter',sans-serif" font-weight="600" font-size="18" fill="#37352f" text-anchor="middle">sat on the</text><rect x="560" y="105" width="80" height="40" rx="6" fill="#9333ea" fill-opacity="0.15" stroke="#9333ea" stroke-width="2"/><text x="600" y="132" font-family="'Inter',sans-serif" font-weight="700" font-size="16" fill="#9333ea" text-anchor="middle">[MASK]</text><line x1="400" y1="155" x2="400" y2="175" stroke="#9333ea" stroke-width="2" marker-end="url(#arrow)"/><rect x="250" y="180" width="300" height="60" rx="12" fill="#ffffff" stroke="#9333ea" stroke-width="3"/><text x="400" y="217" font-family="'Inter',sans-serif" font-weight="700" font-size="18" fill="#9333ea" text-anchor="middle">Bidirectional Encoder</text><line x1="330" y1="245" x2="330" y2="270" stroke="#9333ea" stroke-width="2" marker-end="url(#arrow)"/><rect x="290" y="275" width="80" height="40" rx="6" fill="#10b981" fill-opacity="0.1" stroke="#10b981" stroke-width="2"/><text x="330" y="301" font-family="'Inter',sans-serif" font-weight="700" font-size="18" fill="#10b981" text-anchor="middle">cat</text><line x1="600" y1="245" x2="600" y2="270" stroke="#9333ea" stroke-width="2" marker-end="url(#arrow)"/><rect x="560" y="275" width="80" height="40" rx="6" fill="#10b981" fill-opacity="0.1" stroke="#10b981" stroke-width="2"/><text x="600" y="301" font-family="'Inter',sans-serif" font-weight="700" font-size="18" fill="#10b981" text-anchor="middle">mat</text><text x="400" y="345" font-family="'Inter',sans-serif" font-weight="600" font-size="20" fill="#37352f" text-anchor="middle">Predict masked words using full context</text></g>
  <rect x="0" y="360" width="800" height="40" fill="#ffffff" opacity="0.9"/>
  <text x="770" y="385" font-family="'Inter',sans-serif" font-weight="500" font-size="12" fill="#787774" text-anchor="end">@vedangvatsa</text>
</svg>