<?xml version="1.0" encoding="utf-8"?>
<svg xmlns="http://www.w3.org/2000/svg" viewBox="0 0 800 400" width="800" height="400" style="background-color:#ffffff">
  <defs>
    <marker id="arrow" markerWidth="6" markerHeight="6" refX="5" refY="3" orient="auto">
      <path d="M 0 0 L 6 3 L 0 6 z" fill="#2563eb"/>
    </marker>
  </defs>
  <rect width="800" height="400" fill="#ffffff"/>
  <g><text x="400" y="70" font-family="'Inter',sans-serif" font-weight="700" font-size="32" fill="#37352f" text-anchor="middle">Blockchain</text><rect x="60" y="140" width="160" height="120" rx="8" fill="#ffffff" stroke="#e5e7eb" stroke-width="2"/><text x="140" y="175" font-family="'Inter',sans-serif" font-weight="700" font-size="20" fill="#37352f" text-anchor="middle">Block 1</text><path d="M 80 190 L 200 190" stroke="#e5e7eb" stroke-width="2"/><text x="140" y="215" font-family="'Inter',sans-serif" font-weight="500" font-size="16" fill="#787774" text-anchor="middle">Data: Tx 1</text><text x="140" y="240" font-family="'Inter',sans-serif" font-weight="500" font-size="16" fill="#787774" text-anchor="middle">Hash: 0x1A</text><line x1="220" y1="200" x2="310" y2="200" stroke="#2563eb" stroke-width="3" marker-end="url(#arrow)"/><rect x="320" y="140" width="160" height="120" rx="8" fill="#ffffff" stroke="#e5e7eb" stroke-width="2"/><text x="400" y="175" font-family="'Inter',sans-serif" font-weight="700" font-size="20" fill="#2563eb" text-anchor="middle">Block 2</text><path d="M 340 190 L 460 190" stroke="#e5e7eb" stroke-width="2"/><text x="400" y="215" font-family="'Inter',sans-serif" font-weight="500" font-size="16" fill="#787774" text-anchor="middle">Prev: 0x1A</text><text x="400" y="240" font-family="'Inter',sans-serif" font-weight="500" font-size="16" fill="#787774" text-anchor="middle">Hash: 0x2B</text><line x1="480" y1="200" x2="570" y2="200" stroke="#2563eb" stroke-width="3" marker-end="url(#arrow)"/><rect x="580" y="140" width="160" height="120" rx="8" fill="#ffffff" stroke="#e5e7eb" stroke-width="2"/><text x="660" y="175" font-family="'Inter',sans-serif" font-weight="700" font-size="20" fill="#37352f" text-anchor="middle">Block 3</text><path d="M 600 190 L 720 190" stroke="#e5e7eb" stroke-width="2"/><text x="660" y="215" font-family="'Inter',sans-serif" font-weight="500" font-size="16" fill="#787774" text-anchor="middle">Prev: 0x2B</text><text x="660" y="240" font-family="'Inter',sans-serif" font-weight="500" font-size="16" fill="#787774" text-anchor="middle">Hash: 0x3C</text></g>
  <rect x="0" y="360" width="800" height="40" fill="#ffffff" opacity="0.9"/>
  <text x="770" y="385" font-family="'Inter',sans-serif" font-weight="500" font-size="12" fill="#787774" text-anchor="end">@vedangvatsa</text>
</svg>