<?xml version="1.0" encoding="utf-8"?>
<svg xmlns="http://www.w3.org/2000/svg" viewBox="0 0 800 400" width="800" height="400" style="background-color:#ffffff">
<defs><marker id="arrow" markerWidth="6" markerHeight="6" refX="5" refY="3" orient="auto"><path d="M 0 0 L 6 3 L 0 6 z" fill="#059669"/></marker></defs>
<rect width="800" height="400" fill="#ffffff"/>
<g transform="translate(0,-45)"><circle cx="400" cy="180" r="35" fill="#059669" fill-opacity="0.1" stroke="#059669" stroke-width="2"/><text x="400" y="188" font-family="'Inter',sans-serif" font-weight="700" font-size="16" fill="#059669" text-anchor="middle">Origin</text><circle cx="180" cy="120" r="20" fill="#fff" stroke="#e5e7eb" stroke-width="2"/><text x="180" y="126" font-family="'Inter',sans-serif" font-weight="600" font-size="11" fill="#787774" text-anchor="middle">Edge</text><line x1="257" y1="141" x2="334" y2="162" stroke="#e5e7eb" stroke-width="1" stroke-dasharray="3 3"/><circle cx="620" cy="120" r="20" fill="#fff" stroke="#e5e7eb" stroke-width="2"/><text x="620" y="126" font-family="'Inter',sans-serif" font-weight="600" font-size="11" fill="#787774" text-anchor="middle">Edge</text><line x1="543" y1="141" x2="466" y2="162" stroke="#e5e7eb" stroke-width="1" stroke-dasharray="3 3"/><circle cx="140" cy="260" r="20" fill="#fff" stroke="#e5e7eb" stroke-width="2"/><text x="140" y="266" font-family="'Inter',sans-serif" font-weight="600" font-size="11" fill="#787774" text-anchor="middle">Edge</text><line x1="231" y1="232" x2="322" y2="204" stroke="#e5e7eb" stroke-width="1" stroke-dasharray="3 3"/><circle cx="660" cy="260" r="20" fill="#fff" stroke="#e5e7eb" stroke-width="2"/><text x="660" y="266" font-family="'Inter',sans-serif" font-weight="600" font-size="11" fill="#787774" text-anchor="middle">Edge</text><line x1="569" y1="232" x2="478" y2="204" stroke="#e5e7eb" stroke-width="1" stroke-dasharray="3 3"/><circle cx="300" cy="290" r="20" fill="#fff" stroke="#e5e7eb" stroke-width="2"/><text x="300" y="296" font-family="'Inter',sans-serif" font-weight="600" font-size="11" fill="#787774" text-anchor="middle">Edge</text><line x1="335" y1="251.5" x2="370" y2="213" stroke="#e5e7eb" stroke-width="1" stroke-dasharray="3 3"/><circle cx="500" cy="290" r="20" fill="#fff" stroke="#e5e7eb" stroke-width="2"/><text x="500" y="296" font-family="'Inter',sans-serif" font-weight="600" font-size="11" fill="#787774" text-anchor="middle">Edge</text><line x1="465" y1="251.5" x2="430" y2="213" stroke="#e5e7eb" stroke-width="1" stroke-dasharray="3 3"/><text x="400" y="345" font-family="'Inter',sans-serif" font-weight="600" font-size="18" fill="#37352f" text-anchor="middle">Serve content from nearest edge node</text></g>
<rect x="0" y="360" width="800" height="40" fill="#ffffff" opacity="0.9"/>
<text x="770" y="385" font-family="'Inter',sans-serif" font-weight="500" font-size="12" fill="#787774" text-anchor="end">@vedangvatsa</text>
</svg>