<?xml version="1.0" encoding="utf-8"?>
<svg xmlns="http://www.w3.org/2000/svg" viewBox="0 0 800 400" width="800" height="400">
<rect width="800" height="400" fill="#fff"/>
<circle cx="400" cy="200" r="195" fill="none" stroke="#dbeafe" stroke-width="1"/>
<circle cx="400" cy="200" r="140" fill="none" stroke="#dbeafe" stroke-width="1" stroke-dasharray="6 4"/>
<line x1="400" y1="200" x2="400" y2="60" stroke="#93c5fd" stroke-width="1.5"/>
<circle cx="400" cy="60" r="34" fill="#eff6ff" stroke="#2563eb" stroke-width="2"/>
<text x="400" y="57.6625" font-family="'Inter',sans-serif" font-weight="600" font-size="8.5" fill="#1e3a5f" text-anchor="middle">Cryptocurrency</text>
<text x="400" y="68.2875" font-family="'Inter',sans-serif" font-weight="600" font-size="8.5" fill="#1e3a5f" text-anchor="middle">Wallet</text>
<line x1="400" y1="200" x2="521.2435565298214" y2="130" stroke="#93c5fd" stroke-width="1.5"/>
<circle cx="521.2435565298214" cy="130" r="34" fill="#eff6ff" stroke="#2563eb" stroke-width="2"/>
<text x="521.2435565298214" y="133.5" font-family="'Inter',sans-serif" font-weight="600" font-size="10" fill="#1e3a5f" text-anchor="middle">Rollup</text>
<line x1="400" y1="200" x2="521.2435565298214" y2="270" stroke="#93c5fd" stroke-width="1.5"/>
<circle cx="521.2435565298214" cy="270" r="34" fill="#eff6ff" stroke="#2563eb" stroke-width="2"/>
<text x="521.2435565298214" y="273.5" font-family="'Inter',sans-serif" font-weight="600" font-size="10" fill="#1e3a5f" text-anchor="middle">Sequencer</text>
<line x1="400" y1="200" x2="400" y2="340" stroke="#93c5fd" stroke-width="1.5"/>
<circle cx="400" cy="340" r="34" fill="#eff6ff" stroke="#2563eb" stroke-width="2"/>
<text x="400" y="337.6625" font-family="'Inter',sans-serif" font-weight="600" font-size="8.5" fill="#1e3a5f" text-anchor="middle">Basis</text>
<text x="400" y="348.2875" font-family="'Inter',sans-serif" font-weight="600" font-size="8.5" fill="#1e3a5f" text-anchor="middle">Trade</text>
<line x1="400" y1="200" x2="278.75644347017857" y2="270" stroke="#93c5fd" stroke-width="1.5"/>
<circle cx="278.75644347017857" cy="270" r="34" fill="#eff6ff" stroke="#2563eb" stroke-width="2"/>
<text x="278.75644347017857" y="273.5" font-family="'Inter',sans-serif" font-weight="600" font-size="10" fill="#1e3a5f" text-anchor="middle">ZK Rollup</text>
<line x1="400" y1="200" x2="278.7564434701786" y2="130" stroke="#93c5fd" stroke-width="1.5"/>
<circle cx="278.7564434701786" cy="130" r="34" fill="#eff6ff" stroke="#2563eb" stroke-width="2"/>
<text x="278.7564434701786" y="133.5" font-family="'Inter',sans-serif" font-weight="600" font-size="10" fill="#1e3a5f" text-anchor="middle">Yield</text>
<circle cx="400" cy="200" r="55" fill="#2563eb"/>
<text x="400" y="204.9" font-family="'Inter',sans-serif" font-weight="800" font-size="14" fill="#fff" text-anchor="middle">Cold Wallet</text>

</svg>