<?xml version="1.0" encoding="utf-8"?>
<svg xmlns="http://www.w3.org/2000/svg" viewBox="0 0 800 400" width="800" height="400" style="background-color:#ffffff">
  <defs>
    <marker id="arrow" markerWidth="6" markerHeight="6" refX="5" refY="3" orient="auto"><path d="M 0 0 L 6 3 L 0 6 z" fill="#9333ea"/></marker>
    <marker id="arrowGray" markerWidth="6" markerHeight="6" refX="5" refY="3" orient="auto"><path d="M 0 0 L 6 3 L 0 6 z" fill="#787774"/></marker>
  </defs>
  <rect width="800" height="400" fill="#ffffff"/>
  <g transform="translate(0,-32)"><rect x="100" y="100" width="200" height="160" rx="8" fill="#ffffff" stroke="#e5e7eb" stroke-width="2"/><circle cx="160" cy="145" r="20" fill="#f59e0b" fill-opacity="0.3"/><rect x="180" y="180" width="60" height="60" rx="4" fill="#9333ea" fill-opacity="0.15"/><path d="M 130 230 L 200 180 L 260 230" fill="#10b981" fill-opacity="0.2" stroke="#10b981" stroke-width="1.5"/><line x1="310" y1="180" x2="380" y2="180" stroke="#9333ea" stroke-width="2" marker-end="url(#arrow)"/><rect x="400" y="100" width="200" height="160" rx="8" fill="#ffffff" stroke="#e5e7eb" stroke-width="2"/><rect x="440" y="120" width="48" height="48" rx="2" fill="none" stroke="#9333ea" stroke-width="2"/><text x="465" y="152" font-family="'Inter',sans-serif" font-weight="600" font-size="20" fill="#37352f" text-anchor="middle">☀</text><rect x="475" y="158" width="70" height="70" rx="2" fill="none" stroke="#10b981" stroke-width="2"/><rect x="505" y="135" width="70" height="30" rx="8" fill="#9333ea" fill-opacity="0.1"/><text x="540" y="155" font-family="'Inter',sans-serif" font-weight="600" font-size="12" fill="#9333ea" text-anchor="middle">Object</text><text x="630" y="145" font-family="'Inter',sans-serif" font-weight="600" font-size="14" fill="#f59e0b" text-anchor="start">Sun: 98%</text><text x="630" y="180" font-family="'Inter',sans-serif" font-weight="600" font-size="14" fill="#9333ea" text-anchor="start">House: 95%</text><text x="630" y="215" font-family="'Inter',sans-serif" font-weight="600" font-size="14" fill="#10b981" text-anchor="start">Tree: 92%</text><text x="400" y="340" font-family="'Inter',sans-serif" font-weight="600" font-size="20" fill="#37352f" text-anchor="middle">AI that sees and understands images</text></g>
  <rect x="0" y="360" width="800" height="40" fill="#ffffff" opacity="0.9"/>
  <text x="770" y="385" font-family="'Inter',sans-serif" font-weight="500" font-size="12" fill="#787774" text-anchor="end">@vedangvatsa</text>
</svg>