<?xml version="1.0" encoding="utf-8"?>
<svg xmlns="http://www.w3.org/2000/svg" viewBox="0 0 800 400" width="800" height="400" style="background-color:#ffffff">
  <defs>
    <marker id="arrow" markerWidth="6" markerHeight="6" refX="5" refY="3" orient="auto">
      <path d="M 0 0 L 6 3 L 0 6 z" fill="#2563eb"/>
    </marker>
    <marker id="arrowGray" markerWidth="6" markerHeight="6" refX="5" refY="3" orient="auto">
      <path d="M 0 0 L 6 3 L 0 6 z" fill="#787774"/>
    </marker>
  </defs>
  <rect width="800" height="400" fill="#ffffff"/>
  <g transform="translate(0,-42)"><circle cx="200" cy="180" r="24" fill="#ffffff" stroke="#2563eb" stroke-width="2"/><path d="M 194 182 L 199 187 L 208 175" fill="none" stroke="#10b981" stroke-width="3"/><circle cx="400" cy="120" r="24" fill="#ffffff" stroke="#2563eb" stroke-width="2"/><path d="M 394 122 L 399 127 L 408 115" fill="none" stroke="#10b981" stroke-width="3"/><circle cx="600" cy="180" r="24" fill="#ffffff" stroke="#2563eb" stroke-width="2"/><path d="M 594 182 L 599 187 L 608 175" fill="none" stroke="#10b981" stroke-width="3"/><circle cx="300" cy="280" r="24" fill="#ffffff" stroke="#2563eb" stroke-width="2"/><path d="M 294 282 L 299 287 L 308 275" fill="none" stroke="#10b981" stroke-width="3"/><circle cx="500" cy="280" r="24" fill="#ffffff" stroke="#2563eb" stroke-width="2"/><path d="M 494 282 L 499 287 L 508 275" fill="none" stroke="#10b981" stroke-width="3"/><line x1="200" y1="180" x2="400" y2="120" stroke="#e5e7eb" stroke-width="1" stroke-opacity="0.5"/><line x1="200" y1="180" x2="600" y2="180" stroke="#e5e7eb" stroke-width="1" stroke-opacity="0.5"/><line x1="200" y1="180" x2="300" y2="280" stroke="#e5e7eb" stroke-width="1" stroke-opacity="0.5"/><line x1="200" y1="180" x2="500" y2="280" stroke="#e5e7eb" stroke-width="1" stroke-opacity="0.5"/><line x1="400" y1="120" x2="600" y2="180" stroke="#e5e7eb" stroke-width="1" stroke-opacity="0.5"/><line x1="400" y1="120" x2="300" y2="280" stroke="#e5e7eb" stroke-width="1" stroke-opacity="0.5"/><line x1="400" y1="120" x2="500" y2="280" stroke="#e5e7eb" stroke-width="1" stroke-opacity="0.5"/><line x1="600" y1="180" x2="300" y2="280" stroke="#e5e7eb" stroke-width="1" stroke-opacity="0.5"/><line x1="600" y1="180" x2="500" y2="280" stroke="#e5e7eb" stroke-width="1" stroke-opacity="0.5"/><line x1="300" y1="280" x2="500" y2="280" stroke="#e5e7eb" stroke-width="1" stroke-opacity="0.5"/><text x="400" y="340" font-family="'Inter',sans-serif" font-weight="600" font-size="20" fill="#37352f" text-anchor="middle">Nodes agree on a single truth</text></g>
  <rect x="0" y="360" width="800" height="40" fill="#ffffff" opacity="0.9"/>
  <text x="770" y="385" font-family="'Inter',sans-serif" font-weight="500" font-size="12" fill="#787774" text-anchor="end">@vedangvatsa</text>
</svg>