<?xml version="1.0" encoding="utf-8"?>
<svg xmlns="http://www.w3.org/2000/svg" viewBox="0 0 800 400" width="800" height="400" style="background-color:#ffffff">
<defs><marker id="arrow" markerWidth="6" markerHeight="6" refX="5" refY="3" orient="auto"><path d="M 0 0 L 6 3 L 0 6 z" fill="#059669"/></marker></defs>
<rect width="800" height="400" fill="#ffffff"/>
<g transform="translate(0,-35)"><rect x="200" y="100" width="400" height="200" rx="16" fill="#fff" stroke="#059669" stroke-width="3"/><text x="400" y="140" font-family="'Inter',sans-serif" font-weight="800" font-size="24" fill="#059669" text-anchor="middle">Container</text><rect x="240" y="160" width="100" height="40" rx="8" fill="#fff" stroke="#059669" stroke-width="2"/><text x="290" y="186" font-family="'Inter',sans-serif" font-weight="600" font-size="14" fill="#059669" text-anchor="middle">App</text><rect x="355" y="160" width="100" height="40" rx="8" fill="#fff" stroke="#059669" stroke-width="2"/><text x="405" y="186" font-family="'Inter',sans-serif" font-weight="600" font-size="14" fill="#059669" text-anchor="middle">Libs</text><rect x="470" y="160" width="100" height="40" rx="8" fill="#fff" stroke="#059669" stroke-width="2"/><text x="520" y="186" font-family="'Inter',sans-serif" font-weight="600" font-size="14" fill="#059669" text-anchor="middle">Config</text><rect x="300" y="220" width="200" height="50" rx="8" fill="#fff" stroke="#e5e7eb" stroke-width="2"/><text x="400" y="251" font-family="'Inter',sans-serif" font-weight="600" font-size="14" fill="#37352f" text-anchor="middle">Runtime Environment</text><rect x="150" y="310" width="500" height="35" rx="6" fill="#e5e7eb" fill-opacity="0.3"/><text x="400" y="335" font-family="'Inter',sans-serif" font-weight="600" font-size="14" fill="#787774" text-anchor="middle">Host OS (Shared Kernel)</text><text x="400" y="290" font-family="'Inter',sans-serif" font-weight="600" font-size="16" fill="#37352f" text-anchor="middle">Same container runs everywhere</text></g>
<rect x="0" y="360" width="800" height="40" fill="#ffffff" opacity="0.9"/>
<text x="770" y="385" font-family="'Inter',sans-serif" font-weight="500" font-size="12" fill="#787774" text-anchor="end">@vedangvatsa</text>
</svg>