<?xml version="1.0" encoding="utf-8"?>
<svg xmlns="http://www.w3.org/2000/svg" viewBox="0 0 800 400" width="800" height="400" style="background-color:#ffffff">
  <defs>
    <marker id="arrow" markerWidth="6" markerHeight="6" refX="5" refY="3" orient="auto">
      <path d="M 0 0 L 6 3 L 0 6 z" fill="#9333ea"/>
    </marker>
    <marker id="arrowGray" markerWidth="6" markerHeight="6" refX="5" refY="3" orient="auto">
      <path d="M 0 0 L 6 3 L 0 6 z" fill="#787774"/>
    </marker>
  </defs>
  <rect width="800" height="400" fill="#ffffff"/>
  <g transform="translate(0,-27)"><rect x="80" y="100" width="640" height="60" rx="8" fill="#ffffff" stroke="#e5e7eb" stroke-width="2"/><rect x="80" y="100" width="420" height="60" rx="8" fill="#9333ea" fill-opacity="0.1" stroke="#9333ea" stroke-width="2"/><text x="290" y="138" font-family="'Inter',sans-serif" font-weight="700" font-size="20" fill="#9333ea" text-anchor="middle">Tokens Used</text><text x="560" y="138" font-family="'Inter',sans-serif" font-weight="600" font-size="18" fill="#787774" text-anchor="middle">Available</text><line x1="80" y1="170" x2="80" y2="180" stroke="#787774" stroke-width="1"/><text x="80" y="198" font-family="'Inter',sans-serif" font-weight="500" font-size="13" fill="#787774" text-anchor="middle">0K</text><line x1="160" y1="170" x2="160" y2="180" stroke="#787774" stroke-width="1"/><text x="160" y="198" font-family="'Inter',sans-serif" font-weight="500" font-size="13" fill="#787774" text-anchor="middle">16K</text><line x1="240" y1="170" x2="240" y2="180" stroke="#787774" stroke-width="1"/><text x="240" y="198" font-family="'Inter',sans-serif" font-weight="500" font-size="13" fill="#787774" text-anchor="middle">32K</text><line x1="320" y1="170" x2="320" y2="180" stroke="#787774" stroke-width="1"/><text x="320" y="198" font-family="'Inter',sans-serif" font-weight="500" font-size="13" fill="#787774" text-anchor="middle">48K</text><line x1="400" y1="170" x2="400" y2="180" stroke="#787774" stroke-width="1"/><text x="400" y="198" font-family="'Inter',sans-serif" font-weight="500" font-size="13" fill="#787774" text-anchor="middle">64K</text><line x1="480" y1="170" x2="480" y2="180" stroke="#787774" stroke-width="1"/><text x="480" y="198" font-family="'Inter',sans-serif" font-weight="500" font-size="13" fill="#787774" text-anchor="middle">80K</text><line x1="560" y1="170" x2="560" y2="180" stroke="#787774" stroke-width="1"/><text x="560" y="198" font-family="'Inter',sans-serif" font-weight="500" font-size="13" fill="#787774" text-anchor="middle">96K</text><line x1="640" y1="170" x2="640" y2="180" stroke="#787774" stroke-width="1"/><text x="640" y="198" font-family="'Inter',sans-serif" font-weight="500" font-size="13" fill="#787774" text-anchor="middle">112K</text><line x1="720" y1="170" x2="720" y2="180" stroke="#787774" stroke-width="1"/><text x="720" y="198" font-family="'Inter',sans-serif" font-weight="500" font-size="13" fill="#787774" text-anchor="middle">128K</text><path d="M 80 230 L 80 260 L 720 260 L 720 230" fill="none" stroke="#37352f" stroke-width="2"/><text x="400" y="290" font-family="'Inter',sans-serif" font-weight="700" font-size="24" fill="#37352f" text-anchor="middle">128K Token Window</text><text x="400" y="330" font-family="'Inter',sans-serif" font-weight="500" font-size="16" fill="#787774" text-anchor="middle">All text the model can see at once</text></g>
  <rect x="0" y="360" width="800" height="40" fill="#ffffff" opacity="0.9"/>
  <text x="770" y="385" font-family="'Inter',sans-serif" font-weight="500" font-size="12" fill="#787774" text-anchor="end">@vedangvatsa</text>
</svg>