<?xml version="1.0" encoding="utf-8"?>
<svg xmlns="http://www.w3.org/2000/svg" viewBox="0 0 800 400" width="800" height="400" style="background-color:#ffffff">
<defs><marker id="arrow" markerWidth="6" markerHeight="6" refX="5" refY="3" orient="auto"><path d="M 0 0 L 6 3 L 0 6 z" fill="#2563eb"/></marker></defs>
<rect width="800" height="400" fill="#ffffff"/>
<g transform="translate(0,-50)"><circle cx="150" cy="180" r="30" fill="#ffffff" stroke="#2563eb" stroke-width="2"/><text x="150" y="186" font-family="'Inter',sans-serif" font-weight="700" font-size="14" fill="#2563eb" text-anchor="middle">Eth</text><circle cx="400" cy="130" r="30" fill="#ffffff" stroke="#2563eb" stroke-width="2"/><text x="400" y="136" font-family="'Inter',sans-serif" font-weight="700" font-size="14" fill="#2563eb" text-anchor="middle">Pol</text><circle cx="650" cy="180" r="30" fill="#ffffff" stroke="#2563eb" stroke-width="2"/><text x="650" y="186" font-family="'Inter',sans-serif" font-weight="700" font-size="14" fill="#2563eb" text-anchor="middle">Sol</text><circle cx="275" cy="280" r="30" fill="#ffffff" stroke="#2563eb" stroke-width="2"/><text x="275" y="286" font-family="'Inter',sans-serif" font-weight="700" font-size="14" fill="#2563eb" text-anchor="middle">Arb</text><circle cx="525" cy="280" r="30" fill="#ffffff" stroke="#2563eb" stroke-width="2"/><text x="525" y="286" font-family="'Inter',sans-serif" font-weight="700" font-size="14" fill="#2563eb" text-anchor="middle">Ava</text><line x1="150" y1="180" x2="400" y2="130" stroke="#e5e7eb" stroke-width="1.5" stroke-opacity="0.4"/><line x1="150" y1="180" x2="650" y2="180" stroke="#e5e7eb" stroke-width="1.5" stroke-opacity="0.4"/><line x1="150" y1="180" x2="275" y2="280" stroke="#e5e7eb" stroke-width="1.5" stroke-opacity="0.4"/><line x1="150" y1="180" x2="525" y2="280" stroke="#e5e7eb" stroke-width="1.5" stroke-opacity="0.4"/><line x1="400" y1="130" x2="650" y2="180" stroke="#e5e7eb" stroke-width="1.5" stroke-opacity="0.4"/><line x1="400" y1="130" x2="275" y2="280" stroke="#e5e7eb" stroke-width="1.5" stroke-opacity="0.4"/><line x1="400" y1="130" x2="525" y2="280" stroke="#e5e7eb" stroke-width="1.5" stroke-opacity="0.4"/><line x1="650" y1="180" x2="275" y2="280" stroke="#e5e7eb" stroke-width="1.5" stroke-opacity="0.4"/><line x1="650" y1="180" x2="525" y2="280" stroke="#e5e7eb" stroke-width="1.5" stroke-opacity="0.4"/><line x1="275" y1="280" x2="525" y2="280" stroke="#e5e7eb" stroke-width="1.5" stroke-opacity="0.4"/><text x="400" y="345" font-family="'Inter',sans-serif" font-weight="600" font-size="20" fill="#37352f" text-anchor="middle">Interoperability between networks</text></g>
<rect x="0" y="360" width="800" height="40" fill="#ffffff" opacity="0.9"/>
<text x="770" y="385" font-family="'Inter',sans-serif" font-weight="500" font-size="12" fill="#787774" text-anchor="end">@vedangvatsa</text>
</svg>