<?xml version="1.0" encoding="utf-8"?>
<svg xmlns="http://www.w3.org/2000/svg" viewBox="0 0 800 400" width="800" height="400" style="background-color:#ffffff">
<defs><marker id="arrow" markerWidth="6" markerHeight="6" refX="5" refY="3" orient="auto"><path d="M 0 0 L 6 3 L 0 6 z" fill="#2563eb"/></marker></defs>
<rect width="800" height="400" fill="#ffffff"/>
<g><rect x="60" y="60" width="220" height="120" rx="10" fill="#ffffff" stroke="#e5e7eb" stroke-width="2"/><text x="170" y="110" font-family="'Inter',sans-serif" font-weight="700" font-size="22" fill="#37352f" text-anchor="middle">Chain A</text><text x="170" y="140" font-family="'Inter',sans-serif" font-weight="500" font-size="14" fill="#787774" text-anchor="middle">Lock tokens here</text><rect x="520" y="60" width="220" height="120" rx="10" fill="#ffffff" stroke="#2563eb" stroke-width="2"/><text x="630" y="110" font-family="'Inter',sans-serif" font-weight="700" font-size="22" fill="#2563eb" text-anchor="middle">Chain B</text><text x="630" y="140" font-family="'Inter',sans-serif" font-weight="500" font-size="14" fill="#787774" text-anchor="middle">Mint wrapped</text><path d="M 285 100 Q 400 20 515 100" fill="none" stroke="#2563eb" stroke-width="3"/><path d="M 515 140 Q 400 220 285 140" fill="none" stroke="#2563eb" stroke-width="3" stroke-dasharray="6 6"/><text x="400" y="65" font-family="'Inter',sans-serif" font-weight="800" font-size="22" fill="#2563eb" text-anchor="middle">Bridge</text><circle cx="340" cy="70" r="12" fill="#2563eb" fill-opacity="0.2" stroke="#2563eb" stroke-width="1.5"/><text x="340" y="76" font-family="'Inter',sans-serif" font-weight="700" font-size="12" fill="#2563eb" text-anchor="middle">→</text><circle cx="460" cy="70" r="12" fill="#2563eb" fill-opacity="0.2" stroke="#2563eb" stroke-width="1.5"/><text x="460" y="76" font-family="'Inter',sans-serif" font-weight="700" font-size="12" fill="#2563eb" text-anchor="middle">→</text><rect x="200" y="220" width="400" height="45" rx="8" fill="#ef4444" fill-opacity="0.05" stroke="#ef4444" stroke-width="1.5"/><text x="400" y="250" font-family="'Inter',sans-serif" font-weight="600" font-size="14" fill="#ef4444" text-anchor="middle">Trust assumption: bridge operator security</text><text x="400" y="320" font-family="'Inter',sans-serif" font-weight="600" font-size="16" fill="#37352f" text-anchor="middle">Transfer assets between different blockchains</text></g>
<rect x="0" y="360" width="800" height="40" fill="#ffffff" opacity="0.9"/>
<text x="770" y="385" font-family="'Inter',sans-serif" font-weight="500" font-size="12" fill="#787774" text-anchor="end">@vedangvatsa</text>
</svg>