<?xml version="1.0" encoding="utf-8"?>
<svg xmlns="http://www.w3.org/2000/svg" viewBox="0 0 800 400" width="800" height="400">
  <defs>
    <radialGradient id="glow" cx="50%" cy="50%" r="50%">
      <stop offset="0%" stop-color="rgba(37,99,235,0.06)"/>
      <stop offset="100%" stop-color="#ffffff" stop-opacity="0"/>
    </radialGradient>
    <pattern id="grid" width="40" height="40" patternUnits="userSpaceOnUse">
      <circle cx="2" cy="2" r="1.5" fill="#e5e7eb" opacity="0.8"/>
    </pattern>
  </defs>
  <rect width="800" height="400" fill="#ffffff"/>
  <rect width="800" height="400" fill="url(#grid)"/>
  <rect x="0" y="0" width="800" height="400" fill="url(#glow)"/>
  
  <!-- Visual Architecture -->
  <g transform="translate(0, -20)">
    <circle cx="400" cy="180" r="115" fill="none" stroke="#2563eb" stroke-width="1.3" opacity="0.85"/>
<circle cx="400" cy="180" r="140" fill="none" stroke="#2563eb" stroke-width="1.1" opacity="0.7"/>
<circle cx="400" cy="180" r="165" fill="none" stroke="#2563eb" stroke-width="0.8999999999999999" opacity="0.55"/>
<circle cx="400" cy="180" r="190" fill="none" stroke="#2563eb" stroke-width="0.7" opacity="0.4"/>
<circle cx="400" cy="180" r="215" fill="none" stroke="#2563eb" stroke-width="0.5" opacity="0.25"/>
<circle cx="400" cy="180" r="90" fill="#2563eb" opacity="0.1"/>
<circle cx="515" cy="180" r="3" fill="#2563eb"/>
<circle cx="499.5929214352104" cy="237.5" r="3" fill="#2563eb"/>
<circle cx="457.5" cy="279.5929214352104" r="3" fill="#2563eb"/>
<circle cx="400" cy="295" r="3" fill="#2563eb"/>
<circle cx="342.5" cy="279.5929214352104" r="3" fill="#2563eb"/>
<circle cx="300.4070785647896" cy="237.5" r="3" fill="#2563eb"/>
<circle cx="285" cy="180" r="3" fill="#2563eb"/>
<circle cx="300.4070785647896" cy="122.49999999999999" r="3" fill="#2563eb"/>
<circle cx="342.49999999999994" cy="80.40707856478957" r="3" fill="#2563eb"/>
<circle cx="400" cy="65" r="3" fill="#2563eb"/>
<circle cx="457.5" cy="80.40707856478956" r="3" fill="#2563eb"/>
<circle cx="499.5929214352104" cy="122.49999999999994" r="3" fill="#2563eb"/>

  </g>

  <!-- Typography Card Section at Bottom -->
  <rect x="0" y="300" width="800" height="100" fill="#ffffff" opacity="0.95"/>
  <line x1="0" y1="300" x2="800" y2="300" stroke="#e5e7eb" stroke-opacity="1" stroke-width="1.5"/>
  
  <text x="400" y="335" font-family="'Inter',sans-serif" font-weight="600" font-size="12" fill="#2563eb" text-anchor="middle" letter-spacing="2" text-transform="uppercase">Web3 GLOSSARY</text>
  <text x="400" y="370" font-family="'Inter',sans-serif" font-weight="700" font-size="28" fill="#09090b" text-anchor="middle" letter-spacing="-0.5">Cryptocurrency Wallet</text>
</svg>