<?xml version="1.0" encoding="utf-8"?>
<svg xmlns="http://www.w3.org/2000/svg" viewBox="0 0 800 400" width="800" height="400" style="background-color:#ffffff">
  <defs>
    <marker id="arrow" markerWidth="6" markerHeight="6" refX="5" refY="3" orient="auto">
      <path d="M 0 0 L 6 3 L 0 6 z" fill="#2563eb"/>
    </marker>
    <marker id="arrowGray" markerWidth="6" markerHeight="6" refX="5" refY="3" orient="auto">
      <path d="M 0 0 L 6 3 L 0 6 z" fill="#787774"/>
    </marker>
  </defs>
  <rect width="800" height="400" fill="#ffffff"/>
  <g transform="translate(0,-30)"><circle cx="400" cy="200" r="55" fill="#2563eb" fill-opacity="0.06" stroke="#2563eb" stroke-width="2"/><text x="400" y="195" font-family="'Inter',sans-serif" font-weight="700" font-size="18" fill="#2563eb" text-anchor="middle">Governance</text><text x="400" y="218" font-family="'Inter',sans-serif" font-weight="600" font-size="16" fill="#2563eb" text-anchor="middle">Treasury</text><circle cx="200" cy="140" r="18" fill="#ffffff" stroke="#e5e7eb" stroke-width="2"/><circle cx="200" cy="136" r="5" fill="#787774"/><path d="M 192 148 Q 200 156 208 148" fill="none" stroke="#787774" stroke-width="2"/><line x1="270" y1="161" x2="340" y2="182" stroke="#e5e7eb" stroke-width="1.5" stroke-dasharray="4 4"/><circle cx="600" cy="140" r="18" fill="#ffffff" stroke="#e5e7eb" stroke-width="2"/><circle cx="600" cy="136" r="5" fill="#787774"/><path d="M 592 148 Q 600 156 608 148" fill="none" stroke="#787774" stroke-width="2"/><line x1="530" y1="161" x2="460" y2="182" stroke="#e5e7eb" stroke-width="1.5" stroke-dasharray="4 4"/><circle cx="200" cy="260" r="18" fill="#ffffff" stroke="#e5e7eb" stroke-width="2"/><circle cx="200" cy="256" r="5" fill="#787774"/><path d="M 192 268 Q 200 276 208 268" fill="none" stroke="#787774" stroke-width="2"/><line x1="270" y1="239" x2="340" y2="218" stroke="#e5e7eb" stroke-width="1.5" stroke-dasharray="4 4"/><circle cx="600" cy="260" r="18" fill="#ffffff" stroke="#e5e7eb" stroke-width="2"/><circle cx="600" cy="256" r="5" fill="#787774"/><path d="M 592 268 Q 600 276 608 268" fill="none" stroke="#787774" stroke-width="2"/><line x1="530" y1="239" x2="460" y2="218" stroke="#e5e7eb" stroke-width="1.5" stroke-dasharray="4 4"/><circle cx="400" cy="100" r="18" fill="#ffffff" stroke="#e5e7eb" stroke-width="2"/><circle cx="400" cy="96" r="5" fill="#787774"/><path d="M 392 108 Q 400 116 408 108" fill="none" stroke="#787774" stroke-width="2"/><line x1="400" y1="135" x2="400" y2="170" stroke="#e5e7eb" stroke-width="1.5" stroke-dasharray="4 4"/><text x="200" y="115" font-family="'Inter',sans-serif" font-weight="600" font-size="14" fill="#2563eb" text-anchor="middle">Vote</text><text x="600" y="115" font-family="'Inter',sans-serif" font-weight="600" font-size="14" fill="#2563eb" text-anchor="middle">Vote</text><text x="400" y="340" font-family="'Inter',sans-serif" font-weight="600" font-size="20" fill="#37352f" text-anchor="middle">Community-governed organization</text></g>
  <rect x="0" y="360" width="800" height="40" fill="#ffffff" opacity="0.9"/>
  <text x="770" y="385" font-family="'Inter',sans-serif" font-weight="500" font-size="12" fill="#787774" text-anchor="end">@vedangvatsa</text>
</svg>