<?xml version="1.0" encoding="utf-8"?>
<svg xmlns="http://www.w3.org/2000/svg" viewBox="0 0 800 400" width="800" height="400" style="background-color:#ffffff">
<defs><marker id="arrow" markerWidth="6" markerHeight="6" refX="5" refY="3" orient="auto"><path d="M 0 0 L 6 3 L 0 6 z" fill="#9333ea"/></marker></defs>
<rect width="800" height="400" fill="#ffffff"/>
<g transform="translate(0,-57)"><circle cx="150" cy="180" r="10" fill="#ffffff" fill-opacity="1" stroke="#e5e7eb" stroke-width="1.5"/><circle cx="150" cy="220" r="10" fill="#ffffff" fill-opacity="1" stroke="#e5e7eb" stroke-width="1.5"/><circle cx="150" cy="260" r="10" fill="#ffffff" fill-opacity="1" stroke="#e5e7eb" stroke-width="1.5"/><circle cx="150" cy="300" r="10" fill="#ffffff" fill-opacity="1" stroke="#e5e7eb" stroke-width="1.5"/><line x1="160" y1="180" x2="250" y2="160" stroke="#9333ea" stroke-width="0.5" stroke-opacity="0.15"/><line x1="160" y1="180" x2="250" y2="200" stroke="#9333ea" stroke-width="0.5" stroke-opacity="0.15"/><line x1="160" y1="180" x2="250" y2="240" stroke="#9333ea" stroke-width="0.5" stroke-opacity="0.15"/><line x1="160" y1="180" x2="250" y2="280" stroke="#9333ea" stroke-width="0.5" stroke-opacity="0.15"/><line x1="160" y1="180" x2="250" y2="320" stroke="#9333ea" stroke-width="0.5" stroke-opacity="0.15"/><line x1="160" y1="220" x2="250" y2="160" stroke="#9333ea" stroke-width="0.5" stroke-opacity="0.15"/><line x1="160" y1="220" x2="250" y2="200" stroke="#9333ea" stroke-width="0.5" stroke-opacity="0.15"/><line x1="160" y1="220" x2="250" y2="240" stroke="#9333ea" stroke-width="0.5" stroke-opacity="0.15"/><line x1="160" y1="220" x2="250" y2="280" stroke="#9333ea" stroke-width="0.5" stroke-opacity="0.15"/><line x1="160" y1="220" x2="250" y2="320" stroke="#9333ea" stroke-width="0.5" stroke-opacity="0.15"/><line x1="160" y1="260" x2="250" y2="160" stroke="#9333ea" stroke-width="0.5" stroke-opacity="0.15"/><line x1="160" y1="260" x2="250" y2="200" stroke="#9333ea" stroke-width="0.5" stroke-opacity="0.15"/><line x1="160" y1="260" x2="250" y2="240" stroke="#9333ea" stroke-width="0.5" stroke-opacity="0.15"/><line x1="160" y1="260" x2="250" y2="280" stroke="#9333ea" stroke-width="0.5" stroke-opacity="0.15"/><line x1="160" y1="260" x2="250" y2="320" stroke="#9333ea" stroke-width="0.5" stroke-opacity="0.15"/><line x1="160" y1="300" x2="250" y2="160" stroke="#9333ea" stroke-width="0.5" stroke-opacity="0.15"/><line x1="160" y1="300" x2="250" y2="200" stroke="#9333ea" stroke-width="0.5" stroke-opacity="0.15"/><line x1="160" y1="300" x2="250" y2="240" stroke="#9333ea" stroke-width="0.5" stroke-opacity="0.15"/><line x1="160" y1="300" x2="250" y2="280" stroke="#9333ea" stroke-width="0.5" stroke-opacity="0.15"/><line x1="160" y1="300" x2="250" y2="320" stroke="#9333ea" stroke-width="0.5" stroke-opacity="0.15"/><circle cx="260" cy="160" r="10" fill="#9333ea" fill-opacity="0.2" stroke="#9333ea" stroke-width="1.5"/><circle cx="260" cy="200" r="10" fill="#9333ea" fill-opacity="0.2" stroke="#9333ea" stroke-width="1.5"/><circle cx="260" cy="240" r="10" fill="#9333ea" fill-opacity="0.2" stroke="#9333ea" stroke-width="1.5"/><circle cx="260" cy="280" r="10" fill="#9333ea" fill-opacity="0.2" stroke="#9333ea" stroke-width="1.5"/><circle cx="260" cy="320" r="10" fill="#9333ea" fill-opacity="0.2" stroke="#9333ea" stroke-width="1.5"/><line x1="270" y1="160" x2="360" y2="140" stroke="#9333ea" stroke-width="0.5" stroke-opacity="0.15"/><line x1="270" y1="160" x2="360" y2="180" stroke="#9333ea" stroke-width="0.5" stroke-opacity="0.15"/><line x1="270" y1="160" x2="360" y2="220" stroke="#9333ea" stroke-width="0.5" stroke-opacity="0.15"/><line x1="270" y1="160" x2="360" y2="260" stroke="#9333ea" stroke-width="0.5" stroke-opacity="0.15"/><line x1="270" y1="160" x2="360" y2="300" stroke="#9333ea" stroke-width="0.5" stroke-opacity="0.15"/><line x1="270" y1="160" x2="360" y2="340" stroke="#9333ea" stroke-width="0.5" stroke-opacity="0.15"/><line x1="270" y1="200" x2="360" y2="140" stroke="#9333ea" stroke-width="0.5" stroke-opacity="0.15"/><line x1="270" y1="200" x2="360" y2="180" stroke="#9333ea" stroke-width="0.5" stroke-opacity="0.15"/><line x1="270" y1="200" x2="360" y2="220" stroke="#9333ea" stroke-width="0.5" stroke-opacity="0.15"/><line x1="270" y1="200" x2="360" y2="260" stroke="#9333ea" stroke-width="0.5" stroke-opacity="0.15"/><line x1="270" y1="200" x2="360" y2="300" stroke="#9333ea" stroke-width="0.5" stroke-opacity="0.15"/><line x1="270" y1="200" x2="360" y2="340" stroke="#9333ea" stroke-width="0.5" stroke-opacity="0.15"/><line x1="270" y1="240" x2="360" y2="140" stroke="#9333ea" stroke-width="0.5" stroke-opacity="0.15"/><line x1="270" y1="240" x2="360" y2="180" stroke="#9333ea" stroke-width="0.5" stroke-opacity="0.15"/><line x1="270" y1="240" x2="360" y2="220" stroke="#9333ea" stroke-width="0.5" stroke-opacity="0.15"/><line x1="270" y1="240" x2="360" y2="260" stroke="#9333ea" stroke-width="0.5" stroke-opacity="0.15"/><line x1="270" y1="240" x2="360" y2="300" stroke="#9333ea" stroke-width="0.5" stroke-opacity="0.15"/><line x1="270" y1="240" x2="360" y2="340" stroke="#9333ea" stroke-width="0.5" stroke-opacity="0.15"/><line x1="270" y1="280" x2="360" y2="140" stroke="#9333ea" stroke-width="0.5" stroke-opacity="0.15"/><line x1="270" y1="280" x2="360" y2="180" stroke="#9333ea" stroke-width="0.5" stroke-opacity="0.15"/><line x1="270" y1="280" x2="360" y2="220" stroke="#9333ea" stroke-width="0.5" stroke-opacity="0.15"/><line x1="270" y1="280" x2="360" y2="260" stroke="#9333ea" stroke-width="0.5" stroke-opacity="0.15"/><line x1="270" y1="280" x2="360" y2="300" stroke="#9333ea" stroke-width="0.5" stroke-opacity="0.15"/><line x1="270" y1="280" x2="360" y2="340" stroke="#9333ea" stroke-width="0.5" stroke-opacity="0.15"/><line x1="270" y1="320" x2="360" y2="140" stroke="#9333ea" stroke-width="0.5" stroke-opacity="0.15"/><line x1="270" y1="320" x2="360" y2="180" stroke="#9333ea" stroke-width="0.5" stroke-opacity="0.15"/><line x1="270" y1="320" x2="360" y2="220" stroke="#9333ea" stroke-width="0.5" stroke-opacity="0.15"/><line x1="270" y1="320" x2="360" y2="260" stroke="#9333ea" stroke-width="0.5" stroke-opacity="0.15"/><line x1="270" y1="320" x2="360" y2="300" stroke="#9333ea" stroke-width="0.5" stroke-opacity="0.15"/><line x1="270" y1="320" x2="360" y2="340" stroke="#9333ea" stroke-width="0.5" stroke-opacity="0.15"/><circle cx="370" cy="140" r="10" fill="#9333ea" fill-opacity="0.2" stroke="#9333ea" stroke-width="1.5"/><circle cx="370" cy="180" r="10" fill="#9333ea" fill-opacity="0.2" stroke="#9333ea" stroke-width="1.5"/><circle cx="370" cy="220" r="10" fill="#9333ea" fill-opacity="0.2" stroke="#9333ea" stroke-width="1.5"/><circle cx="370" cy="260" r="10" fill="#9333ea" fill-opacity="0.2" stroke="#9333ea" stroke-width="1.5"/><circle cx="370" cy="300" r="10" fill="#9333ea" fill-opacity="0.2" stroke="#9333ea" stroke-width="1.5"/><circle cx="370" cy="340" r="10" fill="#9333ea" fill-opacity="0.2" stroke="#9333ea" stroke-width="1.5"/><line x1="380" y1="140" x2="470" y2="140" stroke="#9333ea" stroke-width="0.5" stroke-opacity="0.15"/><line x1="380" y1="140" x2="470" y2="180" stroke="#9333ea" stroke-width="0.5" stroke-opacity="0.15"/><line x1="380" y1="140" x2="470" y2="220" stroke="#9333ea" stroke-width="0.5" stroke-opacity="0.15"/><line x1="380" y1="140" x2="470" y2="260" stroke="#9333ea" stroke-width="0.5" stroke-opacity="0.15"/><line x1="380" y1="140" x2="470" y2="300" stroke="#9333ea" stroke-width="0.5" stroke-opacity="0.15"/><line x1="380" y1="140" x2="470" y2="340" stroke="#9333ea" stroke-width="0.5" stroke-opacity="0.15"/><line x1="380" y1="180" x2="470" y2="140" stroke="#9333ea" stroke-width="0.5" stroke-opacity="0.15"/><line x1="380" y1="180" x2="470" y2="180" stroke="#9333ea" stroke-width="0.5" stroke-opacity="0.15"/><line x1="380" y1="180" x2="470" y2="220" stroke="#9333ea" stroke-width="0.5" stroke-opacity="0.15"/><line x1="380" y1="180" x2="470" y2="260" stroke="#9333ea" stroke-width="0.5" stroke-opacity="0.15"/><line x1="380" y1="180" x2="470" y2="300" stroke="#9333ea" stroke-width="0.5" stroke-opacity="0.15"/><line x1="380" y1="180" x2="470" y2="340" stroke="#9333ea" stroke-width="0.5" stroke-opacity="0.15"/><line x1="380" y1="220" x2="470" y2="140" stroke="#9333ea" stroke-width="0.5" stroke-opacity="0.15"/><line x1="380" y1="220" x2="470" y2="180" stroke="#9333ea" stroke-width="0.5" stroke-opacity="0.15"/><line x1="380" y1="220" x2="470" y2="220" stroke="#9333ea" stroke-width="0.5" stroke-opacity="0.15"/><line x1="380" y1="220" x2="470" y2="260" stroke="#9333ea" stroke-width="0.5" stroke-opacity="0.15"/><line x1="380" y1="220" x2="470" y2="300" stroke="#9333ea" stroke-width="0.5" stroke-opacity="0.15"/><line x1="380" y1="220" x2="470" y2="340" stroke="#9333ea" stroke-width="0.5" stroke-opacity="0.15"/><line x1="380" y1="260" x2="470" y2="140" stroke="#9333ea" stroke-width="0.5" stroke-opacity="0.15"/><line x1="380" y1="260" x2="470" y2="180" stroke="#9333ea" stroke-width="0.5" stroke-opacity="0.15"/><line x1="380" y1="260" x2="470" y2="220" stroke="#9333ea" stroke-width="0.5" stroke-opacity="0.15"/><line x1="380" y1="260" x2="470" y2="260" stroke="#9333ea" stroke-width="0.5" stroke-opacity="0.15"/><line x1="380" y1="260" x2="470" y2="300" stroke="#9333ea" stroke-width="0.5" stroke-opacity="0.15"/><line x1="380" y1="260" x2="470" y2="340" stroke="#9333ea" stroke-width="0.5" stroke-opacity="0.15"/><line x1="380" y1="300" x2="470" y2="140" stroke="#9333ea" stroke-width="0.5" stroke-opacity="0.15"/><line x1="380" y1="300" x2="470" y2="180" stroke="#9333ea" stroke-width="0.5" stroke-opacity="0.15"/><line x1="380" y1="300" x2="470" y2="220" stroke="#9333ea" stroke-width="0.5" stroke-opacity="0.15"/><line x1="380" y1="300" x2="470" y2="260" stroke="#9333ea" stroke-width="0.5" stroke-opacity="0.15"/><line x1="380" y1="300" x2="470" y2="300" stroke="#9333ea" stroke-width="0.5" stroke-opacity="0.15"/><line x1="380" y1="300" x2="470" y2="340" stroke="#9333ea" stroke-width="0.5" stroke-opacity="0.15"/><line x1="380" y1="340" x2="470" y2="140" stroke="#9333ea" stroke-width="0.5" stroke-opacity="0.15"/><line x1="380" y1="340" x2="470" y2="180" stroke="#9333ea" stroke-width="0.5" stroke-opacity="0.15"/><line x1="380" y1="340" x2="470" y2="220" stroke="#9333ea" stroke-width="0.5" stroke-opacity="0.15"/><line x1="380" y1="340" x2="470" y2="260" stroke="#9333ea" stroke-width="0.5" stroke-opacity="0.15"/><line x1="380" y1="340" x2="470" y2="300" stroke="#9333ea" stroke-width="0.5" stroke-opacity="0.15"/><line x1="380" y1="340" x2="470" y2="340" stroke="#9333ea" stroke-width="0.5" stroke-opacity="0.15"/><circle cx="480" cy="140" r="10" fill="#9333ea" fill-opacity="0.2" stroke="#9333ea" stroke-width="1.5"/><circle cx="480" cy="180" r="10" fill="#9333ea" fill-opacity="0.2" stroke="#9333ea" stroke-width="1.5"/><circle cx="480" cy="220" r="10" fill="#9333ea" fill-opacity="0.2" stroke="#9333ea" stroke-width="1.5"/><circle cx="480" cy="260" r="10" fill="#9333ea" fill-opacity="0.2" stroke="#9333ea" stroke-width="1.5"/><circle cx="480" cy="300" r="10" fill="#9333ea" fill-opacity="0.2" stroke="#9333ea" stroke-width="1.5"/><circle cx="480" cy="340" r="10" fill="#9333ea" fill-opacity="0.2" stroke="#9333ea" stroke-width="1.5"/><line x1="490" y1="140" x2="580" y2="160" stroke="#9333ea" stroke-width="0.5" stroke-opacity="0.15"/><line x1="490" y1="140" x2="580" y2="200" stroke="#9333ea" stroke-width="0.5" stroke-opacity="0.15"/><line x1="490" y1="140" x2="580" y2="240" stroke="#9333ea" stroke-width="0.5" stroke-opacity="0.15"/><line x1="490" y1="140" x2="580" y2="280" stroke="#9333ea" stroke-width="0.5" stroke-opacity="0.15"/><line x1="490" y1="140" x2="580" y2="320" stroke="#9333ea" stroke-width="0.5" stroke-opacity="0.15"/><line x1="490" y1="180" x2="580" y2="160" stroke="#9333ea" stroke-width="0.5" stroke-opacity="0.15"/><line x1="490" y1="180" x2="580" y2="200" stroke="#9333ea" stroke-width="0.5" stroke-opacity="0.15"/><line x1="490" y1="180" x2="580" y2="240" stroke="#9333ea" stroke-width="0.5" stroke-opacity="0.15"/><line x1="490" y1="180" x2="580" y2="280" stroke="#9333ea" stroke-width="0.5" stroke-opacity="0.15"/><line x1="490" y1="180" x2="580" y2="320" stroke="#9333ea" stroke-width="0.5" stroke-opacity="0.15"/><line x1="490" y1="220" x2="580" y2="160" stroke="#9333ea" stroke-width="0.5" stroke-opacity="0.15"/><line x1="490" y1="220" x2="580" y2="200" stroke="#9333ea" stroke-width="0.5" stroke-opacity="0.15"/><line x1="490" y1="220" x2="580" y2="240" stroke="#9333ea" stroke-width="0.5" stroke-opacity="0.15"/><line x1="490" y1="220" x2="580" y2="280" stroke="#9333ea" stroke-width="0.5" stroke-opacity="0.15"/><line x1="490" y1="220" x2="580" y2="320" stroke="#9333ea" stroke-width="0.5" stroke-opacity="0.15"/><line x1="490" y1="260" x2="580" y2="160" stroke="#9333ea" stroke-width="0.5" stroke-opacity="0.15"/><line x1="490" y1="260" x2="580" y2="200" stroke="#9333ea" stroke-width="0.5" stroke-opacity="0.15"/><line x1="490" y1="260" x2="580" y2="240" stroke="#9333ea" stroke-width="0.5" stroke-opacity="0.15"/><line x1="490" y1="260" x2="580" y2="280" stroke="#9333ea" stroke-width="0.5" stroke-opacity="0.15"/><line x1="490" y1="260" x2="580" y2="320" stroke="#9333ea" stroke-width="0.5" stroke-opacity="0.15"/><line x1="490" y1="300" x2="580" y2="160" stroke="#9333ea" stroke-width="0.5" stroke-opacity="0.15"/><line x1="490" y1="300" x2="580" y2="200" stroke="#9333ea" stroke-width="0.5" stroke-opacity="0.15"/><line x1="490" y1="300" x2="580" y2="240" stroke="#9333ea" stroke-width="0.5" stroke-opacity="0.15"/><line x1="490" y1="300" x2="580" y2="280" stroke="#9333ea" stroke-width="0.5" stroke-opacity="0.15"/><line x1="490" y1="300" x2="580" y2="320" stroke="#9333ea" stroke-width="0.5" stroke-opacity="0.15"/><line x1="490" y1="340" x2="580" y2="160" stroke="#9333ea" stroke-width="0.5" stroke-opacity="0.15"/><line x1="490" y1="340" x2="580" y2="200" stroke="#9333ea" stroke-width="0.5" stroke-opacity="0.15"/><line x1="490" y1="340" x2="580" y2="240" stroke="#9333ea" stroke-width="0.5" stroke-opacity="0.15"/><line x1="490" y1="340" x2="580" y2="280" stroke="#9333ea" stroke-width="0.5" stroke-opacity="0.15"/><line x1="490" y1="340" x2="580" y2="320" stroke="#9333ea" stroke-width="0.5" stroke-opacity="0.15"/><circle cx="590" cy="160" r="10" fill="#9333ea" fill-opacity="0.2" stroke="#9333ea" stroke-width="1.5"/><circle cx="590" cy="200" r="10" fill="#9333ea" fill-opacity="0.2" stroke="#9333ea" stroke-width="1.5"/><circle cx="590" cy="240" r="10" fill="#9333ea" fill-opacity="0.2" stroke="#9333ea" stroke-width="1.5"/><circle cx="590" cy="280" r="10" fill="#9333ea" fill-opacity="0.2" stroke="#9333ea" stroke-width="1.5"/><circle cx="590" cy="320" r="10" fill="#9333ea" fill-opacity="0.2" stroke="#9333ea" stroke-width="1.5"/><line x1="600" y1="160" x2="690" y2="200" stroke="#9333ea" stroke-width="0.5" stroke-opacity="0.15"/><line x1="600" y1="160" x2="690" y2="240" stroke="#9333ea" stroke-width="0.5" stroke-opacity="0.15"/><line x1="600" y1="160" x2="690" y2="280" stroke="#9333ea" stroke-width="0.5" stroke-opacity="0.15"/><line x1="600" y1="200" x2="690" y2="200" stroke="#9333ea" stroke-width="0.5" stroke-opacity="0.15"/><line x1="600" y1="200" x2="690" y2="240" stroke="#9333ea" stroke-width="0.5" stroke-opacity="0.15"/><line x1="600" y1="200" x2="690" y2="280" stroke="#9333ea" stroke-width="0.5" stroke-opacity="0.15"/><line x1="600" y1="240" x2="690" y2="200" stroke="#9333ea" stroke-width="0.5" stroke-opacity="0.15"/><line x1="600" y1="240" x2="690" y2="240" stroke="#9333ea" stroke-width="0.5" stroke-opacity="0.15"/><line x1="600" y1="240" x2="690" y2="280" stroke="#9333ea" stroke-width="0.5" stroke-opacity="0.15"/><line x1="600" y1="280" x2="690" y2="200" stroke="#9333ea" stroke-width="0.5" stroke-opacity="0.15"/><line x1="600" y1="280" x2="690" y2="240" stroke="#9333ea" stroke-width="0.5" stroke-opacity="0.15"/><line x1="600" y1="280" x2="690" y2="280" stroke="#9333ea" stroke-width="0.5" stroke-opacity="0.15"/><line x1="600" y1="320" x2="690" y2="200" stroke="#9333ea" stroke-width="0.5" stroke-opacity="0.15"/><line x1="600" y1="320" x2="690" y2="240" stroke="#9333ea" stroke-width="0.5" stroke-opacity="0.15"/><line x1="600" y1="320" x2="690" y2="280" stroke="#9333ea" stroke-width="0.5" stroke-opacity="0.15"/><circle cx="700" cy="200" r="10" fill="#ffffff" fill-opacity="1" stroke="#e5e7eb" stroke-width="1.5"/><circle cx="700" cy="240" r="10" fill="#ffffff" fill-opacity="1" stroke="#e5e7eb" stroke-width="1.5"/><circle cx="700" cy="280" r="10" fill="#ffffff" fill-opacity="1" stroke="#e5e7eb" stroke-width="1.5"/><text x="150" y="345" font-family="'Inter',sans-serif" font-weight="600" font-size="14" fill="#787774" text-anchor="middle">Input</text><text x="425" y="345" font-family="'Inter',sans-serif" font-weight="600" font-size="14" fill="#9333ea" text-anchor="middle">Hidden Layers</text><text x="700" y="345" font-family="'Inter',sans-serif" font-weight="600" font-size="14" fill="#787774" text-anchor="middle">Output</text></g>
<rect x="0" y="360" width="800" height="40" fill="#ffffff" opacity="0.9"/>
<text x="770" y="385" font-family="'Inter',sans-serif" font-weight="500" font-size="12" fill="#787774" text-anchor="end">@vedangvatsa</text>
</svg>