<?xml version="1.0" encoding="utf-8"?>
<svg xmlns="http://www.w3.org/2000/svg" viewBox="0 0 800 400" width="800" height="400" style="background-color:#ffffff">
  <defs>
    <marker id="arrow" markerWidth="6" markerHeight="6" refX="5" refY="3" orient="auto">
      <path d="M 0 0 L 6 3 L 0 6 z" fill="#2563eb"/>
    </marker>
    <marker id="arrowGray" markerWidth="6" markerHeight="6" refX="5" refY="3" orient="auto">
      <path d="M 0 0 L 6 3 L 0 6 z" fill="#787774"/>
    </marker>
  </defs>
  <rect width="800" height="400" fill="#ffffff"/>
  <g transform="translate(0,-32)"><rect x="80" y="100" width="260" height="200" rx="10" fill="#ffffff" stroke="#e5e7eb" stroke-width="2"/><text x="210" y="135" font-family="'Inter',sans-serif" font-weight="700" font-size="20" fill="#37352f" text-anchor="middle">Traditional Finance</text><circle cx="210" cy="200" r="30" fill="#787774" fill-opacity="0.1" stroke="#787774" stroke-width="2"/><text x="210" y="208" font-family="'Inter',sans-serif" font-weight="700" font-size="18" fill="#787774" text-anchor="middle">Bank</text><circle cx="140" cy="260" r="14" fill="none" stroke="#787774" stroke-width="1.5"/><circle cx="280" cy="260" r="14" fill="none" stroke="#787774" stroke-width="1.5"/><line x1="190" y1="220" x2="150" y2="248" stroke="#787774" stroke-width="1.5"/><line x1="230" y1="220" x2="270" y2="248" stroke="#787774" stroke-width="1.5"/><text x="400" y="200" font-family="'Inter',sans-serif" font-weight="800" font-size="28" fill="#2563eb" text-anchor="middle">vs</text><rect x="460" y="100" width="260" height="200" rx="10" fill="#ffffff" stroke="#2563eb" stroke-width="2"/><text x="590" y="135" font-family="'Inter',sans-serif" font-weight="700" font-size="20" fill="#2563eb" text-anchor="middle">Decentralized</text><circle cx="540" cy="200" r="14" fill="#2563eb" fill-opacity="0.2" stroke="#2563eb" stroke-width="2"/><circle cx="640" cy="200" r="14" fill="#2563eb" fill-opacity="0.2" stroke="#2563eb" stroke-width="2"/><circle cx="590" cy="260" r="14" fill="#2563eb" fill-opacity="0.2" stroke="#2563eb" stroke-width="2"/><line x1="554" y1="200" x2="626" y2="200" stroke="#2563eb" stroke-width="2"/><line x1="548" y1="212" x2="582" y2="248" stroke="#2563eb" stroke-width="2"/><line x1="632" y1="212" x2="598" y2="248" stroke="#2563eb" stroke-width="2"/><text x="590" y="165" font-family="'Inter',sans-serif" font-weight="600" font-size="14" fill="#2563eb" text-anchor="middle">Smart Contracts</text><text x="400" y="340" font-family="'Inter',sans-serif" font-weight="600" font-size="20" fill="#37352f" text-anchor="middle">Finance without intermediaries</text></g>
  <rect x="0" y="360" width="800" height="40" fill="#ffffff" opacity="0.9"/>
  <text x="770" y="385" font-family="'Inter',sans-serif" font-weight="500" font-size="12" fill="#787774" text-anchor="end">@vedangvatsa</text>
</svg>