<?xml version="1.0" encoding="utf-8"?>
<svg xmlns="http://www.w3.org/2000/svg" viewBox="0 0 800 400" width="800" height="400" style="background-color:#ffffff">
  <defs>
    <marker id="arrow" markerWidth="6" markerHeight="6" refX="5" refY="3" orient="auto"><path d="M 0 0 L 6 3 L 0 6 z" fill="#9333ea"/></marker>
    <marker id="arrowGray" markerWidth="6" markerHeight="6" refX="5" refY="3" orient="auto"><path d="M 0 0 L 6 3 L 0 6 z" fill="#787774"/></marker>
  </defs>
  <rect width="800" height="400" fill="#ffffff"/>
  <g transform="translate(0,-22)"><rect x="60" y="120" width="80" height="80" rx="6" fill="#ffffff" stroke="#e5e7eb" stroke-width="2"/><circle cx="100" cy="155" r="15" fill="#9333ea" fill-opacity="0.3"/><rect x="85" y="165" width="30" height="15" rx="3" fill="#9333ea" fill-opacity="0.2"/><text x="100" y="220" font-family="'Inter',sans-serif" font-weight="600" font-size="14" fill="#37352f" text-anchor="middle">Image</text><rect x="180" y="120" width="60" height="80" rx="6" fill="#ffffff" stroke="#e5e7eb" stroke-width="1.5"/><circle cx="229.30896190907373" cy="164.6420717529619" r="2" fill="#787774" fill-opacity="0.3"/><circle cx="203.3151924128483" cy="132.47021292668245" r="2" fill="#787774" fill-opacity="0.3"/><circle cx="195.207450369958" cy="189.04466733918431" r="2" fill="#787774" fill-opacity="0.3"/><line x1="245" y1="160" x2="275" y2="160" stroke="#9333ea" stroke-width="1.5" marker-end="url(#arrow)"/><rect x="280" y="120" width="60" height="80" rx="6" fill="#ffffff" stroke="#e5e7eb" stroke-width="1.5"/><circle cx="328.57907854668053" cy="156.52072776597453" r="2" fill="#787774" fill-opacity="0.5"/><circle cx="294.42267707651706" cy="158.8231975466266" r="2" fill="#787774" fill-opacity="0.5"/><circle cx="317.14823147362773" cy="131.14096755926377" r="2" fill="#787774" fill-opacity="0.5"/><circle cx="290.47370751227385" cy="150.99107767506024" r="2" fill="#787774" fill-opacity="0.5"/><circle cx="296.42294145397966" cy="159.56362288589645" r="2" fill="#787774" fill-opacity="0.5"/><circle cx="299.5573731153046" cy="167.89343990313307" r="2" fill="#787774" fill-opacity="0.5"/><line x1="345" y1="160" x2="375" y2="160" stroke="#9333ea" stroke-width="1.5" marker-end="url(#arrow)"/><rect x="380" y="120" width="60" height="80" rx="6" fill="#ffffff" stroke="#e5e7eb" stroke-width="1.5"/><circle cx="399.2973168013504" cy="189.6934728122659" r="2" fill="#787774" fill-opacity="0.7"/><circle cx="425.47346663125194" cy="147.80404093445503" r="2" fill="#787774" fill-opacity="0.7"/><circle cx="400.72952710750013" cy="175.1382075192788" r="2" fill="#787774" fill-opacity="0.7"/><circle cx="423.3694044068104" cy="169.628456125168" r="2" fill="#787774" fill-opacity="0.7"/><circle cx="415.25478298120333" cy="178.2060177557761" r="2" fill="#787774" fill-opacity="0.7"/><circle cx="405.82501905586355" cy="143.32267210562497" r="2" fill="#787774" fill-opacity="0.7"/><circle cx="421.3019303562319" cy="163.5943782282086" r="2" fill="#787774" fill-opacity="0.7"/><circle cx="422.82397071030385" cy="177.8457491484757" r="2" fill="#787774" fill-opacity="0.7"/><circle cx="393.52622525124707" cy="142.82302562183347" r="2" fill="#787774" fill-opacity="0.7"/><line x1="445" y1="160" x2="475" y2="160" stroke="#9333ea" stroke-width="1.5" marker-end="url(#arrow)"/><rect x="480" y="120" width="60" height="80" rx="6" fill="#ffffff" stroke="#e5e7eb" stroke-width="1.5"/><circle cx="529.7420304732942" cy="180.38833702186113" r="2" fill="#787774" fill-opacity="0.9000000000000001"/><circle cx="490.88523948671644" cy="157.32282392028816" r="2" fill="#787774" fill-opacity="0.9000000000000001"/><circle cx="504.9415167905482" cy="171.4046426379845" r="2" fill="#787774" fill-opacity="0.9000000000000001"/><circle cx="505.4353168188782" cy="153.43479414318028" r="2" fill="#787774" fill-opacity="0.9000000000000001"/><circle cx="504.7923821140933" cy="185.83844060289695" r="2" fill="#787774" fill-opacity="0.9000000000000001"/><circle cx="496.98775582344877" cy="156.03253849543643" r="2" fill="#787774" fill-opacity="0.9000000000000001"/><circle cx="523.5700015249274" cy="168.14713553633732" r="2" fill="#787774" fill-opacity="0.9000000000000001"/><circle cx="503.13398420965694" cy="167.8610992974184" r="2" fill="#787774" fill-opacity="0.9000000000000001"/><circle cx="515.966550478129" cy="168.79775738829892" r="2" fill="#787774" fill-opacity="0.9000000000000001"/><circle cx="522.8434410985459" cy="170.3369678826093" r="2" fill="#787774" fill-opacity="0.9000000000000001"/><circle cx="514.9609035550221" cy="183.1530200342326" r="2" fill="#787774" fill-opacity="0.9000000000000001"/><circle cx="508.065510073794" cy="189.80591128997068" r="2" fill="#787774" fill-opacity="0.9000000000000001"/><text x="710" y="160" font-family="'Inter',sans-serif" font-weight="600" font-size="14" fill="#787774" text-anchor="middle">Noise</text><path d="M 680 230 L 120 230" fill="none" stroke="#9333ea" stroke-width="3" marker-end="url(#arrow)"/><text x="400" y="260" font-family="'Inter',sans-serif" font-weight="700" font-size="18" fill="#9333ea" text-anchor="middle">Reverse: Denoise step by step</text><text x="400" y="300" font-family="'Inter',sans-serif" font-weight="600" font-size="15" fill="#37352f" text-anchor="middle">Add noise → Learn to remove it → Generate</text></g>
  <rect x="0" y="360" width="800" height="40" fill="#ffffff" opacity="0.9"/>
  <text x="770" y="385" font-family="'Inter',sans-serif" font-weight="500" font-size="12" fill="#787774" text-anchor="end">@vedangvatsa</text>
</svg>