<?xml version="1.0" encoding="utf-8"?>
<svg xmlns="http://www.w3.org/2000/svg" viewBox="0 0 800 400" width="800" height="400" style="background-color:#ffffff">
  <defs>
    <pattern id="grid" width="30" height="30" patternUnits="userSpaceOnUse">
      <circle cx="2" cy="2" r="1.5" fill="#52525b" opacity="0.15"/>
    </pattern>
    <marker id="arrow" markerWidth="12" markerHeight="12" refX="10" refY="6" orient="auto">
      <path d="M 0 0 L 12 6 L 0 12 z" fill="#059669"/>
    </marker>
  </defs>
  <rect width="800" height="400" fill="#ffffff"/>
  <rect width="800" height="400" fill="url(#grid)"/>
  
  <g>
    <rect x="70" y="130" width="280" height="100" rx="10" fill="#ffffff" stroke="#e5e7eb" stroke-width="2"/>
<rect x="70" y="130" width="280" height="100" rx="10" fill="rgba(5,150,105,0.06)"/>
<text x="210" y="164" font-family="'Inter',sans-serif" font-weight="500" font-size="16" fill="#52525b" text-anchor="middle">The Domain Name System</text>
<text x="210" y="185.6" font-family="'Inter',sans-serif" font-weight="500" font-size="16" fill="#52525b" text-anchor="middle">is the phone book of the</text>
<text x="210" y="207.20000000000002" font-family="'Inter',sans-serif" font-weight="500" font-size="16" fill="#52525b" text-anchor="middle">internet</text>
<path d="M 350 180 C 400 180, 400 80, 450 80" fill="none" stroke="#059669" stroke-width="3" marker-end="url(#arrow)"/>
<path d="M 350 180 C 400 180, 400 280, 450 280" fill="none" stroke="#059669" stroke-width="3" marker-end="url(#arrow)"/>
<rect x="450" y="35" width="280" height="90" rx="8" fill="#ffffff" stroke="#e5e7eb" stroke-width="2"/>
<rect x="450" y="35" width="280" height="90" rx="8" fill="rgba(5,150,105,0.06)"/>
<text x="590" y="75.45" font-family="'Inter',sans-serif" font-weight="500" font-size="14" fill="#52525b" text-anchor="middle">When you type a website</text>
<text x="590" y="94.35000000000001" font-family="'Inter',sans-serif" font-weight="500" font-size="14" fill="#52525b" text-anchor="middle">address like google</text>
<rect x="450" y="235" width="280" height="90" rx="8" fill="#ffffff" stroke="#e5e7eb" stroke-width="2"/>
<rect x="450" y="235" width="280" height="90" rx="8" fill="rgba(5,150,105,0.06)"/>
<text x="590" y="275.45" font-family="'Inter',sans-serif" font-weight="500" font-size="14" fill="#52525b" text-anchor="middle">Com into your browser, DNS</text>
<text x="590" y="294.34999999999997" font-family="'Inter',sans-serif" font-weight="500" font-size="14" fill="#52525b" text-anchor="middle">translates</text>

  </g>
  
  <rect x="0" y="360" width="800" height="40" fill="#ffffff" opacity="0.9"/>
  <text x="770" y="385" font-family="'Inter',sans-serif" font-weight="600" font-size="12" fill="#52525b" text-anchor="end">@vedangvatsa</text>
</svg>