<?xml version="1.0" encoding="utf-8"?>
<svg xmlns="http://www.w3.org/2000/svg" viewBox="0 0 800 400" width="800" height="400" style="background-color:#ffffff">
<defs><marker id="arrow" markerWidth="6" markerHeight="6" refX="5" refY="3" orient="auto"><path d="M 0 0 L 6 3 L 0 6 z" fill="#2563eb"/></marker></defs>
<rect width="800" height="400" fill="#ffffff"/>
<g><circle cx="200" cy="100" r="35" fill="#2563eb" fill-opacity="0.1" stroke="#2563eb" stroke-width="3"/><text x="200" y="108" font-family="'Inter',sans-serif" font-weight="800" font-size="18" fill="#2563eb" text-anchor="middle">1 BTC</text><path d="M 235 85 Q 340 50 440 80" fill="none" stroke="#2563eb" stroke-width="2" marker-end="url(#arrow)"/><path d="M 235 115 Q 340 150 440 120" fill="none" stroke="#ef4444" stroke-width="2" marker-end="url(#arrow)"/><rect x="460" y="50" width="180" height="60" rx="8" fill="#ffffff" stroke="#10b981" stroke-width="2"/><text x="550" y="78" font-family="'Inter',sans-serif" font-weight="600" font-size="16" fill="#10b981" text-anchor="middle">Pay Merchant A</text><text x="550" y="98" font-family="'Inter',sans-serif" font-weight="700" font-size="14" fill="#10b981" text-anchor="middle">✓ Valid</text><rect x="460" y="130" width="180" height="60" rx="8" fill="#ffffff" stroke="#ef4444" stroke-width="2"/><text x="550" y="158" font-family="'Inter',sans-serif" font-weight="600" font-size="16" fill="#ef4444" text-anchor="middle">Pay Merchant B</text><text x="550" y="178" font-family="'Inter',sans-serif" font-weight="700" font-size="14" fill="#ef4444" text-anchor="middle">✗ Double-spend!</text><rect x="150" y="230" width="500" height="55" rx="10" fill="#ffffff" stroke="#2563eb" stroke-width="2"/><text x="400" y="258" font-family="'Inter',sans-serif" font-weight="700" font-size="18" fill="#2563eb" text-anchor="middle">Consensus prevents this</text><text x="400" y="278" font-family="'Inter',sans-serif" font-weight="500" font-size="13" fill="#787774" text-anchor="middle">Wait for confirmations</text><text x="400" y="330" font-family="'Inter',sans-serif" font-weight="600" font-size="15" fill="#37352f" text-anchor="middle">Blockchain consensus solves the double-spend problem</text></g>
<rect x="0" y="360" width="800" height="40" fill="#ffffff" opacity="0.9"/>
<text x="770" y="385" font-family="'Inter',sans-serif" font-weight="500" font-size="12" fill="#787774" text-anchor="end">@vedangvatsa</text>
</svg>