<?xml version="1.0" encoding="utf-8"?>
<svg xmlns="http://www.w3.org/2000/svg" viewBox="0 0 800 400" width="800" height="400" style="background-color:#ffffff">
  <defs>
    <marker id="arrow" markerWidth="6" markerHeight="6" refX="5" refY="3" orient="auto">
      <path d="M 0 0 L 6 3 L 0 6 z" fill="#9333ea"/>
    </marker>
    <marker id="arrowGray" markerWidth="6" markerHeight="6" refX="5" refY="3" orient="auto">
      <path d="M 0 0 L 6 3 L 0 6 z" fill="#787774"/>
    </marker>
  </defs>
  <rect width="800" height="400" fill="#ffffff"/>
  <g transform="translate(0,-22)"><line x1="100" y1="320" x2="700" y2="320" stroke="#e5e7eb" stroke-width="2"/><line x1="100" y1="320" x2="100" y2="80" stroke="#e5e7eb" stroke-width="2"/><circle cx="200" cy="150" r="8" fill="#9333ea" fill-opacity="0.3" stroke="#9333ea" stroke-width="2"/><text x="220" y="145" font-family="'Inter',sans-serif" font-weight="600" font-size="18" fill="#37352f" text-anchor="start">Cat</text><circle cx="240" cy="180" r="8" fill="#9333ea" fill-opacity="0.3" stroke="#9333ea" stroke-width="2"/><text x="260" y="175" font-family="'Inter',sans-serif" font-weight="600" font-size="18" fill="#37352f" text-anchor="start">Dog</text><ellipse cx="220" cy="165" rx="60" ry="40" fill="none" stroke="#9333ea" stroke-width="1" stroke-dasharray="4 4"/><circle cx="500" cy="250" r="8" fill="#2563eb" fill-opacity="0.3" stroke="#2563eb" stroke-width="2"/><text x="520" y="245" font-family="'Inter',sans-serif" font-weight="600" font-size="18" fill="#37352f" text-anchor="start">Car</text><circle cx="550" cy="220" r="8" fill="#2563eb" fill-opacity="0.3" stroke="#2563eb" stroke-width="2"/><text x="570" y="215" font-family="'Inter',sans-serif" font-weight="600" font-size="18" fill="#37352f" text-anchor="start">Truck</text><ellipse cx="525" cy="235" rx="60" ry="40" fill="none" stroke="#2563eb" stroke-width="1" stroke-dasharray="4 4"/><path d="M 200 155 L 245 175" fill="none" stroke="#9333ea" stroke-width="1.5" stroke-dasharray="4 4"/><text x="400" y="340" font-family="'Inter',sans-serif" font-weight="600" font-size="16" fill="#37352f" text-anchor="middle">Similar meanings → Nearby vectors</text></g>
  <rect x="0" y="360" width="800" height="40" fill="#ffffff" opacity="0.9"/>
  <text x="770" y="385" font-family="'Inter',sans-serif" font-weight="500" font-size="12" fill="#787774" text-anchor="end">@vedangvatsa</text>
</svg>