<?xml version="1.0" encoding="utf-8"?>
<svg xmlns="http://www.w3.org/2000/svg" viewBox="0 0 800 400" width="800" height="400" style="background-color:#ffffff">
<defs><marker id="arrow" markerWidth="6" markerHeight="6" refX="5" refY="3" orient="auto"><path d="M 0 0 L 6 3 L 0 6 z" fill="#2563eb"/></marker></defs>
<rect width="800" height="400" fill="#ffffff"/>
<g transform="translate(0,-35)"><rect x="200" y="100" width="400" height="180" rx="16" fill="#ffffff" stroke="#2563eb" stroke-width="3"/><text x="400" y="140" font-family="'Inter',sans-serif" font-weight="800" font-size="36" fill="#2563eb" text-anchor="middle">EVM</text><line x1="250" y1="160" x2="550" y2="160" stroke="#e5e7eb" stroke-width="1.5"/><text x="310" y="190" font-family="'Inter',sans-serif" font-weight="600" font-size="16" fill="#787774" text-anchor="middle">Bytecode</text><text x="490" y="190" font-family="'Inter',sans-serif" font-weight="600" font-size="16" fill="#787774" text-anchor="middle">Opcodes</text><text x="400" y="230" font-family="'Inter',sans-serif" font-weight="600" font-size="16" fill="#787774" text-anchor="middle">Stack Machine</text><text x="400" y="260" font-family="'Inter',sans-serif" font-weight="600" font-size="14" fill="#2563eb" text-anchor="middle">Deterministic Execution</text><rect x="100" y="310" width="120" height="35" rx="8" fill="#ffffff" stroke="#e5e7eb" stroke-width="2"/><text x="160" y="334.5" font-family="'Inter',sans-serif" font-weight="600" font-size="13" fill="#37352f" text-anchor="middle">Ethereum</text><rect x="250" y="310" width="120" height="35" rx="8" fill="#ffffff" stroke="#e5e7eb" stroke-width="2"/><text x="310" y="334.5" font-family="'Inter',sans-serif" font-weight="600" font-size="13" fill="#37352f" text-anchor="middle">Arbitrum</text><rect x="400" y="310" width="120" height="35" rx="8" fill="#ffffff" stroke="#e5e7eb" stroke-width="2"/><text x="460" y="334.5" font-family="'Inter',sans-serif" font-weight="600" font-size="13" fill="#37352f" text-anchor="middle">Polygon</text><rect x="550" y="310" width="120" height="35" rx="8" fill="#ffffff" stroke="#e5e7eb" stroke-width="2"/><text x="610" y="334.5" font-family="'Inter',sans-serif" font-weight="600" font-size="13" fill="#37352f" text-anchor="middle">BSC</text></g>
<rect x="0" y="360" width="800" height="40" fill="#ffffff" opacity="0.9"/>
<text x="770" y="385" font-family="'Inter',sans-serif" font-weight="500" font-size="12" fill="#787774" text-anchor="end">@vedangvatsa</text>
</svg>