<?xml version="1.0" encoding="utf-8"?>
<svg xmlns="http://www.w3.org/2000/svg" viewBox="0 0 800 400" width="800" height="400" style="background-color:#ffffff">
<defs><marker id="arrow" markerWidth="6" markerHeight="6" refX="5" refY="3" orient="auto"><path d="M 0 0 L 6 3 L 0 6 z" fill="#9333ea"/></marker></defs>
<rect width="800" height="400" fill="#ffffff"/>
<g transform="translate(0,-37)"><circle cx="400" cy="200" r="40" fill="#9333ea" fill-opacity="0.08" stroke="#9333ea" stroke-width="3"/><text x="400" y="208" font-family="'Inter',sans-serif" font-weight="700" font-size="14" fill="#9333ea" text-anchor="middle">Global Model</text><rect x="140" y="110" width="80" height="40" rx="6" fill="#fff" stroke="#e5e7eb" stroke-width="2"/><text x="180" y="136" font-family="'Inter',sans-serif" font-weight="600" font-size="13" fill="#37352f" text-anchor="middle">Phone</text><path d="M 268 158 L 323 175.5" fill="none" stroke="#9333ea" stroke-width="1.5" stroke-dasharray="4 4"/><rect x="580" y="110" width="80" height="40" rx="6" fill="#fff" stroke="#e5e7eb" stroke-width="2"/><text x="620" y="136" font-family="'Inter',sans-serif" font-weight="600" font-size="13" fill="#37352f" text-anchor="middle">Tablet</text><path d="M 532 158 L 477 175.5" fill="none" stroke="#9333ea" stroke-width="1.5" stroke-dasharray="4 4"/><rect x="140" y="260" width="80" height="40" rx="6" fill="#fff" stroke="#e5e7eb" stroke-width="2"/><text x="180" y="286" font-family="'Inter',sans-serif" font-weight="600" font-size="13" fill="#37352f" text-anchor="middle">Laptop</text><path d="M 268 248 L 323 228" fill="none" stroke="#9333ea" stroke-width="1.5" stroke-dasharray="4 4"/><rect x="580" y="260" width="80" height="40" rx="6" fill="#fff" stroke="#e5e7eb" stroke-width="2"/><text x="620" y="286" font-family="'Inter',sans-serif" font-weight="600" font-size="13" fill="#37352f" text-anchor="middle">Hospital</text><path d="M 532 248 L 477 228" fill="none" stroke="#9333ea" stroke-width="1.5" stroke-dasharray="4 4"/><text x="400" y="340" font-family="'Inter',sans-serif" font-weight="600" font-size="18" fill="#37352f" text-anchor="middle">Train AI without sharing raw data</text></g>
<rect x="0" y="360" width="800" height="40" fill="#ffffff" opacity="0.9"/>
<text x="770" y="385" font-family="'Inter',sans-serif" font-weight="500" font-size="12" fill="#787774" text-anchor="end">@vedangvatsa</text>
</svg>