<?xml version="1.0" encoding="utf-8"?>
<svg xmlns="http://www.w3.org/2000/svg" viewBox="0 0 800 400" width="800" height="400" style="background-color:#ffffff">
  <defs>
    <pattern id="grid" width="30" height="30" patternUnits="userSpaceOnUse">
      <circle cx="2" cy="2" r="1.5" fill="#52525b" opacity="0.15"/>
    </pattern>
    <marker id="arrow" markerWidth="12" markerHeight="12" refX="10" refY="6" orient="auto">
      <path d="M 0 0 L 12 6 L 0 12 z" fill="#9333ea"/>
    </marker>
  </defs>
  <rect width="800" height="400" fill="#ffffff"/>
  <rect width="800" height="400" fill="url(#grid)"/>
  
  <g>
    <rect x="15" y="105" width="230" height="150" rx="10" fill="#ffffff" stroke="#e5e7eb" stroke-width="2"/>
<rect x="15" y="105" width="230" height="150" rx="10" fill="rgba(147,51,234,0.06)"/>
<text x="130" y="174.79999999999998" font-family="'Inter',sans-serif" font-weight="500" font-size="16" fill="#52525b" text-anchor="middle">Few-shot prompting is a</text>
<text x="130" y="196.39999999999998" font-family="'Inter',sans-serif" font-weight="500" font-size="16" fill="#52525b" text-anchor="middle">technique</text>
<line x1="250" y1="180" x2="271" y2="180" stroke="#9333ea" stroke-width="3" marker-end="url(#arrow)"/>
<rect x="285" y="105" width="230" height="150" rx="10" fill="#ffffff" stroke="#e5e7eb" stroke-width="2"/>
<rect x="285" y="105" width="230" height="150" rx="10" fill="rgba(147,51,234,0.06)"/>
<text x="400" y="153.2" font-family="'Inter',sans-serif" font-weight="500" font-size="16" fill="#52525b" text-anchor="middle">Where you provide a small</text>
<text x="400" y="174.79999999999998" font-family="'Inter',sans-serif" font-weight="500" font-size="16" fill="#52525b" text-anchor="middle">number of input-output</text>
<text x="400" y="196.4" font-family="'Inter',sans-serif" font-weight="500" font-size="16" fill="#52525b" text-anchor="middle">examples before presenting</text>
<text x="400" y="218" font-family="'Inter',sans-serif" font-weight="500" font-size="16" fill="#52525b" text-anchor="middle">the actual task, enabli...</text>
<line x1="520" y1="180" x2="541" y2="180" stroke="#9333ea" stroke-width="3" marker-end="url(#arrow)"/>
<rect x="555" y="105" width="230" height="150" rx="10" fill="#ffffff" stroke="#e5e7eb" stroke-width="2"/>
<rect x="555" y="105" width="230" height="150" rx="10" fill="rgba(147,51,234,0.06)"/>
<text x="670" y="174.79999999999998" font-family="'Inter',sans-serif" font-weight="500" font-size="16" fill="#52525b" text-anchor="middle">To learn the pattern and</text>
<text x="670" y="196.39999999999998" font-family="'Inter',sans-serif" font-weight="500" font-size="16" fill="#52525b" text-anchor="middle">apply it</text>

  </g>
  
  <rect x="0" y="360" width="800" height="40" fill="#ffffff" opacity="0.9"/>
  <text x="770" y="385" font-family="'Inter',sans-serif" font-weight="600" font-size="12" fill="#52525b" text-anchor="end">@vedangvatsa</text>
</svg>