<?xml version="1.0" encoding="utf-8"?>
<svg xmlns="http://www.w3.org/2000/svg" viewBox="0 0 800 400" width="800" height="400" style="background-color:#ffffff">
  <defs>
    <marker id="arrow" markerWidth="6" markerHeight="6" refX="5" refY="3" orient="auto">
      <path d="M 0 0 L 6 3 L 0 6 z" fill="#9333ea"/>
    </marker>
    <marker id="arrowGray" markerWidth="6" markerHeight="6" refX="5" refY="3" orient="auto">
      <path d="M 0 0 L 6 3 L 0 6 z" fill="#787774"/>
    </marker>
  </defs>
  <rect width="800" height="400" fill="#ffffff"/>
  <g transform="translate(0,-45)"><rect x="80" y="120" width="160" height="80" rx="10" fill="#ffffff" stroke="#e5e7eb" stroke-width="2"/><text x="160" y="155" font-family="'Inter',sans-serif" font-weight="700" font-size="20" fill="#37352f" text-anchor="middle">Base Model</text><text x="160" y="180" font-family="'Inter',sans-serif" font-weight="500" font-size="16" fill="#787774" text-anchor="middle">General</text><circle cx="300" cy="160" r="20" fill="none" stroke="#9333ea" stroke-width="2"/><line x1="290" y1="160" x2="310" y2="160" stroke="#9333ea" stroke-width="3"/><line x1="300" y1="150" x2="300" y2="170" stroke="#9333ea" stroke-width="3"/><rect x="350" y="120" width="160" height="80" rx="10" fill="#ffffff" stroke="#9333ea" stroke-width="2"/><text x="430" y="155" font-family="'Inter',sans-serif" font-weight="700" font-size="20" fill="#9333ea" text-anchor="middle">Domain Data</text><text x="430" y="180" font-family="'Inter',sans-serif" font-weight="500" font-size="16" fill="#787774" text-anchor="middle">Specialized</text><line x1="540" y1="150" x2="570" y2="150" stroke="#37352f" stroke-width="3"/><line x1="540" y1="165" x2="570" y2="165" stroke="#37352f" stroke-width="3"/><rect x="600" y="120" width="160" height="80" rx="10" fill="#ffffff" stroke="#10b981" stroke-width="3"/><text x="680" y="155" font-family="'Inter',sans-serif" font-weight="700" font-size="20" fill="#10b981" text-anchor="middle">Expert Model</text><text x="680" y="180" font-family="'Inter',sans-serif" font-weight="500" font-size="16" fill="#787774" text-anchor="middle">Task-Specific</text><rect x="120" y="260" width="120" height="50" rx="8" fill="#ffffff" stroke="#e5e7eb" stroke-width="2"/>
<text x="180" y="292" font-family="'Inter',sans-serif" font-weight="600" font-size="20" fill="#37352f" text-anchor="middle">Full</text><rect x="280" y="260" width="120" height="50" rx="8" fill="#ffffff" stroke="#e5e7eb" stroke-width="2"/>
<text x="340" y="292" font-family="'Inter',sans-serif" font-weight="600" font-size="20" fill="#37352f" text-anchor="middle">LoRA</text><rect x="440" y="260" width="120" height="50" rx="8" fill="#ffffff" stroke="#e5e7eb" stroke-width="2"/>
<text x="500" y="292" font-family="'Inter',sans-serif" font-weight="600" font-size="20" fill="#37352f" text-anchor="middle">Adapter</text><rect x="600" y="260" width="120" height="50" rx="8" fill="#ffffff" stroke="#e5e7eb" stroke-width="2"/>
<text x="660" y="292" font-family="'Inter',sans-serif" font-weight="600" font-size="20" fill="#37352f" text-anchor="middle">Prefix</text><text x="400" y="345" font-family="'Inter',sans-serif" font-weight="600" font-size="16" fill="#37352f" text-anchor="middle">Adapt pretrained weights to new tasks</text></g>
  <rect x="0" y="360" width="800" height="40" fill="#ffffff" opacity="0.9"/>
  <text x="770" y="385" font-family="'Inter',sans-serif" font-weight="500" font-size="12" fill="#787774" text-anchor="end">@vedangvatsa</text>
</svg>