<?xml version="1.0" encoding="utf-8"?>
<svg xmlns="http://www.w3.org/2000/svg" viewBox="0 0 800 400" width="800" height="400" style="background-color:#ffffff">
  <defs>
    <marker id="arrow" markerWidth="6" markerHeight="6" refX="5" refY="3" orient="auto"><path d="M 0 0 L 6 3 L 0 6 z" fill="#9333ea"/></marker>
    <marker id="arrowGray" markerWidth="6" markerHeight="6" refX="5" refY="3" orient="auto"><path d="M 0 0 L 6 3 L 0 6 z" fill="#787774"/></marker>
  </defs>
  <rect width="800" height="400" fill="#ffffff"/>
  <g transform="translate(0,-50)"><rect x="60" y="150" width="100" height="60" rx="8" fill="#ffffff" stroke="#e5e7eb" stroke-width="2"/><text x="110" y="187" font-family="'Inter',sans-serif" font-weight="600" font-size="18" fill="#37352f" text-anchor="middle">Noise</text><line x1="165" y1="180" x2="230" y2="180" stroke="#9333ea" stroke-width="2" marker-end="url(#arrow)"/><rect x="240" y="130" width="140" height="100" rx="12" fill="#ffffff" stroke="#9333ea" stroke-width="3" stroke-dasharray="6 6"/><text x="310" y="175" font-family="'Inter',sans-serif" font-weight="700" font-size="18" fill="#9333ea" text-anchor="middle">Generator</text><text x="310" y="200" font-family="'Inter',sans-serif" font-weight="500" font-size="12" fill="#787774" text-anchor="middle">Creates fakes</text><line x1="385" y1="180" x2="440" y2="180" stroke="#9333ea" stroke-width="2" marker-end="url(#arrow)"/><rect x="450" y="130" width="140" height="100" rx="12" fill="#ffffff" stroke="#ef4444" stroke-width="3"/><text x="520" y="175" font-family="'Inter',sans-serif" font-weight="700" font-size="16" fill="#ef4444" text-anchor="middle">Discriminator</text><text x="520" y="200" font-family="'Inter',sans-serif" font-weight="500" font-size="12" fill="#787774" text-anchor="middle">Real or Fake?</text><line x1="595" y1="180" x2="650" y2="180" stroke="#ef4444" stroke-width="2" marker-end="url(#arrow)"/><text x="700" y="178" font-family="'Inter',sans-serif" font-weight="700" font-size="20" fill="#10b981" text-anchor="middle">Real?</text><text x="700" y="202" font-family="'Inter',sans-serif" font-weight="700" font-size="20" fill="#ef4444" text-anchor="middle">Fake?</text><path d="M 520 235 L 520 290 L 310 290 L 310 235" fill="none" stroke="#787774" stroke-width="2" stroke-dasharray="6 6" marker-end="url(#arrowGray)"/><text x="415" y="310" font-family="'Inter',sans-serif" font-weight="600" font-size="14" fill="#787774" text-anchor="middle">Adversarial feedback loop</text><text x="400" y="345" font-family="'Inter',sans-serif" font-weight="600" font-size="20" fill="#37352f" text-anchor="middle">Two networks competing to improve</text></g>
  <rect x="0" y="360" width="800" height="40" fill="#ffffff" opacity="0.9"/>
  <text x="770" y="385" font-family="'Inter',sans-serif" font-weight="500" font-size="12" fill="#787774" text-anchor="end">@vedangvatsa</text>
</svg>