<?xml version="1.0" encoding="utf-8"?>
<svg xmlns="http://www.w3.org/2000/svg" viewBox="0 0 800 400" width="800" height="400" style="background-color:#ffffff">
<defs><marker id="arrow" markerWidth="6" markerHeight="6" refX="5" refY="3" orient="auto"><path d="M 0 0 L 6 3 L 0 6 z" fill="#9333ea"/></marker></defs>
<rect width="800" height="400" fill="#ffffff"/>
<g><rect x="80" y="130" width="140" height="60" rx="8" fill="#ffffff" stroke="#e5e7eb" stroke-width="2"/><text x="150" y="167" font-family="'Inter',sans-serif" font-weight="600" font-size="18" fill="#37352f" text-anchor="middle">Prompt</text><line x1="225" y1="160" x2="310" y2="160" stroke="#9333ea" stroke-width="2" marker-end="url(#arrow)"/><rect x="320" y="110" width="160" height="100" rx="14" fill="#ffffff" stroke="#9333ea" stroke-width="3" stroke-dasharray="6 6"/><text x="400" y="165" font-family="'Inter',sans-serif" font-weight="800" font-size="22" fill="#9333ea" text-anchor="middle">Gen AI</text><text x="400" y="195" font-family="'Inter',sans-serif" font-weight="500" font-size="14" fill="#787774" text-anchor="middle">Model</text><line x1="485" y1="130" x2="570" y2="110" stroke="#9333ea" stroke-width="2" marker-end="url(#arrow)"/><line x1="485" y1="160" x2="570" y2="160" stroke="#9333ea" stroke-width="2" marker-end="url(#arrow)"/><line x1="485" y1="190" x2="570" y2="210" stroke="#9333ea" stroke-width="2" marker-end="url(#arrow)"/><rect x="580" y="90" width="140" height="40" rx="8" fill="#ffffff" stroke="#9333ea" stroke-width="2"/><text x="650" y="117" font-family="'Inter',sans-serif" font-weight="600" font-size="16" fill="#9333ea" text-anchor="middle">Text</text><rect x="580" y="140" width="140" height="40" rx="8" fill="#ffffff" stroke="#2563eb" stroke-width="2"/><text x="650" y="167" font-family="'Inter',sans-serif" font-weight="600" font-size="16" fill="#2563eb" text-anchor="middle">Image</text><rect x="580" y="190" width="140" height="40" rx="8" fill="#ffffff" stroke="#10b981" stroke-width="2"/><text x="650" y="217" font-family="'Inter',sans-serif" font-weight="600" font-size="16" fill="#10b981" text-anchor="middle">Code</text><text x="400" y="290" font-family="'Inter',sans-serif" font-weight="600" font-size="20" fill="#37352f" text-anchor="middle">Creates new content from patterns</text></g>
<rect x="0" y="360" width="800" height="40" fill="#ffffff" opacity="0.9"/>
<text x="770" y="385" font-family="'Inter',sans-serif" font-weight="500" font-size="12" fill="#787774" text-anchor="end">@vedangvatsa</text>
</svg>