<?xml version="1.0" encoding="utf-8"?>
<svg xmlns="http://www.w3.org/2000/svg" viewBox="0 0 800 400" width="800" height="400" style="background-color:#ffffff">
<defs><marker id="arrow" markerWidth="6" markerHeight="6" refX="5" refY="3" orient="auto"><path d="M 0 0 L 6 3 L 0 6 z" fill="#059669"/></marker></defs>
<rect width="800" height="400" fill="#ffffff"/>
<g transform="translate(0,-32)"><circle cx="150" cy="170" r="18" fill="#fff" fill-opacity="1" stroke="#e5e7eb" stroke-width="2"/><text x="150" y="176" font-family="'Inter',sans-serif" font-weight="700" font-size="14" fill="#37352f" text-anchor="middle">C1</text><line x1="170" y1="170" x2="280" y2="170" stroke="#e5e7eb" stroke-width="2"/><circle cx="300" cy="170" r="18" fill="#fff" fill-opacity="1" stroke="#e5e7eb" stroke-width="2"/><text x="300" y="176" font-family="'Inter',sans-serif" font-weight="700" font-size="14" fill="#37352f" text-anchor="middle">C2</text><line x1="320" y1="170" x2="430" y2="170" stroke="#e5e7eb" stroke-width="2"/><circle cx="450" cy="170" r="18" fill="#fff" fill-opacity="1" stroke="#e5e7eb" stroke-width="2"/><text x="450" y="176" font-family="'Inter',sans-serif" font-weight="700" font-size="14" fill="#37352f" text-anchor="middle">C3</text><line x1="470" y1="170" x2="580" y2="170" stroke="#e5e7eb" stroke-width="2"/><circle cx="600" cy="170" r="18" fill="#059669" fill-opacity="0.15" stroke="#059669" stroke-width="2"/><text x="600" y="176" font-family="'Inter',sans-serif" font-weight="700" font-size="14" fill="#059669" text-anchor="middle">C4</text><path d="M 300 188 Q 340 250 400 250" fill="none" stroke="#10b981" stroke-width="2"/><circle cx="400" cy="250" r="18" fill="#10b981" fill-opacity="0.15" stroke="#10b981" stroke-width="2"/><text x="400" y="256" font-family="'Inter',sans-serif" font-weight="700" font-size="14" fill="#10b981" text-anchor="middle">B1</text><path d="M 418 250 Q 460 250 500 230 Q 520 220 540 200 Q 560 188 600 188" fill="none" stroke="#10b981" stroke-width="2" stroke-dasharray="4 4"/><text x="550" y="260" font-family="'Inter',sans-serif" font-weight="600" font-size="14" fill="#10b981" text-anchor="middle">Merge</text><text x="400" y="100" font-family="'Inter',sans-serif" font-weight="600" font-size="18" fill="#787774" text-anchor="middle">Branch, Commit, Merge</text><text x="400" y="340" font-family="'Inter',sans-serif" font-weight="600" font-size="18" fill="#37352f" text-anchor="middle">Distributed version control</text></g>
<rect x="0" y="360" width="800" height="40" fill="#ffffff" opacity="0.9"/>
<text x="770" y="385" font-family="'Inter',sans-serif" font-weight="500" font-size="12" fill="#787774" text-anchor="end">@vedangvatsa</text>
</svg>