<?xml version="1.0" encoding="utf-8"?>
<svg xmlns="http://www.w3.org/2000/svg" viewBox="0 0 800 400" width="800" height="400" style="background-color:#ffffff">
  <defs>
    <marker id="arrow" markerWidth="6" markerHeight="6" refX="5" refY="3" orient="auto">
      <path d="M 0 0 L 6 3 L 0 6 z" fill="#2563eb"/>
    </marker>
    <marker id="arrowGray" markerWidth="6" markerHeight="6" refX="5" refY="3" orient="auto">
      <path d="M 0 0 L 6 3 L 0 6 z" fill="#787774"/>
    </marker>
  </defs>
  <rect width="800" height="400" fill="#ffffff"/>
  <g transform="translate(0,-52)"><circle cx="200" cy="200" r="40" fill="#2563eb" fill-opacity="0.1" stroke="#2563eb" stroke-width="3"/><text x="200" y="210" font-family="'Inter',sans-serif" font-weight="800" font-size="22" fill="#2563eb" text-anchor="middle">GOV</text><line x1="245" y1="200" x2="340" y2="200" stroke="#2563eb" stroke-width="2" marker-end="url(#arrow)"/><rect x="360" y="140" width="200" height="120" rx="12" fill="#ffffff" stroke="#2563eb" stroke-width="2"/><text x="460" y="180" font-family="'Inter',sans-serif" font-weight="700" font-size="20" fill="#37352f" text-anchor="middle">Proposal</text><rect x="385" y="200" width="100" height="15" rx="4" fill="#10b981"/><text x="500" y="212" font-family="'Inter',sans-serif" font-weight="700" font-size="14" fill="#10b981" text-anchor="middle">72%</text><rect x="385" y="225" width="40" height="15" rx="4" fill="#ef4444"/><text x="435" y="237" font-family="'Inter',sans-serif" font-weight="700" font-size="14" fill="#ef4444" text-anchor="middle">28%</text><line x1="565" y1="200" x2="620" y2="200" stroke="#10b981" stroke-width="2" marker-end="url(#arrow)"/><text x="680" y="205" font-family="'Inter',sans-serif" font-weight="700" font-size="22" fill="#10b981" text-anchor="middle">Passed</text><text x="400" y="340" font-family="'Inter',sans-serif" font-weight="600" font-size="20" fill="#37352f" text-anchor="middle">Token holders vote on protocol changes</text></g>
  <rect x="0" y="360" width="800" height="40" fill="#ffffff" opacity="0.9"/>
  <text x="770" y="385" font-family="'Inter',sans-serif" font-weight="500" font-size="12" fill="#787774" text-anchor="end">@vedangvatsa</text>
</svg>