<?xml version="1.0" encoding="utf-8"?>
<svg xmlns="http://www.w3.org/2000/svg" viewBox="0 0 800 400" width="800" height="400" style="background-color:#ffffff">
  <defs>
    <marker id="arrow" markerWidth="6" markerHeight="6" refX="5" refY="3" orient="auto">
      <path d="M 0 0 L 6 3 L 0 6 z" fill="#9333ea"/>
    </marker>
    <marker id="arrowGray" markerWidth="6" markerHeight="6" refX="5" refY="3" orient="auto">
      <path d="M 0 0 L 6 3 L 0 6 z" fill="#787774"/>
    </marker>
  </defs>
  <rect width="800" height="400" fill="#ffffff"/>
  <g transform="translate(0,-30)"><rect x="280" y="90" width="240" height="100" rx="12" fill="#ffffff" stroke="#9333ea" stroke-width="2"/><text x="400" y="130" font-family="'Inter',sans-serif" font-weight="700" font-size="22" fill="#37352f" text-anchor="middle">LLM Output</text><text x="400" y="160" font-family="'Inter',sans-serif" font-weight="500" font-size="14" fill="#787774" text-anchor="middle">"The Eiffel Tower is in London"</text><circle cx="250" cy="270" r="30" fill="#10b981" fill-opacity="0.1" stroke="#10b981" stroke-width="2"/><path d="M 238 272 L 247 281 L 263 260" fill="none" stroke="#10b981" stroke-width="3"/><text x="250" y="320" font-family="'Inter',sans-serif" font-weight="700" font-size="20" fill="#10b981" text-anchor="middle">Fact</text><circle cx="550" cy="270" r="30" fill="#ef4444" fill-opacity="0.1" stroke="#ef4444" stroke-width="2"/><path d="M 538 258 L 562 282 M 562 258 L 538 282" fill="none" stroke="#ef4444" stroke-width="3"/><text x="550" y="320" font-family="'Inter',sans-serif" font-weight="700" font-size="20" fill="#ef4444" text-anchor="middle">Hallucination</text><line x1="350" y1="195" x2="260" y2="235" stroke="#10b981" stroke-width="2"/><line x1="450" y1="195" x2="540" y2="235" stroke="#ef4444" stroke-width="2"/><text x="400" y="345" font-family="'Inter',sans-serif" font-weight="600" font-size="16" fill="#37352f" text-anchor="middle">Confident but factually wrong output</text></g>
  <rect x="0" y="360" width="800" height="40" fill="#ffffff" opacity="0.9"/>
  <text x="770" y="385" font-family="'Inter',sans-serif" font-weight="500" font-size="12" fill="#787774" text-anchor="end">@vedangvatsa</text>
</svg>