<?xml version="1.0" encoding="utf-8"?>
<svg xmlns="http://www.w3.org/2000/svg" viewBox="0 0 800 400" width="800" height="400" style="background-color:#ffffff">
<defs><marker id="arrow" markerWidth="6" markerHeight="6" refX="5" refY="3" orient="auto"><path d="M 0 0 L 6 3 L 0 6 z" fill="#2563eb"/></marker></defs>
<rect width="800" height="400" fill="#ffffff"/>
<g><rect x="250" y="40" width="300" height="160" rx="16" fill="#ffffff" stroke="#2563eb" stroke-width="3"/><circle cx="400" cy="100" r="18" fill="none" stroke="#2563eb" stroke-width="2"/><line x1="418" y1="100" x2="450" y2="100" stroke="#2563eb" stroke-width="2"/><line x1="440" y1="95" x2="440" y2="105" stroke="#2563eb" stroke-width="2"/><line x1="450" y1="95" x2="450" y2="105" stroke="#2563eb" stroke-width="2"/><text x="400" y="145" font-family="'Inter',sans-serif" font-weight="700" font-size="18" fill="#2563eb" text-anchor="middle">Private Key</text><text x="400" y="175" font-family="'Inter',sans-serif" font-weight="500" font-size="14" fill="#787774" text-anchor="middle">Connected to Internet</text><path d="M 368 68 Q 400 50 432 68" fill="none" stroke="#10b981" stroke-width="2"/><path d="M 380 58 Q 400 45 420 58" fill="none" stroke="#10b981" stroke-width="2"/><circle cx="400" cy="73" r="3" fill="#10b981"/><rect x="80" y="230" width="280" height="60" rx="8" fill="#10b981" fill-opacity="0.06" stroke="#10b981" stroke-width="1.5"/><text x="220" y="268" font-family="'Inter',sans-serif" font-weight="600" font-size="16" fill="#10b981" text-anchor="middle">✓ Fast access, easy to trade</text><rect x="440" y="230" width="280" height="60" rx="8" fill="#ef4444" fill-opacity="0.06" stroke="#ef4444" stroke-width="1.5"/><text x="580" y="268" font-family="'Inter',sans-serif" font-weight="600" font-size="16" fill="#ef4444" text-anchor="middle">✗ Vulnerable to hacks</text><text x="400" y="340" font-family="'Inter',sans-serif" font-weight="600" font-size="16" fill="#37352f" text-anchor="middle">Online wallet — convenient but riskier</text></g>
<rect x="0" y="360" width="800" height="40" fill="#ffffff" opacity="0.9"/>
<text x="770" y="385" font-family="'Inter',sans-serif" font-weight="500" font-size="12" fill="#787774" text-anchor="end">@vedangvatsa</text>
</svg>