<?xml version="1.0" encoding="utf-8"?>
<svg xmlns="http://www.w3.org/2000/svg" viewBox="0 0 800 400" width="800" height="400" style="background-color:#ffffff">
<defs><marker id="arrow" markerWidth="6" markerHeight="6" refX="5" refY="3" orient="auto"><path d="M 0 0 L 6 3 L 0 6 z" fill="#9333ea"/></marker></defs>
<rect width="800" height="400" fill="#ffffff"/>
<g transform="translate(0,-35)"><circle cx="180" cy="120" r="40" fill="#ffffff" stroke="#9333ea" stroke-width="2"/><circle cx="180" cy="120" r="32" fill="none" stroke="#e5e7eb" stroke-width="4"/><line x1="180" y1="120" x2="200" y2="100" stroke="#9333ea" stroke-width="3" stroke-linecap="round"/><circle cx="180" cy="120" r="5" fill="#9333ea"/><text x="180" y="185" font-family="'Inter',sans-serif" font-weight="700" font-size="15" fill="#37352f" text-anchor="middle">Learning Rate</text><text x="180" y="210" font-family="'Inter',sans-serif" font-weight="600" font-size="14" fill="#9333ea" text-anchor="middle">0.001</text><circle cx="400" cy="120" r="40" fill="#ffffff" stroke="#9333ea" stroke-width="2"/><circle cx="400" cy="120" r="32" fill="none" stroke="#e5e7eb" stroke-width="4"/><line x1="400" y1="120" x2="420" y2="100" stroke="#9333ea" stroke-width="3" stroke-linecap="round"/><circle cx="400" cy="120" r="5" fill="#9333ea"/><text x="400" y="185" font-family="'Inter',sans-serif" font-weight="700" font-size="15" fill="#37352f" text-anchor="middle">Batch Size</text><text x="400" y="210" font-family="'Inter',sans-serif" font-weight="600" font-size="14" fill="#9333ea" text-anchor="middle">32</text><circle cx="620" cy="120" r="40" fill="#ffffff" stroke="#9333ea" stroke-width="2"/><circle cx="620" cy="120" r="32" fill="none" stroke="#e5e7eb" stroke-width="4"/><line x1="620" y1="120" x2="640" y2="100" stroke="#9333ea" stroke-width="3" stroke-linecap="round"/><circle cx="620" cy="120" r="5" fill="#9333ea"/><text x="620" y="185" font-family="'Inter',sans-serif" font-weight="700" font-size="15" fill="#37352f" text-anchor="middle">Epochs</text><text x="620" y="210" font-family="'Inter',sans-serif" font-weight="600" font-size="14" fill="#9333ea" text-anchor="middle">100</text><line x1="400" y1="230" x2="400" y2="260" stroke="#9333ea" stroke-width="2" marker-end="url(#arrow)"/><rect x="200" y="270" width="400" height="55" rx="10" fill="#ffffff" stroke="#10b981" stroke-width="2"/><text x="400" y="298" font-family="'Inter',sans-serif" font-weight="600" font-size="16" fill="#10b981" text-anchor="middle">Best Configuration → Optimal Model</text><text x="400" y="345" font-family="'Inter',sans-serif" font-weight="600" font-size="16" fill="#37352f" text-anchor="middle">Systematically search for best settings</text></g>
<rect x="0" y="360" width="800" height="40" fill="#ffffff" opacity="0.9"/>
<text x="770" y="385" font-family="'Inter',sans-serif" font-weight="500" font-size="12" fill="#787774" text-anchor="end">@vedangvatsa</text>
</svg>