<?xml version="1.0" encoding="utf-8"?>
<svg xmlns="http://www.w3.org/2000/svg" viewBox="0 0 800 400" width="800" height="400" style="background-color:#ffffff">
<defs><marker id="arrow" markerWidth="6" markerHeight="6" refX="5" refY="3" orient="auto"><path d="M 0 0 L 6 3 L 0 6 z" fill="#059669"/></marker></defs>
<rect width="800" height="400" fill="#ffffff"/>
<g transform="translate(0,-41)"><circle cx="400" cy="200" r="40" fill="#059669" fill-opacity="0.08" stroke="#059669" stroke-width="2"/><text x="400" y="208" font-family="'Inter',sans-serif" font-weight="700" font-size="16" fill="#059669" text-anchor="middle">Cloud</text><rect x="125" y="112" width="70" height="36" rx="6" fill="#fff" stroke="#e5e7eb" stroke-width="2"/><text x="160" y="136" font-family="'Inter',sans-serif" font-weight="600" font-size="13" fill="#37352f" text-anchor="middle">Sensor</text><line x1="232" y1="151" x2="316" y2="175.5" stroke="#e5e7eb" stroke-width="1" stroke-dasharray="3 3"/><rect x="605" y="112" width="70" height="36" rx="6" fill="#fff" stroke="#e5e7eb" stroke-width="2"/><text x="640" y="136" font-family="'Inter',sans-serif" font-weight="600" font-size="13" fill="#37352f" text-anchor="middle">Camera</text><line x1="568" y1="151" x2="484" y2="175.5" stroke="#e5e7eb" stroke-width="1" stroke-dasharray="3 3"/><rect x="125" y="262" width="70" height="36" rx="6" fill="#fff" stroke="#e5e7eb" stroke-width="2"/><text x="160" y="286" font-family="'Inter',sans-serif" font-weight="600" font-size="13" fill="#37352f" text-anchor="middle">Car</text><line x1="232" y1="256" x2="316" y2="228" stroke="#e5e7eb" stroke-width="1" stroke-dasharray="3 3"/><rect x="605" y="262" width="70" height="36" rx="6" fill="#fff" stroke="#e5e7eb" stroke-width="2"/><text x="640" y="286" font-family="'Inter',sans-serif" font-weight="600" font-size="13" fill="#37352f" text-anchor="middle">Phone</text><line x1="568" y1="256" x2="484" y2="228" stroke="#e5e7eb" stroke-width="1" stroke-dasharray="3 3"/><rect x="365" y="292" width="70" height="36" rx="6" fill="#fff" stroke="#e5e7eb" stroke-width="2"/><text x="400" y="316" font-family="'Inter',sans-serif" font-weight="600" font-size="13" fill="#37352f" text-anchor="middle">Watch</text><line x1="400" y1="277" x2="400" y2="238.5" stroke="#e5e7eb" stroke-width="1" stroke-dasharray="3 3"/><text x="400" y="345" font-family="'Inter',sans-serif" font-weight="600" font-size="18" fill="#37352f" text-anchor="middle">Connected devices exchanging data</text></g>
<rect x="0" y="360" width="800" height="40" fill="#ffffff" opacity="0.9"/>
<text x="770" y="385" font-family="'Inter',sans-serif" font-weight="500" font-size="12" fill="#787774" text-anchor="end">@vedangvatsa</text>
</svg>