<?xml version="1.0" encoding="utf-8"?>
<svg xmlns="http://www.w3.org/2000/svg" viewBox="0 0 800 400" width="800" height="400">
<rect width="800" height="400" fill="#fff"/>
<circle cx="400" cy="200" r="195" fill="none" stroke="#d1fae5" stroke-width="1"/>
<circle cx="400" cy="200" r="140" fill="none" stroke="#d1fae5" stroke-width="1" stroke-dasharray="6 4"/>
<line x1="400" y1="200" x2="400" y2="60" stroke="#6ee7b7" stroke-width="1.5"/>
<circle cx="400" cy="60" r="34" fill="#ecfdf5" stroke="#059669" stroke-width="2"/>
<text x="400" y="64" font-family="'Inter',sans-serif" font-weight="600" font-size="8" fill="#064e3b" text-anchor="middle">Deploying S…</text>
<line x1="400" y1="200" x2="521.2435565298214" y2="130" stroke="#6ee7b7" stroke-width="1.5"/>
<circle cx="521.2435565298214" cy="130" r="34" fill="#ecfdf5" stroke="#059669" stroke-width="2"/>
<text x="521.2435565298214" y="134" font-family="'Inter',sans-serif" font-weight="600" font-size="8" fill="#064e3b" text-anchor="middle">Containers …</text>
<line x1="400" y1="200" x2="521.2435565298214" y2="270" stroke="#6ee7b7" stroke-width="1.5"/>
<circle cx="521.2435565298214" cy="270" r="34" fill="#ecfdf5" stroke="#059669" stroke-width="2"/>
<text x="521.2435565298214" y="274" font-family="'Inter',sans-serif" font-weight="600" font-size="8" fill="#064e3b" text-anchor="middle">Docker Cont…</text>
<line x1="400" y1="200" x2="400" y2="340" stroke="#6ee7b7" stroke-width="1.5"/>
<circle cx="400" cy="340" r="34" fill="#ecfdf5" stroke="#059669" stroke-width="2"/>
<text x="400" y="344" font-family="'Inter',sans-serif" font-weight="600" font-size="8" fill="#064e3b" text-anchor="middle">Node Runtime</text>
<line x1="400" y1="200" x2="278.75644347017857" y2="270" stroke="#6ee7b7" stroke-width="1.5"/>
<circle cx="278.75644347017857" cy="270" r="34" fill="#ecfdf5" stroke="#059669" stroke-width="2"/>
<text x="278.75644347017857" y="274" font-family="'Inter',sans-serif" font-weight="600" font-size="8" fill="#064e3b" text-anchor="middle">Required Li…</text>
<line x1="400" y1="200" x2="278.7564434701786" y2="130" stroke="#6ee7b7" stroke-width="1.5"/>
<circle cx="278.7564434701786" cy="130" r="34" fill="#ecfdf5" stroke="#059669" stroke-width="2"/>
<text x="278.7564434701786" y="134" font-family="'Inter',sans-serif" font-weight="600" font-size="8" fill="#064e3b" text-anchor="middle">Containers …</text>
<circle cx="400" cy="200" r="55" fill="#059669"/>
<text x="400" y="205" font-family="'Inter',sans-serif" font-weight="800" font-size="11" fill="#fff" text-anchor="middle">Kubernetes</text>

</svg>