<?xml version="1.0" encoding="utf-8"?>
<svg xmlns="http://www.w3.org/2000/svg" viewBox="0 0 800 400" width="800" height="400" style="background-color:#ffffff">
  <defs>
    <pattern id="grid" width="30" height="30" patternUnits="userSpaceOnUse">
      <circle cx="2" cy="2" r="1.5" fill="#52525b" opacity="0.15"/>
    </pattern>
    <marker id="arrow" markerWidth="12" markerHeight="12" refX="10" refY="6" orient="auto">
      <path d="M 0 0 L 12 6 L 0 12 z" fill="#2563eb"/>
    </marker>
  </defs>
  <rect width="800" height="400" fill="#ffffff"/>
  <rect width="800" height="400" fill="url(#grid)"/>
  
  <g>
    <rect x="40" y="130" width="320" height="100" rx="10" fill="#ffffff" stroke="#e5e7eb" stroke-width="2"/>
<rect x="40" y="130" width="320" height="100" rx="10" fill="rgba(37,99,235,0.06)"/>
<text x="200" y="164" font-family="'Inter',sans-serif" font-weight="500" font-size="16" fill="#52525b" text-anchor="middle">Layer 2 refers to secondary</text>
<text x="200" y="185.6" font-family="'Inter',sans-serif" font-weight="500" font-size="16" fill="#52525b" text-anchor="middle">blockchains built on top of a Layer</text>
<text x="200" y="207.20000000000002" font-family="'Inter',sans-serif" font-weight="500" font-size="16" fill="#52525b" text-anchor="middle">1 chain like Ethereum</text>
<path d="M 360 180 C 420 180, 420 80, 470 80" fill="none" stroke="#2563eb" stroke-width="3" marker-end="url(#arrow)"/>
<path d="M 360 180 C 420 180, 420 280, 470 280" fill="none" stroke="#2563eb" stroke-width="3" marker-end="url(#arrow)"/>
<rect x="470" y="35" width="300" height="90" rx="8" fill="#ffffff" stroke="#e5e7eb" stroke-width="2"/>
<rect x="470" y="35" width="300" height="90" rx="8" fill="rgba(37,99,235,0.06)"/>
<text x="620" y="66" font-family="'Inter',sans-serif" font-weight="500" font-size="14" fill="#52525b" text-anchor="middle">To improve scalability . Ethereum</text>
<text x="620" y="84.9" font-family="'Inter',sans-serif" font-weight="500" font-size="14" fill="#52525b" text-anchor="middle">Layer 1 processes roughly 15</text>
<text x="620" y="103.80000000000001" font-family="'Inter',sans-serif" font-weight="500" font-size="14" fill="#52525b" text-anchor="middle">transactions per second</text>
<rect x="470" y="235" width="300" height="90" rx="8" fill="#ffffff" stroke="#e5e7eb" stroke-width="2"/>
<rect x="470" y="235" width="300" height="90" rx="8" fill="rgba(37,99,235,0.06)"/>
<text x="620" y="275.45" font-family="'Inter',sans-serif" font-weight="500" font-size="14" fill="#52525b" text-anchor="middle">Layer 2 solutions process hundreds</text>
<text x="620" y="294.34999999999997" font-family="'Inter',sans-serif" font-weight="500" font-size="14" fill="#52525b" text-anchor="middle">or thousands</text>

  </g>
  
  <rect x="0" y="360" width="800" height="40" fill="#ffffff" opacity="0.9"/>
  <text x="770" y="385" font-family="'Inter',sans-serif" font-weight="600" font-size="12" fill="#52525b" text-anchor="end">@vedangvatsa</text>
</svg>