<?xml version="1.0" encoding="utf-8"?>
<svg xmlns="http://www.w3.org/2000/svg" viewBox="0 0 800 400" width="800" height="400" style="background-color:#ffffff">
  <defs>
    <marker id="arrow" markerWidth="6" markerHeight="6" refX="5" refY="3" orient="auto">
      <path d="M 0 0 L 6 3 L 0 6 z" fill="#2563eb"/>
    </marker>
    <marker id="arrowGray" markerWidth="6" markerHeight="6" refX="5" refY="3" orient="auto">
      <path d="M 0 0 L 6 3 L 0 6 z" fill="#787774"/>
    </marker>
  </defs>
  <rect width="800" height="400" fill="#ffffff"/>
  <g transform="translate(0,-40)"><rect x="100" y="250" width="600" height="60" rx="8" fill="#ffffff" stroke="#e5e7eb" stroke-width="2"/><text x="400" y="288" font-family="'Inter',sans-serif" font-weight="600" font-size="18" fill="#787774" text-anchor="middle">Layer 1 (Ethereum)</text><rect x="140" y="110" width="200" height="80" rx="10" fill="#ffffff" stroke="#2563eb" stroke-width="3"/><text x="240" y="145" font-family="'Inter',sans-serif" font-weight="700" font-size="20" fill="#2563eb" text-anchor="middle">Arbitrum</text><text x="240" y="175" font-family="'Inter',sans-serif" font-weight="500" font-size="13" fill="#787774" text-anchor="middle">Optimistic Rollup</text><rect x="440" y="110" width="200" height="80" rx="10" fill="#ffffff" stroke="#2563eb" stroke-width="3"/><text x="540" y="145" font-family="'Inter',sans-serif" font-weight="700" font-size="20" fill="#2563eb" text-anchor="middle">zkSync</text><text x="540" y="175" font-family="'Inter',sans-serif" font-weight="500" font-size="13" fill="#787774" text-anchor="middle">ZK Rollup</text><line x1="240" y1="195" x2="240" y2="245" stroke="#2563eb" stroke-width="2" stroke-dasharray="4 4"/><line x1="540" y1="195" x2="540" y2="245" stroke="#2563eb" stroke-width="2" stroke-dasharray="4 4"/><text x="400" y="230" font-family="'Inter',sans-serif" font-weight="600" font-size="14" fill="#2563eb" text-anchor="middle">Post proofs/data</text><text x="400" y="345" font-family="'Inter',sans-serif" font-weight="600" font-size="20" fill="#37352f" text-anchor="middle">Scale by executing off main chain</text></g>
  <rect x="0" y="360" width="800" height="40" fill="#ffffff" opacity="0.9"/>
  <text x="770" y="385" font-family="'Inter',sans-serif" font-weight="500" font-size="12" fill="#787774" text-anchor="end">@vedangvatsa</text>
</svg>