<?xml version="1.0" encoding="utf-8"?>
<svg xmlns="http://www.w3.org/2000/svg" viewBox="0 0 800 400" width="800" height="400" style="background-color:#ffffff">
  <defs>
    <marker id="arrow" markerWidth="6" markerHeight="6" refX="5" refY="3" orient="auto">
      <path d="M 0 0 L 6 3 L 0 6 z" fill="#2563eb"/>
    </marker>
    <marker id="arrowGray" markerWidth="6" markerHeight="6" refX="5" refY="3" orient="auto">
      <path d="M 0 0 L 6 3 L 0 6 z" fill="#787774"/>
    </marker>
  </defs>
  <rect width="800" height="400" fill="#ffffff"/>
  <g transform="translate(0,-57)"><rect x="150" y="160" width="500" height="100" rx="12" fill="#ffffff" stroke="#2563eb" stroke-width="3"/><text x="400" y="205" font-family="'Inter',sans-serif" font-weight="700" font-size="24" fill="#2563eb" text-anchor="middle">Base Chain</text><text x="400" y="240" font-family="'Inter',sans-serif" font-weight="500" font-size="16" fill="#787774" text-anchor="middle">Consensus + Execution + Data</text><rect x="130" y="290" width="110" height="40" rx="8" fill="#ffffff" stroke="#e5e7eb" stroke-width="2"/><text x="185" y="317" font-family="'Inter',sans-serif" font-weight="600" font-size="16" fill="#37352f" text-anchor="middle">Bitcoin</text><rect x="270" y="290" width="110" height="40" rx="8" fill="#ffffff" stroke="#e5e7eb" stroke-width="2"/><text x="325" y="317" font-family="'Inter',sans-serif" font-weight="600" font-size="16" fill="#37352f" text-anchor="middle">Ethereum</text><rect x="410" y="290" width="110" height="40" rx="8" fill="#ffffff" stroke="#e5e7eb" stroke-width="2"/><text x="465" y="317" font-family="'Inter',sans-serif" font-weight="600" font-size="16" fill="#37352f" text-anchor="middle">Solana</text><rect x="550" y="290" width="110" height="40" rx="8" fill="#ffffff" stroke="#e5e7eb" stroke-width="2"/><text x="605" y="317" font-family="'Inter',sans-serif" font-weight="600" font-size="15" fill="#37352f" text-anchor="middle">Avalanche</text><text x="400" y="140" font-family="'Inter',sans-serif" font-weight="600" font-size="16" fill="#787774" text-anchor="middle">Settlement Layer</text><text x="400" y="350" font-family="'Inter',sans-serif" font-weight="600" font-size="20" fill="#37352f" text-anchor="middle">The foundational blockchain network</text></g>
  <rect x="0" y="360" width="800" height="40" fill="#ffffff" opacity="0.9"/>
  <text x="770" y="385" font-family="'Inter',sans-serif" font-weight="500" font-size="12" fill="#787774" text-anchor="end">@vedangvatsa</text>
</svg>