<?xml version="1.0" encoding="utf-8"?>
<svg xmlns="http://www.w3.org/2000/svg" viewBox="0 0 800 420" width="800" height="420">
  <defs>
    <radialGradient id="glow" cx="50%" cy="50%" r="50%">
      <stop offset="0%" stop-color="rgba(37,99,235,0.06)"/>
      <stop offset="100%" stop-color="#ffffff" stop-opacity="0"/>
    </radialGradient>
    <pattern id="grid" width="30" height="30" patternUnits="userSpaceOnUse">
      <circle cx="2" cy="2" r="1.5" fill="#e5e7eb" opacity="0.6"/>
    </pattern>
  </defs>
  <rect width="800" height="420" fill="#ffffff"/>
  <rect x="0" y="0" width="300" height="420" fill="url(#grid)"/>
  <rect x="-100" y="10" width="400" height="400" fill="url(#glow)"/>
  <line x1="300" y1="40" x2="300" y2="380" stroke="#e5e7eb" stroke-width="1.5" stroke-dasharray="4 4"/>
  
  <!-- Visual Architecture (Left Column) -->
  <g transform="translate(-250, 20)">
    <rect x="250" y="100" width="300" height="12" rx="6" fill="#2563eb" opacity="0.2"/>
<rect x="196.1982931825358" y="125" width="407.6034136349284" height="12" rx="6" fill="#2563eb" opacity="0.35"/>
<rect x="175.0319797718871" y="150" width="449.9360404562258" height="12" rx="6" fill="#2563eb" opacity="0.5"/>
<rect x="199.3402614586637" y="175" width="401.3194770826726" height="12" rx="6" fill="#2563eb" opacity="0.6499999999999999"/>
<rect x="254.3780607570685" y="200" width="291.243878485863" height="12" rx="6" fill="#2563eb" opacity="0.8"/>
<rect x="306.7601871480946" y="225" width="186.47962570381077" height="12" rx="6" fill="#2563eb" opacity="0.95"/>

  </g>

  <!-- Content (Right Column) -->
  <text x="350" y="85" font-family="'Inter',sans-serif" font-weight="700" font-size="12" fill="#2563eb" text-anchor="start" letter-spacing="2.5" text-transform="uppercase">Web3 GLOSSARY</text>
  <text x="350" y="130" font-family="'Inter',sans-serif" font-weight="800" font-size="36" fill="#09090b" text-anchor="start" letter-spacing="-1">Leverage</text>

  
  
  <!-- Minimal Branding -->
  <text x="760" y="390" font-family="'Inter',sans-serif" font-weight="700" font-size="12" fill="#e5e7eb" text-anchor="end">veda.ng</text>
</svg>