<?xml version="1.0" encoding="utf-8"?>
<svg xmlns="http://www.w3.org/2000/svg" viewBox="0 0 800 400" width="800" height="400">
<rect width="800" height="400" fill="#fff"/>
<text x="50" y="65" font-family="'Inter',sans-serif" font-weight="600" font-size="12" fill="#444">Order Specifi…</text>
<rect x="200" y="34" width="560" height="52" rx="8" fill="#eff6ff"/>
<rect x="200" y="34" width="448.8" height="52" rx="8" fill="#2563eb" opacity="0.5"/>
<text x="634.8" y="65" font-family="'Inter',sans-serif" font-weight="800" font-size="14" fill="#fff" text-anchor="end">88%</text>
<text x="50" y="135" font-family="'Inter',sans-serif" font-weight="600" font-size="12" fill="#444">Exact Price</text>
<rect x="200" y="104" width="560" height="52" rx="8" fill="#eff6ff"/>
<rect x="200" y="104" width="367.2" height="52" rx="8" fill="#2563eb" opacity="0.6"/>
<text x="553.2" y="135" font-family="'Inter',sans-serif" font-weight="800" font-size="14" fill="#fff" text-anchor="end">72%</text>
<text x="50" y="205" font-family="'Inter',sans-serif" font-weight="600" font-size="12" fill="#444">You're Willing</text>
<rect x="200" y="174" width="560" height="52" rx="8" fill="#eff6ff"/>
<rect x="200" y="174" width="484.5" height="52" rx="8" fill="#2563eb" opacity="0.7"/>
<text x="670.5" y="205" font-family="'Inter',sans-serif" font-weight="800" font-size="14" fill="#fff" text-anchor="end">95%</text>
<text x="50" y="275" font-family="'Inter',sans-serif" font-weight="600" font-size="12" fill="#444">Trade Providi…</text>
<rect x="200" y="244" width="560" height="52" rx="8" fill="#eff6ff"/>
<rect x="200" y="244" width="316.2" height="52" rx="8" fill="#2563eb" opacity="0.8"/>
<text x="502.20000000000005" y="275" font-family="'Inter',sans-serif" font-weight="800" font-size="14" fill="#fff" text-anchor="end">62%</text>
<text x="50" y="345" font-family="'Inter',sans-serif" font-weight="600" font-size="12" fill="#444">Providing Pri…</text>
<rect x="200" y="314" width="560" height="52" rx="8" fill="#eff6ff"/>
<rect x="200" y="314" width="408" height="52" rx="8" fill="#2563eb" opacity="0.9"/>
<text x="594" y="345" font-family="'Inter',sans-serif" font-weight="800" font-size="14" fill="#fff" text-anchor="end">80%</text>

</svg>