<?xml version="1.0" encoding="utf-8"?>
<svg xmlns="http://www.w3.org/2000/svg" viewBox="0 0 800 400" width="800" height="400">
<rect width="800" height="400" fill="#fff"/>
<rect x="30" y="14" width="740" height="68" rx="10" fill="#2563eb" opacity="1"/>
<text x="54" y="54" font-family="'Inter',sans-serif" font-weight="700" font-size="15" fill="#fff">Staking Lets</text>
<rect x="700" y="38" width="50" height="20" rx="10" fill="rgba(255,255,255,0.2)"/>
<rect x="42.5" y="90" width="715" height="68" rx="10" fill="#2563eb" opacity="0.88"/>
<text x="66.5" y="130" font-family="'Inter',sans-serif" font-weight="700" font-size="15" fill="#fff">Stake Tokens</text>
<rect x="687.5" y="114" width="50" height="20" rx="10" fill="rgba(255,255,255,0.2)"/>
<rect x="55" y="166" width="690" height="68" rx="10" fill="#2563eb" opacity="0.76"/>
<text x="79" y="206" font-family="'Inter',sans-serif" font-weight="700" font-size="15" fill="#fff">Derivative Tokens</text>
<rect x="675" y="190" width="50" height="20" rx="10" fill="rgba(255,255,255,0.2)"/>
<rect x="67.5" y="242" width="665" height="68" rx="10" fill="#2563eb" opacity="0.64"/>
<text x="91.5" y="282" font-family="'Inter',sans-serif" font-weight="700" font-size="15" fill="#fff">Tokens Normally</text>
<rect x="662.5" y="266" width="50" height="20" rx="10" fill="rgba(255,255,255,0.2)"/>
<rect x="80" y="318" width="640" height="68" rx="10" fill="#2563eb" opacity="0.52"/>
<text x="104" y="358" font-family="'Inter',sans-serif" font-weight="700" font-size="15" fill="#fff">Normally Staking</text>
<rect x="650" y="342" width="50" height="20" rx="10" fill="rgba(255,255,255,0.2)"/>

</svg>