<?xml version="1.0" encoding="utf-8"?>
<svg xmlns="http://www.w3.org/2000/svg" viewBox="0 0 800 420" width="800" height="420" style="background-color:#ffffff">
  <defs>
    <pattern id="grid" width="30" height="30" patternUnits="userSpaceOnUse">
      <circle cx="2" cy="2" r="1.5" fill="#52525b" opacity="0.15"/>
    </pattern>
    <marker id="arrow" markerWidth="10" markerHeight="10" refX="8" refY="5" orient="auto">
      <path d="M 0 0 L 10 5 L 0 10 z" fill="#2563eb"/>
    </marker>
  </defs>
  <rect width="800" height="420" fill="#ffffff"/>
  <rect width="800" height="420" fill="url(#grid)"/>
  
  <g transform="translate(0, 80)">
    <rect x="190" y="20" width="420" height="60" rx="8" fill="#ffffff" stroke="#e5e7eb" stroke-width="2"/>
<rect x="190" y="20" width="420" height="60" rx="8" fill="rgba(37,99,235,0.06)"/>
<text x="400" y="36" font-family="'Inter',sans-serif" font-weight="500" font-size="14" fill="#52525b" text-anchor="middle">Liquidation in DeFi is the forced closure of an</text>
<text x="400" y="54.9" font-family="'Inter',sans-serif" font-weight="500" font-size="14" fill="#52525b" text-anchor="middle">undercollateralized position, protecting protocols from</text>
<text x="400" y="73.80000000000001" font-family="'Inter',sans-serif" font-weight="500" font-size="14" fill="#52525b" text-anchor="middle">bad debt</text>
<line x1="400" y1="83" x2="400" y2="92" stroke="#2563eb" stroke-width="2.5" marker-end="url(#arrow)"/>
<rect x="190" y="100" width="420" height="60" rx="8" fill="#ffffff" stroke="#e5e7eb" stroke-width="2"/>
<rect x="190" y="100" width="420" height="60" rx="8" fill="rgba(37,99,235,0.06)"/>
<text x="400" y="134.9" font-family="'Inter',sans-serif" font-weight="500" font-size="14" fill="#52525b" text-anchor="middle">By selling collateral to repay outstanding loans</text>
<line x1="400" y1="163" x2="400" y2="172" stroke="#2563eb" stroke-width="2.5" marker-end="url(#arrow)"/>
<rect x="190" y="180" width="420" height="60" rx="8" fill="#ffffff" stroke="#e5e7eb" stroke-width="2"/>
<rect x="190" y="180" width="420" height="60" rx="8" fill="rgba(37,99,235,0.06)"/>
<text x="400" y="214.9" font-family="'Inter',sans-serif" font-weight="500" font-size="14" fill="#52525b" text-anchor="middle">The mechanics: you deposit ETH worth $150, borrow $100 DAI</text>

  </g>
  
  <rect x="0" y="380" width="800" height="40" fill="#ffffff" opacity="0.9"/>
  <text x="770" y="405" font-family="'Inter',sans-serif" font-weight="600" font-size="11" fill="#52525b" text-anchor="end">veda.ng</text>
</svg>