<?xml version="1.0" encoding="utf-8"?>
<svg xmlns="http://www.w3.org/2000/svg" viewBox="0 0 800 400" width="800" height="400" style="background-color:#ffffff">
<defs><marker id="arrow" markerWidth="6" markerHeight="6" refX="5" refY="3" orient="auto"><path d="M 0 0 L 6 3 L 0 6 z" fill="#2563eb"/></marker></defs>
<rect width="800" height="400" fill="#ffffff"/>
<g transform="translate(0,-17)"><rect x="60" y="110" width="100" height="50" rx="8" fill="#ffffff" stroke="#e5e7eb" stroke-width="2"/><text x="110" y="142" font-family="'Inter',sans-serif" font-weight="700" font-size="20" fill="#37352f" text-anchor="middle">ETH</text><line x1="165" y1="135" x2="220" y2="135" stroke="#2563eb" stroke-width="2" marker-end="url(#arrow)"/><rect x="230" y="100" width="120" height="70" rx="8" fill="#ffffff" stroke="#2563eb" stroke-width="2"/><text x="290" y="142" font-family="'Inter',sans-serif" font-weight="600" font-size="16" fill="#2563eb" text-anchor="middle">Stake</text><text x="290" y="155" font-family="'Inter',sans-serif" font-weight="500" font-size="12" fill="#787774" text-anchor="middle">Layer 1</text><line x1="355" y1="135" x2="410" y2="135" stroke="#2563eb" stroke-width="2" marker-end="url(#arrow)"/><rect x="420" y="100" width="130" height="70" rx="8" fill="#ffffff" stroke="#f59e0b" stroke-width="2"/><text x="485" y="142" font-family="'Inter',sans-serif" font-weight="600" font-size="16" fill="#f59e0b" text-anchor="middle">Restake</text><text x="485" y="155" font-family="'Inter',sans-serif" font-weight="500" font-size="12" fill="#787774" text-anchor="middle">AVS Layer</text><line x1="555" y1="135" x2="610" y2="135" stroke="#2563eb" stroke-width="2" marker-end="url(#arrow)"/><rect x="620" y="110" width="120" height="50" rx="8" fill="#ffffff" stroke="#10b981" stroke-width="2"/><text x="680" y="142" font-family="'Inter',sans-serif" font-weight="600" font-size="16" fill="#10b981" text-anchor="middle">LRT Token</text><line x1="680" y1="165" x2="680" y2="210" stroke="#10b981" stroke-width="2" marker-end="url(#arrow)"/><rect x="610" y="215" width="180" height="45" rx="8" fill="#ffffff" stroke="#10b981" stroke-width="2"/><text x="700" y="244.5" font-family="'Inter',sans-serif" font-weight="600" font-size="14" fill="#10b981" text-anchor="middle">Use in DeFi Again</text><text x="400" y="310" font-family="'Inter',sans-serif" font-weight="600" font-size="16" fill="#37352f" text-anchor="middle">Triple earning: stake + restake + DeFi</text></g>
<rect x="0" y="360" width="800" height="40" fill="#ffffff" opacity="0.9"/>
<text x="770" y="385" font-family="'Inter',sans-serif" font-weight="500" font-size="12" fill="#787774" text-anchor="end">@vedangvatsa</text>
</svg>