<?xml version="1.0" encoding="utf-8"?>
<svg xmlns="http://www.w3.org/2000/svg" viewBox="0 0 800 400" width="800" height="400">
<rect width="800" height="400" fill="#fff"/>
<circle cx="400" cy="200" r="195" fill="none" stroke="#ede9fe" stroke-width="1"/>
<circle cx="400" cy="200" r="140" fill="none" stroke="#ede9fe" stroke-width="1" stroke-dasharray="6 4"/>
<line x1="400" y1="200" x2="400" y2="60" stroke="#c4b5fd" stroke-width="1.5"/>
<circle cx="400" cy="60" r="34" fill="#f5f3ff" stroke="#7c3aed" stroke-width="2"/>
<text x="400" y="64" font-family="'Inter',sans-serif" font-weight="600" font-size="8" fill="#4c1d95" text-anchor="middle">LoRA Low-Ra…</text>
<line x1="400" y1="200" x2="521.2435565298214" y2="130" stroke="#c4b5fd" stroke-width="1.5"/>
<circle cx="521.2435565298214" cy="130" r="34" fill="#f5f3ff" stroke="#7c3aed" stroke-width="2"/>
<text x="521.2435565298214" y="134" font-family="'Inter',sans-serif" font-weight="600" font-size="8" fill="#4c1d95" text-anchor="middle">Adds Small</text>
<line x1="400" y1="200" x2="521.2435565298214" y2="270" stroke="#c4b5fd" stroke-width="1.5"/>
<circle cx="521.2435565298214" cy="270" r="34" fill="#f5f3ff" stroke="#7c3aed" stroke-width="2"/>
<text x="521.2435565298214" y="274" font-family="'Inter',sans-serif" font-weight="600" font-size="8" fill="#4c1d95" text-anchor="middle">Small Train…</text>
<line x1="400" y1="200" x2="400" y2="340" stroke="#c4b5fd" stroke-width="1.5"/>
<circle cx="400" cy="340" r="34" fill="#f5f3ff" stroke="#7c3aed" stroke-width="2"/>
<text x="400" y="344" font-family="'Inter',sans-serif" font-weight="600" font-size="8" fill="#4c1d95" text-anchor="middle">Trainable L…</text>
<line x1="400" y1="200" x2="278.75644347017857" y2="270" stroke="#c4b5fd" stroke-width="1.5"/>
<circle cx="278.75644347017857" cy="270" r="34" fill="#f5f3ff" stroke="#7c3aed" stroke-width="2"/>
<text x="278.75644347017857" y="274" font-family="'Inter',sans-serif" font-weight="600" font-size="8" fill="#4c1d95" text-anchor="middle">Low-rank Ma…</text>
<line x1="400" y1="200" x2="278.7564434701786" y2="130" stroke="#c4b5fd" stroke-width="1.5"/>
<circle cx="278.7564434701786" cy="130" r="34" fill="#f5f3ff" stroke="#7c3aed" stroke-width="2"/>
<text x="278.7564434701786" y="134" font-family="'Inter',sans-serif" font-weight="600" font-size="8" fill="#4c1d95" text-anchor="middle">Frozen Model</text>
<circle cx="400" cy="200" r="55" fill="#7c3aed"/>
<text x="400" y="205" font-family="'Inter',sans-serif" font-weight="800" font-size="14" fill="#fff" text-anchor="middle">LoRA</text>

</svg>