<?xml version="1.0" encoding="utf-8"?>
<svg xmlns="http://www.w3.org/2000/svg" viewBox="0 0 800 400" width="800" height="400" style="background-color:#ffffff">
  <defs>
    <pattern id="grid" width="30" height="30" patternUnits="userSpaceOnUse">
      <circle cx="2" cy="2" r="1.5" fill="#52525b" opacity="0.15"/>
    </pattern>
    <marker id="arrow" markerWidth="12" markerHeight="12" refX="10" refY="6" orient="auto">
      <path d="M 0 0 L 12 6 L 0 12 z" fill="#9333ea"/>
    </marker>
  </defs>
  <rect width="800" height="400" fill="#ffffff"/>
  <rect width="800" height="400" fill="url(#grid)"/>
  
  <g>
    <rect x="40" y="50" width="340" height="100" rx="10" fill="#ffffff" stroke="#e5e7eb" stroke-width="2"/>
<rect x="40" y="50" width="340" height="100" rx="10" fill="rgba(147,51,234,0.06)"/>
<text x="210" y="85" font-family="'Inter',sans-serif" font-weight="500" font-size="15" fill="#52525b" text-anchor="middle">Machine Translation (MT) automatically</text>
<text x="210" y="105.25" font-family="'Inter',sans-serif" font-weight="500" font-size="15" fill="#52525b" text-anchor="middle">translates text or speech between</text>
<text x="210" y="125.5" font-family="'Inter',sans-serif" font-weight="500" font-size="15" fill="#52525b" text-anchor="middle">languages, a foundational NLP task</text>
<rect x="420" y="50" width="340" height="100" rx="10" fill="#ffffff" stroke="#e5e7eb" stroke-width="2"/>
<rect x="420" y="50" width="340" height="100" rx="10" fill="rgba(147,51,234,0.06)"/>
<text x="590" y="95.125" font-family="'Inter',sans-serif" font-weight="500" font-size="15" fill="#52525b" text-anchor="middle">That has evolved from rule-based systems</text>
<text x="590" y="115.375" font-family="'Inter',sans-serif" font-weight="500" font-size="15" fill="#52525b" text-anchor="middle">through statistical methods</text>
<path d="M 210 150 L 380 230" fill="none" stroke="#9333ea" stroke-width="3" marker-end="url(#arrow)"/>
<path d="M 590 150 L 420 230" fill="none" stroke="#9333ea" stroke-width="3" marker-end="url(#arrow)"/>
<rect x="170" y="235" width="460" height="90" rx="10" fill="#ffffff" stroke="#e5e7eb" stroke-width="2"/>
<rect x="170" y="235" width="460" height="90" rx="10" fill="rgba(147,51,234,0.06)"/>
<text x="400" y="274.8" font-family="'Inter',sans-serif" font-weight="500" font-size="16" fill="#52525b" text-anchor="middle">To neural approaches that achieve near-human</text>
<text x="400" y="296.40000000000003" font-family="'Inter',sans-serif" font-weight="500" font-size="16" fill="#52525b" text-anchor="middle">quality for many language pairs</text>

  </g>
  
  <rect x="0" y="360" width="800" height="40" fill="#ffffff" opacity="0.9"/>
  <text x="770" y="385" font-family="'Inter',sans-serif" font-weight="600" font-size="12" fill="#52525b" text-anchor="end">@vedangvatsa</text>
</svg>