<?xml version="1.0" encoding="utf-8"?>
<svg xmlns="http://www.w3.org/2000/svg" viewBox="0 0 800 400" width="800" height="400" style="background-color:#ffffff">
<defs><marker id="arrow" markerWidth="6" markerHeight="6" refX="5" refY="3" orient="auto"><path d="M 0 0 L 6 3 L 0 6 z" fill="#2563eb"/></marker></defs>
<rect width="800" height="400" fill="#ffffff"/>
<g transform="translate(0,-10)"><rect x="80" y="120" width="180" height="70" rx="8" fill="#ffffff" stroke="#e5e7eb" stroke-width="2"/><text x="170" y="162" font-family="'Inter',sans-serif" font-weight="600" font-size="16" fill="#37352f" text-anchor="middle">Deposit Collateral</text><text x="170" y="210" font-family="'Inter',sans-serif" font-weight="700" font-size="18" fill="#2563eb" text-anchor="middle">$1,000</text><line x1="265" y1="155" x2="340" y2="155" stroke="#2563eb" stroke-width="2" marker-end="url(#arrow)"/><rect x="350" y="110" width="200" height="100" rx="12" fill="#ffffff" stroke="#2563eb" stroke-width="3"/><text x="450" y="150" font-family="'Inter',sans-serif" font-weight="700" font-size="18" fill="#2563eb" text-anchor="middle">Open Position</text><text x="450" y="180" font-family="'Inter',sans-serif" font-weight="600" font-size="16" fill="#787774" text-anchor="middle">$10,000 (10×)</text><line x1="350" y1="240" x2="550" y2="240" stroke="#ef4444" stroke-width="2" stroke-dasharray="4 4"/><text x="450" y="260" font-family="'Inter',sans-serif" font-weight="600" font-size="14" fill="#ef4444" text-anchor="middle">Maintenance Margin</text><text x="450" y="285" font-family="'Inter',sans-serif" font-weight="600" font-size="14" fill="#ef4444" text-anchor="middle">Below → Liquidation</text><rect x="600" y="120" width="140" height="50" rx="8" fill="#ffffff" stroke="#e5e7eb" stroke-width="2"/><text x="670" y="152" font-family="'Inter',sans-serif" font-weight="600" font-size="16" fill="#37352f" text-anchor="middle">Cross</text><rect x="600" y="185" width="140" height="50" rx="8" fill="#ffffff" stroke="#e5e7eb" stroke-width="2"/><text x="670" y="217" font-family="'Inter',sans-serif" font-weight="600" font-size="16" fill="#37352f" text-anchor="middle">Isolated</text></g>
<rect x="0" y="360" width="800" height="40" fill="#ffffff" opacity="0.9"/>
<text x="770" y="385" font-family="'Inter',sans-serif" font-weight="500" font-size="12" fill="#787774" text-anchor="end">@vedangvatsa</text>
</svg>