<?xml version="1.0" encoding="utf-8"?>
<svg xmlns="http://www.w3.org/2000/svg" viewBox="0 0 800 400" width="800" height="400" style="background-color:#ffffff">
<defs><marker id="arrow" markerWidth="6" markerHeight="6" refX="5" refY="3" orient="auto"><path d="M 0 0 L 6 3 L 0 6 z" fill="#059669"/></marker></defs>
<rect width="800" height="400" fill="#ffffff"/>
<g transform="translate(0,-12)"><rect x="300" y="60" width="200" height="80" rx="14" fill="#ffffff" stroke="#059669" stroke-width="3"/><text x="400" y="105" font-family="'Inter',sans-serif" font-weight="800" font-size="28" fill="#059669" text-anchor="middle">LLM</text><rect x="200" y="170" width="400" height="50" rx="8" fill="#059669" fill-opacity="0.08" stroke="#059669" stroke-width="2"/><text x="400" y="202" font-family="'Inter',sans-serif" font-weight="700" font-size="16" fill="#059669" text-anchor="middle">Model Context Protocol</text><line x1="400" y1="145" x2="400" y2="165" stroke="#059669" stroke-width="2" marker-end="url(#arrow)"/><line x1="170" y1="225" x2="170" y2="255" stroke="#059669" stroke-width="2" marker-end="url(#arrow)"/><rect x="130" y="260" width="80" height="40" rx="6" fill="#ffffff" stroke="#e5e7eb" stroke-width="2"/><text x="170" y="286" font-family="'Inter',sans-serif" font-weight="600" font-size="14" fill="#37352f" text-anchor="middle">Files</text><line x1="320" y1="225" x2="320" y2="255" stroke="#059669" stroke-width="2" marker-end="url(#arrow)"/><rect x="280" y="260" width="80" height="40" rx="6" fill="#ffffff" stroke="#e5e7eb" stroke-width="2"/><text x="320" y="286" font-family="'Inter',sans-serif" font-weight="600" font-size="14" fill="#37352f" text-anchor="middle">APIs</text><line x1="470" y1="225" x2="470" y2="255" stroke="#059669" stroke-width="2" marker-end="url(#arrow)"/><rect x="430" y="260" width="80" height="40" rx="6" fill="#ffffff" stroke="#e5e7eb" stroke-width="2"/><text x="470" y="286" font-family="'Inter',sans-serif" font-weight="600" font-size="14" fill="#37352f" text-anchor="middle">Database</text><line x1="620" y1="225" x2="620" y2="255" stroke="#059669" stroke-width="2" marker-end="url(#arrow)"/><rect x="580" y="260" width="80" height="40" rx="6" fill="#ffffff" stroke="#e5e7eb" stroke-width="2"/><text x="620" y="286" font-family="'Inter',sans-serif" font-weight="600" font-size="14" fill="#37352f" text-anchor="middle">Code</text><text x="400" y="340" font-family="'Inter',sans-serif" font-weight="600" font-size="16" fill="#37352f" text-anchor="middle">Standardized interface for AI tool access</text></g>
<rect x="0" y="360" width="800" height="40" fill="#ffffff" opacity="0.9"/>
<text x="770" y="385" font-family="'Inter',sans-serif" font-weight="500" font-size="12" fill="#787774" text-anchor="end">@vedangvatsa</text>
</svg>