<?xml version="1.0" encoding="utf-8"?>
<svg xmlns="http://www.w3.org/2000/svg" viewBox="0 0 800 420" width="800" height="420">
  <defs>
    <radialGradient id="glow" cx="50%" cy="50%" r="50%">
      <stop offset="0%" stop-color="rgba(5,150,105,0.06)"/>
      <stop offset="100%" stop-color="#ffffff" stop-opacity="0"/>
    </radialGradient>
    <pattern id="grid" width="30" height="30" patternUnits="userSpaceOnUse">
      <circle cx="2" cy="2" r="1.5" fill="#e5e7eb" opacity="0.6"/>
    </pattern>
  </defs>
  <rect width="800" height="420" fill="#ffffff"/>
  <rect x="0" y="0" width="300" height="420" fill="url(#grid)"/>
  <rect x="-100" y="10" width="400" height="400" fill="url(#glow)"/>
  <line x1="300" y1="40" x2="300" y2="380" stroke="#e5e7eb" stroke-width="1.5" stroke-dasharray="4 4"/>
  
  <!-- Visual Architecture (Left Column) -->
  <g transform="translate(-250, 20)">
    <polygon points="434.6410161513775,160 434.6410161513775,200 400,220 365.3589838486225,200 365.3589838486225,160 400,140" fill="#059669" opacity="0.2" stroke="#059669" stroke-width="2"/>
<polygon points="364.6410161513775,118 364.6410161513775,158 330,178 295.3589838486225,158 295.3589838486225,118 330,98" fill="none" opacity="1" stroke="#059669" stroke-width="2"/>
<polygon points="504.6410161513775,118 504.6410161513775,158 470,178 435.3589838486225,158 435.3589838486225,118 470,98" fill="none" opacity="1" stroke="#059669" stroke-width="2"/>
<polygon points="364.6410161513775,202 364.6410161513775,242 330,262 295.3589838486225,242 295.3589838486225,202 330,182" fill="none" opacity="1" stroke="#059669" stroke-width="2"/>
<polygon points="504.6410161513775,202 504.6410161513775,242 470,262 435.3589838486225,242 435.3589838486225,202 470,182" fill="none" opacity="1" stroke="#059669" stroke-width="2"/>
<polygon points="294.6410161513775,160 294.6410161513775,200 260,220 225.35898384862244,200 225.35898384862247,160 260,140" fill="none" opacity="1" stroke="#059669" stroke-width="2"/>
<polygon points="574.6410161513776,160 574.6410161513776,200 540,220 505.3589838486225,200 505.3589838486225,160 540,140" fill="none" opacity="1" stroke="#059669" stroke-width="2"/>

  </g>

  <!-- Content (Right Column) -->
  <text x="350" y="85" font-family="'Inter',sans-serif" font-weight="700" font-size="12" fill="#059669" text-anchor="start" letter-spacing="2.5" text-transform="uppercase">Tech GLOSSARY</text>
  <text x="350" y="130" font-family="'Inter',sans-serif" font-weight="800" font-size="36" fill="#09090b" text-anchor="start" letter-spacing="-1">Merkle Tree</text>

  
  
  <!-- Minimal Branding -->
  <text x="760" y="390" font-family="'Inter',sans-serif" font-weight="700" font-size="12" fill="#e5e7eb" text-anchor="end">veda.ng</text>
</svg>