<?xml version="1.0" encoding="utf-8"?>
<svg xmlns="http://www.w3.org/2000/svg" viewBox="0 0 800 400" width="800" height="400" style="background-color:#ffffff">
  <defs>
    <marker id="arrow" markerWidth="6" markerHeight="6" refX="5" refY="3" orient="auto">
      <path d="M 0 0 L 6 3 L 0 6 z" fill="#2563eb"/>
    </marker>
    <marker id="arrowGray" markerWidth="6" markerHeight="6" refX="5" refY="3" orient="auto">
      <path d="M 0 0 L 6 3 L 0 6 z" fill="#787774"/>
    </marker>
  </defs>
  <rect width="800" height="400" fill="#ffffff"/>
  <g transform="translate(0,-17)"><rect x="60" y="110" width="180" height="120" rx="10" fill="#ffffff" stroke="#e5e7eb" stroke-width="2"/><text x="150" y="140" font-family="'Inter',sans-serif" font-weight="700" font-size="18" fill="#37352f" text-anchor="middle">Mempool</text><rect x="80" y="155" width="60" height="25" rx="4" fill="#e5e7eb"/><rect x="80" y="185" width="60" height="25" rx="4" fill="#e5e7eb"/><rect x="155" y="155" width="60" height="25" rx="4" fill="#ef4444" fill-opacity="0.2" stroke="#ef4444" stroke-width="1"/><text x="185" y="172" font-family="'Inter',sans-serif" font-weight="600" font-size="12" fill="#ef4444" text-anchor="middle">Buy</text><circle cx="400" cy="170" r="35" fill="#ffffff" stroke="#2563eb" stroke-width="2"/><circle cx="400" cy="170" r="15" fill="#2563eb"/><text x="400" y="225" font-family="'Inter',sans-serif" font-weight="700" font-size="18" fill="#2563eb" text-anchor="middle">Searcher</text><line x1="245" y1="170" x2="360" y2="170" stroke="#787774" stroke-width="1.5" stroke-dasharray="4 4"/><rect x="540" y="110" width="200" height="120" rx="10" fill="#ffffff" stroke="#2563eb" stroke-width="2"/><text x="640" y="140" font-family="'Inter',sans-serif" font-weight="700" font-size="18" fill="#2563eb" text-anchor="middle">Reordered</text><rect x="560" y="155" width="80" height="25" rx="4" fill="#ef4444" fill-opacity="0.2" stroke="#ef4444" stroke-width="1"/><text x="600" y="172" font-family="'Inter',sans-serif" font-weight="600" font-size="12" fill="#ef4444" text-anchor="middle">Frontrun</text><rect x="560" y="185" width="80" height="25" rx="4" fill="#e5e7eb"/><rect x="655" y="155" width="65" height="25" rx="4" fill="#10b981" fill-opacity="0.2" stroke="#10b981" stroke-width="1"/><text x="687" y="172" font-family="'Inter',sans-serif" font-weight="600" font-size="12" fill="#10b981" text-anchor="middle">Profit</text><line x1="440" y1="170" x2="535" y2="170" stroke="#2563eb" stroke-width="2" marker-end="url(#arrow)"/><text x="400" y="300" font-family="'Inter',sans-serif" font-weight="600" font-size="20" fill="#37352f" text-anchor="middle">Extract value by reordering transactions</text></g>
  <rect x="0" y="360" width="800" height="40" fill="#ffffff" opacity="0.9"/>
  <text x="770" y="385" font-family="'Inter',sans-serif" font-weight="500" font-size="12" fill="#787774" text-anchor="end">@vedangvatsa</text>
</svg>