<?xml version="1.0" encoding="utf-8"?>
<svg xmlns="http://www.w3.org/2000/svg" viewBox="0 0 800 420" width="800" height="420">
  <defs>
    <radialGradient id="glow" cx="50%" cy="50%" r="50%">
      <stop offset="0%" stop-color="rgba(37,99,235,0.06)"/>
      <stop offset="100%" stop-color="#ffffff" stop-opacity="0"/>
    </radialGradient>
    <pattern id="grid" width="30" height="30" patternUnits="userSpaceOnUse">
      <circle cx="2" cy="2" r="1.5" fill="#e5e7eb" opacity="0.6"/>
    </pattern>
  </defs>
  <rect width="800" height="420" fill="#ffffff"/>
  <rect x="0" y="0" width="300" height="420" fill="url(#grid)"/>
  <rect x="-100" y="10" width="400" height="400" fill="url(#glow)"/>
  <line x1="300" y1="40" x2="300" y2="380" stroke="#e5e7eb" stroke-width="1.5" stroke-dasharray="4 4"/>
  
  <!-- Visual Architecture (Left Column) -->
  <g transform="translate(-250, 20)">
    <circle cx="400" cy="180" r="115" fill="none" stroke="#2563eb" stroke-width="1.3" opacity="0.85"/>
<circle cx="400" cy="180" r="140" fill="none" stroke="#2563eb" stroke-width="1.1" opacity="0.7"/>
<circle cx="400" cy="180" r="165" fill="none" stroke="#2563eb" stroke-width="0.8999999999999999" opacity="0.55"/>
<circle cx="400" cy="180" r="190" fill="none" stroke="#2563eb" stroke-width="0.7" opacity="0.4"/>
<circle cx="400" cy="180" r="215" fill="none" stroke="#2563eb" stroke-width="0.5" opacity="0.25"/>
<circle cx="400" cy="180" r="90" fill="#2563eb" opacity="0.1"/>
<circle cx="515" cy="180" r="3" fill="#2563eb"/>
<circle cx="499.5929214352104" cy="237.5" r="3" fill="#2563eb"/>
<circle cx="457.5" cy="279.5929214352104" r="3" fill="#2563eb"/>
<circle cx="400" cy="295" r="3" fill="#2563eb"/>
<circle cx="342.5" cy="279.5929214352104" r="3" fill="#2563eb"/>
<circle cx="300.4070785647896" cy="237.5" r="3" fill="#2563eb"/>
<circle cx="285" cy="180" r="3" fill="#2563eb"/>
<circle cx="300.4070785647896" cy="122.49999999999999" r="3" fill="#2563eb"/>
<circle cx="342.49999999999994" cy="80.40707856478957" r="3" fill="#2563eb"/>
<circle cx="400" cy="65" r="3" fill="#2563eb"/>
<circle cx="457.5" cy="80.40707856478956" r="3" fill="#2563eb"/>
<circle cx="499.5929214352104" cy="122.49999999999994" r="3" fill="#2563eb"/>

  </g>

  <!-- Content (Right Column) -->
  <text x="350" y="85" font-family="'Inter',sans-serif" font-weight="700" font-size="12" fill="#2563eb" text-anchor="start" letter-spacing="2.5" text-transform="uppercase">Web3 GLOSSARY</text>
  <text x="350" y="130" font-family="'Inter',sans-serif" font-weight="800" font-size="36" fill="#09090b" text-anchor="start" letter-spacing="-1">Modular Blockchain</text>

  
  
  <!-- Minimal Branding -->
  <text x="760" y="390" font-family="'Inter',sans-serif" font-weight="700" font-size="12" fill="#e5e7eb" text-anchor="end">veda.ng</text>
</svg>