<?xml version="1.0" encoding="utf-8"?>
<svg xmlns="http://www.w3.org/2000/svg" viewBox="0 0 800 400" width="800" height="400" style="background-color:#ffffff">
  <defs>
    <marker id="arrow" markerWidth="6" markerHeight="6" refX="5" refY="3" orient="auto">
      <path d="M 0 0 L 6 3 L 0 6 z" fill="#9333ea"/>
    </marker>
    <marker id="arrowGray" markerWidth="6" markerHeight="6" refX="5" refY="3" orient="auto">
      <path d="M 0 0 L 6 3 L 0 6 z" fill="#787774"/>
    </marker>
  </defs>
  <rect width="800" height="400" fill="#ffffff"/>
  <g transform="translate(0,-37)"><rect x="60" y="110" width="100" height="50" rx="8" fill="#ffffff" stroke="#9333ea" stroke-width="2"/>
<text x="110" y="142" font-family="'Inter',sans-serif" font-weight="600" font-size="20" fill="#37352f" text-anchor="middle">Text</text><rect x="60" y="180" width="100" height="50" rx="8" fill="#ffffff" stroke="#2563eb" stroke-width="2"/>
<text x="110" y="212" font-family="'Inter',sans-serif" font-weight="600" font-size="20" fill="#37352f" text-anchor="middle">Image</text><rect x="60" y="250" width="100" height="50" rx="8" fill="#ffffff" stroke="#059669" stroke-width="2"/>
<text x="110" y="282" font-family="'Inter',sans-serif" font-weight="600" font-size="20" fill="#37352f" text-anchor="middle">Audio</text><line x1="165" y1="135" x2="310" y2="195" stroke="#9333ea" stroke-width="2"/><line x1="165" y1="205" x2="310" y2="200" stroke="#2563eb" stroke-width="2"/><line x1="165" y1="275" x2="310" y2="210" stroke="#059669" stroke-width="2"/><rect x="320" y="160" width="160" height="80" rx="14" fill="#ffffff" stroke="#9333ea" stroke-width="3" stroke-dasharray="6 6"/><text x="400" y="210" font-family="'Inter',sans-serif" font-weight="700" font-size="20" fill="#9333ea" text-anchor="middle">Unified Model</text><line x1="485" y1="200" x2="560" y2="200" stroke="#9333ea" stroke-width="2" marker-end="url(#arrow)"/><rect x="570" y="165" width="170" height="70" rx="8" fill="#ffffff" stroke="#10b981" stroke-width="2"/><text x="655" y="205" font-family="'Inter',sans-serif" font-weight="700" font-size="18" fill="#10b981" text-anchor="middle">Understanding</text><text x="400" y="340" font-family="'Inter',sans-serif" font-weight="600" font-size="16" fill="#37352f" text-anchor="middle">One model, many data types</text></g>
  <rect x="0" y="360" width="800" height="40" fill="#ffffff" opacity="0.9"/>
  <text x="770" y="385" font-family="'Inter',sans-serif" font-weight="500" font-size="12" fill="#787774" text-anchor="end">@vedangvatsa</text>
</svg>