<?xml version="1.0" encoding="utf-8"?>
<svg xmlns="http://www.w3.org/2000/svg" viewBox="0 0 800 400" width="800" height="400" style="background-color:#ffffff">
  <defs>
    <marker id="arrow" markerWidth="6" markerHeight="6" refX="5" refY="3" orient="auto"><path d="M 0 0 L 6 3 L 0 6 z" fill="#9333ea"/></marker>
    <marker id="arrowGray" markerWidth="6" markerHeight="6" refX="5" refY="3" orient="auto"><path d="M 0 0 L 6 3 L 0 6 z" fill="#787774"/></marker>
  </defs>
  <rect width="800" height="400" fill="#ffffff"/>
  <g transform="translate(0,-27)"><circle cx="160" cy="120" r="14" fill="#ffffff" stroke="#e5e7eb" stroke-width="2"/><circle cx="160" cy="180" r="14" fill="#ffffff" stroke="#e5e7eb" stroke-width="2"/><circle cx="160" cy="240" r="14" fill="#ffffff" stroke="#e5e7eb" stroke-width="2"/><circle cx="160" cy="300" r="14" fill="#ffffff" stroke="#e5e7eb" stroke-width="2"/><text x="160" y="340" font-family="'Inter',sans-serif" font-weight="600" font-size="16" fill="#787774" text-anchor="middle">Input</text><circle cx="400" cy="140" r="14" fill="#ffffff" stroke="#9333ea" stroke-width="2"/><circle cx="400" cy="200" r="14" fill="#ffffff" stroke="#9333ea" stroke-width="2"/><circle cx="400" cy="260" r="14" fill="#ffffff" stroke="#9333ea" stroke-width="2"/><text x="400" y="340" font-family="'Inter',sans-serif" font-weight="600" font-size="16" fill="#9333ea" text-anchor="middle">Hidden</text><circle cx="640" cy="160" r="14" fill="#ffffff" stroke="#e5e7eb" stroke-width="2"/><circle cx="640" cy="220" r="14" fill="#ffffff" stroke="#e5e7eb" stroke-width="2"/><circle cx="640" cy="280" r="14" fill="#ffffff" stroke="#e5e7eb" stroke-width="2"/><text x="640" y="340" font-family="'Inter',sans-serif" font-weight="600" font-size="16" fill="#787774" text-anchor="middle">Output</text><line x1="174" y1="120" x2="386" y2="140" stroke="#9333ea" stroke-width="1" stroke-opacity="0.25"/><line x1="174" y1="120" x2="386" y2="200" stroke="#9333ea" stroke-width="1" stroke-opacity="0.25"/><line x1="174" y1="120" x2="386" y2="260" stroke="#9333ea" stroke-width="1" stroke-opacity="0.25"/><line x1="174" y1="180" x2="386" y2="140" stroke="#9333ea" stroke-width="1" stroke-opacity="0.25"/><line x1="174" y1="180" x2="386" y2="200" stroke="#9333ea" stroke-width="1" stroke-opacity="0.25"/><line x1="174" y1="180" x2="386" y2="260" stroke="#9333ea" stroke-width="1" stroke-opacity="0.25"/><line x1="174" y1="240" x2="386" y2="140" stroke="#9333ea" stroke-width="1" stroke-opacity="0.25"/><line x1="174" y1="240" x2="386" y2="200" stroke="#9333ea" stroke-width="1" stroke-opacity="0.25"/><line x1="174" y1="240" x2="386" y2="260" stroke="#9333ea" stroke-width="1" stroke-opacity="0.25"/><line x1="174" y1="300" x2="386" y2="140" stroke="#9333ea" stroke-width="1" stroke-opacity="0.25"/><line x1="174" y1="300" x2="386" y2="200" stroke="#9333ea" stroke-width="1" stroke-opacity="0.25"/><line x1="174" y1="300" x2="386" y2="260" stroke="#9333ea" stroke-width="1" stroke-opacity="0.25"/><line x1="414" y1="140" x2="626" y2="160" stroke="#9333ea" stroke-width="1" stroke-opacity="0.25"/><line x1="414" y1="140" x2="626" y2="220" stroke="#9333ea" stroke-width="1" stroke-opacity="0.25"/><line x1="414" y1="140" x2="626" y2="280" stroke="#9333ea" stroke-width="1" stroke-opacity="0.25"/><line x1="414" y1="200" x2="626" y2="160" stroke="#9333ea" stroke-width="1" stroke-opacity="0.25"/><line x1="414" y1="200" x2="626" y2="220" stroke="#9333ea" stroke-width="1" stroke-opacity="0.25"/><line x1="414" y1="200" x2="626" y2="280" stroke="#9333ea" stroke-width="1" stroke-opacity="0.25"/><line x1="414" y1="260" x2="626" y2="160" stroke="#9333ea" stroke-width="1" stroke-opacity="0.25"/><line x1="414" y1="260" x2="626" y2="220" stroke="#9333ea" stroke-width="1" stroke-opacity="0.25"/><line x1="414" y1="260" x2="626" y2="280" stroke="#9333ea" stroke-width="1" stroke-opacity="0.25"/><text x="400" y="90" font-family="'Inter',sans-serif" font-weight="600" font-size="16" fill="#787774" text-anchor="middle">Layers of connected neurons</text></g>
  <rect x="0" y="360" width="800" height="40" fill="#ffffff" opacity="0.9"/>
  <text x="770" y="385" font-family="'Inter',sans-serif" font-weight="500" font-size="12" fill="#787774" text-anchor="end">@vedangvatsa</text>
</svg>