<?xml version="1.0" encoding="utf-8"?>
<svg xmlns="http://www.w3.org/2000/svg" viewBox="0 0 800 400" width="800" height="400" style="background-color:#ffffff">
  <defs>
    <marker id="arrow" markerWidth="6" markerHeight="6" refX="5" refY="3" orient="auto"><path d="M 0 0 L 6 3 L 0 6 z" fill="#9333ea"/></marker>
    <marker id="arrowGray" markerWidth="6" markerHeight="6" refX="5" refY="3" orient="auto"><path d="M 0 0 L 6 3 L 0 6 z" fill="#787774"/></marker>
  </defs>
  <rect width="800" height="400" fill="#ffffff"/>
  <g transform="translate(0,-35)"><rect x="80" y="120" width="200" height="70" rx="8" fill="#ffffff" stroke="#e5e7eb" stroke-width="2"/><text x="180" y="160" font-family="'Inter',sans-serif" font-weight="600" font-size="15" fill="#37352f" text-anchor="middle">"Hello, how are you?"</text><line x1="285" y1="155" x2="350" y2="155" stroke="#9333ea" stroke-width="2" marker-end="url(#arrow)"/><rect x="360" y="100" width="160" height="110" rx="12" fill="#ffffff" stroke="#9333ea" stroke-width="3"/><text x="440" y="140" font-family="'Inter',sans-serif" font-weight="700" font-size="18" fill="#9333ea" text-anchor="middle">NLP Engine</text><text x="440" y="168" font-family="'Inter',sans-serif" font-weight="500" font-size="13" fill="#787774" text-anchor="middle">Tokenize</text><text x="440" y="186" font-family="'Inter',sans-serif" font-weight="500" font-size="13" fill="#787774" text-anchor="middle">Parse</text><line x1="525" y1="155" x2="580" y2="155" stroke="#9333ea" stroke-width="2" marker-end="url(#arrow)"/><rect x="590" y="100" width="150" height="40" rx="8" fill="#ffffff" stroke="#10b981" stroke-width="2"/><text x="665" y="127" font-family="'Inter',sans-serif" font-weight="600" font-size="15" fill="#10b981" text-anchor="middle">Sentiment: +</text><rect x="590" y="150" width="150" height="40" rx="8" fill="#ffffff" stroke="#9333ea" stroke-width="2"/><text x="665" y="177" font-family="'Inter',sans-serif" font-weight="600" font-size="14" fill="#9333ea" text-anchor="middle">Intent: Greeting</text><rect x="80" y="270" width="120" height="40" rx="8" fill="#ffffff" stroke="#e5e7eb" stroke-width="2"/><text x="140" y="297" font-family="'Inter',sans-serif" font-weight="600" font-size="15" fill="#37352f" text-anchor="middle">Translate</text><rect x="230" y="270" width="120" height="40" rx="8" fill="#ffffff" stroke="#e5e7eb" stroke-width="2"/><text x="290" y="297" font-family="'Inter',sans-serif" font-weight="600" font-size="15" fill="#37352f" text-anchor="middle">Summarize</text><rect x="380" y="270" width="120" height="40" rx="8" fill="#ffffff" stroke="#e5e7eb" stroke-width="2"/><text x="440" y="297" font-family="'Inter',sans-serif" font-weight="600" font-size="15" fill="#37352f" text-anchor="middle">Classify</text><rect x="530" y="270" width="150" height="40" rx="8" fill="#ffffff" stroke="#e5e7eb" stroke-width="2"/><text x="605" y="297" font-family="'Inter',sans-serif" font-weight="600" font-size="15" fill="#37352f" text-anchor="middle">Generate</text><text x="400" y="345" font-family="'Inter',sans-serif" font-weight="600" font-size="20" fill="#37352f" text-anchor="middle">Machines understanding human language</text></g>
  <rect x="0" y="360" width="800" height="40" fill="#ffffff" opacity="0.9"/>
  <text x="770" y="385" font-family="'Inter',sans-serif" font-weight="500" font-size="12" fill="#787774" text-anchor="end">@vedangvatsa</text>
</svg>