<?xml version="1.0" encoding="utf-8"?>
<svg xmlns="http://www.w3.org/2000/svg" viewBox="0 0 800 400" width="800" height="400" style="background-color:#ffffff">
  <defs>
    <marker id="arrow" markerWidth="6" markerHeight="6" refX="5" refY="3" orient="auto">
      <path d="M 0 0 L 6 3 L 0 6 z" fill="#059669"/>
    </marker>
  </defs>
  <rect width="800" height="400" fill="#ffffff"/>
  
  <g>
    <rect x="70" y="120" width="280" height="120" rx="6" fill="#ffffff" stroke="#e5e7eb" stroke-width="1.5"/>
<text x="210" y="174.79999999999998" font-family="'Inter',sans-serif" font-weight="400" font-size="16" fill="#787774" text-anchor="middle">OAuth is an</text>
<text x="210" y="196.39999999999998" font-family="'Inter',sans-serif" font-weight="400" font-size="16" fill="#787774" text-anchor="middle">authorization framework</text>
<path d="M 350 180 C 400 180, 400 80, 445 80" fill="none" stroke="#059669" stroke-width="1.5" marker-end="url(#arrow)"/>
<path d="M 350 180 C 400 180, 400 280, 445 280" fill="none" stroke="#059669" stroke-width="1.5" marker-end="url(#arrow)"/>
<rect x="450" y="25" width="280" height="110" rx="6" fill="#ffffff" stroke="#e5e7eb" stroke-width="1.5"/>
<text x="590" y="75.45" font-family="'Inter',sans-serif" font-weight="400" font-size="14" fill="#787774" text-anchor="middle">That allows third-party</text>
<text x="590" y="94.35000000000001" font-family="'Inter',sans-serif" font-weight="400" font-size="14" fill="#787774" text-anchor="middle">applications</text>
<rect x="450" y="225" width="280" height="110" rx="6" fill="#ffffff" stroke="#e5e7eb" stroke-width="1.5"/>
<text x="590" y="266" font-family="'Inter',sans-serif" font-weight="400" font-size="14" fill="#787774" text-anchor="middle">To access user resources on</text>
<text x="590" y="284.9" font-family="'Inter',sans-serif" font-weight="400" font-size="14" fill="#787774" text-anchor="middle">another service without</text>
<text x="590" y="303.8" font-family="'Inter',sans-serif" font-weight="400" font-size="14" fill="#787774" text-anchor="middle">requiring users</text>

  </g>
  
  <rect x="0" y="360" width="800" height="40" fill="#ffffff" opacity="0.9"/>
  <text x="770" y="385" font-family="'Inter',sans-serif" font-weight="500" font-size="12" fill="#787774" text-anchor="end">@vedangvatsa</text>
</svg>