<?xml version="1.0" encoding="utf-8"?>
<svg xmlns="http://www.w3.org/2000/svg" viewBox="0 0 800 420" width="800" height="420" style="background-color:#ffffff">
  <defs>
    <pattern id="grid" width="30" height="30" patternUnits="userSpaceOnUse">
      <circle cx="2" cy="2" r="1.5" fill="#52525b" opacity="0.15"/>
    </pattern>
    <marker id="arrow" markerWidth="10" markerHeight="10" refX="8" refY="5" orient="auto">
      <path d="M 0 0 L 10 5 L 0 10 z" fill="#9333ea"/>
    </marker>
  </defs>
  <rect width="800" height="420" fill="#ffffff"/>
  <rect width="800" height="420" fill="url(#grid)"/>
  
  <g transform="translate(0, 80)">
    <rect x="45" y="75" width="210" height="110" rx="8" fill="#ffffff" stroke="#e5e7eb" stroke-width="2"/>
<rect x="45" y="75" width="210" height="110" rx="8" fill="rgba(147,51,234,0.06)"/>
<text x="150" y="117" font-family="'Inter',sans-serif" font-weight="500" font-size="13" fill="#52525b" text-anchor="middle">OCR (Optical Character</text>
<text x="150" y="134.55" font-family="'Inter',sans-serif" font-weight="500" font-size="13" fill="#52525b" text-anchor="middle">Recognition) is the</text>
<text x="150" y="152.10000000000002" font-family="'Inter',sans-serif" font-weight="500" font-size="13" fill="#52525b" text-anchor="middle">technology</text>
<line x1="260" y1="130" x2="283" y2="130" stroke="#9333ea" stroke-width="2.5" marker-end="url(#arrow)"/>
<rect x="295" y="75" width="210" height="110" rx="8" fill="#ffffff" stroke="#e5e7eb" stroke-width="2"/>
<rect x="295" y="75" width="210" height="110" rx="8" fill="rgba(147,51,234,0.06)"/>
<text x="400" y="108.225" font-family="'Inter',sans-serif" font-weight="500" font-size="13" fill="#52525b" text-anchor="middle">That converts images of</text>
<text x="400" y="125.77499999999999" font-family="'Inter',sans-serif" font-weight="500" font-size="13" fill="#52525b" text-anchor="middle">text, scanned documents,</text>
<text x="400" y="143.32500000000002" font-family="'Inter',sans-serif" font-weight="500" font-size="13" fill="#52525b" text-anchor="middle">photos of signs, handwritten</text>
<text x="400" y="160.875" font-family="'Inter',sans-serif" font-weight="500" font-size="13" fill="#52525b" text-anchor="middle">notes, into machine-reada...</text>
<line x1="510" y1="130" x2="533" y2="130" stroke="#9333ea" stroke-width="2.5" marker-end="url(#arrow)"/>
<rect x="545" y="75" width="210" height="110" rx="8" fill="#ffffff" stroke="#e5e7eb" stroke-width="2"/>
<rect x="545" y="75" width="210" height="110" rx="8" fill="rgba(147,51,234,0.06)"/>
<text x="650" y="125.77499999999999" font-family="'Inter',sans-serif" font-weight="500" font-size="13" fill="#52525b" text-anchor="middle">That can be searched,</text>
<text x="650" y="143.32500000000002" font-family="'Inter',sans-serif" font-weight="500" font-size="13" fill="#52525b" text-anchor="middle">edited, and processed</text>

  </g>
  
  <rect x="0" y="380" width="800" height="40" fill="#ffffff" opacity="0.9"/>
  <text x="770" y="405" font-family="'Inter',sans-serif" font-weight="600" font-size="11" fill="#52525b" text-anchor="end">veda.ng</text>
</svg>