<?xml version="1.0" encoding="utf-8"?>
<svg xmlns="http://www.w3.org/2000/svg" viewBox="0 0 800 400" width="800" height="400" style="background-color:#ffffff">
  <defs>
    <marker id="arrow" markerWidth="6" markerHeight="6" refX="5" refY="3" orient="auto">
      <path d="M 0 0 L 6 3 L 0 6 z" fill="#2563eb"/>
    </marker>
    <marker id="arrowGray" markerWidth="6" markerHeight="6" refX="5" refY="3" orient="auto">
      <path d="M 0 0 L 6 3 L 0 6 z" fill="#787774"/>
    </marker>
  </defs>
  <rect width="800" height="400" fill="#ffffff"/>
  <g transform="translate(0,-32)"><rect x="60" y="100" width="220" height="180" rx="10" fill="#ffffff" stroke="#787774" stroke-width="1.5" stroke-dasharray="6 6"/><text x="170" y="130" font-family="'Inter',sans-serif" font-weight="600" font-size="16" fill="#787774" text-anchor="middle">Off-Chain World</text><rect x="90" y="150" width="70" height="40" rx="8" fill="#ffffff" stroke="#e5e7eb" stroke-width="2"/><text x="125" y="177" font-family="'Inter',sans-serif" font-weight="600" font-size="14" fill="#37352f" text-anchor="middle">API</text><rect x="180" y="150" width="80" height="40" rx="8" fill="#ffffff" stroke="#e5e7eb" stroke-width="2"/><text x="220" y="177" font-family="'Inter',sans-serif" font-weight="600" font-size="14" fill="#37352f" text-anchor="middle">Price</text><rect x="90" y="210" width="80" height="40" rx="8" fill="#ffffff" stroke="#e5e7eb" stroke-width="2"/><text x="130" y="237" font-family="'Inter',sans-serif" font-weight="600" font-size="14" fill="#37352f" text-anchor="middle">Weather</text><rect x="190" y="210" width="70" height="40" rx="8" fill="#ffffff" stroke="#e5e7eb" stroke-width="2"/><text x="225" y="237" font-family="'Inter',sans-serif" font-weight="600" font-size="14" fill="#37352f" text-anchor="middle">Score</text><rect x="320" y="140" width="160" height="120" rx="16" fill="#ffffff" stroke="#2563eb" stroke-width="3"/><text x="400" y="195" font-family="'Inter',sans-serif" font-weight="800" font-size="24" fill="#2563eb" text-anchor="middle">Oracle</text><text x="400" y="220" font-family="'Inter',sans-serif" font-weight="500" font-size="14" fill="#787774" text-anchor="middle">Chainlink</text><line x1="285" y1="200" x2="315" y2="200" stroke="#2563eb" stroke-width="2" marker-end="url(#arrow)"/><line x1="485" y1="200" x2="520" y2="200" stroke="#2563eb" stroke-width="2" marker-end="url(#arrow)"/><rect x="530" y="100" width="200" height="180" rx="10" fill="#ffffff" stroke="#2563eb" stroke-width="1.5"/><text x="630" y="130" font-family="'Inter',sans-serif" font-weight="600" font-size="16" fill="#2563eb" text-anchor="middle">On-Chain</text><rect x="560" y="160" width="140" height="45" rx="8" fill="#ffffff" stroke="#2563eb" stroke-width="2"/><text x="630" y="189.5" font-family="'Inter',sans-serif" font-weight="600" font-size="15" fill="#37352f" text-anchor="middle">Smart Contract</text><rect x="560" y="220" width="140" height="45" rx="8" fill="#ffffff" stroke="#2563eb" stroke-width="2"/><text x="630" y="249.5" font-family="'Inter',sans-serif" font-weight="600" font-size="15" fill="#37352f" text-anchor="middle">DeFi Protocol</text><text x="400" y="340" font-family="'Inter',sans-serif" font-weight="600" font-size="20" fill="#37352f" text-anchor="middle">Brings real-world data on-chain</text></g>
  <rect x="0" y="360" width="800" height="40" fill="#ffffff" opacity="0.9"/>
  <text x="770" y="385" font-family="'Inter',sans-serif" font-weight="500" font-size="12" fill="#787774" text-anchor="end">@vedangvatsa</text>
</svg>