<?xml version="1.0" encoding="utf-8"?>
<svg xmlns="http://www.w3.org/2000/svg" viewBox="0 0 800 420" width="800" height="420" style="background-color:#09090b">
  <defs>
    <pattern id="grid" width="30" height="30" patternUnits="userSpaceOnUse">
      <circle cx="2" cy="2" r="1.5" fill="#a1a1aa" opacity="0.15"/>
    </pattern>
    <marker id="arrow" markerWidth="10" markerHeight="10" refX="8" refY="5" orient="auto">
      <path d="M 0 0 L 10 5 L 0 10 z" fill="#a855f7"/>
    </marker>
  </defs>
  <rect width="800" height="420" fill="#09090b"/>
  <rect width="800" height="420" fill="url(#grid)"/>
  
  <text x="400" y="45" font-family="'Inter',sans-serif" font-weight="800" font-size="28" fill="#fafafa" text-anchor="middle" letter-spacing="-0.5">Perplexity Trap</text>
  <text x="400" y="70" font-family="'Inter',sans-serif" font-weight="600" font-size="11" fill="#a855f7" text-anchor="middle" letter-spacing="2" text-transform="uppercase">Deconstructed: AI Concept</text>
  <line x1="200" y1="85" x2="600" y2="85" stroke="#27272a" stroke-width="1.5" opacity="0.5"/>
  
  <g transform="translate(0, 100)">
    <rect x="45" y="75" width="210" height="110" rx="8" fill="#09090b" stroke="#27272a" stroke-width="2"/>
<rect x="45" y="75" width="210" height="110" rx="8" fill="rgba(168,85,247,0.1)"/>
<text x="150" y="117" font-family="'Inter',sans-serif" font-weight="500" font-size="13" fill="#a1a1aa" text-anchor="middle">The perplexity trap</text>
<text x="150" y="134.55" font-family="'Inter',sans-serif" font-weight="500" font-size="13" fill="#a1a1aa" text-anchor="middle">describes the dangerous</text>
<text x="150" y="152.10000000000002" font-family="'Inter',sans-serif" font-weight="500" font-size="13" fill="#a1a1aa" text-anchor="middle">assumption</text>
<line x1="260" y1="130" x2="283" y2="130" stroke="#a855f7" stroke-width="2.5" marker-end="url(#arrow)"/>
<rect x="295" y="75" width="210" height="110" rx="8" fill="#09090b" stroke="#27272a" stroke-width="2"/>
<rect x="295" y="75" width="210" height="110" rx="8" fill="rgba(168,85,247,0.1)"/>
<text x="400" y="117" font-family="'Inter',sans-serif" font-weight="500" font-size="13" fill="#a1a1aa" text-anchor="middle">That lower perplexity on</text>
<text x="400" y="134.55" font-family="'Inter',sans-serif" font-weight="500" font-size="13" fill="#a1a1aa" text-anchor="middle">benchmark datasets</text>
<text x="400" y="152.10000000000002" font-family="'Inter',sans-serif" font-weight="500" font-size="13" fill="#a1a1aa" text-anchor="middle">automatically translates</text>
<line x1="510" y1="130" x2="533" y2="130" stroke="#a855f7" stroke-width="2.5" marker-end="url(#arrow)"/>
<rect x="545" y="75" width="210" height="110" rx="8" fill="#09090b" stroke="#27272a" stroke-width="2"/>
<rect x="545" y="75" width="210" height="110" rx="8" fill="rgba(168,85,247,0.1)"/>
<text x="650" y="125.77499999999999" font-family="'Inter',sans-serif" font-weight="500" font-size="13" fill="#a1a1aa" text-anchor="middle">To better real-world</text>
<text x="650" y="143.32500000000002" font-family="'Inter',sans-serif" font-weight="500" font-size="13" fill="#a1a1aa" text-anchor="middle">performance</text>

  </g>
  
  <rect x="0" y="380" width="800" height="40" fill="#09090b" opacity="0.9"/>
  <text x="770" y="405" font-family="'Inter',sans-serif" font-weight="600" font-size="11" fill="#a1a1aa" text-anchor="end">veda.ng</text>
</svg>