<?xml version="1.0" encoding="utf-8"?>
<svg xmlns="http://www.w3.org/2000/svg" viewBox="0 0 800 400" width="800" height="400" style="background-color:#ffffff">
  <defs>
    <marker id="arrow" markerWidth="6" markerHeight="6" refX="5" refY="3" orient="auto">
      <path d="M 0 0 L 6 3 L 0 6 z" fill="#9333ea"/>
    </marker>
    <marker id="arrowGray" markerWidth="6" markerHeight="6" refX="5" refY="3" orient="auto">
      <path d="M 0 0 L 6 3 L 0 6 z" fill="#787774"/>
    </marker>
  </defs>
  <rect width="800" height="400" fill="#ffffff"/>
  <g transform="translate(0,-27)"><rect x="60" y="90" width="260" height="100" rx="10" fill="#ffffff" stroke="#9333ea" stroke-width="2"/><text x="190" y="125" font-family="'Inter',sans-serif" font-weight="700" font-size="18" fill="#9333ea" text-anchor="middle">System Prompt</text><text x="190" y="155" font-family="'Inter',sans-serif" font-weight="500" font-size="15" fill="#787774" text-anchor="middle">"You are a helpful..."</text><text x="190" y="175" font-family="'Inter',sans-serif" font-weight="500" font-size="15" fill="#787774" text-anchor="middle">"Be concise..."</text><line x1="330" y1="140" x2="420" y2="140" stroke="#9333ea" stroke-width="2" marker-end="url(#arrow)"/><rect x="440" y="100" width="120" height="80" rx="12" fill="#ffffff" stroke="#9333ea" stroke-width="3" stroke-dasharray="6 6"/><text x="500" y="148" font-family="'Inter',sans-serif" font-weight="800" font-size="28" fill="#9333ea" text-anchor="middle">LLM</text><line x1="570" y1="140" x2="640" y2="140" stroke="#9333ea" stroke-width="2" marker-end="url(#arrow)"/><rect x="650" y="100" width="100" height="80" rx="10" fill="#ffffff" stroke="#10b981" stroke-width="2"/><text x="700" y="148" font-family="'Inter',sans-serif" font-weight="700" font-size="20" fill="#10b981" text-anchor="middle">Output</text><rect x="100" y="250" width="120" height="50" rx="8" fill="#ffffff" stroke="#e5e7eb" stroke-width="2"/>
<text x="160" y="282" font-family="'Inter',sans-serif" font-weight="600" font-size="20" fill="#37352f" text-anchor="middle">Zero-Shot</text><rect x="260" y="250" width="120" height="50" rx="8" fill="#ffffff" stroke="#e5e7eb" stroke-width="2"/>
<text x="320" y="282" font-family="'Inter',sans-serif" font-weight="600" font-size="20" fill="#37352f" text-anchor="middle">Few-Shot</text><rect x="420" y="250" width="120" height="50" rx="8" fill="#ffffff" stroke="#e5e7eb" stroke-width="2"/>
<text x="480" y="282" font-family="'Inter',sans-serif" font-weight="600" font-size="15" fill="#37352f" text-anchor="middle">Chain-of-Thought</text><rect x="580" y="250" width="140" height="50" rx="8" fill="#ffffff" stroke="#e5e7eb" stroke-width="2"/>
<text x="650" y="282" font-family="'Inter',sans-serif" font-weight="600" font-size="20" fill="#37352f" text-anchor="middle">Role Prompting</text><text x="400" y="340" font-family="'Inter',sans-serif" font-weight="600" font-size="18" fill="#37352f" text-anchor="middle">Craft inputs to steer AI output</text></g>
  <rect x="0" y="360" width="800" height="40" fill="#ffffff" opacity="0.9"/>
  <text x="770" y="385" font-family="'Inter',sans-serif" font-weight="500" font-size="12" fill="#787774" text-anchor="end">@vedangvatsa</text>
</svg>