<?xml version="1.0" encoding="utf-8"?>
<svg xmlns="http://www.w3.org/2000/svg" viewBox="0 0 800 400" width="800" height="400" style="background-color:#ffffff">
  <defs>
    <marker id="arrow" markerWidth="6" markerHeight="6" refX="5" refY="3" orient="auto">
      <path d="M 0 0 L 6 3 L 0 6 z" fill="#2563eb"/>
    </marker>
    <marker id="arrowGray" markerWidth="6" markerHeight="6" refX="5" refY="3" orient="auto">
      <path d="M 0 0 L 6 3 L 0 6 z" fill="#787774"/>
    </marker>
  </defs>
  <rect width="800" height="400" fill="#ffffff"/>
  <g transform="translate(0,-40)"><rect x="100" y="120" width="160" height="100" rx="10" fill="#ffffff" stroke="#2563eb" stroke-width="2"/><text x="180" y="160" font-family="'Inter',sans-serif" font-weight="700" font-size="20" fill="#2563eb" text-anchor="middle">Stake ETH</text><text x="180" y="190" font-family="'Inter',sans-serif" font-weight="500" font-size="14" fill="#787774" text-anchor="middle">32 ETH Locked</text><line x1="265" y1="170" x2="350" y2="170" stroke="#2563eb" stroke-width="2" marker-end="url(#arrow)"/><rect x="360" y="110" width="180" height="120" rx="12" fill="#ffffff" stroke="#2563eb" stroke-width="3"/><text x="450" y="155" font-family="'Inter',sans-serif" font-weight="700" font-size="22" fill="#2563eb" text-anchor="middle">Validator</text><text x="450" y="185" font-family="'Inter',sans-serif" font-weight="500" font-size="16" fill="#787774" text-anchor="middle">Propose Block</text><text x="450" y="215" font-family="'Inter',sans-serif" font-weight="500" font-size="16" fill="#787774" text-anchor="middle">Attest</text><line x1="545" y1="170" x2="610" y2="170" stroke="#10b981" stroke-width="2" marker-end="url(#arrow)"/><rect x="620" y="130" width="130" height="80" rx="8" fill="#ffffff" stroke="#10b981" stroke-width="2"/><text x="685" y="165" font-family="'Inter',sans-serif" font-weight="700" font-size="20" fill="#10b981" text-anchor="middle">Rewards</text><text x="685" y="192" font-family="'Inter',sans-serif" font-weight="500" font-size="16" fill="#787774" text-anchor="middle">APY ~4%</text><rect x="360" y="265" width="180" height="40" rx="6" fill="#ef4444" fill-opacity="0.08" stroke="#ef4444" stroke-width="1.5"/><text x="450" y="292" font-family="'Inter',sans-serif" font-weight="600" font-size="16" fill="#ef4444" text-anchor="middle">Slash if dishonest</text><text x="400" y="345" font-family="'Inter',sans-serif" font-weight="600" font-size="20" fill="#37352f" text-anchor="middle">Lock capital to earn validation rights</text></g>
  <rect x="0" y="360" width="800" height="40" fill="#ffffff" opacity="0.9"/>
  <text x="770" y="385" font-family="'Inter',sans-serif" font-weight="500" font-size="12" fill="#787774" text-anchor="end">@vedangvatsa</text>
</svg>