<?xml version="1.0" encoding="utf-8"?>
<svg xmlns="http://www.w3.org/2000/svg" viewBox="0 0 800 400" width="800" height="400" style="background-color:#ffffff">
  <defs>
    <marker id="arrow" markerWidth="6" markerHeight="6" refX="5" refY="3" orient="auto">
      <path d="M 0 0 L 6 3 L 0 6 z" fill="#2563eb"/>
    </marker>
    <marker id="arrowGray" markerWidth="6" markerHeight="6" refX="5" refY="3" orient="auto">
      <path d="M 0 0 L 6 3 L 0 6 z" fill="#787774"/>
    </marker>
  </defs>
  <rect width="800" height="400" fill="#ffffff"/>
  <g transform="translate(0,-45)"><rect x="100" y="120" width="180" height="100" rx="10" fill="#ffffff" stroke="#e5e7eb" stroke-width="2"/><text x="190" y="160" font-family="'Inter',sans-serif" font-weight="700" font-size="22" fill="#37352f" text-anchor="middle">Compute</text><text x="190" y="190" font-family="'Inter',sans-serif" font-weight="500" font-size="14" fill="#787774" text-anchor="middle">Hash(x) = 000...</text><path d="M 175 220 L 195 220 L 185 250 L 205 250 L 180 290 L 185 260 L 170 260 Z" fill="#f59e0b" stroke="#f59e0b" stroke-width="1"/><text x="190" y="320" font-family="'Inter',sans-serif" font-weight="600" font-size="18" fill="#f59e0b" text-anchor="middle">Energy</text><line x1="290" y1="170" x2="380" y2="170" stroke="#2563eb" stroke-width="2" marker-end="url(#arrow)"/><rect x="400" y="120" width="180" height="100" rx="10" fill="#ffffff" stroke="#10b981" stroke-width="3"/><text x="490" y="160" font-family="'Inter',sans-serif" font-weight="700" font-size="22" fill="#10b981" text-anchor="middle">Valid Block</text><text x="490" y="190" font-family="'Inter',sans-serif" font-weight="500" font-size="16" fill="#787774" text-anchor="middle">Nonce Found</text><line x1="585" y1="170" x2="650" y2="170" stroke="#10b981" stroke-width="2" marker-end="url(#arrow)"/><circle cx="700" cy="170" r="30" fill="#f59e0b" fill-opacity="0.15" stroke="#f59e0b" stroke-width="2"/><text x="700" y="178" font-family="'Inter',sans-serif" font-weight="800" font-size="18" fill="#f59e0b" text-anchor="middle">BTC</text><text x="400" y="345" font-family="'Inter',sans-serif" font-weight="600" font-size="20" fill="#37352f" text-anchor="middle">Spend energy to earn the right to validate</text></g>
  <rect x="0" y="360" width="800" height="40" fill="#ffffff" opacity="0.9"/>
  <text x="770" y="385" font-family="'Inter',sans-serif" font-weight="500" font-size="12" fill="#787774" text-anchor="end">@vedangvatsa</text>
</svg>