<?xml version="1.0" encoding="utf-8"?>
<svg xmlns="http://www.w3.org/2000/svg" viewBox="0 0 800 400" width="800" height="400" style="background-color:#ffffff">
  <defs>
    <marker id="arrow" markerWidth="6" markerHeight="6" refX="5" refY="3" orient="auto">
      <path d="M 0 0 L 6 3 L 0 6 z" fill="#9333ea"/>
    </marker>
    <marker id="arrowGray" markerWidth="6" markerHeight="6" refX="5" refY="3" orient="auto">
      <path d="M 0 0 L 6 3 L 0 6 z" fill="#787774"/>
    </marker>
  </defs>
  <rect width="800" height="400" fill="#ffffff"/>
  <g transform="translate(0,-32)"><rect x="60" y="100" width="140" height="60" rx="8" fill="#ffffff" stroke="#e5e7eb" stroke-width="2"/><text x="130" y="138" font-family="'Inter',sans-serif" font-weight="700" font-size="22" fill="#37352f" text-anchor="middle">Query</text><line x1="130" y1="165" x2="130" y2="200" stroke="#9333ea" stroke-width="2" marker-end="url(#arrow)"/><rect x="60" y="210" width="140" height="60" rx="8" fill="#ffffff" stroke="#9333ea" stroke-width="2"/><text x="130" y="248" font-family="'Inter',sans-serif" font-weight="700" font-size="20" fill="#9333ea" text-anchor="middle">Retrieve</text><path d="M 300 120 C 300 110 380 110 380 120 C 380 130 300 130 300 120 Z" fill="none" stroke="#e5e7eb" stroke-width="2"/><path d="M 300 120 L 300 200 C 300 210 380 210 380 200 L 380 120" fill="none" stroke="#e5e7eb" stroke-width="2"/><path d="M 300 160 C 300 170 380 170 380 160" fill="none" stroke="#e5e7eb" stroke-width="2"/><text x="340" y="240" font-family="'Inter',sans-serif" font-weight="600" font-size="18" fill="#37352f" text-anchor="middle">Knowledge</text><line x1="205" y1="240" x2="295" y2="160" stroke="#787774" stroke-width="1.5" stroke-dasharray="4 4"/><line x1="205" y1="240" x2="450" y2="240" stroke="#9333ea" stroke-width="2" marker-end="url(#arrow)"/><rect x="460" y="200" width="120" height="80" rx="12" fill="#ffffff" stroke="#9333ea" stroke-width="3" stroke-dasharray="6 6"/><text x="520" y="248" font-family="'Inter',sans-serif" font-weight="800" font-size="28" fill="#9333ea" text-anchor="middle">LLM</text><line x1="585" y1="240" x2="640" y2="240" stroke="#9333ea" stroke-width="2" marker-end="url(#arrow)"/><rect x="650" y="210" width="110" height="60" rx="8" fill="#ffffff" stroke="#10b981" stroke-width="2"/><text x="705" y="248" font-family="'Inter',sans-serif" font-weight="700" font-size="20" fill="#10b981" text-anchor="middle">Answer</text><text x="400" y="340" font-family="'Inter',sans-serif" font-weight="600" font-size="18" fill="#37352f" text-anchor="middle">Retrieve → Augment → Generate</text></g>
  <rect x="0" y="360" width="800" height="40" fill="#ffffff" opacity="0.9"/>
  <text x="770" y="385" font-family="'Inter',sans-serif" font-weight="500" font-size="12" fill="#787774" text-anchor="end">@vedangvatsa</text>
</svg>