<?xml version="1.0" encoding="utf-8"?>
<svg xmlns="http://www.w3.org/2000/svg" viewBox="0 0 800 400" width="800" height="400" style="background-color:#ffffff">
<defs><marker id="arrow" markerWidth="6" markerHeight="6" refX="5" refY="3" orient="auto"><path d="M 0 0 L 6 3 L 0 6 z" fill="#2563eb"/></marker></defs>
<rect width="800" height="400" fill="#ffffff"/>
<g transform="translate(0,-22)"><rect x="60" y="110" width="200" height="100" rx="10" fill="#ffffff" stroke="#787774" stroke-width="2"/><text x="160" y="150" font-family="'Inter',sans-serif" font-weight="700" font-size="16" fill="#37352f" text-anchor="middle">Physical World</text><rect x="80" y="165" width="70" height="35" rx="8" fill="#ffffff" stroke="#e5e7eb" stroke-width="2"/><text x="115" y="189.5" font-family="'Inter',sans-serif" font-weight="600" font-size="13" fill="#37352f" text-anchor="middle">Land</text><rect x="165" y="165" width="75" height="35" rx="8" fill="#ffffff" stroke="#e5e7eb" stroke-width="2"/><text x="202.5" y="189.5" font-family="'Inter',sans-serif" font-weight="600" font-size="13" fill="#37352f" text-anchor="middle">T-Bills</text><text x="400" y="170" font-family="'Inter',sans-serif" font-weight="800" font-size="20" fill="#2563eb" text-anchor="middle">Tokenize →</text><rect x="540" y="110" width="200" height="100" rx="10" fill="#ffffff" stroke="#2563eb" stroke-width="3"/><text x="640" y="150" font-family="'Inter',sans-serif" font-weight="700" font-size="16" fill="#2563eb" text-anchor="middle">On-Chain</text><rect x="560" y="165" width="75" height="35" rx="8" fill="#ffffff" stroke="#2563eb" stroke-width="2"/><text x="597.5" y="189.5" font-family="'Inter',sans-serif" font-weight="600" font-size="12" fill="#2563eb" text-anchor="middle">ERC-20</text><rect x="645" y="165" width="75" height="35" rx="8" fill="#ffffff" stroke="#10b981" stroke-width="2"/><text x="682.5" y="189.5" font-family="'Inter',sans-serif" font-weight="600" font-size="13" fill="#10b981" text-anchor="middle">Yield</text><text x="400" y="270" font-family="'Inter',sans-serif" font-weight="600" font-size="18" fill="#10b981" text-anchor="middle">Real yields, not crypto-circular</text><text x="400" y="310" font-family="'Inter',sans-serif" font-weight="600" font-size="16" fill="#37352f" text-anchor="middle">Bring traditional assets onto blockchain</text></g>
<rect x="0" y="360" width="800" height="40" fill="#ffffff" opacity="0.9"/>
<text x="770" y="385" font-family="'Inter',sans-serif" font-weight="500" font-size="12" fill="#787774" text-anchor="end">@vedangvatsa</text>
</svg>