<?xml version="1.0" encoding="utf-8"?>
<svg xmlns="http://www.w3.org/2000/svg" viewBox="0 0 800 400" width="800" height="400" style="background-color:#ffffff">
  <defs>
    <marker id="arrow" markerWidth="6" markerHeight="6" refX="5" refY="3" orient="auto">
      <path d="M 0 0 L 6 3 L 0 6 z" fill="#9333ea"/>
    </marker>
    <marker id="arrowGray" markerWidth="6" markerHeight="6" refX="5" refY="3" orient="auto">
      <path d="M 0 0 L 6 3 L 0 6 z" fill="#787774"/>
    </marker>
  </defs>
  <rect width="800" height="400" fill="#ffffff"/>
  <g transform="translate(0,-17)"><rect x="60" y="100" width="140" height="55" rx="8" fill="#ffffff" stroke="#9333ea" stroke-width="2"/>
<text x="130" y="134.5" font-family="'Inter',sans-serif" font-weight="700" font-size="20" fill="#9333ea" text-anchor="middle">LLM</text><line x1="205" y1="128" x2="245" y2="128" stroke="#9333ea" stroke-width="2" marker-end="url(#arrow)"/><rect x="255" y="100" width="160" height="55" rx="8" fill="#ffffff" stroke="#e5e7eb" stroke-width="2"/><circle cx="290" cy="128" r="15" fill="#ffffff" stroke="#787774" stroke-width="2"/><circle cx="290" cy="122" r="5" fill="#787774"/><path d="M 280 135 Q 290 145 300 135" fill="none" stroke="#787774" stroke-width="2"/><text x="360" y="133" font-family="'Inter',sans-serif" font-weight="600" font-size="18" fill="#37352f" text-anchor="middle">Ranks</text><line x1="420" y1="128" x2="455" y2="128" stroke="#9333ea" stroke-width="2" marker-end="url(#arrow)"/><rect x="465" y="100" width="140" height="55" rx="8" fill="#ffffff" stroke="#9333ea" stroke-width="2"/>
<text x="535" y="134.5" font-family="'Inter',sans-serif" font-weight="600" font-size="16" fill="#37352f" text-anchor="middle">Reward Model</text><line x1="610" y1="128" x2="645" y2="128" stroke="#9333ea" stroke-width="2" marker-end="url(#arrow)"/><rect x="655" y="100" width="100" height="55" rx="8" fill="#ffffff" stroke="#10b981" stroke-width="2"/><text x="705" y="133" font-family="'Inter',sans-serif" font-weight="700" font-size="18" fill="#10b981" text-anchor="middle">Update</text><path d="M 705 160 L 705 220 L 130 220 L 130 160" fill="none" stroke="#787774" stroke-width="2" stroke-dasharray="6 6" marker-end="url(#arrowGray)"/><text x="400" y="250" font-family="'Inter',sans-serif" font-weight="600" font-size="16" fill="#787774" text-anchor="middle">Iterate</text><text x="400" y="310" font-family="'Inter',sans-serif" font-weight="600" font-size="18" fill="#37352f" text-anchor="middle">Human feedback trains better AI</text></g>
  <rect x="0" y="360" width="800" height="40" fill="#ffffff" opacity="0.9"/>
  <text x="770" y="385" font-family="'Inter',sans-serif" font-weight="500" font-size="12" fill="#787774" text-anchor="end">@vedangvatsa</text>
</svg>