<?xml version="1.0" encoding="utf-8"?>
<svg xmlns="http://www.w3.org/2000/svg" viewBox="0 0 800 400" width="800" height="400" style="background-color:#ffffff">
<defs><marker id="arrow" markerWidth="6" markerHeight="6" refX="5" refY="3" orient="auto"><path d="M 0 0 L 6 3 L 0 6 z" fill="#2563eb"/></marker></defs>
<rect width="800" height="400" fill="#ffffff"/>
<g transform="translate(0,-42)"><text x="140" y="120" font-family="'Inter',sans-serif" font-weight="600" font-size="16" fill="#787774" text-anchor="middle">Transactions</text><rect x="80" y="135" width="18" height="80" rx="3" fill="#2563eb" fill-opacity="0.15" stroke="#2563eb" stroke-width="1"/><rect x="102" y="135" width="18" height="80" rx="3" fill="#2563eb" fill-opacity="0.2" stroke="#2563eb" stroke-width="1"/><rect x="124" y="135" width="18" height="80" rx="3" fill="#2563eb" fill-opacity="0.25" stroke="#2563eb" stroke-width="1"/><rect x="146" y="135" width="18" height="80" rx="3" fill="#2563eb" fill-opacity="0.30000000000000004" stroke="#2563eb" stroke-width="1"/><rect x="168" y="135" width="18" height="80" rx="3" fill="#2563eb" fill-opacity="0.35" stroke="#2563eb" stroke-width="1"/><rect x="190" y="135" width="18" height="80" rx="3" fill="#2563eb" fill-opacity="0.4" stroke="#2563eb" stroke-width="1"/><line x1="230" y1="175" x2="310" y2="175" stroke="#2563eb" stroke-width="2" marker-end="url(#arrow)"/><rect x="320" y="130" width="160" height="90" rx="12" fill="#ffffff" stroke="#2563eb" stroke-width="3"/><text x="400" y="170" font-family="'Inter',sans-serif" font-weight="700" font-size="20" fill="#2563eb" text-anchor="middle">Bundle</text><text x="400" y="198" font-family="'Inter',sans-serif" font-weight="600" font-size="16" fill="#2563eb" text-anchor="middle">+ Proof</text><line x1="485" y1="175" x2="560" y2="175" stroke="#2563eb" stroke-width="2" marker-end="url(#arrow)"/><rect x="570" y="130" width="170" height="90" rx="10" fill="#ffffff" stroke="#10b981" stroke-width="2"/><text x="655" y="170" font-family="'Inter',sans-serif" font-weight="700" font-size="18" fill="#10b981" text-anchor="middle">Post to L1</text><text x="655" y="198" font-family="'Inter',sans-serif" font-weight="500" font-size="14" fill="#787774" text-anchor="middle">Ethereum</text><text x="400" y="290" font-family="'Inter',sans-serif" font-weight="600" font-size="18" fill="#2563eb" text-anchor="middle">100x cheaper, same security</text><text x="400" y="340" font-family="'Inter',sans-serif" font-weight="600" font-size="20" fill="#37352f" text-anchor="middle">Execute off-chain, verify on-chain</text></g>
<rect x="0" y="360" width="800" height="40" fill="#ffffff" opacity="0.9"/>
<text x="770" y="385" font-family="'Inter',sans-serif" font-weight="500" font-size="12" fill="#787774" text-anchor="end">@vedangvatsa</text>
</svg>