<?xml version="1.0" encoding="utf-8"?>
<svg xmlns="http://www.w3.org/2000/svg" viewBox="0 0 800 400" width="800" height="400">
<rect width="800" height="400" fill="#fff"/>
<line x1="0" y1="0" x2="0" y2="400" stroke="#f9fafb" stroke-width="1"/>
<line x1="40" y1="0" x2="40" y2="400" stroke="#f9fafb" stroke-width="1"/>
<line x1="80" y1="0" x2="80" y2="400" stroke="#f9fafb" stroke-width="1"/>
<line x1="120" y1="0" x2="120" y2="400" stroke="#f9fafb" stroke-width="1"/>
<line x1="160" y1="0" x2="160" y2="400" stroke="#f9fafb" stroke-width="1"/>
<line x1="200" y1="0" x2="200" y2="400" stroke="#f9fafb" stroke-width="1"/>
<line x1="240" y1="0" x2="240" y2="400" stroke="#f9fafb" stroke-width="1"/>
<line x1="280" y1="0" x2="280" y2="400" stroke="#f9fafb" stroke-width="1"/>
<line x1="320" y1="0" x2="320" y2="400" stroke="#f9fafb" stroke-width="1"/>
<line x1="360" y1="0" x2="360" y2="400" stroke="#f9fafb" stroke-width="1"/>
<line x1="400" y1="0" x2="400" y2="400" stroke="#f9fafb" stroke-width="1"/>
<line x1="440" y1="0" x2="440" y2="400" stroke="#f9fafb" stroke-width="1"/>
<line x1="480" y1="0" x2="480" y2="400" stroke="#f9fafb" stroke-width="1"/>
<line x1="520" y1="0" x2="520" y2="400" stroke="#f9fafb" stroke-width="1"/>
<line x1="560" y1="0" x2="560" y2="400" stroke="#f9fafb" stroke-width="1"/>
<line x1="600" y1="0" x2="600" y2="400" stroke="#f9fafb" stroke-width="1"/>
<line x1="640" y1="0" x2="640" y2="400" stroke="#f9fafb" stroke-width="1"/>
<line x1="680" y1="0" x2="680" y2="400" stroke="#f9fafb" stroke-width="1"/>
<line x1="720" y1="0" x2="720" y2="400" stroke="#f9fafb" stroke-width="1"/>
<line x1="760" y1="0" x2="760" y2="400" stroke="#f9fafb" stroke-width="1"/>
<line x1="0" y1="0" x2="800" y2="0" stroke="#f9fafb" stroke-width="1"/>
<line x1="0" y1="40" x2="800" y2="40" stroke="#f9fafb" stroke-width="1"/>
<line x1="0" y1="80" x2="800" y2="80" stroke="#f9fafb" stroke-width="1"/>
<line x1="0" y1="120" x2="800" y2="120" stroke="#f9fafb" stroke-width="1"/>
<line x1="0" y1="160" x2="800" y2="160" stroke="#f9fafb" stroke-width="1"/>
<line x1="0" y1="200" x2="800" y2="200" stroke="#f9fafb" stroke-width="1"/>
<line x1="0" y1="240" x2="800" y2="240" stroke="#f9fafb" stroke-width="1"/>
<line x1="0" y1="280" x2="800" y2="280" stroke="#f9fafb" stroke-width="1"/>
<line x1="0" y1="320" x2="800" y2="320" stroke="#f9fafb" stroke-width="1"/>
<line x1="0" y1="360" x2="800" y2="360" stroke="#f9fafb" stroke-width="1"/>
<rect x="52.5" y="120" width="155" height="160" rx="16" fill="#7c3aed" stroke="#7c3aed" stroke-width="1.5"/>
<text x="130" y="185" font-family="'Inter',sans-serif" font-weight="800" font-size="36" fill="rgba(255,255,255,0.25)" text-anchor="middle">01</text>
<text x="130" y="230.55" font-family="'Inter',sans-serif" font-weight="700" font-size="13" fill="#fff" text-anchor="middle">SAM Segment</text>
<line x1="210.5" y1="200" x2="229.5" y2="200" stroke="#c4b5fd" stroke-width="2.5"/>
<polygon points="223.5,195 229.5,200 223.5,205" fill="#7c3aed"/>
<rect x="232.5" y="120" width="155" height="160" rx="16" fill="#f5f3ff" stroke="#7c3aed" stroke-width="1.5"/>
<text x="310" y="185" font-family="'Inter',sans-serif" font-weight="800" font-size="36" fill="#ede9fe" text-anchor="middle">02</text>
<text x="310" y="222.96125" font-family="'Inter',sans-serif" font-weight="700" font-size="11.049999999999999" fill="#4c1d95" text-anchor="middle">Segment</text>
<text x="310" y="236.77375" font-family="'Inter',sans-serif" font-weight="700" font-size="11.049999999999999" fill="#4c1d95" text-anchor="middle">Anything</text>
<line x1="390.5" y1="200" x2="409.5" y2="200" stroke="#c4b5fd" stroke-width="2.5"/>
<polygon points="403.5,195 409.5,200 403.5,205" fill="#7c3aed"/>
<rect x="412.5" y="120" width="155" height="160" rx="16" fill="#f5f3ff" stroke="#7c3aed" stroke-width="1.5"/>
<text x="490" y="185" font-family="'Inter',sans-serif" font-weight="800" font-size="36" fill="#ede9fe" text-anchor="middle">03</text>
<text x="490" y="230.55" font-family="'Inter',sans-serif" font-weight="700" font-size="13" fill="#4c1d95" text-anchor="middle">Anything Model</text>
<line x1="570.5" y1="200" x2="589.5" y2="200" stroke="#c4b5fd" stroke-width="2.5"/>
<polygon points="583.5,195 589.5,200 583.5,205" fill="#7c3aed"/>
<rect x="592.5" y="120" width="155" height="160" rx="16" fill="#f5f3ff" stroke="#7c3aed" stroke-width="1.5"/>
<text x="670" y="185" font-family="'Inter',sans-serif" font-weight="800" font-size="36" fill="#ede9fe" text-anchor="middle">04</text>
<text x="670" y="222.96125" font-family="'Inter',sans-serif" font-weight="700" font-size="11.049999999999999" fill="#4c1d95" text-anchor="middle">Foundation</text>
<text x="670" y="236.77375" font-family="'Inter',sans-serif" font-weight="700" font-size="11.049999999999999" fill="#4c1d95" text-anchor="middle">Model</text>

</svg>