<?xml version="1.0" encoding="utf-8"?>
<svg xmlns="http://www.w3.org/2000/svg" viewBox="0 0 800 400" width="800" height="400" style="background-color:#ffffff">
<defs><marker id="arrow" markerWidth="6" markerHeight="6" refX="5" refY="3" orient="auto"><path d="M 0 0 L 6 3 L 0 6 z" fill="#2563eb"/></marker></defs>
<rect width="800" height="400" fill="#ffffff"/>
<g transform="translate(0,-57)"><circle cx="400" cy="170" r="40" fill="#2563eb" fill-opacity="0.08" stroke="#2563eb" stroke-width="2"/><circle cx="400" cy="160" r="12" fill="#787774"/><path d="M 382 180 Q 400 200 418 180" fill="none" stroke="#787774" stroke-width="2"/><text x="400" y="230" font-family="'Inter',sans-serif" font-weight="800" font-size="20" fill="#2563eb" text-anchor="middle">You</text><rect x="100" y="240" width="130" height="40" rx="8" fill="#ffffff" stroke="#2563eb" stroke-width="2"/><text x="165" y="267" font-family="'Inter',sans-serif" font-weight="600" font-size="14" fill="#2563eb" text-anchor="middle">Gov ID</text><rect x="260" y="240" width="120" height="40" rx="8" fill="#ffffff" stroke="#2563eb" stroke-width="2"/><text x="320" y="267" font-family="'Inter',sans-serif" font-weight="600" font-size="14" fill="#2563eb" text-anchor="middle">Degree</text><rect x="410" y="240" width="130" height="40" rx="8" fill="#ffffff" stroke="#2563eb" stroke-width="2"/><text x="475" y="267" font-family="'Inter',sans-serif" font-weight="600" font-size="14" fill="#2563eb" text-anchor="middle">Credit</text><rect x="570" y="240" width="130" height="40" rx="8" fill="#ffffff" stroke="#2563eb" stroke-width="2"/><text x="635" y="267" font-family="'Inter',sans-serif" font-weight="600" font-size="14" fill="#2563eb" text-anchor="middle">Proof</text><line x1="165" y1="240" x2="380" y2="210" stroke="#e5e7eb" stroke-width="1" stroke-dasharray="3 3"/><line x1="320" y1="240" x2="390" y2="210" stroke="#e5e7eb" stroke-width="1" stroke-dasharray="3 3"/><line x1="475" y1="240" x2="410" y2="210" stroke="#e5e7eb" stroke-width="1" stroke-dasharray="3 3"/><line x1="635" y1="240" x2="420" y2="210" stroke="#e5e7eb" stroke-width="1" stroke-dasharray="3 3"/><text x="400" y="330" font-family="'Inter',sans-serif" font-weight="600" font-size="20" fill="#37352f" text-anchor="middle">Own your data, share selectively</text></g>
<rect x="0" y="360" width="800" height="40" fill="#ffffff" opacity="0.9"/>
<text x="770" y="385" font-family="'Inter',sans-serif" font-weight="500" font-size="12" fill="#787774" text-anchor="end">@vedangvatsa</text>
</svg>