<?xml version="1.0" encoding="utf-8"?>
<svg xmlns="http://www.w3.org/2000/svg" viewBox="0 0 800 400" width="800" height="400" style="background-color:#ffffff">
  <defs>
    <marker id="arrow" markerWidth="6" markerHeight="6" refX="5" refY="3" orient="auto">
      <path d="M 0 0 L 6 3 L 0 6 z" fill="#2563eb"/>
    </marker>
  </defs>
  <rect width="800" height="400" fill="#ffffff"/>
  <g><text x="400" y="60" font-family="'Inter',sans-serif" font-weight="700" font-size="28" fill="#37352f" text-anchor="middle">L2 Sequencer</text><text x="160" y="110" font-family="'Inter',sans-serif" font-weight="500" font-size="16" fill="#37352f" text-anchor="middle">Users (L2)</text><text x="160" y="130" font-family="'Inter',sans-serif" font-weight="400" font-size="12" fill="#787774" text-anchor="middle">Unordered Transactions</text><rect x="160.59232294741574" y="219.58563199749915" width="16" height="16" rx="2" fill="#ffffff" stroke="#e5e7eb" stroke-width="1.5" transform="rotate(1.0967979963361163 168.59232294741574 227.58563199749915)"/><rect x="163.60658491790704" y="151.29547400071476" width="16" height="16" rx="2" fill="#ffffff" stroke="#e5e7eb" stroke-width="1.5" transform="rotate(-4.268485303008073 171.60658491790704 159.29547400071476)"/><rect x="163.95160682422784" y="229.6183522446583" width="16" height="16" rx="2" fill="#ffffff" stroke="#e5e7eb" stroke-width="1.5" transform="rotate(12.201620764638468 171.95160682422784 237.6183522446583)"/><rect x="148.11365900427555" y="170.9957100256751" width="16" height="16" rx="2" fill="#ffffff" stroke="#e5e7eb" stroke-width="1.5" transform="rotate(18.067809882724738 156.11365900427555 178.9957100256751)"/><rect x="159.99722740508926" y="199.63499854222414" width="16" height="16" rx="2" fill="#ffffff" stroke="#e5e7eb" stroke-width="1.5" transform="rotate(12.88948410716625 167.99722740508926 207.63499854222414)"/><rect x="169.140011135215" y="192.75595401112528" width="16" height="16" rx="2" fill="#ffffff" stroke="#e5e7eb" stroke-width="1.5" transform="rotate(-21.25863897803407 177.140011135215 200.75595401112528)"/><path d="M 230 190 Q 280 190 320 180" fill="none" stroke="#787774" stroke-width="1.5" marker-end="url(#arrow)"/><path d="M 230 200 Q 280 210 320 200" fill="none" stroke="#787774" stroke-width="1.5" marker-end="url(#arrow)"/><polygon points="340,140 460,140 430,260 370,260" fill="#ffffff" stroke="#2563eb" stroke-width="1.5"/><line x1="365" y1="165" x2="435" y2="165" stroke="#e5e7eb" stroke-width="1" stroke-dasharray="2 2"/><line x1="380" y1="195" x2="420" y2="195" stroke="#e5e7eb" stroke-width="1" stroke-dasharray="2 2"/><line x1="390" y1="225" x2="410" y2="225" stroke="#e5e7eb" stroke-width="1" stroke-dasharray="2 2"/><text x="400" y="300" font-family="'Inter',sans-serif" font-weight="500" font-size="16" fill="#37352f" text-anchor="middle">Sequencer</text><text x="400" y="320" font-family="'Inter',sans-serif" font-weight="400" font-size="13" fill="#787774" text-anchor="middle">Orders &amp; Batches Txns</text><line x1="470" y1="200" x2="550" y2="200" stroke="#2563eb" stroke-width="1.5" marker-end="url(#arrow)"/><text x="640" y="120" font-family="'Inter',sans-serif" font-weight="500" font-size="16" fill="#37352f" text-anchor="middle">Ethereum (L1)</text><text x="640" y="140" font-family="'Inter',sans-serif" font-weight="400" font-size="12" fill="#787774" text-anchor="middle">Compressed Batch Data</text><rect x="580" y="170" width="120" height="60" rx="4" fill="#ffffff" stroke="#10b981" stroke-width="1.5"/><rect x="590" y="180" width="8" height="40" rx="2" fill="#10b981"/><rect x="603.5" y="180" width="8" height="40" rx="2" fill="#10b981"/><rect x="617" y="180" width="8" height="40" rx="2" fill="#10b981"/><rect x="630.5" y="180" width="8" height="40" rx="2" fill="#10b981"/><rect x="644" y="180" width="8" height="40" rx="2" fill="#10b981"/><rect x="657.5" y="180" width="8" height="40" rx="2" fill="#10b981"/><rect x="671" y="180" width="8" height="40" rx="2" fill="#10b981"/><rect x="684.5" y="180" width="8" height="40" rx="2" fill="#10b981"/></g>
  <rect x="0" y="360" width="800" height="40" fill="#ffffff" opacity="0.9"/>
  <text x="770" y="385" font-family="'Inter',sans-serif" font-weight="500" font-size="12" fill="#787774" text-anchor="end">@vedangvatsa</text>
</svg>