<?xml version="1.0" encoding="utf-8"?>
<svg xmlns="http://www.w3.org/2000/svg" viewBox="0 0 800 400" width="800" height="400" style="background-color:#ffffff">
  <defs>
    <marker id="arrow" markerWidth="6" markerHeight="6" refX="5" refY="3" orient="auto">
      <path d="M 0 0 L 6 3 L 0 6 z" fill="#2563eb"/>
    </marker>
  </defs>
  <rect width="800" height="400" fill="#ffffff"/>
  <g><text x="400" y="70" font-family="'Inter',sans-serif" font-weight="700" font-size="32" fill="#37352f" text-anchor="middle">L2 Sequencer</text><text x="160" y="120" font-family="'Inter',sans-serif" font-weight="600" font-size="20" fill="#37352f" text-anchor="middle">Mempool</text><rect x="144.04266858701757" y="143.57110392264553" width="24" height="24" rx="4" fill="#ffffff" stroke="#e5e7eb" stroke-width="2" transform="rotate(-11.766818319204063 156.04266858701757 155.57110392264553)"/><rect x="162.19206977467684" y="146.57153424572664" width="24" height="24" rx="4" fill="#ffffff" stroke="#e5e7eb" stroke-width="2" transform="rotate(26.617695118196142 174.19206977467684 158.57153424572664)"/><rect x="201.19235772546287" y="153.30400441653632" width="24" height="24" rx="4" fill="#ffffff" stroke="#e5e7eb" stroke-width="2" transform="rotate(-4.6943629147960175 213.19235772546287 165.30400441653632)"/><rect x="142.9298641329967" y="180.98301108717496" width="24" height="24" rx="4" fill="#ffffff" stroke="#e5e7eb" stroke-width="2" transform="rotate(10.984600750978327 154.9298641329967 192.98301108717496)"/><rect x="166.04045052100358" y="180.54961158667282" width="24" height="24" rx="4" fill="#ffffff" stroke="#e5e7eb" stroke-width="2" transform="rotate(13.285323475245573 178.04045052100358 192.54961158667282)"/><rect x="196.6623421996567" y="191.06586281907997" width="24" height="24" rx="4" fill="#ffffff" stroke="#e5e7eb" stroke-width="2" transform="rotate(-0.8108389208913058 208.6623421996567 203.06586281907997)"/><rect x="143.27821685724754" y="221.53550995226212" width="24" height="24" rx="4" fill="#ffffff" stroke="#e5e7eb" stroke-width="2" transform="rotate(-3.0920683232858615 155.27821685724754 233.53550995226212)"/><rect x="164.44972783276734" y="231.21454170629826" width="24" height="24" rx="4" fill="#ffffff" stroke="#e5e7eb" stroke-width="2" transform="rotate(-9.544511496021073 176.44972783276734 243.21454170629826)"/><path d="M 240 190 Q 280 190 310 180" fill="none" stroke="#787774" stroke-width="2" marker-end="url(#arrow)"/><path d="M 240 205 Q 280 210 310 205" fill="none" stroke="#787774" stroke-width="2" marker-end="url(#arrow)"/><polygon points="330,130 470,130 430,270 370,270" fill="#ffffff" stroke="#2563eb" stroke-width="2"/><line x1="365" y1="165" x2="435" y2="165" stroke="#e5e7eb" stroke-width="2" stroke-dasharray="4 4"/><line x1="380" y1="205" x2="420" y2="205" stroke="#e5e7eb" stroke-width="2" stroke-dasharray="4 4"/><line x1="390" y1="245" x2="410" y2="245" stroke="#e5e7eb" stroke-width="2" stroke-dasharray="4 4"/><text x="400" y="310" font-family="'Inter',sans-serif" font-weight="600" font-size="20" fill="#37352f" text-anchor="middle">Sequencer</text><line x1="480" y1="200" x2="550" y2="200" stroke="#2563eb" stroke-width="2" marker-end="url(#arrow)"/><text x="640" y="120" font-family="'Inter',sans-serif" font-weight="600" font-size="20" fill="#37352f" text-anchor="middle">L1 Batch</text><rect x="580" y="160" width="120" height="70" rx="6" fill="#ffffff" stroke="#10b981" stroke-width="2"/><rect x="590" y="175" width="10" height="40" rx="3" fill="#10b981"/><rect x="603.5" y="175" width="10" height="40" rx="3" fill="#10b981"/><rect x="617" y="175" width="10" height="40" rx="3" fill="#10b981"/><rect x="630.5" y="175" width="10" height="40" rx="3" fill="#10b981"/><rect x="644" y="175" width="10" height="40" rx="3" fill="#10b981"/><rect x="657.5" y="175" width="10" height="40" rx="3" fill="#10b981"/><rect x="671" y="175" width="10" height="40" rx="3" fill="#10b981"/><rect x="684.5" y="175" width="10" height="40" rx="3" fill="#10b981"/></g>
  <rect x="0" y="360" width="800" height="40" fill="#ffffff" opacity="0.9"/>
  <text x="770" y="385" font-family="'Inter',sans-serif" font-weight="500" font-size="12" fill="#787774" text-anchor="end">@vedangvatsa</text>
</svg>