<?xml version="1.0" encoding="utf-8"?>
<svg xmlns="http://www.w3.org/2000/svg" viewBox="0 0 800 400" width="800" height="400" style="background-color:#ffffff">
  <defs>
    <marker id="arrow" markerWidth="6" markerHeight="6" refX="5" refY="3" orient="auto">
      <path d="M 0 0 L 6 3 L 0 6 z" fill="#2563eb"/>
    </marker>
  </defs>
  <rect width="800" height="400" fill="#ffffff"/>
  <g transform="translate(0,-27)"><text x="160" y="90" font-family="'Inter',sans-serif" font-weight="600" font-size="20" fill="#37352f" text-anchor="middle">Mempool</text><rect x="136.6720023313266" y="110.18306072951144" width="24" height="24" rx="4" fill="#ffffff" stroke="#e5e7eb" stroke-width="2" transform="rotate(-5.228558046132914 148.6720023313266 122.18306072951144)"/><rect x="165.6504104347283" y="101.61863831257291" width="24" height="24" rx="4" fill="#ffffff" stroke="#e5e7eb" stroke-width="2" transform="rotate(9.95840456285164 177.6504104347283 113.61863831257291)"/><rect x="195.82481896718264" y="110.21498989154225" width="24" height="24" rx="4" fill="#ffffff" stroke="#e5e7eb" stroke-width="2" transform="rotate(-28.241258389602393 207.82481896718264 122.21498989154225)"/><rect x="131.85114730270328" y="144.00863210997082" width="24" height="24" rx="4" fill="#ffffff" stroke="#e5e7eb" stroke-width="2" transform="rotate(-19.31761261170479 143.85114730270328 156.00863210997082)"/><rect x="164.2467081637365" y="144.74042975588887" width="24" height="24" rx="4" fill="#ffffff" stroke="#e5e7eb" stroke-width="2" transform="rotate(6.22300337122466 176.2467081637365 156.74042975588887)"/><rect x="203.75302010630065" y="158.89868857215112" width="24" height="24" rx="4" fill="#ffffff" stroke="#e5e7eb" stroke-width="2" transform="rotate(-26.42744722498458 215.75302010630065 170.89868857215112)"/><rect x="139.26972397319471" y="184.88452359626407" width="24" height="24" rx="4" fill="#ffffff" stroke="#e5e7eb" stroke-width="2" transform="rotate(-27.739486738628646 151.26972397319471 196.88452359626407)"/><rect x="168.0104525358543" y="182.12011719298368" width="24" height="24" rx="4" fill="#ffffff" stroke="#e5e7eb" stroke-width="2" transform="rotate(-19.189691016186018 180.0104525358543 194.12011719298368)"/><path d="M 240 155 Q 280 155 310 145" fill="none" stroke="#787774" stroke-width="2" marker-end="url(#arrow)"/><path d="M 240 170 Q 280 175 310 170" fill="none" stroke="#787774" stroke-width="2" marker-end="url(#arrow)"/><polygon points="330,90 470,90 430,230 370,230" fill="#ffffff" stroke="#2563eb" stroke-width="2"/><line x1="365" y1="130" x2="435" y2="130" stroke="#e5e7eb" stroke-width="2" stroke-dasharray="4 4"/><line x1="380" y1="170" x2="420" y2="170" stroke="#e5e7eb" stroke-width="2" stroke-dasharray="4 4"/><line x1="390" y1="210" x2="410" y2="210" stroke="#e5e7eb" stroke-width="2" stroke-dasharray="4 4"/><text x="400" y="270" font-family="'Inter',sans-serif" font-weight="600" font-size="20" fill="#37352f" text-anchor="middle">Sequencer</text><line x1="480" y1="165" x2="550" y2="165" stroke="#2563eb" stroke-width="2" marker-end="url(#arrow)"/><text x="640" y="90" font-family="'Inter',sans-serif" font-weight="600" font-size="20" fill="#37352f" text-anchor="middle">L1 Batch</text><rect x="580" y="120" width="120" height="70" rx="6" fill="#ffffff" stroke="#10b981" stroke-width="2"/><rect x="590" y="135" width="10" height="40" rx="3" fill="#10b981"/><rect x="603.5" y="135" width="10" height="40" rx="3" fill="#10b981"/><rect x="617" y="135" width="10" height="40" rx="3" fill="#10b981"/><rect x="630.5" y="135" width="10" height="40" rx="3" fill="#10b981"/><rect x="644" y="135" width="10" height="40" rx="3" fill="#10b981"/><rect x="657.5" y="135" width="10" height="40" rx="3" fill="#10b981"/><rect x="671" y="135" width="10" height="40" rx="3" fill="#10b981"/><rect x="684.5" y="135" width="10" height="40" rx="3" fill="#10b981"/><text x="400" y="340" font-family="'Inter',sans-serif" font-weight="600" font-size="18" fill="#37352f" text-anchor="middle">Order and batch transactions for L1</text></g>
  <rect x="0" y="360" width="800" height="40" fill="#ffffff" opacity="0.9"/>
  <text x="770" y="385" font-family="'Inter',sans-serif" font-weight="500" font-size="12" fill="#787774" text-anchor="end">@vedangvatsa</text>
</svg>