<?xml version="1.0" encoding="utf-8"?>
<svg xmlns="http://www.w3.org/2000/svg" viewBox="0 0 800 400" width="800" height="400" style="background-color:#ffffff">
<defs><marker id="arrow" markerWidth="6" markerHeight="6" refX="5" refY="3" orient="auto"><path d="M 0 0 L 6 3 L 0 6 z" fill="#059669"/></marker></defs>
<rect width="800" height="400" fill="#ffffff"/>
<g transform="translate(0,-25)"><rect x="60" y="130" width="150" height="60" rx="8" fill="#fff" stroke="#059669" stroke-width="2"/><text x="135" y="166" font-family="'Inter',sans-serif" font-weight="600" font-size="14" fill="#059669" text-anchor="middle">Event Trigger</text><line x1="215" y1="160" x2="290" y2="160" stroke="#059669" stroke-width="2" marker-end="url(#arrow)"/><rect x="300" y="110" width="200" height="100" rx="12" fill="#fff" stroke="#059669" stroke-width="3"/><text x="400" y="155" font-family="'Inter',sans-serif" font-weight="700" font-size="20" fill="#059669" text-anchor="middle">Function</text><text x="400" y="185" font-family="'Inter',sans-serif" font-weight="500" font-size="14" fill="#787774" text-anchor="middle">Auto-scales</text><line x1="505" y1="160" x2="580" y2="160" stroke="#059669" stroke-width="2" marker-end="url(#arrow)"/><rect x="590" y="130" width="140" height="60" rx="8" fill="#fff" stroke="#10b981" stroke-width="2"/><text x="660" y="166" font-family="'Inter',sans-serif" font-weight="600" font-size="16" fill="#10b981" text-anchor="middle">Result</text><text x="400" y="260" font-family="'Inter',sans-serif" font-weight="600" font-size="16" fill="#37352f" text-anchor="middle">Pay per execution, not per server</text><rect x="130" y="280" width="120" height="35" rx="8" fill="#fff" stroke="#e5e7eb" stroke-width="2"/><text x="190" y="303.5" font-family="'Inter',sans-serif" font-weight="600" font-size="12" fill="#37352f" text-anchor="middle">AWS Lambda</text><rect x="280" y="280" width="150" height="35" rx="8" fill="#fff" stroke="#e5e7eb" stroke-width="2"/><text x="355" y="303.5" font-family="'Inter',sans-serif" font-weight="600" font-size="12" fill="#37352f" text-anchor="middle">Cloud Functions</text><rect x="460" y="280" width="140" height="35" rx="8" fill="#fff" stroke="#e5e7eb" stroke-width="2"/><text x="530" y="303.5" font-family="'Inter',sans-serif" font-weight="600" font-size="12" fill="#37352f" text-anchor="middle">Azure Func</text></g>
<rect x="0" y="360" width="800" height="40" fill="#ffffff" opacity="0.9"/>
<text x="770" y="385" font-family="'Inter',sans-serif" font-weight="500" font-size="12" fill="#787774" text-anchor="end">@vedangvatsa</text>
</svg>