<?xml version="1.0" encoding="utf-8"?>
<svg xmlns="http://www.w3.org/2000/svg" viewBox="0 0 800 400" width="800" height="400" style="background-color:#ffffff">
  <defs>
    <marker id="arrow" markerWidth="6" markerHeight="6" refX="5" refY="3" orient="auto">
      <path d="M 0 0 L 6 3 L 0 6 z" fill="#2563eb"/>
    </marker>
  </defs>
  <rect width="800" height="400" fill="#ffffff"/>
  <g><text x="400" y="70" font-family="'Inter',sans-serif" font-weight="700" font-size="32" fill="#37352f" text-anchor="middle">Smart Contract</text><rect x="120" y="160" width="120" height="60" rx="8" fill="#ffffff" stroke="#e5e7eb" stroke-width="2"/><text x="180" y="196" font-family="'Inter',sans-serif" font-weight="600" font-size="20" fill="#37352f" text-anchor="middle">IF Triggered</text><line x1="240" y1="190" x2="330" y2="190" stroke="#e5e7eb" stroke-width="2" marker-end="url(#arrow)"/><rect x="340" y="130" width="120" height="120" rx="16" fill="#ffffff" stroke="#2563eb" stroke-width="3" stroke-dasharray="6 6"/><path d="M 380 160 L 380 145 C 380 120, 420 120, 420 145 L 420 160" fill="none" stroke="#2563eb" stroke-width="3"/><circle cx="400" cy="190" r="10" fill="#2563eb"/><text x="400" y="235" font-family="'Inter',sans-serif" font-weight="700" font-size="20" fill="#2563eb" text-anchor="middle">Code App</text><line x1="460" y1="190" x2="550" y2="190" stroke="#2563eb" stroke-width="3" marker-end="url(#arrow)"/><rect x="560" y="160" width="120" height="60" rx="8" fill="#ffffff" stroke="#e5e7eb" stroke-width="2"/><text x="620" y="196" font-family="'Inter',sans-serif" font-weight="600" font-size="20" fill="#37352f" text-anchor="middle">THEN Execute</text></g>
  <rect x="0" y="360" width="800" height="40" fill="#ffffff" opacity="0.9"/>
  <text x="770" y="385" font-family="'Inter',sans-serif" font-weight="500" font-size="12" fill="#787774" text-anchor="end">@vedangvatsa</text>
</svg>