<?xml version="1.0" encoding="utf-8"?>
<svg xmlns="http://www.w3.org/2000/svg" viewBox="0 0 800 400" width="800" height="400" style="background-color:#ffffff">
<defs><marker id="arrow" markerWidth="6" markerHeight="6" refX="5" refY="3" orient="auto"><path d="M 0 0 L 6 3 L 0 6 z" fill="#2563eb"/></marker></defs>
<rect width="800" height="400" fill="#ffffff"/>
<g transform="translate(0,-32)"><circle cx="400" cy="180" r="45" fill="#ffffff" stroke="#2563eb" stroke-width="3"/><text x="400" y="190" font-family="'Inter',sans-serif" font-weight="700" font-size="18" fill="#2563eb" text-anchor="middle">Wallet</text><circle cx="200" cy="120" r="22" fill="#ffffff" stroke="#e5e7eb" stroke-width="2"/><circle cx="200" cy="116" r="5" fill="#787774"/><line x1="280" y1="144" x2="340" y2="162" stroke="#e5e7eb" stroke-width="1.5" stroke-dasharray="4 4"/><circle cx="600" cy="120" r="22" fill="#ffffff" stroke="#e5e7eb" stroke-width="2"/><circle cx="600" cy="116" r="5" fill="#787774"/><line x1="520" y1="144" x2="460" y2="162" stroke="#e5e7eb" stroke-width="1.5" stroke-dasharray="4 4"/><circle cx="200" cy="260" r="22" fill="#ffffff" stroke="#e5e7eb" stroke-width="2"/><circle cx="200" cy="256" r="5" fill="#787774"/><line x1="280" y1="228" x2="340" y2="204" stroke="#e5e7eb" stroke-width="1.5" stroke-dasharray="4 4"/><circle cx="600" cy="260" r="22" fill="#ffffff" stroke="#e5e7eb" stroke-width="2"/><circle cx="600" cy="256" r="5" fill="#787774"/><line x1="520" y1="228" x2="460" y2="204" stroke="#e5e7eb" stroke-width="1.5" stroke-dasharray="4 4"/><circle cx="400" cy="300" r="22" fill="#ffffff" stroke="#e5e7eb" stroke-width="2"/><circle cx="400" cy="296" r="5" fill="#787774"/><line x1="400" y1="252" x2="400" y2="216" stroke="#e5e7eb" stroke-width="1.5" stroke-dasharray="4 4"/><text x="200" y="95" font-family="'Inter',sans-serif" font-weight="600" font-size="14" fill="#787774" text-anchor="middle">Guardian</text><text x="600" y="95" font-family="'Inter',sans-serif" font-weight="600" font-size="14" fill="#787774" text-anchor="middle">Guardian</text><text x="400" y="345" font-family="'Inter',sans-serif" font-weight="600" font-size="16" fill="#37352f" text-anchor="middle">3 of 5 guardians can restore access</text></g>
<rect x="0" y="360" width="800" height="40" fill="#ffffff" opacity="0.9"/>
<text x="770" y="385" font-family="'Inter',sans-serif" font-weight="500" font-size="12" fill="#787774" text-anchor="end">@vedangvatsa</text>
</svg>