<?xml version="1.0" encoding="utf-8"?>
<svg xmlns="http://www.w3.org/2000/svg" viewBox="0 0 800 400" width="800" height="400">
<rect width="800" height="400" fill="#fff"/>
<circle cx="30" cy="30" r="1" fill="#dbeafe"/>
<circle cx="30" cy="55" r="1" fill="#dbeafe"/>
<circle cx="30" cy="80" r="1" fill="#dbeafe"/>
<circle cx="30" cy="105" r="1" fill="#dbeafe"/>
<circle cx="30" cy="130" r="1" fill="#dbeafe"/>
<circle cx="30" cy="155" r="1" fill="#dbeafe"/>
<circle cx="30" cy="180" r="1" fill="#dbeafe"/>
<circle cx="30" cy="205" r="1" fill="#dbeafe"/>
<circle cx="30" cy="230" r="1" fill="#dbeafe"/>
<circle cx="30" cy="255" r="1" fill="#dbeafe"/>
<circle cx="30" cy="280" r="1" fill="#dbeafe"/>
<circle cx="30" cy="305" r="1" fill="#dbeafe"/>
<circle cx="30" cy="330" r="1" fill="#dbeafe"/>
<circle cx="30" cy="355" r="1" fill="#dbeafe"/>
<circle cx="30" cy="380" r="1" fill="#dbeafe"/>
<circle cx="55" cy="30" r="1" fill="#dbeafe"/>
<circle cx="55" cy="55" r="1" fill="#dbeafe"/>
<circle cx="55" cy="80" r="1" fill="#dbeafe"/>
<circle cx="55" cy="105" r="1" fill="#dbeafe"/>
<circle cx="55" cy="130" r="1" fill="#dbeafe"/>
<circle cx="55" cy="155" r="1" fill="#dbeafe"/>
<circle cx="55" cy="180" r="1" fill="#dbeafe"/>
<circle cx="55" cy="205" r="1" fill="#dbeafe"/>
<circle cx="55" cy="230" r="1" fill="#dbeafe"/>
<circle cx="55" cy="255" r="1" fill="#dbeafe"/>
<circle cx="55" cy="280" r="1" fill="#dbeafe"/>
<circle cx="55" cy="305" r="1" fill="#dbeafe"/>
<circle cx="55" cy="330" r="1" fill="#dbeafe"/>
<circle cx="55" cy="355" r="1" fill="#dbeafe"/>
<circle cx="55" cy="380" r="1" fill="#dbeafe"/>
<circle cx="80" cy="30" r="1" fill="#dbeafe"/>
<circle cx="80" cy="55" r="1" fill="#dbeafe"/>
<circle cx="80" cy="80" r="1" fill="#dbeafe"/>
<circle cx="80" cy="105" r="1" fill="#dbeafe"/>
<circle cx="80" cy="130" r="1" fill="#dbeafe"/>
<circle cx="80" cy="155" r="1" fill="#dbeafe"/>
<circle cx="80" cy="180" r="1" fill="#dbeafe"/>
<circle cx="80" cy="205" r="1" fill="#dbeafe"/>
<circle cx="80" cy="230" r="1" fill="#dbeafe"/>
<circle cx="80" cy="255" r="1" fill="#dbeafe"/>
<circle cx="80" cy="280" r="1" fill="#dbeafe"/>
<circle cx="80" cy="305" r="1" fill="#dbeafe"/>
<circle cx="80" cy="330" r="1" fill="#dbeafe"/>
<circle cx="80" cy="355" r="1" fill="#dbeafe"/>
<circle cx="80" cy="380" r="1" fill="#dbeafe"/>
<circle cx="105" cy="30" r="1" fill="#dbeafe"/>
<circle cx="105" cy="55" r="1" fill="#dbeafe"/>
<circle cx="105" cy="80" r="1" fill="#dbeafe"/>
<circle cx="105" cy="105" r="1" fill="#dbeafe"/>
<circle cx="105" cy="130" r="1" fill="#dbeafe"/>
<circle cx="105" cy="155" r="1" fill="#dbeafe"/>
<circle cx="105" cy="180" r="1" fill="#dbeafe"/>
<circle cx="105" cy="205" r="1" fill="#dbeafe"/>
<circle cx="105" cy="230" r="1" fill="#dbeafe"/>
<circle cx="105" cy="255" r="1" fill="#dbeafe"/>
<circle cx="105" cy="280" r="1" fill="#dbeafe"/>
<circle cx="105" cy="305" r="1" fill="#dbeafe"/>
<circle cx="105" cy="330" r="1" fill="#dbeafe"/>
<circle cx="105" cy="355" r="1" fill="#dbeafe"/>
<circle cx="105" cy="380" r="1" fill="#dbeafe"/>
<circle cx="130" cy="30" r="1" fill="#dbeafe"/>
<circle cx="130" cy="55" r="1" fill="#dbeafe"/>
<circle cx="130" cy="80" r="1" fill="#dbeafe"/>
<circle cx="130" cy="105" r="1" fill="#dbeafe"/>
<circle cx="130" cy="130" r="1" fill="#dbeafe"/>
<circle cx="130" cy="155" r="1" fill="#dbeafe"/>
<circle cx="130" cy="180" r="1" fill="#dbeafe"/>
<circle cx="130" cy="205" r="1" fill="#dbeafe"/>
<circle cx="130" cy="230" r="1" fill="#dbeafe"/>
<circle cx="130" cy="255" r="1" fill="#dbeafe"/>
<circle cx="130" cy="280" r="1" fill="#dbeafe"/>
<circle cx="130" cy="305" r="1" fill="#dbeafe"/>
<circle cx="130" cy="330" r="1" fill="#dbeafe"/>
<circle cx="130" cy="355" r="1" fill="#dbeafe"/>
<circle cx="130" cy="380" r="1" fill="#dbeafe"/>
<circle cx="155" cy="30" r="1" fill="#dbeafe"/>
<circle cx="155" cy="55" r="1" fill="#dbeafe"/>
<circle cx="155" cy="80" r="1" fill="#dbeafe"/>
<circle cx="155" cy="105" r="1" fill="#dbeafe"/>
<circle cx="155" cy="130" r="1" fill="#dbeafe"/>
<circle cx="155" cy="155" r="1" fill="#dbeafe"/>
<circle cx="155" cy="180" r="1" fill="#dbeafe"/>
<circle cx="155" cy="205" r="1" fill="#dbeafe"/>
<circle cx="155" cy="230" r="1" fill="#dbeafe"/>
<circle cx="155" cy="255" r="1" fill="#dbeafe"/>
<circle cx="155" cy="280" r="1" fill="#dbeafe"/>
<circle cx="155" cy="305" r="1" fill="#dbeafe"/>
<circle cx="155" cy="330" r="1" fill="#dbeafe"/>
<circle cx="155" cy="355" r="1" fill="#dbeafe"/>
<circle cx="155" cy="380" r="1" fill="#dbeafe"/>
<circle cx="180" cy="30" r="1" fill="#dbeafe"/>
<circle cx="180" cy="55" r="1" fill="#dbeafe"/>
<circle cx="180" cy="80" r="1" fill="#dbeafe"/>
<circle cx="180" cy="105" r="1" fill="#dbeafe"/>
<circle cx="180" cy="130" r="1" fill="#dbeafe"/>
<circle cx="180" cy="155" r="1" fill="#dbeafe"/>
<circle cx="180" cy="180" r="1" fill="#dbeafe"/>
<circle cx="180" cy="205" r="1" fill="#dbeafe"/>
<circle cx="180" cy="230" r="1" fill="#dbeafe"/>
<circle cx="180" cy="255" r="1" fill="#dbeafe"/>
<circle cx="180" cy="280" r="1" fill="#dbeafe"/>
<circle cx="180" cy="305" r="1" fill="#dbeafe"/>
<circle cx="180" cy="330" r="1" fill="#dbeafe"/>
<circle cx="180" cy="355" r="1" fill="#dbeafe"/>
<circle cx="180" cy="380" r="1" fill="#dbeafe"/>
<circle cx="205" cy="30" r="1" fill="#dbeafe"/>
<circle cx="205" cy="55" r="1" fill="#dbeafe"/>
<circle cx="205" cy="80" r="1" fill="#dbeafe"/>
<circle cx="205" cy="105" r="1" fill="#dbeafe"/>
<circle cx="205" cy="130" r="1" fill="#dbeafe"/>
<circle cx="205" cy="155" r="1" fill="#dbeafe"/>
<circle cx="205" cy="180" r="1" fill="#dbeafe"/>
<circle cx="205" cy="205" r="1" fill="#dbeafe"/>
<circle cx="205" cy="230" r="1" fill="#dbeafe"/>
<circle cx="205" cy="255" r="1" fill="#dbeafe"/>
<circle cx="205" cy="280" r="1" fill="#dbeafe"/>
<circle cx="205" cy="305" r="1" fill="#dbeafe"/>
<circle cx="205" cy="330" r="1" fill="#dbeafe"/>
<circle cx="205" cy="355" r="1" fill="#dbeafe"/>
<circle cx="205" cy="380" r="1" fill="#dbeafe"/>
<circle cx="230" cy="30" r="1" fill="#dbeafe"/>
<circle cx="230" cy="55" r="1" fill="#dbeafe"/>
<circle cx="230" cy="80" r="1" fill="#dbeafe"/>
<circle cx="230" cy="105" r="1" fill="#dbeafe"/>
<circle cx="230" cy="130" r="1" fill="#dbeafe"/>
<circle cx="230" cy="155" r="1" fill="#dbeafe"/>
<circle cx="230" cy="180" r="1" fill="#dbeafe"/>
<circle cx="230" cy="205" r="1" fill="#dbeafe"/>
<circle cx="230" cy="230" r="1" fill="#dbeafe"/>
<circle cx="230" cy="255" r="1" fill="#dbeafe"/>
<circle cx="230" cy="280" r="1" fill="#dbeafe"/>
<circle cx="230" cy="305" r="1" fill="#dbeafe"/>
<circle cx="230" cy="330" r="1" fill="#dbeafe"/>
<circle cx="230" cy="355" r="1" fill="#dbeafe"/>
<circle cx="230" cy="380" r="1" fill="#dbeafe"/>
<circle cx="255" cy="30" r="1" fill="#dbeafe"/>
<circle cx="255" cy="55" r="1" fill="#dbeafe"/>
<circle cx="255" cy="80" r="1" fill="#dbeafe"/>
<circle cx="255" cy="105" r="1" fill="#dbeafe"/>
<circle cx="255" cy="130" r="1" fill="#dbeafe"/>
<circle cx="255" cy="155" r="1" fill="#dbeafe"/>
<circle cx="255" cy="180" r="1" fill="#dbeafe"/>
<circle cx="255" cy="205" r="1" fill="#dbeafe"/>
<circle cx="255" cy="230" r="1" fill="#dbeafe"/>
<circle cx="255" cy="255" r="1" fill="#dbeafe"/>
<circle cx="255" cy="280" r="1" fill="#dbeafe"/>
<circle cx="255" cy="305" r="1" fill="#dbeafe"/>
<circle cx="255" cy="330" r="1" fill="#dbeafe"/>
<circle cx="255" cy="355" r="1" fill="#dbeafe"/>
<circle cx="255" cy="380" r="1" fill="#dbeafe"/>
<circle cx="280" cy="30" r="1" fill="#dbeafe"/>
<circle cx="280" cy="55" r="1" fill="#dbeafe"/>
<circle cx="280" cy="80" r="1" fill="#dbeafe"/>
<circle cx="280" cy="105" r="1" fill="#dbeafe"/>
<circle cx="280" cy="130" r="1" fill="#dbeafe"/>
<circle cx="280" cy="155" r="1" fill="#dbeafe"/>
<circle cx="280" cy="180" r="1" fill="#dbeafe"/>
<circle cx="280" cy="205" r="1" fill="#dbeafe"/>
<circle cx="280" cy="230" r="1" fill="#dbeafe"/>
<circle cx="280" cy="255" r="1" fill="#dbeafe"/>
<circle cx="280" cy="280" r="1" fill="#dbeafe"/>
<circle cx="280" cy="305" r="1" fill="#dbeafe"/>
<circle cx="280" cy="330" r="1" fill="#dbeafe"/>
<circle cx="280" cy="355" r="1" fill="#dbeafe"/>
<circle cx="280" cy="380" r="1" fill="#dbeafe"/>
<circle cx="305" cy="30" r="1" fill="#dbeafe"/>
<circle cx="305" cy="55" r="1" fill="#dbeafe"/>
<circle cx="305" cy="80" r="1" fill="#dbeafe"/>
<circle cx="305" cy="105" r="1" fill="#dbeafe"/>
<circle cx="305" cy="130" r="1" fill="#dbeafe"/>
<circle cx="305" cy="155" r="1" fill="#dbeafe"/>
<circle cx="305" cy="180" r="1" fill="#dbeafe"/>
<circle cx="305" cy="205" r="1" fill="#dbeafe"/>
<circle cx="305" cy="230" r="1" fill="#dbeafe"/>
<circle cx="305" cy="255" r="1" fill="#dbeafe"/>
<circle cx="305" cy="280" r="1" fill="#dbeafe"/>
<circle cx="305" cy="305" r="1" fill="#dbeafe"/>
<circle cx="305" cy="330" r="1" fill="#dbeafe"/>
<circle cx="305" cy="355" r="1" fill="#dbeafe"/>
<circle cx="305" cy="380" r="1" fill="#dbeafe"/>
<circle cx="330" cy="30" r="1" fill="#dbeafe"/>
<circle cx="330" cy="55" r="1" fill="#dbeafe"/>
<circle cx="330" cy="80" r="1" fill="#dbeafe"/>
<circle cx="330" cy="105" r="1" fill="#dbeafe"/>
<circle cx="330" cy="130" r="1" fill="#dbeafe"/>
<circle cx="330" cy="155" r="1" fill="#dbeafe"/>
<circle cx="330" cy="180" r="1" fill="#dbeafe"/>
<circle cx="330" cy="205" r="1" fill="#dbeafe"/>
<circle cx="330" cy="230" r="1" fill="#dbeafe"/>
<circle cx="330" cy="255" r="1" fill="#dbeafe"/>
<circle cx="330" cy="280" r="1" fill="#dbeafe"/>
<circle cx="330" cy="305" r="1" fill="#dbeafe"/>
<circle cx="330" cy="330" r="1" fill="#dbeafe"/>
<circle cx="330" cy="355" r="1" fill="#dbeafe"/>
<circle cx="330" cy="380" r="1" fill="#dbeafe"/>
<circle cx="355" cy="30" r="1" fill="#dbeafe"/>
<circle cx="355" cy="55" r="1" fill="#dbeafe"/>
<circle cx="355" cy="80" r="1" fill="#dbeafe"/>
<circle cx="355" cy="105" r="1" fill="#dbeafe"/>
<circle cx="355" cy="130" r="1" fill="#dbeafe"/>
<circle cx="355" cy="155" r="1" fill="#dbeafe"/>
<circle cx="355" cy="180" r="1" fill="#dbeafe"/>
<circle cx="355" cy="205" r="1" fill="#dbeafe"/>
<circle cx="355" cy="230" r="1" fill="#dbeafe"/>
<circle cx="355" cy="255" r="1" fill="#dbeafe"/>
<circle cx="355" cy="280" r="1" fill="#dbeafe"/>
<circle cx="355" cy="305" r="1" fill="#dbeafe"/>
<circle cx="355" cy="330" r="1" fill="#dbeafe"/>
<circle cx="355" cy="355" r="1" fill="#dbeafe"/>
<circle cx="355" cy="380" r="1" fill="#dbeafe"/>
<circle cx="380" cy="30" r="1" fill="#dbeafe"/>
<circle cx="380" cy="55" r="1" fill="#dbeafe"/>
<circle cx="380" cy="80" r="1" fill="#dbeafe"/>
<circle cx="380" cy="105" r="1" fill="#dbeafe"/>
<circle cx="380" cy="130" r="1" fill="#dbeafe"/>
<circle cx="380" cy="155" r="1" fill="#dbeafe"/>
<circle cx="380" cy="180" r="1" fill="#dbeafe"/>
<circle cx="380" cy="205" r="1" fill="#dbeafe"/>
<circle cx="380" cy="230" r="1" fill="#dbeafe"/>
<circle cx="380" cy="255" r="1" fill="#dbeafe"/>
<circle cx="380" cy="280" r="1" fill="#dbeafe"/>
<circle cx="380" cy="305" r="1" fill="#dbeafe"/>
<circle cx="380" cy="330" r="1" fill="#dbeafe"/>
<circle cx="380" cy="355" r="1" fill="#dbeafe"/>
<circle cx="380" cy="380" r="1" fill="#dbeafe"/>
<circle cx="405" cy="30" r="1" fill="#dbeafe"/>
<circle cx="405" cy="55" r="1" fill="#dbeafe"/>
<circle cx="405" cy="80" r="1" fill="#dbeafe"/>
<circle cx="405" cy="105" r="1" fill="#dbeafe"/>
<circle cx="405" cy="130" r="1" fill="#dbeafe"/>
<circle cx="405" cy="155" r="1" fill="#dbeafe"/>
<circle cx="405" cy="180" r="1" fill="#dbeafe"/>
<circle cx="405" cy="205" r="1" fill="#dbeafe"/>
<circle cx="405" cy="230" r="1" fill="#dbeafe"/>
<circle cx="405" cy="255" r="1" fill="#dbeafe"/>
<circle cx="405" cy="280" r="1" fill="#dbeafe"/>
<circle cx="405" cy="305" r="1" fill="#dbeafe"/>
<circle cx="405" cy="330" r="1" fill="#dbeafe"/>
<circle cx="405" cy="355" r="1" fill="#dbeafe"/>
<circle cx="405" cy="380" r="1" fill="#dbeafe"/>
<circle cx="430" cy="30" r="1" fill="#dbeafe"/>
<circle cx="430" cy="55" r="1" fill="#dbeafe"/>
<circle cx="430" cy="80" r="1" fill="#dbeafe"/>
<circle cx="430" cy="105" r="1" fill="#dbeafe"/>
<circle cx="430" cy="130" r="1" fill="#dbeafe"/>
<circle cx="430" cy="155" r="1" fill="#dbeafe"/>
<circle cx="430" cy="180" r="1" fill="#dbeafe"/>
<circle cx="430" cy="205" r="1" fill="#dbeafe"/>
<circle cx="430" cy="230" r="1" fill="#dbeafe"/>
<circle cx="430" cy="255" r="1" fill="#dbeafe"/>
<circle cx="430" cy="280" r="1" fill="#dbeafe"/>
<circle cx="430" cy="305" r="1" fill="#dbeafe"/>
<circle cx="430" cy="330" r="1" fill="#dbeafe"/>
<circle cx="430" cy="355" r="1" fill="#dbeafe"/>
<circle cx="430" cy="380" r="1" fill="#dbeafe"/>
<circle cx="455" cy="30" r="1" fill="#dbeafe"/>
<circle cx="455" cy="55" r="1" fill="#dbeafe"/>
<circle cx="455" cy="80" r="1" fill="#dbeafe"/>
<circle cx="455" cy="105" r="1" fill="#dbeafe"/>
<circle cx="455" cy="130" r="1" fill="#dbeafe"/>
<circle cx="455" cy="155" r="1" fill="#dbeafe"/>
<circle cx="455" cy="180" r="1" fill="#dbeafe"/>
<circle cx="455" cy="205" r="1" fill="#dbeafe"/>
<circle cx="455" cy="230" r="1" fill="#dbeafe"/>
<circle cx="455" cy="255" r="1" fill="#dbeafe"/>
<circle cx="455" cy="280" r="1" fill="#dbeafe"/>
<circle cx="455" cy="305" r="1" fill="#dbeafe"/>
<circle cx="455" cy="330" r="1" fill="#dbeafe"/>
<circle cx="455" cy="355" r="1" fill="#dbeafe"/>
<circle cx="455" cy="380" r="1" fill="#dbeafe"/>
<circle cx="480" cy="30" r="1" fill="#dbeafe"/>
<circle cx="480" cy="55" r="1" fill="#dbeafe"/>
<circle cx="480" cy="80" r="1" fill="#dbeafe"/>
<circle cx="480" cy="105" r="1" fill="#dbeafe"/>
<circle cx="480" cy="130" r="1" fill="#dbeafe"/>
<circle cx="480" cy="155" r="1" fill="#dbeafe"/>
<circle cx="480" cy="180" r="1" fill="#dbeafe"/>
<circle cx="480" cy="205" r="1" fill="#dbeafe"/>
<circle cx="480" cy="230" r="1" fill="#dbeafe"/>
<circle cx="480" cy="255" r="1" fill="#dbeafe"/>
<circle cx="480" cy="280" r="1" fill="#dbeafe"/>
<circle cx="480" cy="305" r="1" fill="#dbeafe"/>
<circle cx="480" cy="330" r="1" fill="#dbeafe"/>
<circle cx="480" cy="355" r="1" fill="#dbeafe"/>
<circle cx="480" cy="380" r="1" fill="#dbeafe"/>
<circle cx="505" cy="30" r="1" fill="#dbeafe"/>
<circle cx="505" cy="55" r="1" fill="#dbeafe"/>
<circle cx="505" cy="80" r="1" fill="#dbeafe"/>
<circle cx="505" cy="105" r="1" fill="#dbeafe"/>
<circle cx="505" cy="130" r="1" fill="#dbeafe"/>
<circle cx="505" cy="155" r="1" fill="#dbeafe"/>
<circle cx="505" cy="180" r="1" fill="#dbeafe"/>
<circle cx="505" cy="205" r="1" fill="#dbeafe"/>
<circle cx="505" cy="230" r="1" fill="#dbeafe"/>
<circle cx="505" cy="255" r="1" fill="#dbeafe"/>
<circle cx="505" cy="280" r="1" fill="#dbeafe"/>
<circle cx="505" cy="305" r="1" fill="#dbeafe"/>
<circle cx="505" cy="330" r="1" fill="#dbeafe"/>
<circle cx="505" cy="355" r="1" fill="#dbeafe"/>
<circle cx="505" cy="380" r="1" fill="#dbeafe"/>
<circle cx="530" cy="30" r="1" fill="#dbeafe"/>
<circle cx="530" cy="55" r="1" fill="#dbeafe"/>
<circle cx="530" cy="80" r="1" fill="#dbeafe"/>
<circle cx="530" cy="105" r="1" fill="#dbeafe"/>
<circle cx="530" cy="130" r="1" fill="#dbeafe"/>
<circle cx="530" cy="155" r="1" fill="#dbeafe"/>
<circle cx="530" cy="180" r="1" fill="#dbeafe"/>
<circle cx="530" cy="205" r="1" fill="#dbeafe"/>
<circle cx="530" cy="230" r="1" fill="#dbeafe"/>
<circle cx="530" cy="255" r="1" fill="#dbeafe"/>
<circle cx="530" cy="280" r="1" fill="#dbeafe"/>
<circle cx="530" cy="305" r="1" fill="#dbeafe"/>
<circle cx="530" cy="330" r="1" fill="#dbeafe"/>
<circle cx="530" cy="355" r="1" fill="#dbeafe"/>
<circle cx="530" cy="380" r="1" fill="#dbeafe"/>
<circle cx="555" cy="30" r="1" fill="#dbeafe"/>
<circle cx="555" cy="55" r="1" fill="#dbeafe"/>
<circle cx="555" cy="80" r="1" fill="#dbeafe"/>
<circle cx="555" cy="105" r="1" fill="#dbeafe"/>
<circle cx="555" cy="130" r="1" fill="#dbeafe"/>
<circle cx="555" cy="155" r="1" fill="#dbeafe"/>
<circle cx="555" cy="180" r="1" fill="#dbeafe"/>
<circle cx="555" cy="205" r="1" fill="#dbeafe"/>
<circle cx="555" cy="230" r="1" fill="#dbeafe"/>
<circle cx="555" cy="255" r="1" fill="#dbeafe"/>
<circle cx="555" cy="280" r="1" fill="#dbeafe"/>
<circle cx="555" cy="305" r="1" fill="#dbeafe"/>
<circle cx="555" cy="330" r="1" fill="#dbeafe"/>
<circle cx="555" cy="355" r="1" fill="#dbeafe"/>
<circle cx="555" cy="380" r="1" fill="#dbeafe"/>
<circle cx="580" cy="30" r="1" fill="#dbeafe"/>
<circle cx="580" cy="55" r="1" fill="#dbeafe"/>
<circle cx="580" cy="80" r="1" fill="#dbeafe"/>
<circle cx="580" cy="105" r="1" fill="#dbeafe"/>
<circle cx="580" cy="130" r="1" fill="#dbeafe"/>
<circle cx="580" cy="155" r="1" fill="#dbeafe"/>
<circle cx="580" cy="180" r="1" fill="#dbeafe"/>
<circle cx="580" cy="205" r="1" fill="#dbeafe"/>
<circle cx="580" cy="230" r="1" fill="#dbeafe"/>
<circle cx="580" cy="255" r="1" fill="#dbeafe"/>
<circle cx="580" cy="280" r="1" fill="#dbeafe"/>
<circle cx="580" cy="305" r="1" fill="#dbeafe"/>
<circle cx="580" cy="330" r="1" fill="#dbeafe"/>
<circle cx="580" cy="355" r="1" fill="#dbeafe"/>
<circle cx="580" cy="380" r="1" fill="#dbeafe"/>
<circle cx="605" cy="30" r="1" fill="#dbeafe"/>
<circle cx="605" cy="55" r="1" fill="#dbeafe"/>
<circle cx="605" cy="80" r="1" fill="#dbeafe"/>
<circle cx="605" cy="105" r="1" fill="#dbeafe"/>
<circle cx="605" cy="130" r="1" fill="#dbeafe"/>
<circle cx="605" cy="155" r="1" fill="#dbeafe"/>
<circle cx="605" cy="180" r="1" fill="#dbeafe"/>
<circle cx="605" cy="205" r="1" fill="#dbeafe"/>
<circle cx="605" cy="230" r="1" fill="#dbeafe"/>
<circle cx="605" cy="255" r="1" fill="#dbeafe"/>
<circle cx="605" cy="280" r="1" fill="#dbeafe"/>
<circle cx="605" cy="305" r="1" fill="#dbeafe"/>
<circle cx="605" cy="330" r="1" fill="#dbeafe"/>
<circle cx="605" cy="355" r="1" fill="#dbeafe"/>
<circle cx="605" cy="380" r="1" fill="#dbeafe"/>
<circle cx="630" cy="30" r="1" fill="#dbeafe"/>
<circle cx="630" cy="55" r="1" fill="#dbeafe"/>
<circle cx="630" cy="80" r="1" fill="#dbeafe"/>
<circle cx="630" cy="105" r="1" fill="#dbeafe"/>
<circle cx="630" cy="130" r="1" fill="#dbeafe"/>
<circle cx="630" cy="155" r="1" fill="#dbeafe"/>
<circle cx="630" cy="180" r="1" fill="#dbeafe"/>
<circle cx="630" cy="205" r="1" fill="#dbeafe"/>
<circle cx="630" cy="230" r="1" fill="#dbeafe"/>
<circle cx="630" cy="255" r="1" fill="#dbeafe"/>
<circle cx="630" cy="280" r="1" fill="#dbeafe"/>
<circle cx="630" cy="305" r="1" fill="#dbeafe"/>
<circle cx="630" cy="330" r="1" fill="#dbeafe"/>
<circle cx="630" cy="355" r="1" fill="#dbeafe"/>
<circle cx="630" cy="380" r="1" fill="#dbeafe"/>
<circle cx="655" cy="30" r="1" fill="#dbeafe"/>
<circle cx="655" cy="55" r="1" fill="#dbeafe"/>
<circle cx="655" cy="80" r="1" fill="#dbeafe"/>
<circle cx="655" cy="105" r="1" fill="#dbeafe"/>
<circle cx="655" cy="130" r="1" fill="#dbeafe"/>
<circle cx="655" cy="155" r="1" fill="#dbeafe"/>
<circle cx="655" cy="180" r="1" fill="#dbeafe"/>
<circle cx="655" cy="205" r="1" fill="#dbeafe"/>
<circle cx="655" cy="230" r="1" fill="#dbeafe"/>
<circle cx="655" cy="255" r="1" fill="#dbeafe"/>
<circle cx="655" cy="280" r="1" fill="#dbeafe"/>
<circle cx="655" cy="305" r="1" fill="#dbeafe"/>
<circle cx="655" cy="330" r="1" fill="#dbeafe"/>
<circle cx="655" cy="355" r="1" fill="#dbeafe"/>
<circle cx="655" cy="380" r="1" fill="#dbeafe"/>
<circle cx="680" cy="30" r="1" fill="#dbeafe"/>
<circle cx="680" cy="55" r="1" fill="#dbeafe"/>
<circle cx="680" cy="80" r="1" fill="#dbeafe"/>
<circle cx="680" cy="105" r="1" fill="#dbeafe"/>
<circle cx="680" cy="130" r="1" fill="#dbeafe"/>
<circle cx="680" cy="155" r="1" fill="#dbeafe"/>
<circle cx="680" cy="180" r="1" fill="#dbeafe"/>
<circle cx="680" cy="205" r="1" fill="#dbeafe"/>
<circle cx="680" cy="230" r="1" fill="#dbeafe"/>
<circle cx="680" cy="255" r="1" fill="#dbeafe"/>
<circle cx="680" cy="280" r="1" fill="#dbeafe"/>
<circle cx="680" cy="305" r="1" fill="#dbeafe"/>
<circle cx="680" cy="330" r="1" fill="#dbeafe"/>
<circle cx="680" cy="355" r="1" fill="#dbeafe"/>
<circle cx="680" cy="380" r="1" fill="#dbeafe"/>
<circle cx="705" cy="30" r="1" fill="#dbeafe"/>
<circle cx="705" cy="55" r="1" fill="#dbeafe"/>
<circle cx="705" cy="80" r="1" fill="#dbeafe"/>
<circle cx="705" cy="105" r="1" fill="#dbeafe"/>
<circle cx="705" cy="130" r="1" fill="#dbeafe"/>
<circle cx="705" cy="155" r="1" fill="#dbeafe"/>
<circle cx="705" cy="180" r="1" fill="#dbeafe"/>
<circle cx="705" cy="205" r="1" fill="#dbeafe"/>
<circle cx="705" cy="230" r="1" fill="#dbeafe"/>
<circle cx="705" cy="255" r="1" fill="#dbeafe"/>
<circle cx="705" cy="280" r="1" fill="#dbeafe"/>
<circle cx="705" cy="305" r="1" fill="#dbeafe"/>
<circle cx="705" cy="330" r="1" fill="#dbeafe"/>
<circle cx="705" cy="355" r="1" fill="#dbeafe"/>
<circle cx="705" cy="380" r="1" fill="#dbeafe"/>
<circle cx="730" cy="30" r="1" fill="#dbeafe"/>
<circle cx="730" cy="55" r="1" fill="#dbeafe"/>
<circle cx="730" cy="80" r="1" fill="#dbeafe"/>
<circle cx="730" cy="105" r="1" fill="#dbeafe"/>
<circle cx="730" cy="130" r="1" fill="#dbeafe"/>
<circle cx="730" cy="155" r="1" fill="#dbeafe"/>
<circle cx="730" cy="180" r="1" fill="#dbeafe"/>
<circle cx="730" cy="205" r="1" fill="#dbeafe"/>
<circle cx="730" cy="230" r="1" fill="#dbeafe"/>
<circle cx="730" cy="255" r="1" fill="#dbeafe"/>
<circle cx="730" cy="280" r="1" fill="#dbeafe"/>
<circle cx="730" cy="305" r="1" fill="#dbeafe"/>
<circle cx="730" cy="330" r="1" fill="#dbeafe"/>
<circle cx="730" cy="355" r="1" fill="#dbeafe"/>
<circle cx="730" cy="380" r="1" fill="#dbeafe"/>
<circle cx="755" cy="30" r="1" fill="#dbeafe"/>
<circle cx="755" cy="55" r="1" fill="#dbeafe"/>
<circle cx="755" cy="80" r="1" fill="#dbeafe"/>
<circle cx="755" cy="105" r="1" fill="#dbeafe"/>
<circle cx="755" cy="130" r="1" fill="#dbeafe"/>
<circle cx="755" cy="155" r="1" fill="#dbeafe"/>
<circle cx="755" cy="180" r="1" fill="#dbeafe"/>
<circle cx="755" cy="205" r="1" fill="#dbeafe"/>
<circle cx="755" cy="230" r="1" fill="#dbeafe"/>
<circle cx="755" cy="255" r="1" fill="#dbeafe"/>
<circle cx="755" cy="280" r="1" fill="#dbeafe"/>
<circle cx="755" cy="305" r="1" fill="#dbeafe"/>
<circle cx="755" cy="330" r="1" fill="#dbeafe"/>
<circle cx="755" cy="355" r="1" fill="#dbeafe"/>
<circle cx="755" cy="380" r="1" fill="#dbeafe"/>
<circle cx="780" cy="30" r="1" fill="#dbeafe"/>
<circle cx="780" cy="55" r="1" fill="#dbeafe"/>
<circle cx="780" cy="80" r="1" fill="#dbeafe"/>
<circle cx="780" cy="105" r="1" fill="#dbeafe"/>
<circle cx="780" cy="130" r="1" fill="#dbeafe"/>
<circle cx="780" cy="155" r="1" fill="#dbeafe"/>
<circle cx="780" cy="180" r="1" fill="#dbeafe"/>
<circle cx="780" cy="205" r="1" fill="#dbeafe"/>
<circle cx="780" cy="230" r="1" fill="#dbeafe"/>
<circle cx="780" cy="255" r="1" fill="#dbeafe"/>
<circle cx="780" cy="280" r="1" fill="#dbeafe"/>
<circle cx="780" cy="305" r="1" fill="#dbeafe"/>
<circle cx="780" cy="330" r="1" fill="#dbeafe"/>
<circle cx="780" cy="355" r="1" fill="#dbeafe"/>
<circle cx="780" cy="380" r="1" fill="#dbeafe"/>
<line x1="230" y1="100" x2="305" y2="100" stroke="#93c5fd" stroke-width="3"/>
<polygon points="301,93 309,100 301,107" fill="#2563eb"/>
<line x1="495" y1="100" x2="570" y2="100" stroke="#93c5fd" stroke-width="3"/>
<polygon points="566,93 574,100 566,107" fill="#2563eb"/>
<line x1="400" y1="145" x2="400" y2="250" stroke="#93c5fd" stroke-width="3"/>
<polygon points="393,246 407,246 400,254" fill="#2563eb"/>
<path d="M 305 295 L 135 295 L 135 145" stroke="#93c5fd" stroke-width="2.5" fill="none" stroke-dasharray="8 5"/>
<polygon points="128,149 142,149 135,141" fill="#2563eb"/>
<rect x="40" y="55" width="190" height="90" rx="14" fill="#eff6ff" stroke="#2563eb" stroke-width="2"/>
<text x="135" y="104.9" font-family="'Inter',sans-serif" font-weight="700" font-size="14" fill="#1e3a5f" text-anchor="middle">Layer 2</text>
<rect x="305" y="55" width="190" height="90" rx="14" fill="#2563eb" stroke="#2563eb" stroke-width="2"/>
<text x="400" y="104.9" font-family="'Inter',sans-serif" font-weight="700" font-size="14" fill="#fff" text-anchor="middle">Tokenization</text>
<rect x="570" y="55" width="190" height="90" rx="14" fill="#eff6ff" stroke="#2563eb" stroke-width="2"/>
<text x="665" y="96.7275" font-family="'Inter',sans-serif" font-weight="700" font-size="11.9" fill="#1e3a5f" text-anchor="middle">Account</text>
<text x="665" y="111.6025" font-family="'Inter',sans-serif" font-weight="700" font-size="11.9" fill="#1e3a5f" text-anchor="middle">Abstraction</text>
<rect x="305" y="250" width="190" height="90" rx="14" fill="#1e3a5f" stroke="#2563eb" stroke-width="2"/>
<text x="400" y="299.9" font-family="'Inter',sans-serif" font-weight="700" font-size="14" fill="#fff" text-anchor="middle">Wallet</text>

</svg>