<?xml version="1.0" encoding="utf-8"?>
<svg xmlns="http://www.w3.org/2000/svg" viewBox="0 0 800 420" width="800" height="420" style="background-color:#ffffff">
  <defs>
    <pattern id="grid" width="30" height="30" patternUnits="userSpaceOnUse">
      <circle cx="2" cy="2" r="1.5" fill="#52525b" opacity="0.15"/>
    </pattern>
    <marker id="arrow" markerWidth="10" markerHeight="10" refX="8" refY="5" orient="auto">
      <path d="M 0 0 L 10 5 L 0 10 z" fill="#9333ea"/>
    </marker>
  </defs>
  <rect width="800" height="420" fill="#ffffff"/>
  <rect width="800" height="420" fill="url(#grid)"/>
  
  <g transform="translate(0, 80)">
    <rect x="310" y="65" width="180" height="50" rx="25" fill="#ffffff" stroke="#e5e7eb" stroke-width="2"/>
<rect x="310" y="65" width="180" height="50" rx="25" fill="rgba(147,51,234,0.06)"/>
<text x="400" y="95.6" font-family="'Inter',sans-serif" font-weight="700" font-size="16" fill="#9333ea" text-anchor="middle">Softmax</text>
<path d="M 400 115 L 160 150" fill="none" stroke="#e5e7eb" stroke-width="2" stroke-dasharray="4 4"/>
<rect x="60" y="150" width="200" height="80" rx="8" fill="#ffffff" stroke="#e5e7eb" stroke-width="2"/>
<rect x="60" y="150" width="200" height="80" rx="8" fill="rgba(147,51,234,0.06)"/>
<text x="160" y="186.1" font-family="'Inter',sans-serif" font-weight="500" font-size="12" fill="#52525b" text-anchor="middle">Softmax is a mathematical</text>
<text x="160" y="202.3" font-family="'Inter',sans-serif" font-weight="500" font-size="12" fill="#52525b" text-anchor="middle">function</text>
<path d="M 400 115 L 640 150" fill="none" stroke="#e5e7eb" stroke-width="2" stroke-dasharray="4 4"/>
<rect x="540" y="150" width="200" height="80" rx="8" fill="#ffffff" stroke="#e5e7eb" stroke-width="2"/>
<rect x="540" y="150" width="200" height="80" rx="8" fill="rgba(147,51,234,0.06)"/>
<text x="640" y="178" font-family="'Inter',sans-serif" font-weight="500" font-size="12" fill="#52525b" text-anchor="middle">That transforms a vector of</text>
<text x="640" y="194.2" font-family="'Inter',sans-serif" font-weight="500" font-size="12" fill="#52525b" text-anchor="middle">arbitrary real numbers into</text>
<text x="640" y="210.4" font-family="'Inter',sans-serif" font-weight="500" font-size="12" fill="#52525b" text-anchor="middle">a probability distribution</text>
<path d="M 400 115 L 400 180" fill="none" stroke="#e5e7eb" stroke-width="2" stroke-dasharray="4 4"/>
<rect x="300" y="180" width="200" height="80" rx="8" fill="#ffffff" stroke="#e5e7eb" stroke-width="2"/>
<rect x="300" y="180" width="200" height="80" rx="8" fill="rgba(147,51,234,0.06)"/>
<text x="400" y="216.1" font-family="'Inter',sans-serif" font-weight="500" font-size="12" fill="#52525b" text-anchor="middle">Where all values are</text>
<text x="400" y="232.3" font-family="'Inter',sans-serif" font-weight="500" font-size="12" fill="#52525b" text-anchor="middle">positive and sum</text>
<path d="M 400 115 L 520 220" fill="none" stroke="#e5e7eb" stroke-width="2" stroke-dasharray="4 4"/>
<rect x="420" y="220" width="200" height="80" rx="8" fill="#ffffff" stroke="#e5e7eb" stroke-width="2"/>
<rect x="420" y="220" width="200" height="80" rx="8" fill="rgba(147,51,234,0.06)"/>
<text x="520" y="248" font-family="'Inter',sans-serif" font-weight="500" font-size="12" fill="#52525b" text-anchor="middle">To exactly 1 . For each</text>
<text x="520" y="264.2" font-family="'Inter',sans-serif" font-weight="500" font-size="12" fill="#52525b" text-anchor="middle">input value, softmax</text>
<text x="520" y="280.40000000000003" font-family="'Inter',sans-serif" font-weight="500" font-size="12" fill="#52525b" text-anchor="middle">computes the exponential of</text>

  </g>
  
  <rect x="0" y="380" width="800" height="40" fill="#ffffff" opacity="0.9"/>
  <text x="770" y="405" font-family="'Inter',sans-serif" font-weight="600" font-size="11" fill="#52525b" text-anchor="end">veda.ng</text>
</svg>