<?xml version="1.0" encoding="utf-8"?>
<svg xmlns="http://www.w3.org/2000/svg" viewBox="0 0 800 420" width="800" height="420" style="background-color:#09090b">
  <defs>
    <pattern id="grid" width="30" height="30" patternUnits="userSpaceOnUse">
      <circle cx="2" cy="2" r="1.5" fill="#a1a1aa" opacity="0.15"/>
    </pattern>
    <marker id="arrow" markerWidth="10" markerHeight="10" refX="8" refY="5" orient="auto">
      <path d="M 0 0 L 10 5 L 0 10 z" fill="#a855f7"/>
    </marker>
  </defs>
  <rect width="800" height="420" fill="#09090b"/>
  <rect width="800" height="420" fill="url(#grid)"/>
  
  <text x="400" y="45" font-family="'Inter',sans-serif" font-weight="800" font-size="28" fill="#fafafa" text-anchor="middle" letter-spacing="-0.5">Softmax</text>
  <text x="400" y="70" font-family="'Inter',sans-serif" font-weight="600" font-size="11" fill="#a855f7" text-anchor="middle" letter-spacing="2" text-transform="uppercase">Deconstructed: AI Concept</text>
  <line x1="200" y1="85" x2="600" y2="85" stroke="#27272a" stroke-width="1.5" opacity="0.5"/>
  
  <g transform="translate(0, 100)">
    <rect x="310" y="105" width="180" height="50" rx="25" fill="#09090b" stroke="#27272a" stroke-width="2"/>
<rect x="310" y="105" width="180" height="50" rx="25" fill="rgba(168,85,247,0.1)"/>
<text x="400" y="135.6" font-family="'Inter',sans-serif" font-weight="700" font-size="16" fill="#a855f7" text-anchor="middle">Softmax</text>
<path d="M 400 130 L 170 130" fill="none" stroke="#27272a" stroke-width="2" stroke-dasharray="4 4"/>
<rect x="75" y="90" width="190" height="80" rx="8" fill="#09090b" stroke="#27272a" stroke-width="2"/>
<rect x="75" y="90" width="190" height="80" rx="8" fill="rgba(168,85,247,0.1)"/>
<text x="170" y="126.10000000000001" font-family="'Inter',sans-serif" font-weight="500" font-size="12" fill="#a1a1aa" text-anchor="middle">Softmax is a mathematical</text>
<text x="170" y="142.3" font-family="'Inter',sans-serif" font-weight="500" font-size="12" fill="#a1a1aa" text-anchor="middle">function</text>
<path d="M 400 130 L 630 130" fill="none" stroke="#27272a" stroke-width="2" stroke-dasharray="4 4"/>
<rect x="535" y="90" width="190" height="80" rx="8" fill="#09090b" stroke="#27272a" stroke-width="2"/>
<rect x="535" y="90" width="190" height="80" rx="8" fill="rgba(168,85,247,0.1)"/>
<text x="630" y="109.89999999999999" font-family="'Inter',sans-serif" font-weight="500" font-size="12" fill="#a1a1aa" text-anchor="middle">That transforms a vector</text>
<text x="630" y="126.1" font-family="'Inter',sans-serif" font-weight="500" font-size="12" fill="#a1a1aa" text-anchor="middle">of arbitrary real numbers</text>
<text x="630" y="142.29999999999998" font-family="'Inter',sans-serif" font-weight="500" font-size="12" fill="#a1a1aa" text-anchor="middle">into a probability</text>
<text x="630" y="158.5" font-family="'Inter',sans-serif" font-weight="500" font-size="12" fill="#a1a1aa" text-anchor="middle">distribution</text>
<path d="M 400 130 L 400 240" fill="none" stroke="#27272a" stroke-width="2" stroke-dasharray="4 4"/>
<rect x="305" y="200" width="190" height="80" rx="8" fill="#09090b" stroke="#27272a" stroke-width="2"/>
<rect x="305" y="200" width="190" height="80" rx="8" fill="rgba(168,85,247,0.1)"/>
<text x="400" y="236.1" font-family="'Inter',sans-serif" font-weight="500" font-size="12" fill="#a1a1aa" text-anchor="middle">Where all values are</text>
<text x="400" y="252.3" font-family="'Inter',sans-serif" font-weight="500" font-size="12" fill="#a1a1aa" text-anchor="middle">positive and sum</text>
<path d="M 400 130 L 400 30" fill="none" stroke="#27272a" stroke-width="2" stroke-dasharray="4 4"/>
<rect x="305" y="-10" width="190" height="80" rx="8" fill="#09090b" stroke="#27272a" stroke-width="2"/>
<rect x="305" y="-10" width="190" height="80" rx="8" fill="rgba(168,85,247,0.1)"/>
<text x="400" y="9.899999999999995" font-family="'Inter',sans-serif" font-weight="500" font-size="12" fill="#a1a1aa" text-anchor="middle">To exactly 1 . For each</text>
<text x="400" y="26.099999999999998" font-family="'Inter',sans-serif" font-weight="500" font-size="12" fill="#a1a1aa" text-anchor="middle">input value, softmax</text>
<text x="400" y="42.3" font-family="'Inter',sans-serif" font-weight="500" font-size="12" fill="#a1a1aa" text-anchor="middle">computes the exponential</text>
<text x="400" y="58.5" font-family="'Inter',sans-serif" font-weight="500" font-size="12" fill="#a1a1aa" text-anchor="middle">of</text>

  </g>
  
  <rect x="0" y="380" width="800" height="40" fill="#09090b" opacity="0.9"/>
  <text x="770" y="405" font-family="'Inter',sans-serif" font-weight="600" font-size="11" fill="#a1a1aa" text-anchor="end">veda.ng</text>
</svg>