<?xml version="1.0" encoding="utf-8"?>
<svg xmlns="http://www.w3.org/2000/svg" viewBox="0 0 800 400" width="800" height="400" style="background-color:#ffffff">
<defs><marker id="arrow" markerWidth="6" markerHeight="6" refX="5" refY="3" orient="auto"><path d="M 0 0 L 6 3 L 0 6 z" fill="#2563eb"/></marker></defs>
<rect width="800" height="400" fill="#ffffff"/>
<g transform="translate(0,-72)"><circle cx="400" cy="180" r="55" fill="#2563eb" fill-opacity="0.06" stroke="#2563eb" stroke-width="3"/><path d="M 380 140 L 380 125 C 380 105, 420 105, 420 125 L 420 140" fill="none" stroke="#2563eb" stroke-width="3"/><circle cx="400" cy="175" r="8" fill="#2563eb"/><text x="400" y="210" font-family="'Inter',sans-serif" font-weight="800" font-size="22" fill="#2563eb" text-anchor="middle">SBT</text><path d="M 350 205 L 310 230 M 450 205 L 490 230" fill="none" stroke="#ef4444" stroke-width="2"/><text x="310" y="250" font-family="'Inter',sans-serif" font-weight="600" font-size="14" fill="#ef4444" text-anchor="middle">✗ Transfer</text><text x="490" y="250" font-family="'Inter',sans-serif" font-weight="600" font-size="14" fill="#ef4444" text-anchor="middle">✗ Sell</text><rect x="200" y="280" width="120" height="35" rx="8" fill="#ffffff" stroke="#e5e7eb" stroke-width="2"/><text x="260" y="304.5" font-family="'Inter',sans-serif" font-weight="600" font-size="13" fill="#37352f" text-anchor="middle">Diploma</text><rect x="340" y="280" width="120" height="35" rx="8" fill="#ffffff" stroke="#e5e7eb" stroke-width="2"/><text x="400" y="304.5" font-family="'Inter',sans-serif" font-weight="600" font-size="13" fill="#37352f" text-anchor="middle">Certificate</text><rect x="480" y="280" width="120" height="35" rx="8" fill="#ffffff" stroke="#e5e7eb" stroke-width="2"/><text x="540" y="304.5" font-family="'Inter',sans-serif" font-weight="600" font-size="13" fill="#37352f" text-anchor="middle">Membership</text><text x="400" y="345" font-family="'Inter',sans-serif" font-weight="600" font-size="20" fill="#37352f" text-anchor="middle">Non-transferable identity token</text></g>
<rect x="0" y="360" width="800" height="40" fill="#ffffff" opacity="0.9"/>
<text x="770" y="385" font-family="'Inter',sans-serif" font-weight="500" font-size="12" fill="#787774" text-anchor="end">@vedangvatsa</text>
</svg>