<?xml version="1.0" encoding="utf-8"?>
<svg xmlns="http://www.w3.org/2000/svg" viewBox="0 0 800 400" width="800" height="400">
  <defs>
    <radialGradient id="glow" cx="50%" cy="50%" r="50%">
      <stop offset="0%" stop-color="rgba(37,99,235,0.06)"/>
      <stop offset="100%" stop-color="#ffffff" stop-opacity="0"/>
    </radialGradient>
    <pattern id="grid" width="40" height="40" patternUnits="userSpaceOnUse">
      <circle cx="2" cy="2" r="1.5" fill="#e5e7eb" opacity="0.8"/>
    </pattern>
  </defs>
  <rect width="800" height="400" fill="#ffffff"/>
  <rect width="800" height="400" fill="url(#grid)"/>
  <rect x="0" y="0" width="800" height="400" fill="url(#glow)"/>
  
  <!-- Visual Architecture -->
  <g transform="translate(0, -20)">
    <polygon points="434.6410161513775,160 434.6410161513775,200 400,220 365.3589838486225,200 365.3589838486225,160 400,140" fill="#2563eb" opacity="0.2" stroke="#2563eb" stroke-width="2"/>
<polygon points="364.6410161513775,118 364.6410161513775,158 330,178 295.3589838486225,158 295.3589838486225,118 330,98" fill="none" opacity="1" stroke="#2563eb" stroke-width="2"/>
<polygon points="504.6410161513775,118 504.6410161513775,158 470,178 435.3589838486225,158 435.3589838486225,118 470,98" fill="none" opacity="1" stroke="#2563eb" stroke-width="2"/>
<polygon points="364.6410161513775,202 364.6410161513775,242 330,262 295.3589838486225,242 295.3589838486225,202 330,182" fill="none" opacity="1" stroke="#2563eb" stroke-width="2"/>
<polygon points="504.6410161513775,202 504.6410161513775,242 470,262 435.3589838486225,242 435.3589838486225,202 470,182" fill="none" opacity="1" stroke="#2563eb" stroke-width="2"/>
<polygon points="294.6410161513775,160 294.6410161513775,200 260,220 225.35898384862244,200 225.35898384862247,160 260,140" fill="none" opacity="1" stroke="#2563eb" stroke-width="2"/>
<polygon points="574.6410161513776,160 574.6410161513776,200 540,220 505.3589838486225,200 505.3589838486225,160 540,140" fill="none" opacity="1" stroke="#2563eb" stroke-width="2"/>

  </g>

  <!-- Typography Card Section at Bottom -->
  <rect x="0" y="300" width="800" height="100" fill="#ffffff" opacity="0.95"/>
  <line x1="0" y1="300" x2="800" y2="300" stroke="#e5e7eb" stroke-opacity="1" stroke-width="1.5"/>
  
  <text x="400" y="335" font-family="'Inter',sans-serif" font-weight="600" font-size="12" fill="#2563eb" text-anchor="middle" letter-spacing="2" text-transform="uppercase">Web3 GLOSSARY</text>
  <text x="400" y="370" font-family="'Inter',sans-serif" font-weight="700" font-size="28" fill="#09090b" text-anchor="middle" letter-spacing="-0.5">Soulbound Token (SBT)</text>
</svg>