<?xml version="1.0" encoding="utf-8"?>
<svg xmlns="http://www.w3.org/2000/svg" viewBox="0 0 800 400" width="800" height="400" style="background-color:#ffffff">
<defs><marker id="arrow" markerWidth="6" markerHeight="6" refX="5" refY="3" orient="auto"><path d="M 0 0 L 6 3 L 0 6 z" fill="#9333ea"/></marker></defs>
<rect width="800" height="400" fill="#ffffff"/>
<g transform="translate(0,-7)"><text x="400" y="100" font-family="'Inter',sans-serif" font-weight="600" font-size="20" fill="#787774" text-anchor="middle">Activate few experts per input</text><rect x="115" y="145" width="120" height="60" rx="10" fill="#fff" stroke="#9333ea" stroke-width="3"/><text x="175" y="182" font-family="'Inter',sans-serif" font-weight="700" font-size="16" fill="#9333ea" text-anchor="middle">Input</text><line x1="238" y1="175" x2="262" y2="175" stroke="#9333ea" stroke-width="1.5" marker-end="url(#arrow)"/><rect x="265" y="145" width="120" height="60" rx="10" fill="#fff" stroke="#e5e7eb" stroke-width="2"/><text x="325" y="182" font-family="'Inter',sans-serif" font-weight="600" font-size="16" fill="#37352f" text-anchor="middle">Router</text><line x1="388" y1="175" x2="412" y2="175" stroke="#9333ea" stroke-width="1.5" marker-end="url(#arrow)"/><rect x="415" y="145" width="120" height="60" rx="10" fill="#fff" stroke="#e5e7eb" stroke-width="2"/><text x="475" y="182" font-family="'Inter',sans-serif" font-weight="600" font-size="16" fill="#37352f" text-anchor="middle">2 of 8</text><line x1="538" y1="175" x2="562" y2="175" stroke="#9333ea" stroke-width="1.5" marker-end="url(#arrow)"/><rect x="565" y="145" width="120" height="60" rx="10" fill="#fff" stroke="#9333ea" stroke-width="3"/><text x="625" y="182" font-family="'Inter',sans-serif" font-weight="700" font-size="16" fill="#10b981" text-anchor="middle">Output</text><text x="400" y="290" font-family="'Inter',sans-serif" font-weight="600" font-size="18" fill="#37352f" text-anchor="middle">Only selected experts process each token</text></g>
<rect x="0" y="360" width="800" height="40" fill="#ffffff" opacity="0.9"/>
<text x="770" y="385" font-family="'Inter',sans-serif" font-weight="500" font-size="12" fill="#787774" text-anchor="end">@vedangvatsa</text>
</svg>