<?xml version="1.0" encoding="utf-8"?>
<svg xmlns="http://www.w3.org/2000/svg" viewBox="0 0 800 400" width="800" height="400" style="background-color:#ffffff">
  <defs>
    <pattern id="grid" width="30" height="30" patternUnits="userSpaceOnUse">
      <circle cx="2" cy="2" r="1.5" fill="#52525b" opacity="0.15"/>
    </pattern>
    <marker id="arrow" markerWidth="12" markerHeight="12" refX="10" refY="6" orient="auto">
      <path d="M 0 0 L 12 6 L 0 12 z" fill="#059669"/>
    </marker>
  </defs>
  <rect width="800" height="400" fill="#ffffff"/>
  <rect width="800" height="400" fill="url(#grid)"/>
  
  <g>
    <rect x="80" y="35" width="280" height="90" rx="20" fill="#ffffff" stroke="#e5e7eb" stroke-width="2"/>
<rect x="80" y="35" width="280" height="90" rx="20" fill="rgba(5,150,105,0.06)"/>
<text x="220" y="75.45" font-family="'Inter',sans-serif" font-weight="500" font-size="14" fill="#52525b" text-anchor="middle">Spatial computing is a</text>
<text x="220" y="94.35000000000001" font-family="'Inter',sans-serif" font-weight="500" font-size="14" fill="#52525b" text-anchor="middle">collection of technologies</text>
<line x1="360" y1="80" x2="430" y2="80" stroke="#059669" stroke-width="3" marker-end="url(#arrow)"/>
<rect x="440" y="35" width="280" height="90" rx="20" fill="#ffffff" stroke="#e5e7eb" stroke-width="2"/>
<rect x="440" y="35" width="280" height="90" rx="20" fill="rgba(5,150,105,0.06)"/>
<text x="580" y="66" font-family="'Inter',sans-serif" font-weight="500" font-size="14" fill="#52525b" text-anchor="middle">That let digital information</text>
<text x="580" y="84.9" font-family="'Inter',sans-serif" font-weight="500" font-size="14" fill="#52525b" text-anchor="middle">exist and interact within</text>
<text x="580" y="103.80000000000001" font-family="'Inter',sans-serif" font-weight="500" font-size="14" fill="#52525b" text-anchor="middle">three-dimensional physica...</text>
<line x1="580" y1="125" x2="580" y2="225" stroke="#059669" stroke-width="3" marker-end="url(#arrow)"/>
<rect x="440" y="235" width="280" height="90" rx="20" fill="#ffffff" stroke="#e5e7eb" stroke-width="2"/>
<rect x="440" y="235" width="280" height="90" rx="20" fill="rgba(5,150,105,0.06)"/>
<text x="580" y="266" font-family="'Inter',sans-serif" font-weight="500" font-size="14" fill="#52525b" text-anchor="middle">It blends sensors, computer</text>
<text x="580" y="284.9" font-family="'Inter',sans-serif" font-weight="500" font-size="14" fill="#52525b" text-anchor="middle">vision, graphics, and</text>
<text x="580" y="303.8" font-family="'Inter',sans-serif" font-weight="500" font-size="14" fill="#52525b" text-anchor="middle">real-time processing</text>
<line x1="440" y1="280" x2="370" y2="280" stroke="#059669" stroke-width="3" marker-end="url(#arrow)"/>
<rect x="80" y="235" width="280" height="90" rx="20" fill="#ffffff" stroke="#e5e7eb" stroke-width="2"/>
<rect x="80" y="235" width="280" height="90" rx="20" fill="rgba(5,150,105,0.06)"/>
<text x="220" y="266" font-family="'Inter',sans-serif" font-weight="500" font-size="14" fill="#52525b" text-anchor="middle">To map the geometry of an</text>
<text x="220" y="284.9" font-family="'Inter',sans-serif" font-weight="500" font-size="14" fill="#52525b" text-anchor="middle">environment and overlay data</text>
<text x="220" y="303.8" font-family="'Inter',sans-serif" font-weight="500" font-size="14" fill="#52525b" text-anchor="middle">onto</text>
<line x1="220" y1="235" x2="220" y2="135" stroke="#059669" stroke-width="3" marker-end="url(#arrow)"/>

  </g>
  
  <rect x="0" y="360" width="800" height="40" fill="#ffffff" opacity="0.9"/>
  <text x="770" y="385" font-family="'Inter',sans-serif" font-weight="600" font-size="12" fill="#52525b" text-anchor="end">@vedangvatsa</text>
</svg>