<?xml version="1.0" encoding="utf-8"?>
<svg xmlns="http://www.w3.org/2000/svg" viewBox="0 0 800 400" width="800" height="400" style="background-color:#ffffff">
  <defs>
    <pattern id="grid" width="30" height="30" patternUnits="userSpaceOnUse">
      <circle cx="2" cy="2" r="1.5" fill="#52525b" opacity="0.15"/>
    </pattern>
    <marker id="arrow" markerWidth="12" markerHeight="12" refX="10" refY="6" orient="auto">
      <path d="M 0 0 L 12 6 L 0 12 z" fill="#059669"/>
    </marker>
  </defs>
  <rect width="800" height="400" fill="#ffffff"/>
  <rect width="800" height="400" fill="url(#grid)"/>
  
  <g>
    <path d="M 400 135 L 180 155" fill="none" stroke="#e5e7eb" stroke-width="3" stroke-dasharray="6 6"/>
<rect x="65" y="155" width="230" height="90" rx="10" fill="#ffffff" stroke="#e5e7eb" stroke-width="2"/>
<rect x="65" y="155" width="230" height="90" rx="10" fill="rgba(5,150,105,0.06)"/>
<text x="180" y="186" font-family="'Inter',sans-serif" font-weight="500" font-size="14" fill="#52525b" text-anchor="middle">SSL (Secure Sockets</text>
<text x="180" y="204.9" font-family="'Inter',sans-serif" font-weight="500" font-size="14" fill="#52525b" text-anchor="middle">Layer) and TLS</text>
<text x="180" y="223.8" font-family="'Inter',sans-serif" font-weight="500" font-size="14" fill="#52525b" text-anchor="middle">(Transport Layer...</text>
<path d="M 400 135 L 620 155" fill="none" stroke="#e5e7eb" stroke-width="3" stroke-dasharray="6 6"/>
<rect x="505" y="155" width="230" height="90" rx="10" fill="#ffffff" stroke="#e5e7eb" stroke-width="2"/>
<rect x="505" y="155" width="230" height="90" rx="10" fill="rgba(5,150,105,0.06)"/>
<text x="620" y="186" font-family="'Inter',sans-serif" font-weight="500" font-size="14" fill="#52525b" text-anchor="middle">That encrypt data sent</text>
<text x="620" y="204.9" font-family="'Inter',sans-serif" font-weight="500" font-size="14" fill="#52525b" text-anchor="middle">between a web browser</text>
<text x="620" y="223.8" font-family="'Inter',sans-serif" font-weight="500" font-size="14" fill="#52525b" text-anchor="middle">and a server,...</text>
<path d="M 400 135 L 280 265" fill="none" stroke="#e5e7eb" stroke-width="3" stroke-dasharray="6 6"/>
<rect x="165" y="265" width="230" height="90" rx="10" fill="#ffffff" stroke="#e5e7eb" stroke-width="2"/>
<rect x="165" y="265" width="230" height="90" rx="10" fill="rgba(5,150,105,0.06)"/>
<text x="280" y="296" font-family="'Inter',sans-serif" font-weight="500" font-size="14" fill="#52525b" text-anchor="middle">When you see the</text>
<text x="280" y="314.9" font-family="'Inter',sans-serif" font-weight="500" font-size="14" fill="#52525b" text-anchor="middle">padlock icon or</text>
<text x="280" y="333.8" font-family="'Inter',sans-serif" font-weight="500" font-size="14" fill="#52525b" text-anchor="middle">"https" in your...</text>
<path d="M 400 135 L 520 265" fill="none" stroke="#e5e7eb" stroke-width="3" stroke-dasharray="6 6"/>
<rect x="405" y="265" width="230" height="90" rx="10" fill="#ffffff" stroke="#e5e7eb" stroke-width="2"/>
<rect x="405" y="265" width="230" height="90" rx="10" fill="rgba(5,150,105,0.06)"/>
<text x="520" y="296" font-family="'Inter',sans-serif" font-weight="500" font-size="14" fill="#52525b" text-anchor="middle">SSL was the original</text>
<text x="520" y="314.9" font-family="'Inter',sans-serif" font-weight="500" font-size="14" fill="#52525b" text-anchor="middle">protocol, but it had</text>
<text x="520" y="333.8" font-family="'Inter',sans-serif" font-weight="500" font-size="14" fill="#52525b" text-anchor="middle">security flaws and ...</text>
<rect x="300" y="65" width="200" height="70" rx="35" fill="#ffffff" stroke="#e5e7eb" stroke-width="2"/>
<rect x="300" y="65" width="200" height="70" rx="35" fill="rgba(5,150,105,0.06)"/>
<text x="400" y="107" font-family="'Inter',sans-serif" font-weight="700" font-size="20" fill="#059669" text-anchor="middle">SSL/TLS</text>

  </g>
  
  <rect x="0" y="360" width="800" height="40" fill="#ffffff" opacity="0.9"/>
  <text x="770" y="385" font-family="'Inter',sans-serif" font-weight="600" font-size="12" fill="#52525b" text-anchor="end">@vedangvatsa</text>
</svg>