<?xml version="1.0" encoding="utf-8"?>
<svg xmlns="http://www.w3.org/2000/svg" viewBox="0 0 800 400" width="800" height="400" style="background-color:#ffffff">
<defs><marker id="arrow" markerWidth="6" markerHeight="6" refX="5" refY="3" orient="auto"><path d="M 0 0 L 6 3 L 0 6 z" fill="#059669"/></marker></defs>
<rect width="800" height="400" fill="#ffffff"/>
<g transform="translate(0,-17)"><rect x="60" y="140" width="160" height="60" rx="8" fill="#fff" stroke="#059669" stroke-width="2"/><text x="140" y="176" font-family="'Inter',sans-serif" font-weight="600" font-size="16" fill="#059669" text-anchor="middle">Browser</text><rect x="260" y="130" width="280" height="80" rx="12" fill="#059669" fill-opacity="0.05" stroke="#059669" stroke-width="2" stroke-dasharray="6 6"/><text x="400" y="160" font-family="'Inter',sans-serif" font-weight="700" font-size="16" fill="#059669" text-anchor="middle">Encrypted Tunnel</text><path d="M 380 175 L 380 165 C 380 150, 420 150, 420 165 L 420 175" fill="none" stroke="#059669" stroke-width="2"/><circle cx="400" cy="185" r="6" fill="#059669"/><rect x="580" y="140" width="160" height="60" rx="8" fill="#fff" stroke="#e5e7eb" stroke-width="2"/><text x="660" y="176" font-family="'Inter',sans-serif" font-weight="600" font-size="16" fill="#37352f" text-anchor="middle">Server</text><line x1="225" y1="170" x2="255" y2="170" stroke="#059669" stroke-width="2" marker-end="url(#arrow)"/><line x1="545" y1="170" x2="575" y2="170" stroke="#059669" stroke-width="2" marker-end="url(#arrow)"/><text x="400" y="280" font-family="'Inter',sans-serif" font-weight="600" font-size="18" fill="#37352f" text-anchor="middle">HTTPS = HTTP + TLS encryption</text></g>
<rect x="0" y="360" width="800" height="40" fill="#ffffff" opacity="0.9"/>
<text x="770" y="385" font-family="'Inter',sans-serif" font-weight="500" font-size="12" fill="#787774" text-anchor="end">@vedangvatsa</text>
</svg>