<?xml version="1.0" encoding="utf-8"?>
<svg xmlns="http://www.w3.org/2000/svg" viewBox="0 0 800 400" width="800" height="400" style="background-color:#ffffff">
  <defs>
    <marker id="arrow" markerWidth="6" markerHeight="6" refX="5" refY="3" orient="auto">
      <path d="M 0 0 L 6 3 L 0 6 z" fill="#2563eb"/>
    </marker>
    <marker id="arrowGray" markerWidth="6" markerHeight="6" refX="5" refY="3" orient="auto">
      <path d="M 0 0 L 6 3 L 0 6 z" fill="#787774"/>
    </marker>
  </defs>
  <rect width="800" height="400" fill="#ffffff"/>
  <g transform="translate(0,-57)"><line x1="100" y1="200" x2="700" y2="200" stroke="#10b981" stroke-width="3"/><text x="400" y="190" font-family="'Inter',sans-serif" font-weight="800" font-size="36" fill="#10b981" text-anchor="middle">$1.00</text><path d="M 100 140 Q 200 100 300 160 Q 400 200 500 120 Q 600 80 700 150" fill="none" stroke="#ef4444" stroke-width="2" stroke-dasharray="6 6"/><text x="720" y="150" font-family="'Inter',sans-serif" font-weight="600" font-size="14" fill="#ef4444" text-anchor="start">BTC</text><rect x="100" y="260" width="140" height="45" rx="8" fill="#ffffff" stroke="#2563eb" stroke-width="2"/><text x="170" y="289.5" font-family="'Inter',sans-serif" font-weight="600" font-size="16" fill="#37352f" text-anchor="middle">Fiat-Backed</text><rect x="280" y="260" width="140" height="45" rx="8" fill="#ffffff" stroke="#2563eb" stroke-width="2"/><text x="350" y="289.5" font-family="'Inter',sans-serif" font-weight="600" font-size="15" fill="#37352f" text-anchor="middle">Crypto-Backed</text><rect x="460" y="260" width="140" height="45" rx="8" fill="#ffffff" stroke="#2563eb" stroke-width="2"/><text x="530" y="289.5" font-family="'Inter',sans-serif" font-weight="600" font-size="16" fill="#37352f" text-anchor="middle">Algorithmic</text><text x="400" y="340" font-family="'Inter',sans-serif" font-weight="600" font-size="20" fill="#37352f" text-anchor="middle">Pegged to stable value ($1)</text></g>
  <rect x="0" y="360" width="800" height="40" fill="#ffffff" opacity="0.9"/>
  <text x="770" y="385" font-family="'Inter',sans-serif" font-weight="500" font-size="12" fill="#787774" text-anchor="end">@vedangvatsa</text>
</svg>