<?xml version="1.0" encoding="utf-8"?>
<svg xmlns="http://www.w3.org/2000/svg" viewBox="0 0 800 400" width="800" height="400">
<rect width="800" height="400" fill="#fff"/>
<circle cx="400" cy="200" r="195" fill="none" stroke="#dbeafe" stroke-width="1"/>
<circle cx="400" cy="200" r="140" fill="none" stroke="#dbeafe" stroke-width="1" stroke-dasharray="6 4"/>
<line x1="400" y1="200" x2="400" y2="60" stroke="#93c5fd" stroke-width="1.5"/>
<circle cx="400" cy="60" r="34" fill="#eff6ff" stroke="#2563eb" stroke-width="2"/>
<text x="400" y="64" font-family="'Inter',sans-serif" font-weight="600" font-size="8" fill="#1e3a5f" text-anchor="middle">Attack Expl…</text>
<line x1="400" y1="200" x2="521.2435565298214" y2="130" stroke="#93c5fd" stroke-width="1.5"/>
<circle cx="521.2435565298214" cy="130" r="34" fill="#eff6ff" stroke="#2563eb" stroke-width="2"/>
<text x="521.2435565298214" y="134" font-family="'Inter',sans-serif" font-weight="600" font-size="8" fill="#1e3a5f" text-anchor="middle">Exploits Sy…</text>
<line x1="400" y1="200" x2="521.2435565298214" y2="270" stroke="#93c5fd" stroke-width="1.5"/>
<circle cx="521.2435565298214" cy="270" r="34" fill="#eff6ff" stroke="#2563eb" stroke-width="2"/>
<text x="521.2435565298214" y="274" font-family="'Inter',sans-serif" font-weight="600" font-size="8" fill="#1e3a5f" text-anchor="middle">Grant Power</text>
<line x1="400" y1="200" x2="400" y2="340" stroke="#93c5fd" stroke-width="1.5"/>
<circle cx="400" cy="340" r="34" fill="#eff6ff" stroke="#2563eb" stroke-width="2"/>
<text x="400" y="344" font-family="'Inter',sans-serif" font-weight="600" font-size="8" fill="#1e3a5f" text-anchor="middle">Identity Co…</text>
<line x1="400" y1="200" x2="278.75644347017857" y2="270" stroke="#93c5fd" stroke-width="1.5"/>
<circle cx="278.75644347017857" cy="270" r="34" fill="#eff6ff" stroke="#2563eb" stroke-width="2"/>
<text x="278.75644347017857" y="274" font-family="'Inter',sans-serif" font-weight="600" font-size="8" fill="#1e3a5f" text-anchor="middle">Single Adve…</text>
<line x1="400" y1="200" x2="278.7564434701786" y2="130" stroke="#93c5fd" stroke-width="1.5"/>
<circle cx="278.7564434701786" cy="130" r="34" fill="#eff6ff" stroke="#2563eb" stroke-width="2"/>
<text x="278.7564434701786" y="134" font-family="'Inter',sans-serif" font-weight="600" font-size="8" fill="#1e3a5f" text-anchor="middle">Adversary C…</text>
<circle cx="400" cy="200" r="55" fill="#2563eb"/>
<text x="400" y="205" font-family="'Inter',sans-serif" font-weight="800" font-size="9" fill="#fff" text-anchor="middle">Sybil Attack</text>

</svg>