<?xml version="1.0" encoding="utf-8"?>
<svg xmlns="http://www.w3.org/2000/svg" viewBox="0 0 800 400" width="800" height="400" style="background-color:#ffffff">
  <defs>
    <marker id="arrow" markerWidth="6" markerHeight="6" refX="5" refY="3" orient="auto"><path d="M 0 0 L 6 3 L 0 6 z" fill="#9333ea"/></marker>
    <marker id="arrowGray" markerWidth="6" markerHeight="6" refX="5" refY="3" orient="auto"><path d="M 0 0 L 6 3 L 0 6 z" fill="#787774"/></marker>
  </defs>
  <rect width="800" height="400" fill="#ffffff"/>
  <g transform="translate(0,-7)"><rect x="80" y="120" width="120" height="80" rx="8" fill="#ffffff" stroke="#e5e7eb" stroke-width="2"/><text x="140" y="155" font-family="'Inter',sans-serif" font-weight="700" font-size="16" fill="#37352f" text-anchor="middle">Real Data</text><text x="140" y="180" font-family="'Inter',sans-serif" font-weight="500" font-size="13" fill="#787774" text-anchor="middle">(Limited)</text><line x1="205" y1="160" x2="280" y2="160" stroke="#9333ea" stroke-width="2" marker-end="url(#arrow)"/><rect x="290" y="110" width="160" height="100" rx="12" fill="#ffffff" stroke="#9333ea" stroke-width="3"/><text x="370" y="155" font-family="'Inter',sans-serif" font-weight="700" font-size="18" fill="#9333ea" text-anchor="middle">AI Generator</text><text x="370" y="185" font-family="'Inter',sans-serif" font-weight="500" font-size="13" fill="#787774" text-anchor="middle">Creates more data</text><line x1="455" y1="160" x2="530" y2="160" stroke="#9333ea" stroke-width="2" marker-end="url(#arrow)"/><rect x="540" y="100" width="180" height="120" rx="8" fill="#ffffff" stroke="#10b981" stroke-width="3"/><text x="630" y="150" font-family="'Inter',sans-serif" font-weight="700" font-size="18" fill="#10b981" text-anchor="middle">Synthetic Data</text><text x="630" y="180" font-family="'Inter',sans-serif" font-weight="500" font-size="13" fill="#787774" text-anchor="middle">(Abundant)</text><text x="630" y="205" font-family="'Inter',sans-serif" font-weight="500" font-size="13" fill="#10b981" text-anchor="middle">Privacy-safe</text><text x="400" y="290" font-family="'Inter',sans-serif" font-weight="600" font-size="20" fill="#37352f" text-anchor="middle">Artificial data that mimics real patterns</text></g>
  <rect x="0" y="360" width="800" height="40" fill="#ffffff" opacity="0.9"/>
  <text x="770" y="385" font-family="'Inter',sans-serif" font-weight="500" font-size="12" fill="#787774" text-anchor="end">@vedangvatsa</text>
</svg>