<?xml version="1.0" encoding="utf-8"?>
<svg xmlns="http://www.w3.org/2000/svg" viewBox="0 0 800 400" width="800" height="400" style="background-color:#ffffff">
  <defs>
    <marker id="arrow" markerWidth="6" markerHeight="6" refX="5" refY="3" orient="auto"><path d="M 0 0 L 6 3 L 0 6 z" fill="#9333ea"/></marker>
    <marker id="arrowGray" markerWidth="6" markerHeight="6" refX="5" refY="3" orient="auto"><path d="M 0 0 L 6 3 L 0 6 z" fill="#787774"/></marker>
  </defs>
  <rect width="800" height="400" fill="#ffffff"/>
  <g transform="translate(0,-37)"><rect x="80" y="110" width="640" height="50" rx="8" fill="#ffffff" stroke="#e5e7eb" stroke-width="2"/><text x="400" y="142" font-family="'Inter',sans-serif" font-weight="600" font-size="18" fill="#37352f" text-anchor="middle">"Unbelievable performance"</text><line x1="400" y1="165" x2="400" y2="190" stroke="#9333ea" stroke-width="2" marker-end="url(#arrow)"/><rect x="120" y="200" width="100" height="45" rx="6" fill="#9333ea" fill-opacity="0.08" stroke="#9333ea" stroke-width="2"/><text x="170" y="228" font-family="'Inter',sans-serif" font-weight="700" font-size="18" fill="#9333ea" text-anchor="middle">Un</text><rect x="240" y="200" width="130" height="45" rx="6" fill="#9333ea" fill-opacity="0.08" stroke="#9333ea" stroke-width="2"/><text x="305" y="228" font-family="'Inter',sans-serif" font-weight="700" font-size="18" fill="#9333ea" text-anchor="middle">believ</text><rect x="390" y="200" width="80" height="45" rx="6" fill="#9333ea" fill-opacity="0.08" stroke="#9333ea" stroke-width="2"/><text x="430" y="228" font-family="'Inter',sans-serif" font-weight="700" font-size="18" fill="#9333ea" text-anchor="middle">able</text><rect x="490" y="200" width="200" height="45" rx="6" fill="#9333ea" fill-opacity="0.08" stroke="#9333ea" stroke-width="2"/><text x="590" y="228" font-family="'Inter',sans-serif" font-weight="700" font-size="18" fill="#9333ea" text-anchor="middle">performance</text><text x="170" y="275" font-family="'Inter',sans-serif" font-weight="600" font-size="14" fill="#787774" text-anchor="middle">4139</text><text x="305" y="275" font-family="'Inter',sans-serif" font-weight="600" font-size="14" fill="#787774" text-anchor="middle">8271</text><text x="430" y="275" font-family="'Inter',sans-serif" font-weight="600" font-size="14" fill="#787774" text-anchor="middle">481</text><text x="590" y="275" font-family="'Inter',sans-serif" font-weight="600" font-size="14" fill="#787774" text-anchor="middle">5765</text><text x="400" y="340" font-family="'Inter',sans-serif" font-weight="600" font-size="20" fill="#37352f" text-anchor="middle">Split text into subword tokens + IDs</text></g>
  <rect x="0" y="360" width="800" height="40" fill="#ffffff" opacity="0.9"/>
  <text x="770" y="385" font-family="'Inter',sans-serif" font-weight="500" font-size="12" fill="#787774" text-anchor="end">@vedangvatsa</text>
</svg>