<?xml version="1.0" encoding="utf-8"?>
<svg xmlns="http://www.w3.org/2000/svg" viewBox="0 0 800 400" width="800" height="400" style="background-color:#ffffff">
  <defs>
    <marker id="arrow" markerWidth="6" markerHeight="6" refX="5" refY="3" orient="auto">
      <path d="M 0 0 L 6 3 L 0 6 z" fill="#2563eb"/>
    </marker>
  </defs>
  <rect width="800" height="400" fill="#ffffff"/>
  <g><text x="400" y="70" font-family="'Inter',sans-serif" font-weight="700" font-size="32" fill="#37352f" text-anchor="middle">Tokenomics</text><circle cx="400" cy="200" r="50" fill="#ffffff" stroke="#2563eb" stroke-width="3"/><circle cx="400" cy="200" r="40" fill="none" stroke="#2563eb" stroke-width="2" stroke-dasharray="4 4"/><text x="400" y="212" font-family="'Inter',sans-serif" font-weight="700" font-size="34" fill="#2563eb" text-anchor="middle">$</text><rect x="330" y="80" width="140" height="50" rx="8" fill="#ffffff" stroke="#e5e7eb" stroke-width="2"/><text x="400" y="112" font-family="'Inter',sans-serif" font-weight="600" font-size="20" fill="#37352f" text-anchor="middle">Mint Supply</text><path d="M 400 135 L 400 145" fill="none" stroke="#10b981" stroke-width="2" marker-end="url(#arrow)"/><rect x="160" y="250" width="140" height="50" rx="8" fill="#ffffff" stroke="#e5e7eb" stroke-width="2"/><text x="230" y="282" font-family="'Inter',sans-serif" font-weight="600" font-size="20" fill="#37352f" text-anchor="middle">Utility</text><path d="M 355 225 L 315 250" fill="none" stroke="#2563eb" stroke-width="2" marker-end="url(#arrow)"/><rect x="500" y="250" width="140" height="50" rx="8" fill="#ffffff" stroke="#e5e7eb" stroke-width="2"/><text x="570" y="282" font-family="'Inter',sans-serif" font-weight="600" font-size="20" fill="#37352f" text-anchor="middle">Burn Sinks</text><path d="M 515 250 L 445 225" fill="none" stroke="#ef4444" stroke-width="2" marker-end="url(#arrow)"/><path d="M 320 105 C 150 105, 150 250, 150 275" fill="none" stroke="#e5e7eb" stroke-width="2" stroke-dasharray="6 6"/><path d="M 320 275 C 400 320, 500 320, 500 275" fill="none" stroke="#e5e7eb" stroke-width="2" stroke-dasharray="6 6" /><path d="M 640 250 C 650 105, 480 105, 480 105" fill="none" stroke="#e5e7eb" stroke-width="2" stroke-dasharray="6 6" /></g>
  <rect x="0" y="360" width="800" height="40" fill="#ffffff" opacity="0.9"/>
  <text x="770" y="385" font-family="'Inter',sans-serif" font-weight="500" font-size="12" fill="#787774" text-anchor="end">@vedangvatsa</text>
</svg>