<?xml version="1.0" encoding="utf-8"?>
<svg xmlns="http://www.w3.org/2000/svg" viewBox="0 0 800 400" width="800" height="400" style="background-color:#ffffff">
  <defs>
    <marker id="arrow" markerWidth="6" markerHeight="6" refX="5" refY="3" orient="auto">
      <path d="M 0 0 L 6 3 L 0 6 z" fill="#2563eb"/>
    </marker>
  </defs>
  <rect width="800" height="400" fill="#ffffff"/>
  <g transform="translate(0,-7)"><circle cx="400" cy="170" r="55" fill="#ffffff" stroke="#2563eb" stroke-width="3"/><circle cx="400" cy="170" r="45" fill="none" stroke="#2563eb" stroke-width="2" stroke-dasharray="4 4"/><text x="400" y="182" font-family="'Inter',sans-serif" font-weight="700" font-size="36" fill="#2563eb" text-anchor="middle">$</text><rect x="330" y="50" width="140" height="50" rx="8" fill="#ffffff" stroke="#e5e7eb" stroke-width="2"/><text x="400" y="82" font-family="'Inter',sans-serif" font-weight="600" font-size="20" fill="#37352f" text-anchor="middle">Mint Supply</text><path d="M 400 105 L 400 112" fill="none" stroke="#10b981" stroke-width="2" marker-end="url(#arrow)"/><rect x="140" y="230" width="140" height="50" rx="8" fill="#ffffff" stroke="#e5e7eb" stroke-width="2"/><text x="210" y="262" font-family="'Inter',sans-serif" font-weight="600" font-size="20" fill="#37352f" text-anchor="middle">Utility</text><path d="M 350 200 L 300 230" fill="none" stroke="#2563eb" stroke-width="2" marker-end="url(#arrow)"/><rect x="520" y="230" width="140" height="50" rx="8" fill="#ffffff" stroke="#e5e7eb" stroke-width="2"/><text x="590" y="262" font-family="'Inter',sans-serif" font-weight="600" font-size="20" fill="#37352f" text-anchor="middle">Burn Sinks</text><path d="M 450 200 L 510 230" fill="none" stroke="#ef4444" stroke-width="2" marker-end="url(#arrow)"/><path d="M 325 75 C 130 75, 130 255, 130 255" fill="none" stroke="#e5e7eb" stroke-width="2" stroke-dasharray="6 6"/><path d="M 660 255 C 670 75, 475 75, 475 75" fill="none" stroke="#e5e7eb" stroke-width="2" stroke-dasharray="6 6"/><text x="400" y="340" font-family="'Inter',sans-serif" font-weight="600" font-size="18" fill="#37352f" text-anchor="middle">Supply, demand, and value flow</text></g>
  <rect x="0" y="360" width="800" height="40" fill="#ffffff" opacity="0.9"/>
  <text x="770" y="385" font-family="'Inter',sans-serif" font-weight="500" font-size="12" fill="#787774" text-anchor="end">@vedangvatsa</text>
</svg>