<?xml version="1.0" encoding="utf-8"?>
<svg xmlns="http://www.w3.org/2000/svg" viewBox="0 0 800 400" width="800" height="400" style="background-color:#ffffff">
  <defs>
    <marker id="arrow" markerWidth="6" markerHeight="6" refX="5" refY="3" orient="auto">
      <path d="M 0 0 L 6 3 L 0 6 z" fill="#2563eb"/>
    </marker>
  </defs>
  <rect width="800" height="400" fill="#ffffff"/>
  <g><text x="400" y="60" font-family="'Inter',sans-serif" font-weight="700" font-size="28" fill="#37352f" text-anchor="middle">Tokenomics</text><circle cx="400" cy="200" r="40" fill="#ffffff" stroke="#2563eb" stroke-width="2"/><circle cx="400" cy="200" r="30" fill="none" stroke="#2563eb" stroke-width="1.5" stroke-dasharray="2 2"/><text x="400" y="208" font-family="'Inter',sans-serif" font-weight="700" font-size="24" fill="#2563eb" text-anchor="middle">$</text><rect x="330" y="90" width="140" height="40" rx="6" fill="#ffffff" stroke="#e5e7eb" stroke-width="1.5"/><text x="400" y="115" font-family="'Inter',sans-serif" font-weight="500" font-size="14" fill="#37352f" text-anchor="middle">Issuance / Supply</text><path d="M 400 135 L 400 155" fill="none" stroke="#10b981" stroke-width="1.5" marker-end="url(#arrow)"/><rect x="180" y="250" width="140" height="40" rx="6" fill="#ffffff" stroke="#e5e7eb" stroke-width="1.5"/><text x="250" y="275" font-family="'Inter',sans-serif" font-weight="500" font-size="14" fill="#37352f" text-anchor="middle">Utility / Demand</text><path d="M 365 220 L 320 245" fill="none" stroke="#2563eb" stroke-width="1.5" marker-end="url(#arrow)"/><rect x="480" y="250" width="140" height="40" rx="6" fill="#ffffff" stroke="#e5e7eb" stroke-width="1.5"/><text x="550" y="275" font-family="'Inter',sans-serif" font-weight="500" font-size="14" fill="#37352f" text-anchor="middle">Sinks / Burns</text><path d="M 520 245 L 435 220" fill="none" stroke="#ef4444" stroke-width="1.5" marker-end="url(#arrow)"/><path d="M 330 110 C 200 110, 200 240, 230 240" fill="none" stroke="#e5e7eb" stroke-width="1.5" stroke-dasharray="4 4" marker-end="url(#arrow)"/><path d="M 300 270 C 400 300, 500 300, 520 290" fill="none" stroke="#e5e7eb" stroke-width="1.5" stroke-dasharray="4 4" marker-end="url(#arrow)"/><path d="M 600 250 C 650 110, 500 110, 470 110" fill="none" stroke="#e5e7eb" stroke-width="1.5" stroke-dasharray="4 4" marker-end="url(#arrow)"/></g>
  <rect x="0" y="360" width="800" height="40" fill="#ffffff" opacity="0.9"/>
  <text x="770" y="385" font-family="'Inter',sans-serif" font-weight="500" font-size="12" fill="#787774" text-anchor="end">@vedangvatsa</text>
</svg>