<?xml version="1.0" encoding="utf-8"?>
<svg xmlns="http://www.w3.org/2000/svg" viewBox="0 0 800 400" width="800" height="400" style="background-color:#ffffff">
<defs><marker id="arrow" markerWidth="6" markerHeight="6" refX="5" refY="3" orient="auto"><path d="M 0 0 L 6 3 L 0 6 z" fill="#9333ea"/></marker></defs>
<rect width="800" height="400" fill="#ffffff"/>
<g transform="translate(0,-22)"><rect x="200" y="85" width="400" height="45" rx="6" fill="#ffffff" stroke="#e5e7eb" stroke-width="2"/><text x="400" y="115" font-family="'Inter',sans-serif" font-weight="600" font-size="16" fill="#37352f" text-anchor="middle">Input Embedding + Position</text><line x1="400" y1="135" x2="400" y2="150" stroke="#9333ea" stroke-width="2" marker-end="url(#arrow)"/><rect x="200" y="155" width="400" height="45" rx="6" fill="#9333ea" fill-opacity="0.1" stroke="#9333ea" stroke-width="2"/><text x="400" y="185" font-family="'Inter',sans-serif" font-weight="700" font-size="16" fill="#9333ea" text-anchor="middle">Multi-Head Attention</text><line x1="400" y1="205" x2="400" y2="220" stroke="#9333ea" stroke-width="2" marker-end="url(#arrow)"/><rect x="200" y="225" width="400" height="45" rx="6" fill="#ffffff" stroke="#e5e7eb" stroke-width="2"/><text x="400" y="255" font-family="'Inter',sans-serif" font-weight="600" font-size="16" fill="#37352f" text-anchor="middle">Feed Forward Network</text><line x1="400" y1="275" x2="400" y2="290" stroke="#9333ea" stroke-width="2" marker-end="url(#arrow)"/><rect x="200" y="295" width="400" height="40" rx="6" fill="#10b981" fill-opacity="0.1" stroke="#10b981" stroke-width="2"/><text x="400" y="322" font-family="'Inter',sans-serif" font-weight="600" font-size="16" fill="#10b981" text-anchor="middle">Output Probabilities</text><text x="640" y="195" font-family="'Inter',sans-serif" font-weight="800" font-size="22" fill="#9333ea" text-anchor="middle">× N</text><rect x="185" y="145" width="430" height="135" rx="10" fill="none" stroke="#9333ea" stroke-width="1" stroke-dasharray="4 4"/></g>
<rect x="0" y="360" width="800" height="40" fill="#ffffff" opacity="0.9"/>
<text x="770" y="385" font-family="'Inter',sans-serif" font-weight="500" font-size="12" fill="#787774" text-anchor="end">@vedangvatsa</text>
</svg>