<?xml version="1.0" encoding="utf-8"?>
<svg xmlns="http://www.w3.org/2000/svg" viewBox="0 0 800 400" width="800" height="400" style="background-color:#ffffff">
  <defs>
    <marker id="arrow" markerWidth="6" markerHeight="6" refX="5" refY="3" orient="auto">
      <path d="M 0 0 L 6 3 L 0 6 z" fill="#9333ea"/>
    </marker>
  </defs>
  <rect width="800" height="400" fill="#ffffff"/>
  <g><text x="400" y="60" font-family="'Inter',sans-serif" font-weight="700" font-size="28" fill="#37352f" text-anchor="middle">Transformer Architecture</text><rect x="50" y="140" width="80" height="30" rx="4" fill="#ffffff" stroke="#e5e7eb" stroke-width="1.5"/><text x="90" y="160" font-family="'Inter',sans-serif" font-weight="400" font-size="14" fill="#787774" text-anchor="middle">"The"</text><rect x="50" y="180" width="80" height="30" rx="4" fill="#ffffff" stroke="#e5e7eb" stroke-width="1.5"/><text x="90" y="200" font-family="'Inter',sans-serif" font-weight="400" font-size="14" fill="#787774" text-anchor="middle">"quick"</text><rect x="50" y="220" width="80" height="30" rx="4" fill="#ffffff" stroke="#e5e7eb" stroke-width="1.5"/><text x="90" y="240" font-family="'Inter',sans-serif" font-weight="400" font-size="14" fill="#787774" text-anchor="middle">"brown..."</text><text x="90" y="285" font-family="'Inter',sans-serif" font-weight="500" font-size="14" fill="#37352f" text-anchor="middle">Indexed Tokens</text><rect x="250" y="100" width="300" height="190" rx="8" fill="#ffffff" stroke="#9333ea" stroke-width="1.5"/><text x="400" y="130" font-family="'Inter',sans-serif" font-weight="700" font-size="16" fill="#37352f" text-anchor="middle">Self-Attention Matrix</text><text x="400" y="148" font-family="'Inter',sans-serif" font-weight="400" font-size="12" fill="#787774" text-anchor="middle">Parallel Contextual Processing</text><line x1="280" y1="170" x2="520" y2="170" stroke="#9333ea" stroke-width="1" stroke-opacity="0.3"/><line x1="280" y1="170" x2="520" y2="210" stroke="#9333ea" stroke-width="1" stroke-opacity="0.3"/><line x1="280" y1="170" x2="520" y2="250" stroke="#9333ea" stroke-width="1" stroke-opacity="0.3"/><line x1="280" y1="210" x2="520" y2="170" stroke="#9333ea" stroke-width="1" stroke-opacity="0.3"/><line x1="280" y1="210" x2="520" y2="210" stroke="#9333ea" stroke-width="1" stroke-opacity="0.3"/><line x1="280" y1="210" x2="520" y2="250" stroke="#9333ea" stroke-width="1" stroke-opacity="0.3"/><line x1="280" y1="250" x2="520" y2="170" stroke="#9333ea" stroke-width="1" stroke-opacity="0.3"/><line x1="280" y1="250" x2="520" y2="210" stroke="#9333ea" stroke-width="1" stroke-opacity="0.3"/><line x1="280" y1="250" x2="520" y2="250" stroke="#9333ea" stroke-width="1" stroke-opacity="0.3"/><circle cx="280" cy="170" r="4" fill="#9333ea"/><circle cx="280" cy="210" r="4" fill="#9333ea"/><circle cx="280" cy="250" r="4" fill="#9333ea"/><circle cx="520" cy="170" r="4" fill="#9333ea"/><circle cx="520" cy="210" r="4" fill="#9333ea"/><circle cx="520" cy="250" r="4" fill="#9333ea"/><line x1="135" y1="155" x2="270" y2="170" stroke="#e5e7eb" stroke-width="1.5"/><line x1="135" y1="195" x2="270" y2="210" stroke="#e5e7eb" stroke-width="1.5"/><line x1="135" y1="235" x2="270" y2="250" stroke="#e5e7eb" stroke-width="1.5"/><line x1="530" y1="170" x2="640" y2="195" stroke="#e5e7eb" stroke-width="1.5" marker-end="url(#arrow)"/><line x1="530" y1="210" x2="640" y2="195" stroke="#e5e7eb" stroke-width="1.5" marker-end="url(#arrow)"/><line x1="530" y1="250" x2="640" y2="195" stroke="#e5e7eb" stroke-width="1.5" marker-end="url(#arrow)"/><rect x="650" y="165" width="100" height="60" rx="6" fill="#ffffff" stroke="#9333ea" stroke-width="1.5"/><text x="700" y="195" font-family="'Inter',sans-serif" font-weight="500" font-size="14" fill="#37352f" text-anchor="middle">Contextual</text><text x="700" y="215" font-family="'Inter',sans-serif" font-weight="500" font-size="14" fill="#37352f" text-anchor="middle">Prediction</text></g>
  <rect x="0" y="360" width="800" height="40" fill="#ffffff" opacity="0.9"/>
  <text x="770" y="385" font-family="'Inter',sans-serif" font-weight="500" font-size="12" fill="#787774" text-anchor="end">@vedangvatsa</text>
</svg>