<?xml version="1.0" encoding="utf-8"?>
<svg xmlns="http://www.w3.org/2000/svg" viewBox="0 0 800 400" width="800" height="400" style="background-color:#ffffff">
  <defs>
    <marker id="arrow" markerWidth="6" markerHeight="6" refX="5" refY="3" orient="auto">
      <path d="M 0 0 L 6 3 L 0 6 z" fill="#9333ea"/>
    </marker>
  </defs>
  <rect width="800" height="400" fill="#ffffff"/>
  <g><text x="400" y="70" font-family="'Inter',sans-serif" font-weight="700" font-size="32" fill="#37352f" text-anchor="middle">Transformer</text><rect x="50" y="140" width="90" height="40" rx="6" fill="#ffffff" stroke="#e5e7eb" stroke-width="2"/><text x="95" y="166" font-family="'Inter',sans-serif" font-weight="600" font-size="18" fill="#787774" text-anchor="middle">Token 1</text><rect x="50" y="190" width="90" height="40" rx="6" fill="#ffffff" stroke="#e5e7eb" stroke-width="2"/><text x="95" y="216" font-family="'Inter',sans-serif" font-weight="600" font-size="18" fill="#787774" text-anchor="middle">Token 2</text><rect x="50" y="240" width="90" height="40" rx="6" fill="#ffffff" stroke="#e5e7eb" stroke-width="2"/><text x="95" y="266" font-family="'Inter',sans-serif" font-weight="600" font-size="18" fill="#787774" text-anchor="middle">Token 3</text><rect x="250" y="100" width="300" height="200" rx="12" fill="#ffffff" stroke="#9333ea" stroke-width="2" stroke-dasharray="6 6"/><text x="400" y="135" font-family="'Inter',sans-serif" font-weight="700" font-size="22" fill="#37352f" text-anchor="middle">Self-Attention Matrix</text><line x1="280" y1="175" x2="520" y2="175" stroke="#9333ea" stroke-width="1.5" stroke-opacity="0.3"/><line x1="280" y1="175" x2="520" y2="215" stroke="#9333ea" stroke-width="1.5" stroke-opacity="0.3"/><line x1="280" y1="175" x2="520" y2="255" stroke="#9333ea" stroke-width="1.5" stroke-opacity="0.3"/><line x1="280" y1="215" x2="520" y2="175" stroke="#9333ea" stroke-width="1.5" stroke-opacity="0.3"/><line x1="280" y1="215" x2="520" y2="215" stroke="#9333ea" stroke-width="1.5" stroke-opacity="0.3"/><line x1="280" y1="215" x2="520" y2="255" stroke="#9333ea" stroke-width="1.5" stroke-opacity="0.3"/><line x1="280" y1="255" x2="520" y2="175" stroke="#9333ea" stroke-width="1.5" stroke-opacity="0.3"/><line x1="280" y1="255" x2="520" y2="215" stroke="#9333ea" stroke-width="1.5" stroke-opacity="0.3"/><line x1="280" y1="255" x2="520" y2="255" stroke="#9333ea" stroke-width="1.5" stroke-opacity="0.3"/><circle cx="280" cy="175" r="6" fill="#9333ea"/><circle cx="280" cy="215" r="6" fill="#9333ea"/><circle cx="280" cy="255" r="6" fill="#9333ea"/><circle cx="520" cy="175" r="6" fill="#9333ea"/><circle cx="520" cy="215" r="6" fill="#9333ea"/><circle cx="520" cy="255" r="6" fill="#9333ea"/><line x1="145" y1="160" x2="270" y2="175" stroke="#e5e7eb" stroke-width="2"/><line x1="145" y1="210" x2="270" y2="215" stroke="#e5e7eb" stroke-width="2"/><line x1="145" y1="260" x2="270" y2="255" stroke="#e5e7eb" stroke-width="2"/><line x1="530" y1="175" x2="640" y2="200" stroke="#e5e7eb" stroke-width="2" marker-end="url(#arrow)"/><line x1="530" y1="215" x2="640" y2="200" stroke="#e5e7eb" stroke-width="2" marker-end="url(#arrow)"/><line x1="530" y1="255" x2="640" y2="200" stroke="#e5e7eb" stroke-width="2" marker-end="url(#arrow)"/><rect x="650" y="170" width="100" height="60" rx="8" fill="#ffffff" stroke="#9333ea" stroke-width="2"/><text x="700" y="206" font-family="'Inter',sans-serif" font-weight="600" font-size="20" fill="#37352f" text-anchor="middle">Context</text></g>
  <rect x="0" y="360" width="800" height="40" fill="#ffffff" opacity="0.9"/>
  <text x="770" y="385" font-family="'Inter',sans-serif" font-weight="500" font-size="12" fill="#787774" text-anchor="end">@vedangvatsa</text>
</svg>