<?xml version="1.0" encoding="utf-8"?>
<svg xmlns="http://www.w3.org/2000/svg" viewBox="0 0 800 400" width="800" height="400" style="background-color:#ffffff">
<defs><marker id="arrow" markerWidth="6" markerHeight="6" refX="5" refY="3" orient="auto"><path d="M 0 0 L 6 3 L 0 6 z" fill="#2563eb"/></marker></defs>
<rect width="800" height="400" fill="#ffffff"/>
<g transform="translate(0,-32)"><rect x="250" y="100" width="300" height="180" rx="16" fill="#ffffff" stroke="#2563eb" stroke-width="3"/><circle cx="400" cy="170" r="35" fill="#2563eb" fill-opacity="0.1" stroke="#2563eb" stroke-width="2"/><path d="M 388 172 L 396 180 L 414 158" fill="none" stroke="#2563eb" stroke-width="3"/><text x="400" y="225" font-family="'Inter',sans-serif" font-weight="700" font-size="20" fill="#2563eb" text-anchor="middle">Validator Node</text><text x="400" y="255" font-family="'Inter',sans-serif" font-weight="500" font-size="14" fill="#787774" text-anchor="middle">Verify + Propose Blocks</text><rect x="60" y="160" width="140" height="50" rx="8" fill="#ffffff" stroke="#2563eb" stroke-width="2"/><text x="130" y="192" font-family="'Inter',sans-serif" font-weight="600" font-size="15" fill="#2563eb" text-anchor="middle">32 ETH Stake</text><line x1="205" y1="185" x2="245" y2="185" stroke="#2563eb" stroke-width="2" marker-end="url(#arrow)"/><line x1="555" y1="185" x2="610" y2="185" stroke="#10b981" stroke-width="2" marker-end="url(#arrow)"/><rect x="620" y="160" width="120" height="50" rx="8" fill="#ffffff" stroke="#10b981" stroke-width="2"/><text x="680" y="192" font-family="'Inter',sans-serif" font-weight="600" font-size="16" fill="#10b981" text-anchor="middle">Rewards</text><text x="400" y="340" font-family="'Inter',sans-serif" font-weight="600" font-size="20" fill="#37352f" text-anchor="middle">Stake-backed network security operator</text></g>
<rect x="0" y="360" width="800" height="40" fill="#ffffff" opacity="0.9"/>
<text x="770" y="385" font-family="'Inter',sans-serif" font-weight="500" font-size="12" fill="#787774" text-anchor="end">@vedangvatsa</text>
</svg>