<?xml version="1.0" encoding="utf-8"?>
<svg xmlns="http://www.w3.org/2000/svg" viewBox="0 0 800 400" width="800" height="400" style="background-color:#ffffff">
  <defs>
    <marker id="arrow" markerWidth="6" markerHeight="6" refX="5" refY="3" orient="auto">
      <path d="M 0 0 L 6 3 L 0 6 z" fill="#9333ea"/>
    </marker>
    <marker id="arrowGray" markerWidth="6" markerHeight="6" refX="5" refY="3" orient="auto">
      <path d="M 0 0 L 6 3 L 0 6 z" fill="#787774"/>
    </marker>
  </defs>
  <rect width="800" height="400" fill="#ffffff"/>
  <g transform="translate(0,-32)"><rect x="60" y="140" width="120" height="50" rx="8" fill="#ffffff" stroke="#9333ea" stroke-width="2"/><text x="120" y="172" font-family="'Inter',sans-serif" font-weight="600" font-size="14" fill="#9333ea" text-anchor="middle">[0.8, 0.3...]</text><text x="120" y="210" font-family="'Inter',sans-serif" font-weight="600" font-size="16" fill="#37352f" text-anchor="middle">Query</text><line x1="185" y1="165" x2="250" y2="165" stroke="#9333ea" stroke-width="2" marker-end="url(#arrow)"/><rect x="260" y="100" width="280" height="200" rx="12" fill="#ffffff" stroke="#e5e7eb" stroke-width="2"/><text x="400" y="130" font-family="'Inter',sans-serif" font-weight="700" font-size="22" fill="#37352f" text-anchor="middle">Vector Index</text><circle cx="310" cy="170" r="6" fill="#9333ea" fill-opacity="0.3" stroke="#9333ea" stroke-width="1.5"/><circle cx="340" cy="220" r="6" fill="#9333ea" fill-opacity="0.3" stroke="#9333ea" stroke-width="1.5"/><circle cx="370" cy="180" r="6" fill="#9333ea" fill-opacity="0.3" stroke="#9333ea" stroke-width="1.5"/><circle cx="400" cy="250" r="6" fill="#9333ea" fill-opacity="0.3" stroke="#9333ea" stroke-width="1.5"/><circle cx="430" cy="160" r="6" fill="#9333ea" fill-opacity="0.3" stroke="#9333ea" stroke-width="1.5"/><circle cx="460" cy="210" r="6" fill="#9333ea" fill-opacity="0.3" stroke="#9333ea" stroke-width="1.5"/><circle cx="490" cy="190" r="6" fill="#9333ea" fill-opacity="0.3" stroke="#9333ea" stroke-width="1.5"/><circle cx="310" cy="170" r="6" fill="#9333ea" stroke="#9333ea" stroke-width="2"/><circle cx="370" cy="180" r="6" fill="#9333ea" stroke="#9333ea" stroke-width="2"/><circle cx="310" cy="170" r="14" fill="none" stroke="#9333ea" stroke-width="1" stroke-dasharray="3 3"/><circle cx="370" cy="180" r="14" fill="none" stroke="#9333ea" stroke-width="1" stroke-dasharray="3 3"/><line x1="545" y1="200" x2="600" y2="200" stroke="#9333ea" stroke-width="2" marker-end="url(#arrow)"/><rect x="610" y="155" width="140" height="90" rx="8" fill="#ffffff" stroke="#10b981" stroke-width="2"/><text x="680" y="195" font-family="'Inter',sans-serif" font-weight="700" font-size="22" fill="#10b981" text-anchor="middle">Top K</text><text x="680" y="225" font-family="'Inter',sans-serif" font-weight="500" font-size="16" fill="#787774" text-anchor="middle">Nearest</text><text x="400" y="340" font-family="'Inter',sans-serif" font-weight="600" font-size="16" fill="#37352f" text-anchor="middle">Similarity search over embeddings</text></g>
  <rect x="0" y="360" width="800" height="40" fill="#ffffff" opacity="0.9"/>
  <text x="770" y="385" font-family="'Inter',sans-serif" font-weight="500" font-size="12" fill="#787774" text-anchor="end">@vedangvatsa</text>
</svg>